<?xml version="1.0" encoding="UTF-8"?> <svg xmlns="http://www.w3.org/2000/svg" viewBox="0 0 695 509"><defs><style> .cls-1 { fill: #b2b2b2; } .cls-1, .cls-2, .cls-3, .cls-4, .cls-5, .cls-6, .cls-7, .cls-8, .cls-9, .cls-10, .cls-11, .cls-12 { stroke-width: 0px; } .cls-2 { fill: #ffdcec; } .cls-3 { fill: #fff; opacity: .38; } .cls-4 { fill: #bc0087; opacity: .26; } .cls-5 { fill: #8c8c8c; } .cls-6 { fill: #f49ac0; } .cls-13 { fill: #bc8702; stroke-width: 2px; } .cls-13, .cls-14, .cls-15 { stroke: #000; stroke-miterlimit: 10; } .cls-14 { stroke-width: 3px; } .cls-14, .cls-15 { fill: none; } .cls-8 { opacity: .33; } .cls-15 { stroke-width: 5px; } .cls-9 { fill: #6b6b6a; } .cls-10 { fill: #424242; } .cls-11 { fill: #f9f9f9; } .cls-12 { fill: #c60076; } </style></defs><g id="_Шар_5" data-name="Шар 5"><path class="cls-13" d="M41,362l596.7-2.67s-2.7,80.67-2.2,81.17-597.06,0-597.06,0l2.56-78.5Z"></path><path class="cls-6" d="M635.5,65.5c-1.5.5-387.5,1.5-387.5,1.5-2,1-36.35,21.28-61.68,47.14-25.32,25.86-64.4,48.62-87.36,86.24s-18.62,67.45-18.62,67.45l2.63,21.36s-10.76,15.81-5.87,28.31,18.95,35.29,19.92,37.39c.97,2.11,8.97,17.11,18.97,17.11s20.7-1.29,21.85-7.64l1.15-6.36s17.84,5.28,22.92,4.64,14.06-4.28,17.57-17.96c0,0,15.21,9.53,24.36,2.42s13.68-12.68,13.68-12.68l-.73-12.98s5.92.12,9.63-3.27c.43-2.43,1.27-4.75,2.55-6.94.3-.39.61-.79.92-1.18,1.15-5.53,1.24-8.86,1.18-10.31-.07-1.74-17.88-41.02-19.48-42.38-1.6-1.36-4.24-9.75-3.42-11.06s23.93-33.65,46.38-54.48c22.45-20.83,55.97-48.24,62.21-48.53s8.96,17.7,8.96,17.7c0,0-2.3,93.73-2.51,96.37-.21,2.64-3.26,39.14-3.26,39.14l315.54-6.77s1.51-224.73,0-224.23Z"></path><path class="cls-2" d="M636.16,249.13c.16-.87-12.16-17.13-12.16-17.13,0,0-4-10-3.83-16.61.17-6.61,3.83-49.39-11.17-86.39s-62-45-79.71-43.91c-17.71,1.09-61.29-1.09-92.29,27.91s-37,93-37,98-1.87,14.86-1.87,14.86c0,0-12.11,14.52-17.42,20.84-.09,1.18-.29,2.35-.6,3.5-.71,4.91-1.83,9.6-3.11,14.48-.07.27-.17.53-.25.79,0,.24,0,.48,0,.73.1.85.18,1.71.25,2.57.18,2.46-.2,4.83-1,7.03.13.19.27.34.43.42.43.21,259.83-5.91,259.83-5.91,0,0-.25-20.29-.09-21.17Z"></path><path class="cls-4" d="M81.7,326.93c15.3,28.07,34.35,27.77,36.82,11.92s-3.52-22.85-2.52-33.85,11.39-3.97,23.19,19.02,30.27,13.88,31.54-2.57-8.63-35.51-7.68-34.98,3.97,25.64,24.96,31.59,22.83-17.05,13.91-35.05-21.05-23.64-8.99-22.32,27.06,23.32,31.06,42.32-7.2,18.45-7.2,18.45c0,0-1.86,27.81-16.33,27.18s-20.98-3.95-20.98-3.95c0,0-7.36,18.81-20.43,19.06s-14.69-5.21-14.69-5.21c0,0-15.41,14.35-24.89,13.41s-17.42-8.15-22.45-17.05-15.33-27.96-15.33-27.96Z"></path><path class="cls-4" d="M125.5,260.5c16.5-14.5,28.28-23.5,15.39-52s25.27-37.85,42.19-22.68,91.25-57.86,136.58-75.84,79.63.23,59.48,16.62-17.55,20.37-16.85,63.88.47,62,28.09,74.75,235.04,29.45,231.83-8.9-121.71-41.01-121.71-41.01c0,0,76.87-7.59,106.19-15.96s28.64-84.25,29.48-77.31-1.44,175.44-1.44,175.44l-307.91-4.39-3.83-15.53s4.68-64.93,4.35-91.75-6.33-38.82-8.33-41.32-37.11,20.71-55.56,36.1-53.83,64.43-53.83,64.43c0,0,.74,10.56-1.44,10.26s-20.16-.34-20.16-.34c0,0-19.38-6.46-34.7-.71s-6.32,11.75-20.32,9.75-17.34,1.5-17.34,1.5l9.84-5Z"></path><path class="cls-3" d="M251.96,65.09c-16.85,11.79-32.89,24.68-48.69,37.82-16.25,13.51-32.39,27.17-48.57,40.76-14.43,12.12-29.07,24.2-41.43,38.49-12.02,13.9-21.24,29.82-26.65,47.43-5.31,17.29-7.02,35.78-4.71,53.73.29,2.26.63,4.52,1.04,6.76.11.63.61,1.09,1.2,1.31-4.68,4.08-8.04,9.69-9.09,15.79-.18,1.06.28,2.15,1.4,2.46.96.26,2.28-.33,2.46-1.4,1.5-8.74,8.13-16.26,16.7-18.69,4.46-1.27,9.9-.69,12.85-5,1.39-2.03,1.65-4.51,2.25-6.83.56-2.17,1.71-3.95,3.55-5.26,4.57-3.26,10.55-2.82,15.87-2.67,3.13.09,6.25.19,9.38.27,2.53.07,5.22-.04,6.95-2.15.8-.98,1.17-2.18,1.9-3.19.61-.85,1.44-1.5,2.33-2.03,2.1-1.26,4.5-1.93,6.81-2.68,5.68-1.84,11.61-3.56,17.64-2.93,3.27.35,6.43,1.41,9.63,2.12,2.89.64,5.77.92,8.72.85,4.72-.1,10.78-1.18,14.65,2.24,1.92,1.7,4.76-1.12,2.83-2.83-3.93-3.47-9.05-3.7-14.04-3.53-2.54.09-5.09.25-7.62,0-2.89-.28-5.71-1.16-8.53-1.84-2.93-.71-5.92-1.21-8.95-1.14-3.18.07-6.35.64-9.42,1.43-2.98.76-5.93,1.71-8.84,2.71-2.37.81-4.69,1.78-6.64,3.37-.92.75-1.71,1.66-2.32,2.68-.53.89-.83,2.2-1.84,2.68-1.08.51-2.61.25-3.76.22-1.65-.05-3.29-.1-4.94-.14-6.05-.18-12.69-.97-18.45,1.32-2.29.91-4.47,2.25-6.08,4.15-1.69,1.99-2.49,4.24-3.04,6.76-.49,2.27-.92,4.63-3.24,5.7-2.16.99-4.71.97-7.01,1.44-3.39.69-6.59,2.1-9.44,4.03,0-.1-.01-.19-.03-.29-3.14-17.45-2.34-35.55,2.08-52.7,4.48-17.39,12.7-33.55,24-47.49,11.63-14.34,25.72-26.41,39.8-38.26,15.9-13.37,31.79-26.76,47.72-40.09,15.44-12.92,31.02-25.7,47.34-37.51,2.06-1.49,4.14-2.97,6.23-4.43,2.09-1.47.1-4.93-2.02-3.45Z"></path><path class="cls-9" d="M231.07,306.04c.9-.14,1.81-.28,2.71-.43,1.45-1.2,3.03-2.19,4.74-2.96-.03-.08-.05-.16-.08-.24,1.82-.94,3.54-2.04,5.16-3.28.22.15.48.26.77.32.8.17,1.63-.01,2.33-.43.63-.38,1.13-1,1.63-1.52.46-.49.91-.98,1.36-1.48.99-1.12,1.93-2.27,2.83-3.46.09.05.18.1.28.14.53.2,1.07.4,1.6.6,1.08.4,2.1-.46,2.46-1.4,2.12-5.49-1.46-11.24-3.87-16-2.66-5.26-5.44-10.46-8.8-15.31-.45-.65-1.15-.92-1.83-.9-.61-1.33-1.2-2.68-1.75-4.04-.62-1.52-1.03-3.35-1.97-4.71-.93-1.34-2.71-2.08-4.21-1.15-.23.14-.43.31-.6.49-2.17-.42-4.4-.42-6.57.01-.52-.81-1.54-1.25-2.59-.61-3.42,2.05-6.84,4.11-10.26,6.16-2.85,1.71-5.99,4.21-9.38,4.64-1.29.17-2.28,1.14-1.93,2.53.15.61.31,1.23.46,1.84-.69.02-1.38.39-1.73.99-.6,1.03-.15,2.08.72,2.74,1.22.92,2,2.32,2.69,3.7-.97-.14-2.09.44-2.29,1.44-.07.33-.14.66-.2.99-.29,1.41.8,2.37,1.91,2.49.28.38.55.77.82,1.17-.63.63-.68,1.58-.31,2.41.49,1.1,1.05,2.15,1.64,3.19,1.59,3.26,2.95,6.62,4.07,10.08.32.99,1.31,1.44,2.21,1.38.16.42.32.84.47,1.26-.2.55-.26,1.18-.12,1.89.18.94.84,1.38,1.56,1.44.52.38,1.21.44,1.82.24.14.17.31.32.52.42.49.23.97.46,1.46.69,1.06.54,2.08,1.17,3.01,1.92,1.24,1,2.24,2.47,3.77,3.03,1.73.64,3.73.01,5.49-.26Z"></path><path class="cls-9" d="M81.7,328.49c2.3,1.51,9.3,18.51,9.3,18.51,0,0-18.44,10.74-22,30s-6.15,31.38,3.43,40.19,23.88,17.06,38.73,20.94-36.74.13-37.45,0-28.51-12.38-25.61-48.26,9.57-43.96,18.73-47.92,14.87-13.46,14.87-13.46Z"></path><path class="cls-1" d="M288.26,306.38c-2.26-.38-29.24,9.84-30.75,12.73s-8.01,48.36-11.26,64.12-4.07,15.79-1.66,17.28,8.41,7.49,33.41,13.49,96.58,13.02,166.79,14.01,99.25,3.05,136.23.52,55.14-1.51,55.14-1.51c0,0,1.81-157.5-.68-159.76s-211.49-2.26-269.49,2.74-57.92,11.31-57.92,11.31c0,0,1.86,4.48-2.11,9.58s-14.27,10.89-14.27,10.89l-3.44,4.6Z"></path><path class="cls-5" d="M634.21,269.57c-3.21.43-239.21-8.27-278.21,2.08l1.7,1.54c.08-.01.39,0,.91.03-.19.93.18,2,1.33,2.37,7.51,2.43,15.14,1.68,22.8.71,1.34.64,2.97.71,4.52.52,1.03-.13,2.05-.27,3.08-.42.29.54.85.94,1.69.98,4.17.19,8.34.32,12.51.42.23.72.84,1.32,1.82,1.35,12.79.36,25.58.71,38.37,1.07.94.03,1.54-.49,1.79-1.17,20.29,1.05,43.1,2.01,67.42,2.65,87.07,2.3,121.02-1.7,121.02-1.7,0,0,2.47-10.86-.74-10.43Z"></path><path class="cls-5" d="M256.43,323.49s-12.75,72.03-11.84,77.02,35.91,16.3,115.41,23.65,207.52,6.41,231.51,4.38,43.43-1.8,43.21-2.91-.51-86.77-.51-86.77c0,0,1.91,1.38-11.4,3.02s-184.33.09-184.33.09c0,0-148.98-6.46-161.98-11.46s-20.07-7.01-20.07-7.01Z"></path><path class="cls-10" d="M332.17,368.24c-.09-1-.43-1.99-1.05-2.68,1.73-4.4,2.95-11.24.7-12.71-2.82-1.85-43.71-4.6-45.26-4.22-1.55.37-22.32-5.91-22.32-5.91-.23,1.29-1.77,30.14,0,31.71,1.77,1.57,21.94,11.57,39.85,11.57,16.93,0,23.66,1.19,25.4-1.35.93-.08,1.78-.71,1.75-1.91-.03-1.14,1.02-2.5,1.25-3.82.31-1.81.07-3.67-.03-5.49-.1-1.73-.13-3.47-.29-5.19Z"></path><path class="cls-10" d="M445.35,378.91l-.03-8.35c0-2.45.34-5.2-.52-7.54-.14-.37-.31-.72-.51-1.06.61-1.03.31-2.44-1.11-2.91-10.11-3.34-20.91-3.1-31.42-3.02-5.6.04-11.2.13-16.78.6-.26.02-.53.05-.79.07-8.09-.55-16.16-1.29-24.22-2.22-2.55-.71-5.13-1.21-7.84-.97-.93.08-1.51.57-1.77,1.18-.85,1.1-1,2.79-.95,4.14.03.64.05,1.28.08,1.92-.18.2-.33.44-.43.73-1.51,4.75-1.46,9.67-.82,14.54,0,.1-.01.2-.02.31-.15,3.03-.05,6.35,1.72,8.86.2.72.49,1.4.97,1.96,1.19,1.36,3.01,1.34,4.67,1.58,3.6.51,7.16,1.24,10.7,2.04,7.1,1.61,14.12,3.55,21.27,4.88,7.18,1.34,14.48,1.98,21.78,1.8,8.26-.2,16.49-1.36,24.51-3.31,1.09-.26,1.63-1.43,1.4-2.46-.12-.52-.22-1.04-.32-1.56.19-.22.33-.5.39-.86.58-3.49.49-6.94.03-10.36Z"></path><path class="cls-10" d="M576.05,365.61c-.06-.32-.16-.64-.29-.94-.19-.45-.37-.89-.65-1.3-.56-.82-1.22-1.48-2.05-2.02-.23-.15-.48-.23-.74-.24-.27-.06-.53-.05-.8.04-.03,0-.07.03-.1.04-.21-.18-.44-.34-.73-.45-.69-.27-1.42-.48-2.15-.63-1.78-.39-3.62-.52-5.44-.48-3.43.07-6.84.66-10.24,1.04-1.21.14-2.43.25-3.65.37-.26-.03-.53,0-.82.08-1.8.17-3.6.32-5.4.45-.61-.09-1.21-.19-1.79-.27-2.79-.38-5.59-.52-8.4-.55-5.57-.06-11.08-.05-16.61-.79-1.01-.13-1.88.88-1.98,1.82-1.93-.12-3.86-.27-5.79-.46-7.31-.7-14.77-2.15-22.03-.55-1.12-.94-3.34-.45-3.36,1.47-.1,10.11.28,20.22,1.16,30.3.1,1.1.84,1.97,2,2,4.52.12,8.75,2.09,13.25,2.41,2.42.17,4.78-.32,7.12-.86,2.28-.53,4.57-.95,6.9-1.17,9.62-.91,19.29.44,28.9-.52,3.23-.32,6.42-.88,9.59-1.54-.13.97.4,2.08,1.42,2.26,7.26,1.24,14.57.23,21.21-2.94.63-.3.98-1.07.99-1.73.05-3.93-.06-7.85-.29-11.77.61-2.64.69-5.39.27-8.06-.06-.94-.18-1.88-.36-2.81.26-.16.49-.38.64-.65.07-.16.13-.32.2-.48.1-.35.1-.71,0-1.06Z"></path><path class="cls-10" d="M635.86,392.05c1.24-2.54,1.2-5.18.86-7.92-.38-3.01-.55-5.99-.46-9.03.18-6.11,1-12.2.38-18.31-.12-1.2-1.19-2.39-2.53-1.93-4.42,1.51-8.81,2.91-13.52,2.17-4.14-.65-8.64-1.37-11.76,2.15-.35.4-.5.83-.52,1.26-.59.29-1.04.85-1.04,1.71-.07,9.21.87,18.45,2.85,27.45.45,2.06,1.34,3.72,3.45,4.43,1.89.64,4.1.54,6.07.63,4.78.21,9.56.13,14.33-.2,1.39-.1,2.03-1.33,1.9-2.4,0,0,0,0,0,0Z"></path><path class="cls-9" d="M368.94,360.67c-.13.33-.36,1.18-.65,2.39-1.73,7.25-5.73,27.54-5.99,29.11-.3,1.83,10.69,3.36,13.69,4.6s4.32,4.65,4.32,4.65c0,0-6.06,19.64-7.19,27.11s-.31,11.35-.31,11.35l23.42.62,7.29-25.21,2.53-7.48s8.63.11,8.78-3.35,2.89-5.92,8.03-10.19,8.6-2.81,8.37-5.04-1.13-24.21-1.13-24.21c0,0-50.17-2.07-51.64-2.04s-9.53-2.31-9.53-2.31Z"></path><path class="cls-9" d="M494.55,370.21c.45.79-2.66,21.2-2.66,21.2,0,0,9.26,1.75,14.69,4.67s7.62,12.18,7.62,12.18c0,0-1.96,19.26-2.08,23s1.81,9.47,1.81,9.47l28.62-2.54s-2.2-13.8-1.88-20.99.35-10.09.35-10.09c0,0,7.51.8,11.74-3.15s5.68-7.31,8.96-10.63,7.37-7.26,7.82-7.79-1.12-15.32-1.12-15.32h-73.88Z"></path><path class="cls-9" d="M614.81,365.45c1.19,2.55-2.42,17.62,2.39,20.09s17.78,5.72,18.29,4.6-.06-31.44-1.28-30.79-19.4,6.11-19.4,6.11Z"></path><path class="cls-8" d="M81.7,328.49c-.7,1.51-23.92,20.35-16.81,15.43s18.05-1.22,5.58,8.93-19.27,28.94-13.37,50.04,21.08,34.36,26.49,35.23,25.59-.87,24,0-31.59-11.13-39.59-24.13-.98-44.01,7.01-52,16.67-17.74,15.83-17.87-9.14-15.64-9.14-15.64Z"></path><path class="cls-8" d="M205.47,278.35c2.53-1.35-2.53-7.69,0-10.52s25.6-11.49,25.6-11.49l-2.05-7.66,10.72.7s18.27,32.56,17.76,37.09-14.82,15.87-25.16,17.7-10.14,3.21-11.24,1.02-3.76-4.53-3.76-4.53l-2.34-.66-9.52-21.65Z"></path><path class="cls-8" d="M367.91,380.09c6.09,1.91,12.21.14,13.15,6.53s25.66,5.56,25.66,5.56c0,0,8.3-5.7,13.79-8.94s9.6-15.32,9.6-15.32c0,0,2.36,17.54,1.13,21.31s-4.5,2.31-8.37,5.04-2.08,8.11,1.53,22.92-4.57,9.68-8.48,9.24-8,13.32-9.96,13.44-18.45,12.38-21.7-1.75,7.51-30.21,6.13-33.67-9.32,3.35-9.32,3.35c0,0-.45-5.97-.76-6.39s-11.71-5.88-14.01-7.15l-2.3-1.27s-1-5.47,0-8.23,3.91-4.68,3.91-4.68Z"></path><path class="cls-8" d="M494.55,378.17c10.45,3.83,20.01,12.37,20.73,16.6s25.07,3.23,25.39-1.77,7.22-13.47,15.27-18.24,11.92-6.34,12.48-4.55,7.46,12.86.51,17.82-9.66,6.85-5.3,20.91,6.46,15.89-3.09,18.97-17.55,0-17.55,0c0,0,1.53,13.08-2.23,12.58s-9.25-1.63-10.01-17.56-3.87-16.29-9.31-10.11-1.36,29.18-3.4,28.18-2.18,8.44-4.11-.28-5.17-14.34-3.55-23.53,2.35-7.94,1.48-15.06-.62-10.11-5.74-9.62-12.08-2.64-12.08-2.64l.51-11.7Z"></path><path class="cls-8" d="M614.81,365.45c.19-.45,2.86,15.19,4.02,21.87s18,36.45,17.58,33.06.01-52.1-2.2-52.74-19.4-2.2-19.4-2.2Z"></path><path class="cls-11" d="M431.63,334.15c-23.3,1.34-46.7,1.75-70.02.8-11.33-.46-22.67-1.38-33.83-3.45-5.63-1.04-11.2-2.35-16.91-2.92-5.54-.55-11.11-.53-16.66-.78-10.74-.47-21.77-1.68-31.57-6.35,2.89-2.24,6.3-3.72,9.92-4.32,2.28-.38,4.6-.43,6.87-.89,2.06-.42,4.09-1.12,6.06-1.83,2.4-.87,1.37-4.73-1.06-3.86-2.11.76-4.3,1.51-6.51,1.92-2.39.44-4.84.47-7.23.96-4.41.9-8.47,3.04-11.85,5.99-.65.57-.76,1.26-.55,1.87-.59.87-.59,2.12.61,2.75,9.35,4.93,19.82,6.73,30.26,7.47,5.4.38,10.81.42,16.21.68,5.71.27,11.26,1.16,16.86,2.29,22.88,4.59,46.28,5.06,69.55,4.93,13.3-.07,26.59-.5,39.87-1.26,2.56-.15,2.58-4.15,0-4Z"></path><path class="cls-11" d="M308.81,278.2c-.11,3.73-.2,7.47-.32,11.2-.02.73.06.94-.58,1.28-.67.36-1.32.74-1.95,1.17-1.18.79-2.3,1.69-3.37,2.63-4.25,3.77-7.53,8.58-12.05,12.06-.85.66-1.31,1.72-.72,2.74.49.84,1.87,1.38,2.74.72,5.01-3.86,8.63-9.1,13.43-13.18,1.12-.95,2.32-1.78,3.6-2.5,1.67-.93,2.65-1.97,2.85-3.93.41-4.01.25-8.16.37-12.19.07-2.57-3.93-2.57-4,0Z"></path><path class="cls-11" d="M452.03,334.42l-14.97-.49c-1.08-.04-2,.94-2,2,0,1.11.92,1.96,2,2l14.97.49c1.08.04,2-.94,2-2,0-1.11-.92-1.96-2-2Z"></path><path class="cls-11" d="M624.97,336.09c-19.84,1.08-39.71,1.57-59.57,1.73-19.79.16-39.58,0-59.37-.18-11.19-.11-22.39-.08-33.55-.92-2.57-.19-2.56,3.81,0,4,9.92.75,19.87.79,29.81.89,9.89.1,19.79.19,29.69.24,19.79.11,39.58.06,59.36-.44,11.22-.28,22.43-.7,33.64-1.31,2.56-.14,2.58-4.14,0-4Z"></path><path class="cls-11" d="M344.56,273.09c-7.73.74-15.34,2.29-22.72,4.69-2.44.79-1.39,4.66,1.06,3.86,7.04-2.29,14.29-3.84,21.66-4.55,1.08-.1,2-.85,2-2,0-1-.92-2.1-2-2Z"></path></g><g id="_Шар_4" data-name="Шар 4"><path class="cls-12" d="M229.56,305.62c.1,3.43-.94,6.8-3.25,9.39s-5.68,4.27-9.18,4.99c-1.89.39-1.09,3.28.8,2.89,4.02-.83,7.91-2.78,10.63-5.91s4.12-7.19,4-11.37c-.05-1.93-3.05-1.93-3,0h0Z"></path><path class="cls-7" d="M101.8,360.05c-7.3.16-14.6.26-21.91.33-1.93.02-1.93,3.02,0,3,7.3-.07,14.6-.17,21.91-.33,1.93-.04,1.93-3.04,0-3h0Z"></path><path class="cls-7" d="M147.87,359.86c-2.33-.03-4.65-.07-6.98-.11-.78-.02-1.54.7-1.5,1.5s.66,1.48,1.5,1.5c2.33.05,4.65.09,6.98.11.78,0,1.54-.7,1.5-1.5s-.66-1.49-1.5-1.5h0Z"></path><path class="cls-7" d="M248,358.5c-20.11,0-40.21.64-60.32,1.06-5.65.12-11.3.22-16.95.28-1.93.02-1.93,3.02,0,3,20.11-.23,40.21-.92,60.32-1.21,5.65-.08,11.3-.13,16.95-.13,1.93,0,1.93-3,0-3h0Z"></path><path class="cls-12" d="M192.77,255.8c5.1-.29,10.04,1.05,15.01,1.99.8.15,1.62-.22,1.85-1.05.2-.73-.25-1.69-1.05-1.85-5.22-.99-10.45-2.4-15.81-2.1-1.92.11-1.93,3.11,0,3h0Z"></path><path class="cls-12" d="M188.43,258.66c2.41,1.75,3.85,4.71,5.28,7.24,1.73,3.05,3.71,5.93,5.63,8.87,4.08,6.25,7.69,12.68,10.22,19.72s4.16,14.11,5.14,21.38c.76,5.61,1.27,11.42-.08,16.98-1.2,4.99-3.97,9.35-8.61,11.75-2.72,1.41-5.87,2.07-8.9,2.37s-6.39.28-9.46-.48c-2.67-.67-4.92-2.03-6.38-4.4-1.34-2.16-2.04-4.64-2.85-7.03-1.68-4.97-2.97-9.96-4.08-15.08-1.33-6.14-2.59-12.33-4.74-18.25-2.02-5.54-4.87-10.97-9.49-14.77-1.48-1.22-3.61.89-2.12,2.12,4.18,3.45,6.81,8.27,8.66,13.29,2.05,5.59,3.3,11.43,4.55,17.24,1.17,5.4,2.44,10.69,4.22,15.92.9,2.64,1.68,5.39,3.1,7.81s3.58,4.3,6.24,5.37c3.03,1.22,6.46,1.49,9.7,1.42s6.77-.55,9.94-1.62c5.5-1.86,9.69-5.81,11.9-11.16s2.42-10.85,1.96-16.3c-.65-7.58-2.03-15.14-4.21-22.43s-5.44-14.64-9.56-21.32c-2.05-3.31-4.24-6.53-6.35-9.81-1.73-2.69-3.09-5.62-5.01-8.19-.93-1.24-1.95-2.31-3.2-3.22-1.56-1.14-3.06,1.46-1.51,2.59h0Z"></path><path class="cls-12" d="M114.6,306.93c2.52,2.81,5.43,5.22,8.06,7.91,2.81,2.87,4.84,6.05,6.3,9.8,1.54,3.96,2.58,8.08,3.56,12.21s1.65,8.04,3.04,11.86c2.2,6.03,6.57,11.15,12.5,13.74s12.87,2.6,19.03.44c3.84-1.34,6.97-3.55,9.36-6.86s3.68-7.08,4.48-10.93c.39-1.88-2.5-2.69-2.89-.8-1.33,6.41-4.41,12.88-10.88,15.38-5.66,2.18-12.09,2.57-17.74.12s-9.6-7.32-11.38-13.07c-2.35-7.55-3.32-15.46-6.19-22.87-1.55-3.98-3.59-7.45-6.53-10.56-2.77-2.92-5.91-5.47-8.6-8.47-1.29-1.44-3.41.69-2.12,2.12h0Z"></path><path class="cls-12" d="M103.68,282.46c2.82-5.57,6.29-11.12,11.94-14.18,3.48-1.89,7.21-2.39,11.12-2.25,1.78.06,3.56.11,5.32.35s3.43.54,5.16.61c3.15.12,5.42-1.08,7.2-3.64.8-1.16,1.47-2.4,2.48-3.39,1.27-1.23,2.83-2.19,4.37-3.04,3.45-1.9,7.21-3.16,11.14-3.48s7.94,0,11.86.41c3.23.34,6.39,1.29,9.56,1.93s6.44,1.33,9.49.48c1.86-.52,1.07-3.42-.8-2.89-2.56.72-5.53,0-8.07-.51-3.06-.62-6.08-1.45-9.18-1.88-7.79-1.07-15.76-1.15-23.05,2.12-3.18,1.42-6.54,3.33-8.67,6.16-.81,1.08-1.43,2.32-2.32,3.33-.95,1.08-2.09,1.43-3.5,1.43-1.77,0-3.53-.33-5.28-.57s-3.67-.32-5.52-.39c-3.98-.15-7.74.3-11.4,1.93-6.87,3.06-11.2,9.48-14.48,15.97-.87,1.72,1.72,3.24,2.59,1.51h0Z"></path><path class="cls-7" d="M635.49,289.73c-32.48,1.15-69.53,1.77-107.99,1.77-55.6,0-108.3-1.28-148.4-3.62-52.89-3.08-62.57-6.66-64.34-7.88,1.77-1.22,11.46-4.81,64.34-7.88,40.1-2.33,92.8-3.62,148.4-3.62,38.76,0,76.1.62,108.75,1.79.02-1,.05-2,.12-3-32.64-1.17-69.96-1.79-108.87-1.79-57.32,0-111.22,1.35-151.77,3.81-64.23,3.89-64.23,8.48-64.23,10.69s0,6.8,64.23,10.69c40.54,2.46,94.44,3.81,151.77,3.81,38.58,0,75.59-.61,108.04-1.76-.02-1-.04-2-.05-3Z"></path><g><path class="cls-7" d="M489.73,292.12c-12.81.11-25.39.27-37.62.5,13.22.5,26.46.32,39.74-.27-.71-.08-1.41-.15-2.12-.23Z"></path><path class="cls-7" d="M636.73,319.26c-34.7,1.14-73.76,1.75-114.23,1.75-62.29,0-121.27-1.44-166.1-4.06-60.69-3.55-70.24-7.69-71.73-8.96,0,0,0,0,0,0-1.03-.27-1.97-.75-2.81-1.38-.36.54-.36,1.01-.36,1.39,0,2.22,0,7.42,71.56,11.76,45.27,2.74,105.44,4.25,169.44,4.25,40.65,0,79.75-.61,114.48-1.76-.08-1-.17-2-.25-3Z"></path></g><g><path class="cls-7" d="M512.88,429.7c-.02-.43.01-.85.08-1.26-.65,0-1.31,0-1.96,0-39.33,0-77.33-.98-111.89-2.83,0,1.02-.18,2.03-.52,2.98,34.72,1.87,72.89,2.85,112.41,2.85.72,0,1.43,0,2.15,0-.14-.56-.24-1.14-.26-1.74Z"></path><path class="cls-7" d="M636.87,427.82c.13-.53.33-1.06.61-1.6.07-.48.14-.97.21-1.45-29.75,1.86-62.46,3.05-96.65,3.49.05,1.02-.08,2.04-.37,3,34-.43,66.54-1.6,96.2-3.44Z"></path><path class="cls-7" d="M372.82,424c-17.2-1.21-33.31-2.66-47.97-4.33-40.05-4.56-61.63-9.96-70.66-14.62-.53-.04-1.04-.14-1.52-.32-2.24-.89-4.37-2.03-6.42-3.3,2.72,8.48,29,15.62,78.26,21.23,14.85,1.69,31.17,3.15,48.62,4.38-.28-.98-.38-2.01-.31-3.03Z"></path></g><path class="cls-7" d="M314.81,276.29c-2.97.06-5.97.88-7.63,3.53-1.33,2.12-1.49,4.71-1.85,7.11-.39,2.65-.99,4.85-3.12,6.61-2.67,2.21-5.93,3.42-8.87,5.18-3.54,2.12-5.69,5.25-6.52,9.29-.39,1.88,2.5,2.69,2.89.8.67-3.25,2.18-5.7,5.03-7.43s5.73-2.82,8.32-4.73c2.38-1.75,4-3.68,4.73-6.58.57-2.29.59-4.68,1.23-6.96.8-2.87,2.95-3.78,5.8-3.84,1.93-.04,1.93-3.04,0-3h0Z"></path><path class="cls-12" d="M84.48,289.19c-.41-5.11-1.33-10.15-2.01-15.22-.6-4.43-.87-8.9-.86-13.37.03-9.02,1.22-18.02,3.51-26.74s5.68-17.04,10.2-24.83c4.85-8.35,10.56-16.16,16.67-23.62,6.05-7.39,12.36-14.77,19.24-21.41s14.59-12.49,21.97-18.62,15.18-12.65,22.56-19.2c7.59-6.74,14.68-14.04,22.19-20.88,14.48-13.17,30.35-24.51,47.03-34.72,2.09-1.28,4.18-2.54,6.29-3.78,1.66-.98.15-3.58-1.51-2.59-16.91,10.03-33.33,20.99-48.2,33.89-7.75,6.72-15.09,13.88-22.49,20.98s-15.41,13.4-23.14,20.07c-7.28,6.29-14.96,12.11-22.18,18.47-7.29,6.44-13.76,13.74-20.06,21.12-12.25,14.34-23.61,29.91-29.57,47.99-2.87,8.69-4.61,17.77-5.24,26.9-.31,4.55-.34,9.12-.05,13.67s1.06,9.47,1.75,14.18c.38,2.56.71,5.13.92,7.71.15,1.91,3.15,1.93,3,0h0Z"></path><path class="cls-12" d="M357.35,125.12c-5.57-.11-10.96,1.8-16,3.97s-9.86,4.8-14.82,7.13c-11.74,5.49-22.75,12.37-33.22,19.99-21.04,15.31-39.83,33.56-57.07,52.99-4.87,5.49-9.59,11.08-14.08,16.89s-9.05,12.02-13.74,17.91c-1.19,1.49.92,3.63,2.12,2.12,8.18-10.26,15.76-20.96,24.38-30.87,8.47-9.74,17.3-19.17,26.57-28.14,18.27-17.68,38.48-34.09,61.22-45.69,5.66-2.89,11.4-5.7,17.16-8.38,5.44-2.54,11.39-5.02,17.5-4.91,1.93.04,1.93-2.96,0-3h0Z"></path><path class="cls-12" d="M315.7,144.36c5,4.45,7.36,10.9,8.63,17.31,1.39,7.01,1.53,14.23,1.51,21.36-.02,8.4-.06,16.8-.47,25.18-.5,10.27-1.4,20.52-2.25,30.77-.97,11.56-1.88,23.12-2.15,34.72-.05,1.93,2.95,1.93,3,0,.49-20.99,3.11-41.85,4.27-62.8.49-8.8.55-17.6.6-26.42.05-7.28-.08-14.59-1.28-21.78s-3.9-15.28-9.74-20.47c-1.44-1.28-3.57.83-2.12,2.12h0Z"></path><path class="cls-12" d="M482.6,88.47c-13.69,2.07-26.77,7.64-37.88,15.89-11.18,8.3-20.42,19.15-26.76,31.55-3.68,7.2-6.54,14.92-9.17,22.55-2.84,8.24-4.86,16.61-6.1,25.24-1.32,9.2-2.47,18.42-3.5,27.65-.26,2.36-.52,4.72-.77,7.09-.2,1.9-.29,3.85-1.06,5.64-1.23,2.84-3.73,4.87-5.91,6.96-4.2,4.01-7.23,8.94-9.85,14.08-3.02,5.93-5.63,12.5-5.87,19.24-.05,1.52.07,3.04.32,4.54.33,1.9,3.22,1.09,2.89-.8-1.07-6.23,1.28-12.91,3.82-18.5,2.25-4.97,4.97-10.25,8.68-14.3,2.12-2.31,4.64-4.24,6.6-6.7.97-1.22,1.75-2.51,2.3-3.97.67-1.75.79-3.61.99-5.45.96-9.13,2.02-18.24,3.23-27.34s2.45-17.31,4.93-25.74,5.36-15.97,8.7-23.65c5.44-12.52,13.78-23.69,24.24-32.47s22.74-14.86,35.94-17.69c1.67-.36,3.34-.66,5.03-.91,1.9-.29,1.09-3.18-.8-2.89h0Z"></path><path class="cls-12" d="M512.43,86.78c13.13-.39,26.53-.5,39.44,2.25,11.24,2.4,22.03,7.31,31.49,13.81s17.48,14.67,22.76,24.69c2.95,5.59,4.76,11.73,6.34,17.83,1.76,6.78,3.04,13.68,3.95,20.62,2.05,15.73,2.27,31.63,2.26,47.48,0,1.93,3,1.93,3,0,0-14.45-.18-28.94-1.77-43.32-.78-7.07-1.88-14.11-3.45-21.05s-3.34-13.47-6.13-19.75c-4.7-10.56-12.63-19.41-21.74-26.39s-20.13-12.58-31.44-15.72c-14.45-4.01-29.86-3.89-44.73-3.45-1.93.06-1.93,3.06,0,3h0Z"></path><path class="cls-7" d="M229.02,246.67c-6.89.28-12.87,4.55-18.56,8-3.98,2.41-11.71,5.44-9.77,11.52.41,1.28,1.17,2.37,1.81,3.54.52.95.71,1.5-.28,2.17-1.59,1.08-.09,3.68,1.51,2.59,1.29-.87,2.31-2.04,2.23-3.69-.07-1.42-.92-2.65-1.61-3.83s-1.22-2.21-.73-3.51c.59-1.55,2.09-2.58,3.45-3.41,3.28-1.99,6.62-3.91,9.93-5.86,3.66-2.15,7.67-4.34,12-4.52,1.92-.08,1.93-3.08,0-3h0Z"></path><path class="cls-7" d="M214.61,302.21c.89-.17,2.06-.39,2.75.26.54.5.85,1.41,1.26,2.07,1.35,2.16,3.42,3.31,5.97,3.13,2.82-.2,5.52-1.18,8.18-2.06,3.59-1.19,7.1-2.52,10.52-4.15,4.12-1.96,8.09-4.23,12.02-6.55,1.66-.98.15-3.57-1.51-2.59-6.82,4.02-13.74,7.77-21.3,10.22-2.48.81-5,1.83-7.61,2.1-1.08.11-2.02.09-2.87-.64-.67-.57-1.03-1.38-1.45-2.13-1.51-2.67-3.86-3.12-6.75-2.55-1.89.37-1.09,3.26.8,2.89h0Z"></path><path class="cls-7" d="M229.02,250.18c1.88.05,3.79-.27,5.66-.11,1.54.13,2.51,1.18,3.34,2.42,3.29,4.89,5.67,10.32,8.56,15.44,3.19,5.66,7.57,10.91,9.26,17.3.78,2.94.53,5.54-2.7,6.43-1.86.51-1.07,3.41.8,2.89,8.77-2.43,4.41-12.49,1.46-17.88-1.76-3.22-3.82-6.25-5.71-9.39-3.08-5.12-5.48-10.61-8.66-15.68-1.2-1.92-2.7-3.82-5.02-4.35s-4.7-.01-6.97-.07c-1.93-.05-1.93,2.95,0,3h0Z"></path><path class="cls-7" d="M227.96,250.25c2.13,2.14,3.56,4.94,4.89,7.62,1.53,3.1,2.88,6.28,4.34,9.41,3.3,7.09,8.31,13.08,11.99,19.94.91,1.7,3.5.19,2.59-1.51-1.96-3.65-4.37-7.03-6.64-10.48-2.07-3.15-3.91-6.37-5.49-9.79-1.48-3.19-2.85-6.43-4.44-9.58-1.38-2.74-2.92-5.54-5.11-7.73-1.36-1.37-3.49.75-2.12,2.12h0Z"></path><path class="cls-7" d="M250.98,291.54c.07,0,.13,0,.2.01l-.4-.05c.11.01.21.04.31.08l-.36-.15c.09.04.18.09.26.15l-.3-.23c.09.07.17.16.25.25l-.23-.3h0c.09.19.22.33.39.43.14.13.31.22.51.27.2.06.4.07.6.03.2,0,.39-.07.56-.18l.3-.23c.19-.19.31-.41.39-.66l.05-.4c0-.27-.07-.52-.2-.76-.14-.18-.27-.38-.44-.53-.11-.1-.23-.18-.35-.27-.02-.02-.04-.03-.06-.05-.04-.03-.08-.05-.13-.08-.15-.08-.31-.14-.48-.2-.05-.02-.1-.03-.15-.04-.18-.04-.36-.06-.54-.08-.06,0-.11,0-.17,0-.21,0-.4.04-.58.13-.19.06-.35.16-.48.31-.15.14-.25.3-.31.48-.09.18-.14.37-.13.58l.05.4c.07.25.2.47.39.66l.3.23c.23.14.49.2.76.2h0Z"></path><path class="cls-7" d="M264.63,344.36c1.99-.62,4.58.36,6.48.92,2.67.78,5.28,1.75,7.93,2.57,7.34,2.27,15.24,2.64,22.82,3.68s15.46,1.73,23.19,1.38c2.5-.11,6.24-.15,6.87,2.97.52,2.58-.66,5.31-1.06,7.83-.68,4.25-.17,8.65-.52,12.93-.22,2.69-.72,6.38-3.1,8.07-1.56,1.11-.06,3.71,1.51,2.59,2.57-1.82,3.71-4.81,4.23-7.81.66-3.84.51-7.76.6-11.64.04-1.7.13-3.31.49-4.97.33-1.5.69-2.99.86-4.52.34-3.07-.61-6.17-3.58-7.57s-6.6-.76-9.88-.68c-4.28.1-8.69-.42-12.95-.81s-8.9-1.08-13.35-1.62-9.03-1.12-13.45-2.19c-3.11-.76-6.11-1.97-9.17-2.91-2.62-.8-5.97-1.96-8.72-1.11-1.84.57-1.05,3.47.8,2.89h0Z"></path><path class="cls-7" d="M262.73,343.43c-.06,7.73-1.34,15.41-1.13,23.15.06,2.16.27,4.39,1.28,6.34s2.85,3.31,4.77,4.3c3.23,1.67,6.8,2.82,10.25,3.93,3.8,1.22,7.67,2.23,11.58,3.05s7.83,1.43,11.78,1.89c3.48.4,6.98.48,10.46.85,3.06.32,6.1.84,9.17,1.07,2.32.17,5.37.47,7.41-.9,1.6-1.07.1-3.67-1.51-2.59-1.47.98-4.03.63-5.74.5-2.57-.18-5.11-.56-7.66-.88-2.96-.37-5.93-.45-8.9-.72-3.71-.33-7.39-.82-11.05-1.49-7.42-1.35-14.72-3.4-21.73-6.17-1.99-.79-4.27-1.71-5.64-3.44-1.1-1.38-1.34-3.19-1.42-4.89-.42-8.02,1.03-15.99,1.1-24,.02-1.93-2.98-1.93-3,0h0Z"></path><path class="cls-7" d="M285.8,305.09c-3.95,1.78-7.94,3.47-11.94,5.17-3.81,1.62-7.59,3.4-11.45,4.9-2.72,1.05-6.06,2.11-7.72,4.71-.9,1.42-.92,3.16-1.03,4.78-.14,2.07-.59,4.13-.94,6.18-1.47,8.72-3.42,17.35-5.28,26s-3.02,16.92-3.44,25.54c-.13,2.55-.31,5.1-.48,7.65-.15,2.24-.12,4.54-.43,6.77-.23,1.66-.65,3.5.52,4.92.5.61,1.16,1.03,1.85,1.39.56.29,1.46.55,1.84,1.08,1.12,1.55,3.72.06,2.59-1.51-.83-1.15-1.99-1.63-3.19-2.3-.48-.27-.79-.41-.89-.96-.11-.67.12-1.48.22-2.15.27-1.9.26-3.83.39-5.75.14-2.14.3-4.28.44-6.43.51-8.29,1.18-16.45,2.87-24.59s3.68-16.63,5.21-25c.7-3.82,1.51-7.69,1.77-11.58.1-1.58.4-2.68,1.73-3.62,1.21-.85,2.62-1.4,3.99-1.93,3.99-1.54,7.89-3.35,11.83-5.02,4.36-1.85,8.73-3.7,13.05-5.64,1.76-.79.23-3.38-1.51-2.59h0Z"></path><path class="cls-7" d="M358.3,352.45c-3.5,10.25-3.29,21.08-2.1,31.72.21,1.9,3.22,1.92,3,0-1.16-10.38-1.43-20.9,1.99-30.92.62-1.83-2.27-2.62-2.89-.8h0Z"></path><path class="cls-7" d="M360.77,354.01c4.45.03,8.8.78,13.19,1.46,4.52.69,9.04,1.09,13.61,1.2,9.22.23,18.42.08,27.64.54,9.13.46,18.24,1.25,27.32,2.33.62.07,1.69.39,2.33.24.28-.07-.08-.01-.35-.24-.57-.48-.16-.46-.18-.22,0,.11.07.27.09.38.4,1.68.43,3.32.33,5.04-.25,4.26-.25,8.52-.37,12.78-.07,2.67.03,5.3.08,7.96.03,1.46.04,2.92-.08,4.37-.04.48-.09.97-.2,1.44-.03.13-.15.55-.14.53-.04.1-.08.11-.09.12-1.45,1.28.68,3.4,2.12,2.12,1.55-1.37,1.37-4.47,1.39-6.32.04-2.49-.15-4.96-.17-7.45-.04-4.15.08-8.37.26-12.52.09-1.94.34-3.88.24-5.83-.07-1.26-.18-3.02-.87-4.14s-1.97-.99-3.08-1.1c-2.38-.24-4.75-.56-7.13-.81-4.79-.5-9.59-.92-14.4-1.25-9.79-.67-19.57-.88-29.37-.9-5.45-.01-10.91-.12-16.31-.88s-10.51-1.81-15.86-1.84c-1.93-.01-1.93,2.99,0,3h0Z"></path><path class="cls-7" d="M367.83,361.3c-1.01,2.76-1.31,5.78-1.9,8.64-.76,3.64-2.06,7.15-2.85,10.78-.4,1.84-.74,3.7-.81,5.58-.06,1.68,0,3.37-.05,5.05-.07,2.26.95,3.27,3.06,3.91,1.79.54,3.59,1.01,5.32,1.74s3.45,1.73,5.08,2.75,3.15-1.57,1.51-2.59c-3.48-2.18-7.04-3.59-10.97-4.75-.28-.08-.6-.24-.88-.29-.18-.03-.16-.08-.18-.07-.06.05.12,0,.07.24.04-.21-.01-.51-.01-.72.03-1.9-.03-3.82.08-5.73.26-4.51,1.97-8.81,3.08-13.14.9-3.49,1.12-7.21,2.36-10.61.66-1.82-2.23-2.6-2.89-.8h0Z"></path><path class="cls-7" d="M368.18,387.51c2.53,1.53,5.53,1.86,7.59,4.09.82.88,1.4,2.08,1.79,3.12.53,1.4,1,2.82,1.66,4.17.36.73,1.39.93,2.05.54.74-.43.89-1.32.54-2.05-1.27-2.6-1.83-5.64-3.92-7.9-1.13-1.23-2.54-2.1-4.07-2.75s-2.82-1.02-4.13-1.8c-1.66-1-3.17,1.59-1.51,2.59h0Z"></path><path class="cls-7" d="M379.87,401.57c3.68-2.94,9.39-3.24,13.89-3.3,5.58-.08,10,3.26,15.29,4.37,1.88.39,2.69-2.5.8-2.89-2.86-.6-5.47-1.96-8.18-2.99s-5.57-1.55-8.56-1.47c-5.24.14-11.13.79-15.36,4.17-1.51,1.2.63,3.32,2.12,2.12h0Z"></path><path class="cls-7" d="M429.05,365.79c.4,6.12.68,12.25.68,18.38,0,1.93,3,1.93,3,0,0-6.13-.28-12.26-.68-18.38-.13-1.92-3.13-1.93-3,0h0Z"></path><path class="cls-7" d="M416.39,400.51c-.43-3.83,3.02-7.17,5.8-9.29,1.45-1.1,2.88-2.22,4.4-3.22.8-.52,1.62-1.02,2.48-1.43.57-.27,1.45-.54,1.81-.56,1.92-.12,1.93-3.12,0-3-2.05.13-3.93,1.19-5.62,2.28s-3.26,2.32-4.84,3.53c-3.51,2.68-7.58,6.87-7.04,11.69.09.8.62,1.5,1.5,1.5.74,0,1.59-.69,1.5-1.5h0Z"></path><path class="cls-7" d="M367.91,363.54c16.28.02,32.41,2.52,48.66,3.02,4.66.14,9.32.37,13.98.38,1.93,0,1.93-3,0-3-8.1-.02-16.25-.35-24.33-.93-8.08-.58-16.14-1.42-24.23-1.96-4.69-.31-9.38-.51-14.08-.52-1.93,0-1.93,3,0,3h0Z"></path><circle class="cls-14" cx="329" cy="300" r="10"></circle><circle class="cls-14" cx="384.5" cy="305.5" r="10"></circle><circle class="cls-14" cx="452.5" cy="306.5" r="10"></circle><circle class="cls-14" cx="522.5" cy="307.5" r="10"></circle><circle class="cls-14" cx="586.5" cy="306.5" r="10"></circle><path class="cls-7" d="M324.43,305.59c.63-2.73,1.86-5.29,3.39-7.62s3.38-4.45,5.79-5.78c1.69-.93.18-3.52-1.51-2.59-2.8,1.54-4.99,4.05-6.75,6.67s-3.12,5.5-3.82,8.52c-.43,1.88,2.46,2.68,2.89.8h0Z"></path><path class="cls-7" d="M389.98,297.28c-5.58,2.07-8.78,7.35-12.92,11.28-1.4,1.33.72,3.45,2.12,2.12,1.97-1.87,3.66-3.99,5.53-5.95,1.76-1.85,3.77-3.7,6.06-4.55.76-.28,1.28-1.02,1.05-1.85-.2-.73-1.08-1.33-1.85-1.05h0Z"></path><path class="cls-7" d="M377.41,299.44c4.34,4.24,6.09,10.02,7.78,15.68.55,1.85,3.45,1.06,2.89-.8-1.84-6.16-3.84-12.39-8.56-17-1.38-1.35-3.5.77-2.12,2.12h0Z"></path><path class="cls-7" d="M444.21,311.7c4.59-4.19,9.62-8.16,15.36-10.66.74-.32.91-1.41.54-2.05-.45-.77-1.31-.86-2.05-.54-5.95,2.6-11.2,6.78-15.96,11.13-1.43,1.3.7,3.42,2.12,2.12h0Z"></path><path class="cls-7" d="M446.48,300.7c2.36,1.27,4.52,3.08,6.36,5.01,2.07,2.17,3.48,4.87,5.59,7.01,1.36,1.38,3.48-.75,2.12-2.12-2.15-2.18-3.58-4.94-5.72-7.14-1.99-2.04-4.33-3.99-6.84-5.35-1.7-.92-3.22,1.67-1.51,2.59h0Z"></path><path class="cls-7" d="M516.72,312.72c3.56-3.44,7.2-6.82,11.27-9.64.67-.46.97-1.32.54-2.05-.39-.66-1.38-1-2.05-.54-4.29,2.97-8.14,6.49-11.88,10.11-1.39,1.34.73,3.46,2.12,2.12h0Z"></path><path class="cls-7" d="M516.98,304.55c2.34,1.9,5.03,3.31,7.81,4.47.73.3,1.68-.33,1.85-1.05.2-.88-.27-1.52-1.05-1.85-.21-.09,0,.04.05.02-.04.01-.17-.07-.21-.09-.16-.07-.32-.14-.47-.21-.29-.13-.58-.27-.86-.41-.63-.31-1.25-.63-1.86-.97s-1.18-.68-1.75-1.05c-.27-.17-.53-.35-.79-.54-.14-.1-.28-.21-.42-.31-.17-.13.2.16.04.03-.07-.06-.14-.11-.22-.17-.61-.49-1.53-.64-2.12,0-.5.55-.65,1.59,0,2.12h0Z"></path><path class="cls-7" d="M579.96,300.46c4.11,3.34,9.06,5.55,12.94,9.19,1.41,1.32,3.53-.8,2.12-2.12-3.89-3.66-8.82-5.84-12.94-9.19-.63-.51-1.51-.61-2.12,0-.53.53-.63,1.61,0,2.12h0Z"></path><path class="cls-7" d="M53.64,360.5c-4.21,0-8.43,0-12.64,0-1.93,0-1.93,3,0,3,4.21,0,8.43,0,12.64,0,1.93,0,1.93-3,0-3h0Z"></path><path class="cls-7" d="M80.95,328.58c-12.77,8.96-24.8,19.9-30.38,34.85-3.12,8.37-4.15,17.77-3.97,26.67.19,9.4,2.13,18.7,5.96,27.29,2.05,4.59,4.71,8.79,8.1,12.51,1.84,2.02,4.02,3.56,6.08,5.34,1.6,1.39,2.75,3.33,4.76,4.19,1.75.75,3.28-1.83,1.51-2.59-1.66-.71-2.61-2.32-3.9-3.5-1.64-1.5-3.51-2.73-5.1-4.28-3.05-2.96-5.55-6.53-7.49-10.31-4.1-8.03-6.32-16.98-6.82-25.96s.28-17.61,2.84-25.85c2.2-7.11,6.07-13.59,10.92-19.2,5.51-6.39,12.11-11.73,19-16.56,1.57-1.1.07-3.7-1.51-2.59h0Z"></path><path class="cls-7" d="M90.39,345.94c-12.63,9.63-23.17,22.85-25.53,38.95-.61,4.16-.64,8.3-.33,12.49.33,4.4.94,8.85,2.49,13.01,3.16,8.47,9.95,14.43,17.52,18.99,4.23,2.55,8.59,4.81,13.29,6.37,4.86,1.62,9.88,2.68,14.87,3.82,1.88.43,2.68-2.46.8-2.89-4.16-.95-8.33-1.85-12.42-3.05s-7.94-2.84-11.69-4.91c-7.22-3.98-14.44-8.89-18.3-16.43-1.89-3.7-2.83-7.85-3.3-11.97s-.67-8.16-.32-12.22c.64-7.43,3.2-14.59,7.09-20.93,4.46-7.28,10.57-13.47,17.34-18.63,1.52-1.15.02-3.76-1.51-2.59h0Z"></path><path class="cls-7" d="M257.98,324.94c3.81,1.49,7.67,2.62,11.34,4.45,3.23,1.61,6.78,3.46,10.5,3.27,1.92-.1,1.93-3.1,0-3-3.5.18-6.83-1.79-9.86-3.29-3.61-1.79-7.45-2.85-11.19-4.32-1.8-.7-2.58,2.2-.8,2.89h0Z"></path><path class="cls-7" d="M326.81,337.24c10.01,1.04,19.98,2.47,30.02,3.22,5.09.38,10.19.59,15.29.47s10.33-.39,15.52-.29c10.47.2,20.92,1.14,31.37,1.67,5.24.27,10.48.44,15.72.38s10.45-.31,15.69-.29c11.56.04,23.12,1.41,34.68.97,1.92-.07,1.93-3.07,0-3-10.18.39-20.34-.72-30.52-.92-10.56-.21-21.09.48-31.65.05-10.47-.42-20.91-1.38-31.38-1.75s-20.47.54-30.71-.02c-11.4-.63-22.7-2.31-34.05-3.49-1.92-.2-1.9,2.8,0,3h0Z"></path><path class="cls-7" d="M535.4,345.67c25.38,0,50.81.95,76.16-.74,3.43-.23,6.82-.76,10.2-1.36s6.72-.4,10.04-1.02c1.9-.35,1.09-3.25-.8-2.89-2.85.53-5.77.29-8.63.77-3.04.51-6.06,1.09-9.13,1.38-6.24.58-12.54.73-18.8.9-12.57.33-25.14.23-37.71.11-7.11-.07-14.22-.14-21.33-.13-1.93,0-1.93,3,0,3h0Z"></path><path class="cls-7" d="M382.98,396.8c-1.06.14-2,.52-2.71,1.35-.65.77-1.06,1.69-1.34,2.65-.25.82-.41,1.67-.58,2.51-.08.39-.17.79-.27,1.18-.05.18-.1.35-.16.53-.03.09-.06.17-.09.26-.08.24.18-.39.02-.06-.33.71-.22,1.65.54,2.05.66.35,1.7.22,2.05-.54.68-1.47.84-3.08,1.24-4.63.1-.38.21-.75.35-1.12.05-.12.21-.37-.02.02.04-.08.08-.17.12-.25.08-.16.16-.31.26-.46.02-.03.04-.06.06-.09.09-.12.05-.08-.11.13.05-.03.12-.14.16-.19.06-.06.12-.11.17-.17.03-.03.07-.06.11-.09-.21.15-.26.2-.16.13.07-.04.14-.09.21-.13.04-.02.08-.04.12-.06-.24.1-.31.12-.2.08.15-.04.76-.17.22-.1.41-.05.75-.13,1.06-.44.26-.26.46-.69.44-1.06-.03-.73-.67-1.61-1.5-1.5h0Z"></path><path class="cls-7" d="M383.5,398.02c-2.67,1.16-3.53,5.03-4.77,7.38-1.96,3.73-3.33,7.75-4.63,11.74-1.01,3.12-1.89,6.32-2.39,9.57-.46,3.01-.77,6.26.53,9.11.8,1.76,3.38.23,2.59-1.51-1.05-2.31-.48-5.45-.05-7.84.52-2.89,1.31-5.73,2.22-8.52,1.17-3.6,2.38-7.25,4.12-10.62.62-1.21,1.17-2.44,1.75-3.68.48-1.04,1.03-2.54,2.16-3.03,1.77-.77.24-3.35-1.51-2.59h0Z"></path><path class="cls-7" d="M401.37,400.1c2.86,2.08,3.64,5.23,2.9,8.59-.39,1.77-1.1,3.42-1.76,5.1-.82,2.08-1.56,4.19-2.21,6.32-1.26,4.09-2.2,8.25-2.91,12.47-.52,3.04-1.43,6.78-.28,9.78.68,1.79,3.58,1.01,2.89-.8-.57-1.49-.39-3.19-.23-4.75.19-1.8.52-3.59.85-5.37.85-4.62,2.04-9.18,3.59-13.62,1.29-3.7,3.22-7.28,3.35-11.28.12-3.78-1.66-6.85-4.67-9.04-1.56-1.14-3.06,1.46-1.51,2.59h0Z"></path><path class="cls-7" d="M406.72,409.24c2.15.21,4.5.03,6.57-.56,1.05-.3,2.11-.77,2.8-1.64.79-1,1.1-2.16,1.23-3.41.13-1.18.06-2.37.09-3.55.02-.78-.71-1.54-1.5-1.5s-1.48.66-1.5,1.5c-.03,1.2.03,2.41-.1,3.61.04-.41-.02.1-.04.18-.03.15-.06.3-.1.44-.03.11-.07.21-.1.32-.06.16-.05.14.03-.05-.03.07-.06.13-.09.19-.07.13-.15.24-.22.36.19-.32,0-.02-.07.06-.07.07-.38.28-.07.08-.12.08-.24.16-.37.22-.37.19.16-.04-.1.05-.1.04-.2.08-.31.11-.3.1-.6.18-.91.25-.29.07-.58.12-.87.17-.06.01-.61.09-.25.04-.18.02-.35.04-.53.06-1.19.12-2.4.16-3.6.05-.78-.08-1.53.74-1.5,1.5.04.88.66,1.42,1.5,1.5h0Z"></path><path class="cls-7" d="M416.34,403.29c.78-2.42,2.78-4.33,4.71-5.88,1.76-1.41,3.71-2.74,5.87-3.43,1.98-.63,4.72-1.24,5.55-3.42s-.41-4.35.21-6.43c.56-1.85-2.33-2.64-2.89-.8-.34,1.11-.24,2.29-.15,3.43.06.76.35,2.21,0,2.79-.32.54-1.58.9-2.23,1.12-1.04.34-2.1.62-3.1,1.07-2.28,1.03-4.44,2.66-6.3,4.31-1.98,1.76-3.75,3.88-4.57,6.43-.59,1.84,2.3,2.63,2.89.8h0Z"></path><path class="cls-7" d="M444.85,385.13c-.31,1.2-.33,2.44-.33,3.67,0,1.16.15,2.61-.32,3.71-.75,1.75-3.69,2.07-5.3,2.34-2.85.47-5.73.68-8.62.82-1.65.08-3.27.14-4.91,0s-3.23-.35-4.86-.15c-1.89.23-1.91,3.24,0,3,1.78-.22,3.54.05,5.32.19s3.56.02,5.35-.08c3.15-.17,6.32-.43,9.42-1.04,2.29-.45,5.04-1.28,6.19-3.52,1.31-2.54.27-5.49.96-8.14.49-1.87-2.4-2.67-2.89-.8h0Z"></path><path class="cls-7" d="M356.26,385.16c.18,1.14.41,2.3.97,3.32.53.95,1.39,1.67,2.38,2.09.74.32,1.5.55,2.29.74s1.66-.23,1.85-1.05c.17-.76-.23-1.66-1.05-1.85-.57-.13-1.15-.28-1.7-.49-.05-.02-.1-.05-.15-.06-.05-.01.37.16.23.1-.03-.01-.06-.03-.1-.04-.11-.05-.21-.1-.32-.16-.09-.05-.18-.1-.27-.16-.14-.09-.43-.35,0,.03-.14-.12-.28-.24-.41-.38-.03-.04-.06-.08-.1-.11-.06-.07.26.36.13.17-.06-.08-.11-.16-.16-.25s-.09-.17-.14-.25c-.02-.04-.04-.08-.06-.12-.13-.27.12.31.06.14-.08-.21-.15-.42-.21-.64-.17-.6-.28-1.22-.38-1.83-.06-.35-.4-.73-.69-.9-.32-.19-.8-.27-1.16-.15s-.71.34-.9.69c-.2.38-.22.74-.15,1.16h0Z"></path><path class="cls-7" d="M559,398.5c4.68.16,9.87-.59,14.07-2.74,1.93-.99,3.74-2.5,4.42-4.63.47-1.47.39-3.19.5-4.72.16-2.08.3-4.16.38-6.24.13-3.39.26-6.84,0-10.23-.23-3.1-.75-6.47-2.5-9.11s-4.57-3.18-7.52-2.93c-1.4.12-2.79.35-4.19.38-2.08.04-4.17-.02-6.25-.02-9.89,0-19.78.13-29.67.25-8.2.1-16.4.19-24.6.24-6.05.03-12.1.11-18.14-.15-.37-.02.08.03.06.01-.23-.15.88.97.89.99-.35-1.3-2.05-1.41-2.74-.36-2.09,3.19-2.43,7.23-2.47,10.95-.05,4.31.41,8.6.39,12.91-.01,3.03-.91,6.63.19,9.56,1.03,2.76,4.29,4.32,7.05,4.7,4,.55,8.3-.17,12.22-.96,1.89-.38,1.09-3.28-.8-2.89-3.14.64-6.41,1.1-9.62,1-1.99-.06-5.18-.73-6.03-2.83-.36-.89-.29-2.09-.25-3.07.06-1.72.22-3.43.24-5.15.04-3.8-.31-7.59-.38-11.38s-.09-8.05,2.05-11.32l-2.74-.36c.45,1.67,3.41,1.29,4.7,1.32,3.12.07,6.24.06,9.36.06,8.28-.01,16.56-.1,24.84-.19,6.8-.08,13.6-.16,20.4-.23,4.11-.04,8.23-.07,12.34-.09,3.69-.01,7.46.25,11.13-.15,2.45-.27,5.64-.99,7.15,1.53,1.6,2.67,1.89,5.99,1.99,9.04.11,3.38,0,6.79-.17,10.17-.11,2-.26,4-.41,6-.09,1.14-.02,2.32-.7,3.29-1.15,1.63-3.31,2.46-5.14,3.03-2.28.71-4.66,1.11-7.04,1.28-1,.07-2,.09-3,.06-1.93-.06-1.93,2.94,0,3h0Z"></path><path class="cls-7" d="M634.32,352.68c-5.62.85-11.06,2.74-16.8,2.47-3.65-.17-8.22-.54-10.6,2.85-1.42,2.02-1.63,4.89-1.71,7.28-.1,2.84.2,5.67.39,8.5.22,3.14.45,6.28.73,9.42.23,2.52.16,5.35.99,7.78,1.98,5.83,9.48,4.92,14.38,5.24,1.93.12,1.92-2.88,0-3-2.43-.16-4.89-.06-7.3-.44-1.83-.29-3.61-.82-4.24-2.73-.73-2.22-.65-4.79-.86-7.09-.26-2.87-.49-5.73-.67-8.6-.16-2.54-.43-5.07-.45-7.61-.02-2.14-.06-4.85,1.03-6.78,1.58-2.81,6.26-1.9,8.88-1.8,5.8.23,11.36-1.75,17.03-2.6,1.9-.29,1.09-3.18-.8-2.89h0Z"></path><path class="cls-7" d="M273.48,354.89c-.44,4.53-.68,9.07-.68,13.62,0,1.93,3,1.93,3,0,0-4.55.24-9.09.68-13.62.08-.81-.75-1.5-1.5-1.5-.88,0-1.42.69-1.5,1.5h0Z"></path><path class="cls-7" d="M293.9,355.23v9.19c0,.78.69,1.54,1.5,1.5s1.5-.66,1.5-1.5v-9.19c0-.78-.69-1.54-1.5-1.5s-1.5.66-1.5,1.5h0Z"></path><path class="cls-7" d="M316.43,362.67c-1.1,4.47-1.08,9.1-1.07,13.68,0,1.93,3,1.93,3,0,0-4.3-.07-8.67.97-12.88.46-1.87-2.43-2.67-2.89-.8h0Z"></path><path class="cls-7" d="M492.09,368.28c-.83,3.71-.32,7.5-.52,11.26-.14,2.57-.91,5.09-1.12,7.66-.18,2.29-.01,5.08,2.51,5.96,2.37.83,4.98.21,7.42.57,2.88.42,6.31,2.9,7.44,5.58.32.75,1.41.9,2.05.54.78-.44.85-1.31.54-2.05-1.12-2.63-3.82-4.66-6.31-5.9s-4.61-1.23-7.19-1.28c-.84-.02-2.32.15-3.07-.32-.48-.3-.44-1.52-.43-2.19.06-2.49.75-4.91,1.06-7.37.49-3.87-.34-7.83.52-11.66.42-1.88-2.47-2.68-2.89-.8h0Z"></path><path class="cls-7" d="M494.15,382.64c4.24,1,8.31,2.83,11.54,5.81s5.36,6.94,6.31,11.27c.41,1.89,3.31,1.09,2.89-.8-1.05-4.8-3.46-9.25-7.08-12.59s-8.12-5.46-12.86-6.58c-1.88-.44-2.68,2.45-.8,2.89h0Z"></path><path class="cls-7" d="M509.09,401.61c1.55,2.45,3.06,4.93,3.88,7.73.5,1.69,2.8,1.24,2.95-.4.45-5.05,5.61-7.88,10.29-7.41,2.96.29,6.12.83,8.69,2.4,2.15,1.32,3.55,3.43,5.06,5.38.5.65,1.59.52,2.12,0,.64-.63.49-1.48,0-2.12-1.87-2.41-3.59-4.76-6.34-6.24-3.08-1.66-7.09-2.45-10.57-2.48-6.14-.05-11.7,4.21-12.26,10.46l2.95-.4c-.89-3.05-2.49-5.78-4.18-8.45-1.03-1.63-3.63-.12-2.59,1.51h0Z"></path><path class="cls-7" d="M494.04,369.67c11.47.08,22.94.15,34.4.19,5.7.02,11.4.04,17.11.05,4.49,0,9,.15,13.48-.15,1.87-.13,3.75-.26,5.62-.28.87-.01,1.76-.02,2.63.08.24.03.48.07.71.12.32.07.47.2.3.05,1.45,1.26,3.58-.85,2.12-2.12-1-.87-2.34-1-3.61-1.09-1.72-.12-3.45-.03-5.16.07-4.06.23-8.06.33-12.13.32-11.81-.01-23.63-.06-35.44-.13-6.68-.04-13.36-.08-20.04-.12-1.93-.01-1.93,2.99,0,3h0Z"></path><path class="cls-7" d="M566.84,368.94c.03,2.49.56,5.01.84,7.48.16,1.42.31,2.84.36,4.27.02.53-.03,1.04-.03,1.57,0,.29.11-.32,0-.09-.03.07-.05.18-.06.26-.04.32.14-.27.05-.12.08-.15.41-.41.7-.52-.76.28-1.28,1.02-1.05,1.85.2.73,1.08,1.33,1.85,1.05,2-.75,1.58-3.63,1.46-5.32-.19-2.54-.55-5.07-.86-7.6-.11-.93-.26-1.88-.27-2.82-.02-1.93-3.02-1.93-3,0h0Z"></path><path class="cls-7" d="M567.58,368.92c-4.03,2.84-7.99,5.9-10.76,10.04s-4.13,8.92-5.5,13.58c-.54,1.86,2.35,2.65,2.89.8,1.27-4.31,2.54-8.75,5-12.55s6.2-6.67,9.89-9.27c1.57-1.1.07-3.71-1.51-2.59h0Z"></path><path class="cls-7" d="M567.3,382.2c.61,1.22.67,3.05.49,4.38-.19,1.41-1.38,2.13-2.52,2.79-1.39.82-2.87,1.49-4.14,2.49s-2.33,2.31-3.18,3.72c-1.46,2.4-2.28,5.38-4.3,7.4-1.15,1.15-2.57,1.52-4.11,1.91-2.16.55-4.39,1.02-6.58.38-1.86-.54-2.65,2.35-.8,2.89,3.36.98,7.57.17,10.76-1.15,2.53-1.05,4.14-3.18,5.37-5.54s2.23-4.98,4.23-6.85,5.12-2.55,7-4.76c1.98-2.32,1.68-6.59.38-9.18-.86-1.73-3.45-.21-2.59,1.51h0Z"></path><path class="cls-7" d="M539.27,408.26c0,6.31-.08,12.62.29,18.93.17,2.81.38,5.63.74,8.42.27,2.06.49,4.27,1.41,6.15.85,1.73,3.44.21,2.59-1.51,0,0-.17-.43-.26-.75-.13-.44-.23-.9-.32-1.35-.23-1.11-.39-2.24-.52-3.36-.32-2.72-.52-5.45-.67-8.18-.34-6.11-.25-12.22-.25-18.34,0-1.93-3-1.93-3,0h0Z"></path><path class="cls-7" d="M514.3,405.56c-1.64,5.3-2.28,10.87-3.06,16.34-.88,6.25-.72,12.32,1.02,18.41.53,1.85,3.42,1.07,2.89-.8-1.67-5.87-1.75-11.62-.9-17.63.73-5.2,1.38-10.5,2.94-15.53.57-1.85-2.32-2.64-2.89-.8h0Z"></path><path class="cls-7" d="M613.11,364.2c-1.12,3,.27,6.61.62,9.66.23,2.03.49,4.05.75,6.08.22,1.68.29,3.48.85,5.1.79,2.27,2.56,3.29,4.83,3.68,3.62.62,7.12,1.14,10.49,2.71,1.74.81,3.26-1.78,1.51-2.59-3.11-1.45-6.37-2.33-9.76-2.8-1.67-.23-3.66-.22-4.27-2.05-.5-1.49-.55-3.2-.75-4.75-.24-1.87-.47-3.74-.69-5.61-.17-1.49-.41-2.95-.68-4.43-.26-1.38-.52-2.85-.02-4.2.68-1.81-2.22-2.59-2.89-.8h0Z"></path><path class="cls-7" d="M614.81,365.07c3.24-.21,6.44.74,9.52,1.63,3.56,1.02,7.14,1.9,10.76,2.66,1.88.39,2.69-2.5.8-2.89-3.73-.78-7.41-1.7-11.07-2.75-3.22-.92-6.63-1.86-10.01-1.65-1.92.12-1.93,3.12,0,3h0Z"></path><path class="cls-7" d="M614.92,364.51c3.72,1.19,7.76.06,11.43-.85,1.35-.34,2.71-.67,4.09-.9.62-.1,1.24-.17,1.86-.18.16,0,.31,0,.47.01.04,0,.38.06.19.02.25.05.54.25.2-.02.64.5,1.5.62,2.12,0,.52-.52.64-1.62,0-2.12-2.29-1.77-5.96-.61-8.49,0-3.52.85-7.49,2.3-11.06,1.15-1.84-.59-2.63,2.3-.8,2.89h0Z"></path><path class="cls-12" d="M169.78,217.55c2.4-1.42,5.54-.52,7.97.36,3.35,1.21,6.49,3.06,9.45,5.01,6.3,4.15,12,9.16,15.9,15.69,2.63,4.4,4.39,9.31,5.01,14.41.23,1.89,3.23,1.92,3,0-1.22-9.98-6.16-19.07-13.52-25.87-5.31-4.9-11.73-9.32-18.49-11.92-3.37-1.3-7.53-2.23-10.84-.27-1.66.98-.15,3.58,1.51,2.59h0Z"></path><path class="cls-7" d="M316.85,143.01c-4.04-.15-7.78,2.71-10.6,5.28-3.44,3.14-6.44,6.93-8.77,10.96-1.04,1.81-2.01,3.75-2.5,5.79-.45,1.88,2.44,2.68,2.89.8.5-2.07,1.53-3.99,2.63-5.8,1.42-2.35,3.07-4.57,4.9-6.62s3.72-3.9,5.94-5.38c1.67-1.12,3.57-2.11,5.51-2.04s1.93-2.93,0-3h0Z"></path><path class="cls-7" d="M318.14,145.26c-6.86,4.33-12.94,10.97-15.5,18.77-.6,1.84,2.29,2.63,2.89.8,2.31-7.04,7.94-13.07,14.12-16.98,1.63-1.03.12-3.63-1.51-2.59h0Z"></path><path class="cls-7" d="M317.32,147.54c-4.1,4.99-6.72,11.22-8.05,17.51-.4,1.88,2.5,2.69,2.89.8,1.21-5.76,3.51-11.6,7.27-16.19.51-.63.61-1.51,0-2.12-.53-.53-1.6-.63-2.12,0h0Z"></path><path class="cls-7" d="M317.9,148.6c-.17,3.08.72,6.11.51,9.19-.05.78.73,1.53,1.5,1.5.86-.04,1.44-.66,1.5-1.5.21-3.08-.68-6.11-.51-9.19.04-.78-.72-1.53-1.5-1.5-.85.04-1.45.66-1.5,1.5h0Z"></path><path class="cls-12" d="M620.92,226.97c1.97,4.54,4.57,8.78,6.64,13.28.34.74,1.4.92,2.05.54.76-.44.88-1.31.54-2.05-2.07-4.5-4.67-8.73-6.64-13.28-.32-.74-1.41-.91-2.05-.54-.77.45-.86,1.31-.54,2.05h0Z"></path><path class="cls-7" d="M635.44,281.36c0-1.02.17-1.93.46-2.74-28.09.84-63.31,1.38-103.89,1.38-94.88,0-160.54-2.92-173.99-5.88,13.45-2.96,79.12-5.88,173.99-5.88,40.76,0,76.12.54,104.27,1.39.03-.99.07-1.98.15-2.98-30.16-.92-66.37-1.41-104.42-1.41-47.43,0-92.03.77-125.57,2.16-53.43,2.22-53.43,4.71-53.43,6.72s0,4.5,53.43,6.72c33.55,1.39,78.14,2.16,125.57,2.16,37.64,0,73.47-.48,103.44-1.38,0-.09,0-.17,0-.26Z"></path><path class="cls-12" d="M102.1,280.05c-10.28,2.05-20.59,7.43-25.11,17.37s-2.44,20.51,2.23,29.64c2.45,4.8,5.82,9.05,8.44,13.76,2.57,4.63,4.91,9.38,7.57,13.96,4.86,8.35,11.47,17.31,21.72,18.82,4.62.68,9.51-.09,13.81-1.87s8.53-4.92,9.64-9.69c.27-1.17.35-2.38.26-3.58-.15-1.91-3.15-1.93-3,0,.73,9.24-11.41,12.8-18.73,12.36-9.44-.57-15.72-8.61-20.23-16.07-2.54-4.2-4.75-8.59-7.07-12.92-1.12-2.09-2.26-4.16-3.5-6.18-1.33-2.17-2.86-4.19-4.2-6.35-5.01-8.09-8.21-18.12-5.39-27.55,3.27-10.95,13.79-16.7,24.36-18.81,1.89-.38,1.09-3.27-.8-2.89h0Z"></path></g><g id="_Шар_6" data-name="Шар 6"><rect class="cls-15" x="38.44" y="65.5" width="597.06" height="375"></rect></g></svg> 