<?xml version="1.0" encoding="UTF-8"?> <svg xmlns="http://www.w3.org/2000/svg" width="132" height="331" viewBox="0 0 132 331" fill="none"><path d="M78.59 85.7598C78.32 89.8698 82.79 109.71 91.56 128.29C100.33 146.87 111.07 170.19 116.2 196.03C121.33 221.87 116.54 308.98 116.54 308.98C116.54 308.98 116.58 312.92 114.45 315.9C112.32 318.88 111.26 319.45 111.26 319.45H17.53C17.53 319.45 11.53 320.23 11.92 301.05C12.31 281.87 8.76999 209.33 13.04 193.6C17.31 177.87 19.72 161.84 35.52 132.36C51.32 102.88 49.97 87.5598 49.97 87.5598L78.58 85.7598H78.59Z" fill="#444444"></path><path d="M90.01 270.33C90.26 264.67 90.41 259.02 90.75 253.37C91.32 243.86 91.62 234.31 91.07 224.79C90.8 220.16 90.43 215.45 89.55 210.89C89.16 208.85 88.63 206.84 88.02 204.85C91.61 233.72 88.6 267.65 87.72 286.87C89.34 281.41 89.76 276.03 90.02 270.32L90.01 270.33Z" fill="#2D2D2D"></path><path d="M111.56 176.24C96.32 137.87 80.87 109.65 78.59 85.7601C76.83 67.2601 65.97 69.9701 61.16 72.1401C61.16 74.0801 61.18 76.0201 61.2 77.9601C61.34 87.8601 61.74 97.7501 62.16 107.64C62.37 112.63 62.59 117.61 62.77 122.6C62.95 127.43 62.89 132.3 63.25 137.12C63.82 144.73 67.7 151.47 71.54 157.86C73.6 161.3 75.7 164.72 77.49 168.3C79.43 172.17 81.07 176.2 82.91 180.12C86.86 188.57 90.98 197.07 93.38 206.12C94.62 210.8 95.16 215.66 95.58 220.47C96 225.27 96.17 230.08 96.18 234.9C96.2 243.38 95.5 251.81 95.16 260.28C94.94 265.85 94.92 271.43 94.37 276.98C93.65 284.18 91.94 292.13 87.49 297.72C86.93 319.73 26.14 313.43 21.24 308.18C16.29 302.87 12.64 213.57 21.97 187.22C31.3 160.87 41.07 123.26 39.68 124.06C38.29 124.86 14.98 165.87 10.64 203.37C6.3 240.87 11.8 305.6 13.05 313.23C14.3 320.86 22.11 320.58 22.11 320.58L111.24 319.44C111.24 319.44 118.92 327.22 118.11 301.04C117.3 274.86 126.78 214.6 111.54 176.23L111.56 176.24Z" fill="#2D2D2D"></path><path d="M52.94 185.02C47.18 150.08 51.11 108.44 54.14 90.6401C52.49 95.8701 50.78 101.09 49.11 106.31C48.24 109.03 47.38 111.75 46.54 114.47C45.54 117.95 44.5 121.43 43.47 124.9C42.55 128.2 41.69 131.51 40.9 134.84C38.62 144.54 37.51 154.36 36.89 164.29C36.26 174.47 35.75 184.68 35.37 194.87C35 205.01 34.9 215.18 36.14 225.26C36.28 226.44 35.17 227.45 34.08 227.64C34.08 228.38 34.1 229.12 34.1 229.86C34.1 231.22 33.15 232.02 32.09 232.18C32.08 232.6 32.07 233.02 32.05 233.44C31.92 236.04 27.8 236.88 27.3 234.08C27.06 232.76 26.85 231.44 26.64 230.12C26.49 230.1 26.34 230.05 26.19 230C25.31 267.14 28.05 298.9 28.6 301.04C29.33 303.86 62.92 310.09 69.62 304.48C76.32 298.86 59.56 225.16 52.94 185.01V185.02Z" fill="#666666"></path><path opacity="0.43" d="M35.32 155.87C26.32 181.87 28.95 271.88 29.64 286.87C30.32 301.87 42.32 303.87 42.32 303.87C42.32 303.87 36.59 287.96 36.96 256.91C37.33 225.86 34.44 176.73 36.88 164.3C39.32 151.87 44.32 135.87 44.32 136.87C44.32 137.87 35.32 155.87 35.32 155.87Z" fill="white"></path><path d="M76.75 79.8302C76.59 76.4702 76.42 73.1102 76.26 69.7602C76.41 69.6002 76.5 69.3802 76.48 69.0902L75.94 63.0702C75.88 62.4202 75.34 62.1002 74.84 62.1102C74.83 61.6002 74.81 61.0802 74.8 60.5702C74.72 56.2002 74.7 51.8202 74.75 47.4502C74.77 45.2302 74.8 43.0202 74.87 40.8002C74.9 39.9002 74.93 38.9802 75.22 38.1202C75.56 37.1102 76.27 36.3502 76.96 35.5702C79.6 32.6102 80.71 28.7702 79.35 24.9302C79.1 24.2102 78.33 24.1002 77.83 24.4002C77.2 23.8002 76.42 23.3902 75.52 23.2902C75.55 21.9602 75.58 20.6202 75.6 19.2802C75.61 18.7902 75.35 18.5102 75.01 18.3902C75.12 16.8302 75.43 15.2702 75.9 13.6902C76.7 10.9902 76.41 8.38021 73.39 7.45021C70.36 6.51021 66.87 6.37022 63.73 6.46022C61.12 6.53022 58.52 6.87022 55.97 7.46022C55.48 6.92022 54.46 6.89022 54.28 7.80022C54.28 7.83022 54.27 7.87021 54.26 7.90021C54.08 7.95021 53.89 7.99021 53.71 8.04021C52.97 8.26021 52.87 9.04022 53.17 9.55022C53.13 9.97022 53.11 10.3902 53.1 10.8102C52.76 11.0302 52.53 11.4202 52.64 11.8802C53.05 13.5402 53.3 15.2102 53.4 16.9102C53.4 17.3202 53.41 17.7402 53.45 18.1502C53.48 18.5202 53.68 18.7802 53.93 18.9302C53.93 18.9802 53.91 19.0302 53.91 19.0802C53.68 19.1802 53.48 19.3802 53.37 19.6802C52.96 20.8602 52.51 22.0202 52.04 23.1602C49.75 24.2902 48.68 26.9402 48.98 29.4702C49.23 31.6602 50.47 33.4502 51.99 34.9802C51.99 35.0602 51.97 35.1402 51.99 35.2202C52.1 35.9802 52.47 36.6002 52.99 37.0602C53.44 38.4102 53.38 39.9602 53.38 41.3502C53.38 43.4902 53.37 45.6302 53.36 47.7702C53.35 52.2202 53.33 56.6602 53.32 61.1102C53.32 61.5202 53.5 61.7802 53.75 61.9302C53.43 65.5802 53.11 69.2302 52.79 72.8802C52.77 73.1302 52.84 73.3202 52.95 73.4702C52.73 76.3302 52.51 79.1802 52.29 82.0402C51.92 83.7902 51.72 85.5602 51.69 87.3502C51.28 89.3302 50.79 91.3002 50.21 93.2502C49.84 94.4902 51.77 95.0102 52.14 93.7802C52.18 93.6502 52.21 93.5202 52.25 93.3902C60.61 93.0902 68.97 93.2502 77.31 93.8902C77.82 93.9302 78.35 93.4002 78.31 92.8902C77.96 88.6402 77.4 84.4202 76.69 80.2202C76.74 80.1002 76.77 79.9702 76.76 79.8202L76.75 79.8302Z" fill="#F4DE0F"></path><path d="M79.45 33.1699C80.33 31.0999 80.5 28.77 79.5 26.71C79.5 26.69 79.48 26.6699 79.48 26.6499C79.48 26.6499 79.48 26.6299 79.47 26.6199C79.47 26.6199 79.46 26.61 79.45 26.6C79.33 26.35 79.12 26.1599 78.87 26.0599C78.84 25.9899 78.8 25.92 78.77 25.85C78.32 24.94 77.86 24.0399 77.41 23.1399C76.84 21.9999 76.27 20.8599 75.7 19.7199C76.08 15.6799 75.97 11.6199 75.83 7.55995C75.78 6.27995 73.79 6.26995 73.83 7.55995C73.85 7.95995 73.85 8.35994 73.86 8.75994C70.36 7.72994 66.73 7.13994 63.09 7.03994C61.29 6.98994 59.47 7.05994 57.68 7.25994C56.89 7.34994 56.12 7.51995 55.51 7.90995C55.54 7.61995 55.48 7.32994 55.24 7.11994C54.86 6.76994 54.2 6.69994 53.83 7.11994C53.26 7.75994 52.89 8.52995 52.68 9.32995C52.1 9.54995 51.67 10.37 52.2 11.02C52.29 11.13 52.38 11.2299 52.47 11.3399C52.01 12.7999 52.1 14.4399 52.78 15.8299C52.89 16.0499 53.1 16.1899 53.33 16.2599C53.17 17.8499 53.09 19.45 53.09 21.05C53.09 21.21 53.14 21.3699 53.22 21.5099C52.91 21.6899 52.63 21.9399 52.38 22.2199C50.68 22.8999 49.42 24.48 49.42 26.52C49.42 26.61 49.44 26.6999 49.45 26.7899C49.39 26.8799 49.34 26.9699 49.32 27.0899C48.73 29.8299 49.68 32.6099 51.59 34.4999C52.09 35.1399 52.67 35.72 53.31 36.24C52.67 36.63 52.74 37.77 53.57 38.07C53.92 38.2 54.27 38.3199 54.63 38.4499C54.75 38.9599 55.17 39.3599 55.79 39.1199C56.65 38.7899 57.54 38.5199 58.42 38.2899C58.61 38.2699 58.81 38.25 59.01 38.24C60.89 38.27 62.78 38.26 64.66 38.24C62.93 56.41 62.32 74.6799 62.87 92.9199C62.9 93.8699 64 94.1199 64.55 93.6499C64.72 93.6899 64.89 93.7199 65.07 93.7499C66.47 93.9299 67.88 94.05 69.28 94.21C72.01 94.51 74.73 94.8 77.46 95.1C77.97 95.16 78.5 94.6 78.46 94.1C78.12 89.4 77.32 84.7199 76.6 80.0599C76.09 76.7399 75.55 73.4299 74.99 70.1199C74.82 62.8599 74.82 55.61 75.02 48.35C75.02 48.03 74.91 47.79 74.73 47.63C74.9 44.51 75.2 41.3999 75.75 38.3399C77.2 36.7999 78.64 35.18 79.48 33.21L79.45 33.1699ZM52.89 29.0499C52.72 28.9199 52.54 28.7899 52.39 28.6499C52.41 27.3599 52.81 26.1399 53.46 25.0599C52.97 26.3299 52.74 27.6999 52.89 29.0499ZM72.14 33.96C72.19 33.96 72.25 33.9399 72.3 33.9399C72.38 33.9299 72.44 33.8799 72.5 33.8599C72.5 33.9399 72.48 34.0099 72.47 34.0899C72.44 34.1099 72.41 34.14 72.38 34.16C71.98 34.45 71.88 34.8799 71.97 35.2599C71.83 35.1699 71.66 35.1099 71.45 35.1199C71.61 34.8099 71.76 34.4999 71.91 34.1899C71.98 34.1099 72.06 34.0499 72.13 33.9699L72.14 33.96ZM68.4 12.16C68.5 12.16 68.58 12.1399 68.66 12.1199C68.76 12.2299 68.85 12.3499 68.93 12.4799C68.93 13.2599 68.91 14.04 68.91 14.82C68.72 13.94 68.54 13.0499 68.35 12.1699C68.37 12.1699 68.39 12.1699 68.4 12.1699V12.16ZM54.97 36.1199C54.97 36.1199 54.97 36.1199 54.97 36.1099C55.46 35.7699 55.68 34.9699 55.17 34.5499C55.13 34.5099 55.09 34.4699 55.05 34.4299C55.42 34.4299 55.78 34.4399 56.15 34.4299C56.28 34.4599 56.4 34.4999 56.53 34.5299C56.31 35.0499 56.55 35.8099 57.15 35.9699L58.03 36.1999C57.01 36.1799 55.99 36.1499 54.97 36.1099V36.1199ZM63.27 35.52C62.18 35.57 61.09 35.6899 60.01 35.8699C60.04 35.7999 60.07 35.7199 60.09 35.6399C61.19 35.4899 62.29 35.3299 63.38 35.1799C63.32 35.2899 63.29 35.4 63.27 35.52ZM62.33 32.2299C60.74 32.2699 59.16 32.3099 57.57 32.3599C57.48 32.3599 57.29 32.3799 57.03 32.3999C55.95 31.6999 55.2 30.5299 54.94 29.2599C54.63 27.7499 55.02 26.2399 55.72 24.8999C56.29 25.1199 57.12 24.74 57.16 23.99C57.28 21.78 57.54 19.5199 57.46 17.3099C57.43 16.4899 57.31 15.6799 57.03 14.9399C57.37 14.6099 57.47 14.0599 57.03 13.5799C56.84 13.3699 56.66 13.1599 56.48 12.9499C56.92 12.7099 57.39 12.5499 57.89 12.4299C58.86 12.9399 59.88 13.3099 60.99 13.1199C62.03 12.9499 63.01 12.49 64.01 12.13C64.78 12.13 65.54 12.1299 66.31 12.1399C66.71 14.0599 67.12 15.9699 67.52 17.8899C67.01 17.7199 66.38 17.9199 66.22 18.5399C65.55 21.1499 66.71 23.39 68.75 24.71C68.73 25.57 68.73 26.4399 68.81 27.2799C68.93 28.6299 69.54 29.7899 70.98 29.9399C71.19 29.9599 71.38 29.8999 71.53 29.7799C71.52 29.9299 71.51 30.0799 71.49 30.2299C71.48 30.3399 71.44 30.4599 71.42 30.5799C71.21 31.0599 71 31.5399 70.78 32.0099C67.96 32.0799 65.15 32.1599 62.33 32.2299ZM76.99 32.9299C77.26 32.6499 77.51 32.3699 77.75 32.0799C77.67 32.2899 77.58 32.4899 77.48 32.6899C77.25 33.1599 76.98 33.6099 76.68 34.0399C76.78 33.6699 76.88 33.2999 76.99 32.9299ZM75.3 29.9799C75.17 30.2299 75.05 30.49 74.93 30.74C75.16 28.99 75.4 27.24 75.63 25.49C76.08 26.53 75.77 28.0199 75.55 28.9799C75.47 29.3099 75.39 29.6399 75.3 29.9699V29.9799Z" fill="#F2B111"></path><path d="M75.59 36.05C75.77 35.91 75.94 35.74 76.11 35.57C76.39 35.89 76.84 36.06 77.33 35.82C79.38 34.8 80.43 32.42 80.33 30.2C80.24 28.27 79.39 26.55 78.27 25.01C78.12 24.55 77.95 24.09 77.74 23.66C77.61 23.4 77.43 23.25 77.22 23.19C77.05 22.72 76.88 22.26 76.71 21.79C76.53 21.3 76.11 21.11 75.69 21.12C76.87 17.51 76.95 13.57 75.89 9.92998C75.89 9.89998 75.89 9.87999 75.89 9.84999C75.88 9.63999 75.8 9.44998 75.68 9.27998C75.56 8.90998 75.44 8.52998 75.29 8.16998C75.09 7.66998 74.62 7.30998 74.06 7.46998C74.01 7.47998 73.97 7.49999 73.92 7.51999C73.79 7.09999 73.47 6.78998 72.99 6.77998C72.5 6.77998 71.93 7.23998 71.99 7.77998C72.03 8.15998 72.07 8.53998 72.11 8.91998C71.6 8.07998 70.91 7.34999 69.98 6.84999C68.85 6.23999 67.84 7.96999 68.97 8.57999C70.88 9.60999 71.34 11.95 71.44 13.94C71.59 16.9 71.28 19.92 70.75 22.83C70.61 23.61 71.3 24.11 71.9 24.08L74.15 27.02C74.92 28.02 76.23 29.26 76.31 30.59C76.36 31.43 75.94 32.25 75.43 33C75.27 32.83 75.05 32.71 74.76 32.7C74.2 32.69 73.65 32.68 73.09 32.68C72.87 32.41 72.54 32.24 72.1 32.35C71.68 32.46 71.27 32.55 70.85 32.64C67.1 32.62 63.35 32.69 59.61 32.84C59.08 32.86 58.68 33.34 58.62 33.83C57.73 33.91 56.85 34.01 55.96 34.12C55.95 34.12 55.93 34.12 55.92 34.12C55.83 34.13 55.74 34.14 55.65 34.15C54.5 34.31 54.83 36.08 55.92 36.11C58.31 36.18 60.7 36.1 63.08 35.89C63.04 36.43 63.45 37.01 64.06 37.03C65.51 37.08 66.95 37.12 68.4 37.17C68.7 39.09 68.89 41.02 68.99 42.96C67.26 53.44 68.29 63.95 68.97 74.51C68.98 74.72 69.05 74.88 69.15 75.02C69.34 80.5 69.6 85.99 69.97 91.46C69.99 91.79 70.14 92.17 70.47 92.32C70.87 92.5 71.27 92.7 71.67 92.9C71.23 93.39 71.44 94.36 72.14 94.56C73.75 95.01 75.36 95.46 76.97 95.91C77.89 96.17 78.43 95.19 78.08 94.49C78.25 94.25 78.34 93.93 78.28 93.61C77.14 87.02 76.6 80.39 76.42 73.7C76.29 68.82 76.07 63.92 74.67 59.27C74.6 57.26 74.52 55.25 74.45 53.24C74.53 49.15 74.41 45.06 74.1 40.97C74.22 39.76 74.35 38.55 74.51 37.35C74.88 36.91 75.24 36.47 75.59 36.02V36.05ZM74.94 22.74C74.4 22.43 73.89 22.67 73.63 23.08C73.58 23.01 73.53 22.95 73.48 22.88C73.65 22.76 73.79 22.59 73.82 22.37C73.83 22.29 73.84 22.22 73.85 22.14C74.11 22.34 74.47 22.42 74.8 22.34C74.85 22.47 74.9 22.61 74.95 22.74H74.94ZM75.55 88.84C75.71 90.1 75.91 91.35 76.11 92.61C76.09 92.61 76.07 92.61 76.05 92.61C76.07 92.48 76.06 92.35 76.03 92.2C75.76 91.08 75.52 89.96 75.28 88.83C75.37 88.85 75.46 88.85 75.56 88.85L75.55 88.84ZM70.09 35.24C69.78 35.23 69.47 35.22 69.16 35.21C70.55 34.88 71.97 34.7 73.42 34.67C73.63 34.67 73.84 34.67 74.05 34.67C72.89 35.39 71.57 35.28 70.1 35.23L70.09 35.24ZM71.67 39.31C71.67 39.31 71.72 39.33 71.74 39.35C71.92 40.5 71.86 41.74 71.91 42.83C71.91 42.87 71.91 42.9 71.91 42.94C71.84 43.69 71.78 44.45 71.72 45.2C71.69 43.24 71.66 41.27 71.66 39.31H71.67ZM71.93 90.83C71.87 89.96 71.83 89.09 71.78 88.21C71.82 88.46 71.85 88.71 71.89 88.95C71.92 89.13 72 89.26 72.11 89.37C72.22 89.79 72.64 90.12 73.07 90.12C73.22 90.12 73.35 90.09 73.47 90.03C73.35 90.23 73.31 90.48 73.42 90.77C73.53 91.09 73.64 91.41 73.76 91.73C73.16 91.41 72.55 91.11 71.93 90.81V90.83Z" fill="#D69400"></path><path d="M55.12 21.8502C55.12 21.8502 55.12 21.8402 55.12 21.8302C55.12 21.8002 55.09 21.5902 55.08 21.5602C55.08 21.5602 55.08 21.5602 55.08 21.5502C55.08 21.5502 55.08 21.5402 55.08 21.5302C55.06 21.4902 55.03 21.4202 55.03 21.4102C55.02 21.3802 55 21.3302 54.98 21.2902C54.98 21.2802 54.97 21.2702 54.96 21.2602C54.96 21.2602 54.96 21.2502 54.95 21.2402C54.9 21.1702 54.84 21.1002 54.79 21.0302C54.79 21.0202 54.77 21.0102 54.76 21.0002C54.76 21.0002 54.75 21.0002 54.74 20.9902C54.67 20.9302 54.6 20.8802 54.52 20.8202C54.5 20.8002 54.47 20.7902 54.45 20.7802C54.37 20.7402 54.28 20.7102 54.19 20.6702C54.19 20.6702 54.18 20.6702 54.17 20.6702C54.16 20.6702 54.14 20.6702 54.13 20.6702C53.89 20.6302 53.77 20.6102 53.53 20.6702C53.53 20.6702 53.52 20.6702 53.51 20.6702C53.48 20.6702 53.29 20.7602 53.27 20.7702C53.19 20.8202 53.1 20.8802 53.04 20.9502C53.01 20.9902 52.92 21.0902 52.87 21.1702C52.85 21.2102 52.81 21.3002 52.82 21.2902C52.82 21.3102 52.78 21.3702 52.77 21.4102C52.77 21.4102 52.77 21.4202 52.77 21.4302C52.77 21.4302 52.77 21.4302 52.77 21.4402C52.76 21.5302 52.74 21.6202 52.73 21.7102C52.73 21.8502 52.75 21.9802 52.82 22.1002C52.86 22.2202 52.93 22.3302 53.03 22.4202C53.12 22.5102 53.22 22.5802 53.34 22.6202C53.35 22.6302 53.36 22.6502 53.37 22.6602C53.49 22.7802 53.64 22.8702 53.81 22.9202L54.08 22.9602C54.26 22.9602 54.43 22.9102 54.58 22.8202C54.58 22.8202 54.59 22.8202 54.6 22.8102C54.63 22.7802 54.67 22.7602 54.7 22.7302C54.73 22.7002 54.77 22.6802 54.8 22.6502C54.8 22.6502 54.8 22.6502 54.81 22.6402C54.84 22.6102 54.91 22.5102 54.89 22.5402C54.89 22.5402 54.95 22.4702 54.97 22.4402C55.03 22.3602 55.06 22.2602 55.09 22.1702C55.09 22.1702 55.09 22.1702 55.09 22.1602C55.09 22.1302 55.11 22.0402 55.11 22.0202C55.11 21.9902 55.12 21.9202 55.13 21.8902L55.12 21.8502Z" fill="#D69400"></path><path d="M61.86 26.3002C59.1 25.6802 56.24 25.6902 53.48 26.3402C53.17 26.4102 52.97 26.6302 52.86 26.8802C52.59 26.9202 52.32 26.9602 52.06 27.0002C51.53 27.0902 51.23 27.7402 51.36 28.2302C51.51 28.7902 52.06 29.0202 52.59 28.9302C53.47 28.7702 54.35 28.6602 55.24 28.5502C57.31 28.8102 59.4 28.7502 61.46 28.3602C61.56 28.3402 61.64 28.2902 61.72 28.2402C62.71 28.1202 62.92 26.5402 61.86 26.3002Z" fill="white"></path><path d="M57.39 10.8501C57.34 10.3101 56.97 9.8501 56.39 9.8501C55.89 9.8501 55.34 10.3101 55.39 10.8501C55.71 14.0201 55.79 17.2001 55.61 20.3801C55.54 21.6701 57.54 21.6601 57.61 20.3801C57.78 17.2001 57.71 14.0201 57.39 10.8501Z" fill="white"></path><path d="M55.91 38.07C55.91 53.49 54.61 68.89 51.98 84.09C51.76 85.35 53.69 85.89 53.91 84.62C56.57 69.25 57.92 53.67 57.91 38.07C57.91 36.78 55.91 36.78 55.91 38.07Z" fill="white"></path><path d="M43.72 129.35C37.12 148.17 34.28 168.23 35.37 188.14C35.44 189.42 37.44 189.43 37.37 188.14C36.29 168.39 39.11 148.55 45.65 129.88C46.08 128.66 44.15 128.14 43.72 129.35Z" fill="white"></path><path d="M35.41 192.37C35.41 192.44 35.41 192.51 35.41 192.58C35.41 193.87 37.41 193.87 37.41 192.58C37.41 192.51 37.41 192.44 37.41 192.37C37.41 191.08 35.41 191.08 35.41 192.37Z" fill="white"></path><path d="M41.14 303.81C39.73 303.46 39.34 301.86 39.13 300.59C38.81 298.67 38.75 296.67 38.58 294.73L37.48 282.12C37.42 281.41 36.76 281.1 36.22 281.19C35.78 280.6 34.5 280.8 34.37 281.8C33.74 286.67 33.77 291.58 34.45 296.44C34.99 300.27 36.34 304.72 40.6 305.75C41.85 306.05 42.38 304.13 41.13 303.82L41.14 303.81ZM35.95 287.47C36.23 290.64 36.5 293.81 36.78 296.98C36.83 297.53 36.86 298.15 36.91 298.79C36.51 297.3 36.34 295.71 36.2 294.37C35.96 292.07 35.89 289.77 35.95 287.47Z" fill="white"></path><path d="M53.83 5.50981C51.16 6.25981 49.94 9.16982 50.09 11.7698C50.19 13.5598 51.43 14.9498 51.15 16.7698C51.02 17.6098 50.81 18.4098 50.78 19.2698C50.75 20.1298 50.93 21.0598 50.45 21.7898C50.08 22.3498 49.39 22.6998 48.91 23.1598C48.31 23.7298 47.84 24.4098 47.51 25.1698C46.87 26.6698 46.92 28.2798 47.13 29.8598C47.34 31.4398 47.37 33.2598 48.35 34.5898C49.14 35.6598 50.92 35.9498 51.46 37.1198C52.06 38.4298 54 37.2898 53.4 35.9798C52.88 34.8498 51.78 34.4398 50.81 33.7998C49.49 32.9398 49.53 31.0998 49.35 29.6698C49.17 28.2398 49.06 26.7798 49.82 25.5598C50.54 24.4098 51.9 23.8898 52.53 22.6698C53.22 21.3498 52.87 19.8798 53.09 18.4698C53.31 17.0598 53.69 15.6898 53.17 14.2398C52.68 12.8798 52.13 11.8098 52.42 10.3198C52.64 9.14983 53.2 8.00982 54.42 7.66982C55.81 7.27982 55.22 5.10982 53.82 5.49982L53.83 5.50981Z" fill="black"></path><path d="M51.47 36.2098C52.54 51.3598 51.31 66.6898 49.54 81.7498C48.67 89.1898 47.79 96.6898 45.75 103.92C43.34 112.46 39.27 120.36 35.92 128.54C34.18 132.81 32.24 137 30.19 141.12C28.14 145.24 25.89 149.12 23.98 153.24C20.14 161.52 17.64 170.26 15.31 179.06C12.98 187.86 10.91 197.08 10.1 206.33C9.29 215.58 9.53999 225.47 9.75999 235.04C9.97999 244.57 10.03 254.1 10.28 263.62C10.53 273.14 10.39 282.86 10.57 292.48C10.66 297.23 10.8 301.98 11.02 306.73C11.18 310.17 11.49 313.51 13.38 316.49C15.5 319.83 18.98 321.69 22.91 321.72C28.2 321.76 33.49 321.72 38.78 321.72C47.91 321.7 57.04 321.68 66.16 321.65C75.26 321.62 84.36 321.59 93.46 321.56C98.67 321.54 103.88 321.53 109.09 321.51C109.33 321.51 109.58 321.52 109.81 321.51C111.24 321.42 111.27 319.27 109.81 319.26C108.36 319.26 108.36 321.5 109.81 321.51V319.26C106.23 319.5 102.57 319.29 98.99 319.3C90.65 319.33 82.31 319.36 73.97 319.38C64.56 319.41 55.14 319.44 45.73 319.46C39.03 319.48 32.32 319.5 25.62 319.49C24.46 319.49 23.29 319.54 22.13 319.47C18.88 319.29 16.24 317.25 14.78 314.42C13 310.97 13.26 306.87 13.12 303.11C12.76 293.61 12.69 284.1 12.7 274.59C12.71 265.08 12.21 255.67 12.19 246.21C12.17 236.75 11.69 227.44 11.81 218.05C11.93 208.66 12.91 199.29 14.94 190.05C16.97 180.81 19.23 172.1 22.27 163.46C25.29 154.87 29.87 147.12 33.77 138.94C35.69 134.92 37.47 130.83 39.09 126.67C40.71 122.51 42.69 118.79 44.33 114.77C47.72 106.44 49.72 97.9198 50.92 89.0098C52.67 76.0698 53.77 63.0998 54.02 50.0398C54.11 45.4398 54.04 40.8398 53.72 36.2498C53.62 34.8098 51.37 34.7998 51.47 36.2498V36.2098Z" fill="black"></path><path d="M74.37 7.67983C75.59 8.01983 76.15 9.16983 76.37 10.3298C76.66 11.8198 76.1 12.8798 75.62 14.2498C75.14 15.6198 75.42 16.9098 75.67 18.2998C75.92 19.6898 75.55 21.3198 76.27 22.6798C76.89 23.8398 78.16 24.3498 78.89 25.4198C79.75 26.6698 79.64 28.2498 79.46 29.6898C79.28 31.1298 79.33 32.9498 78 33.8198C77.02 34.4598 75.93 34.8698 75.41 35.9998C74.81 37.3098 76.75 38.4498 77.35 37.1398C77.89 35.9598 79.67 35.6898 80.46 34.6098C81.41 33.3198 81.45 31.5998 81.66 30.0698C81.88 28.4198 81.97 26.7498 81.3 25.1898C80.97 24.4298 80.5 23.7598 79.9 23.1798C79.42 22.7198 78.73 22.3698 78.36 21.8098C77.88 21.0898 78.06 20.1198 78.03 19.2898C78 18.4598 77.79 17.6298 77.66 16.7898C77.38 14.9998 78.58 13.6698 78.71 11.9198C78.91 9.27983 77.71 6.28984 74.98 5.51984C73.58 5.12984 72.99 7.29984 74.38 7.68984L74.37 7.67983Z" fill="black"></path><path d="M75.07 36.2101C73.94 52.1701 75.41 68.2601 77.28 84.1201C78.31 92.8701 79.63 101.59 82.61 109.91C84.22 114.41 86.18 118.73 88.2 123.06C90.22 127.39 91.87 132.1 93.91 136.53C98.02 145.46 103.12 153.84 106.42 163.13C109.76 172.53 112.29 182.39 114.31 192.16C116.42 202.36 117.06 212.64 117 223.04C116.94 233.44 116.74 243.73 116.51 254.06C116.28 264.55 116.15 275.02 116.06 285.51C116.01 290.72 115.91 295.93 115.74 301.14C115.65 303.75 115.57 306.37 115.41 308.98C115.3 310.87 114.94 312.73 114.03 314.41C113.12 316.09 111.85 317.41 110.46 318.66C109.38 319.63 110.98 321.22 112.05 320.25C114.78 317.8 116.84 314.88 117.42 311.19C117.78 308.9 117.77 306.54 117.87 304.22C117.97 301.61 118.06 299.01 118.12 296.4C118.39 285.85 118.21 275.31 118.47 264.76C118.74 254.17 118.82 243.57 119.07 232.98C119.31 222.61 119.51 212.19 118.21 201.87C116.93 191.7 114.28 181.77 111.53 171.92C110.21 167.18 108.69 162.49 106.84 157.93C104.99 153.37 102.8 149.27 100.58 145.01C96.02 136.27 92.48 127.12 88.35 118.18C84.22 109.24 81.56 99.2801 80.15 89.2201C78.06 74.2401 76.78 59.0401 76.99 43.9101C77.03 41.3401 77.13 38.7801 77.31 36.2201C77.41 34.7801 75.16 34.7801 75.06 36.2201L75.07 36.2101Z" fill="black"></path><path d="M53.24 8.36015C56.35 7.38015 59.71 7.05015 62.95 6.88015C64.99 6.77015 67.03 6.80015 69.07 6.88015C70.09 6.91015 71.16 6.82015 72.16 7.08015C72.91 7.27015 73.59 7.66015 74.39 7.56015C75.81 7.39015 75.83 5.13015 74.39 5.31015C73.65 5.40015 72.83 4.89015 72.09 4.78015C71.09 4.62015 70.08 4.66015 69.07 4.63015C66.93 4.56015 64.8 4.53014 62.65 4.65014C59.32 4.85014 55.83 5.19014 52.63 6.20014C51.25 6.63014 51.84 8.81014 53.23 8.37014L53.24 8.36015Z" fill="black"></path><path d="M50.07 25.0199C53.07 23.8399 56.3 24.0499 59.46 24.0199C62.85 23.9799 66.23 23.8599 69.62 23.8599C70.59 23.8599 70.59 22.3599 69.62 22.3599C66.1 22.3599 62.59 22.4899 59.07 22.5299C55.91 22.5599 52.67 22.3999 49.68 23.5799C48.79 23.9299 49.18 25.3799 50.08 25.0299L50.07 25.0199Z" fill="black"></path><path d="M52.63 35.7501C58.77 34.4101 65.03 33.5801 71.32 33.5601C72.29 33.5601 72.29 32.0601 71.32 32.0601C64.9 32.0801 58.5 32.9301 52.23 34.3001C51.29 34.5101 51.69 35.9501 52.63 35.7501Z" fill="black"></path><path d="M49.57 96.6101C51.19 95.4301 53.39 95.46 55.31 95.37C57.82 95.26 60.34 95.3801 62.85 95.2301C65.36 95.0801 67.88 94.78 70.5 95.01C72.86 95.21 75.81 94.9101 77.92 96.1001C78.76 96.5701 79.52 95.2801 78.68 94.8001C76.53 93.5901 74.03 93.8301 71.66 93.6101C70.2 93.4701 68.74 93.3301 67.28 93.3501C65.82 93.3701 64.34 93.6401 62.86 93.7301C60.19 93.8901 57.51 93.7701 54.83 93.8901C52.81 93.9801 50.52 94.0701 48.82 95.3101C48.05 95.8701 48.8 97.1801 49.58 96.6101H49.57Z" fill="black"></path><mask id="mask0_7_920" style="mask-type:luminance" maskUnits="userSpaceOnUse" x="16" y="170" width="99" height="99"><path d="M65.32 268.87C92.382 268.87 114.32 246.932 114.32 219.87C114.32 192.808 92.382 170.87 65.32 170.87C38.2581 170.87 16.32 192.808 16.32 219.87C16.32 246.932 38.2581 268.87 65.32 268.87Z" fill="white"></path></mask><g mask="url(#mask0_7_920)"><path d="M116.23 270.85C115.89 270.88 115.55 270.92 115.2 270.92C81.81 270.92 48.42 270.92 15.04 270.92C14.7 270.92 14.36 270.87 14.01 270.85C14.01 236.78 14.01 202.7 14.01 168.63C14.27 168.63 14.53 168.61 14.79 168.61C48.34 168.61 81.9 168.61 115.45 168.61C115.71 168.61 115.97 168.62 116.23 168.63V270.85ZM89.97 238.12C93.02 240.57 95.98 242.96 98.95 245.35C98.97 245.02 98.89 244.79 98.78 244.57C95.11 237.15 93.17 229.28 92.86 221.02C92.69 216.53 92.74 212.03 92.71 207.53C92.69 203.27 91.63 199.27 89.78 195.45C89.56 195 89.29 194.58 89.04 194.13C87.75 195.68 86.59 197.18 85.29 198.57C84.66 199.25 84.58 199.76 84.99 200.58C86.07 202.7 86.45 204.95 85.71 207.28C84.57 210.89 81.05 213.39 76.85 213.6C76.52 213.62 76.18 213.64 75.81 213.65C75.9 214.81 76.02 215.87 76.04 216.93C76.05 217.49 76.24 217.81 76.73 218.08C79.16 219.46 81.57 220.87 83.99 222.27C84.25 222.42 84.49 222.59 84.86 222.83C82.53 224.14 80.31 225.3 78.18 226.61C77.14 227.25 76.05 228.01 75.37 228.98C74.02 230.9 72.78 232.93 71.78 235.06C69.25 240.48 67.76 246.28 66.08 252C65.82 252.9 65.54 253.79 65.27 254.68C65.2 254.68 65.12 254.68 65.05 254.68C64.93 254.28 64.8 253.89 64.67 253.49C62.98 248.16 61.36 242.82 59.57 237.53C58.9 235.55 57.86 233.7 56.93 231.81C55.42 228.71 52.88 226.73 49.83 225.26C48.37 224.55 46.99 223.68 45.42 222.8C45.93 222.5 46.27 222.29 46.61 222.09C48.93 220.75 51.25 219.41 53.57 218.06C53.83 217.91 54.2 217.68 54.22 217.45C54.36 216.2 54.41 214.95 54.49 213.74C53.32 213.55 52.2 213.46 51.12 213.18C45.65 211.74 42.81 206.58 44.96 201.56C45.71 199.81 45.46 198.82 44.2 197.61C43.14 196.59 42.3 195.33 41.31 194.11C41.16 194.34 41.04 194.5 40.95 194.67C38.91 198.53 37.7 202.61 37.63 206.99C37.57 210.74 37.61 214.48 37.57 218.23C37.48 227.56 35.61 236.48 31.38 244.85C31.32 244.98 31.3 245.13 31.22 245.46C34.34 242.95 37.31 240.55 40.35 238.11C42.6 241.75 44.78 245.28 47 248.88C49.39 246.63 51.66 244.51 53.98 242.33C57.71 248.39 61.38 254.34 65.14 260.44C68.9 254.33 72.57 248.37 76.3 242.33C78.67 244.56 80.93 246.68 83.28 248.89C85.51 245.27 87.7 241.73 89.93 238.11L89.97 238.12ZM91.25 183.49C91.14 183.61 91.03 183.74 90.92 183.86C89.7 185.23 88.32 186.38 86.61 187.11C85.62 187.53 84.87 187.48 84 186.64C79.32 182.12 73.66 179.66 67.19 179.22C59.16 178.68 52.13 181.16 46.27 186.72C45.52 187.43 44.81 187.64 43.98 187.16C42.77 186.46 41.6 185.68 40.45 184.87C39.93 184.5 39.5 183.99 39.04 183.54C39.55 184.88 40.11 186.2 40.89 187.39C45.72 194.71 52.28 200.07 59.91 204.23C60.38 204.49 60.74 204.41 61.18 204.13C63.79 202.47 66.45 202.46 69.09 204.06C69.66 204.4 70.07 204.43 70.65 204.12C77.17 200.65 82.77 196.05 87.43 190.32C89.09 188.28 90.49 186.08 91.25 183.48V183.49ZM65.18 240.18C65.36 239.73 65.45 239.5 65.54 239.27C66.35 236.96 67.07 234.62 67.98 232.35C69.53 228.46 71.87 225.16 75.54 222.96C75.62 222.91 75.67 222.8 75.78 222.68C74.81 222.12 73.92 221.53 72.96 221.07C71.95 220.58 71.56 219.88 71.58 218.74C71.6 217.22 71.51 215.68 71.29 214.18C70.92 211.72 69.77 209.67 67.72 208.18C66.24 207.11 64.49 207.02 62.94 208.01C61.65 208.84 60.67 209.96 60.01 211.34C58.9 213.64 58.7 216.11 58.81 218.6C58.86 219.79 58.5 220.56 57.4 221.08C56.45 221.53 55.57 222.13 54.57 222.72C54.89 222.95 55.13 223.1 55.34 223.28C56.44 224.21 57.62 225.06 58.6 226.09C60.79 228.39 62.09 231.22 63.15 234.16C63.84 236.08 64.47 238.03 65.19 240.18H65.18ZM81.04 202.74C78.14 204.57 75.29 206.37 72.44 208.17C74.5 209.5 77.83 209.47 79.8 208.09C81.68 206.77 82.14 204.76 81.04 202.74ZM49.35 202.75C48.36 204.43 48.59 206.36 50.02 207.65C51.57 209.04 53.44 209.35 55.42 209.04C56.29 208.9 57.12 208.56 58.09 208.27C55.05 206.35 52.22 204.56 49.34 202.74L49.35 202.75ZM20.17 262.68C20.48 262.31 20.72 261.76 21.08 261.66C21.7 261.5 22.4 261.66 23.06 261.6C24.2 261.52 23.56 262.68 24.19 263.17C24.28 262.45 24.52 261.76 23.94 261.42C23.29 261.03 22.47 260.92 21.72 260.7C21.7 260.7 21.65 260.79 21.61 260.81C21.37 260.93 21.14 261.08 20.88 261.14C20.07 261.33 19.82 261.9 20.18 262.68H20.17ZM22.08 262.01C21.77 262.55 21.47 262.84 21.49 263.11C21.51 263.34 21.95 263.75 22.12 263.71C22.4 263.64 22.76 263.3 22.79 263.03C22.82 262.79 22.45 262.51 22.08 262.01ZM20.39 263.47L20 263.6C20.09 263.95 20.07 264.41 20.29 264.64C20.83 265.19 21.49 264.98 22.15 264.74C21.6 264.22 20.3 264.95 20.39 263.47Z" fill="black"></path><path d="M89.97 238.12C87.74 241.74 85.56 245.28 83.32 248.9C80.97 246.69 78.71 244.57 76.34 242.34C72.62 248.38 68.95 254.34 65.18 260.45C61.42 254.35 57.76 248.41 54.02 242.34C51.69 244.52 49.43 246.65 47.04 248.89C44.82 245.29 42.64 241.76 40.39 238.12C37.36 240.56 34.38 242.96 31.26 245.47C31.34 245.15 31.36 244.99 31.42 244.86C35.65 236.49 37.53 227.57 37.61 218.24C37.65 214.49 37.61 210.75 37.67 207C37.74 202.62 38.95 198.54 40.99 194.68C41.08 194.51 41.2 194.36 41.35 194.12C42.34 195.34 43.17 196.6 44.24 197.62C45.5 198.83 45.75 199.82 45 201.57C42.85 206.59 45.69 211.76 51.16 213.19C52.23 213.47 53.36 213.56 54.53 213.75C54.45 214.96 54.4 216.22 54.26 217.46C54.23 217.69 53.86 217.92 53.61 218.07C51.3 219.42 48.97 220.76 46.65 222.1C46.31 222.3 45.97 222.5 45.46 222.81C47.03 223.69 48.41 224.57 49.87 225.27C52.91 226.74 55.45 228.72 56.97 231.82C57.89 233.71 58.94 235.56 59.61 237.54C61.4 242.83 63.02 248.18 64.71 253.5C64.84 253.89 64.96 254.29 65.09 254.69C65.16 254.69 65.24 254.69 65.31 254.69C65.58 253.8 65.85 252.9 66.12 252.01C67.8 246.29 69.29 240.49 71.82 235.07C72.81 232.95 74.06 230.91 75.41 228.99C76.09 228.02 77.18 227.26 78.22 226.62C80.35 225.31 82.57 224.14 84.9 222.84C84.53 222.6 84.28 222.43 84.03 222.28C81.61 220.88 79.2 219.46 76.77 218.09C76.28 217.81 76.09 217.5 76.08 216.94C76.06 215.88 75.94 214.82 75.85 213.66C76.22 213.64 76.55 213.62 76.89 213.61C81.09 213.4 84.61 210.9 85.75 207.29C86.48 204.96 86.11 202.71 85.03 200.59C84.61 199.77 84.69 199.26 85.33 198.58C86.62 197.19 87.78 195.69 89.08 194.14C89.33 194.59 89.6 195.01 89.82 195.46C91.67 199.27 92.73 203.27 92.75 207.54C92.77 212.04 92.73 216.53 92.9 221.03C93.21 229.28 95.16 237.15 98.82 244.58C98.93 244.8 99.02 245.03 98.99 245.36C96.02 242.97 93.06 240.59 90.01 238.13L89.97 238.12Z" fill="white"></path><path d="M91.25 183.491C90.49 186.091 89.08 188.291 87.43 190.331C82.77 196.061 77.17 200.651 70.65 204.131C70.07 204.441 69.65 204.411 69.09 204.071C66.46 202.481 63.8 202.491 61.18 204.141C60.74 204.421 60.39 204.491 59.91 204.241C52.28 200.081 45.71 194.721 40.89 187.401C40.11 186.221 39.55 184.891 39.04 183.551C39.51 184.001 39.93 184.511 40.45 184.881C41.6 185.691 42.77 186.471 43.98 187.171C44.81 187.651 45.52 187.441 46.27 186.731C52.13 181.171 59.16 178.691 67.19 179.231C73.66 179.661 79.32 182.131 84 186.651C84.87 187.491 85.62 187.541 86.61 187.121C88.32 186.401 89.7 185.241 90.92 183.871C91.03 183.751 91.14 183.621 91.25 183.501V183.491Z" fill="white"></path><path d="M65.18 240.18C64.45 238.02 63.83 236.08 63.14 234.16C62.08 231.21 60.77 228.38 58.59 226.09C57.61 225.06 56.43 224.21 55.33 223.28C55.12 223.1 54.88 222.95 54.56 222.72C55.56 222.13 56.44 221.52 57.39 221.08C58.49 220.56 58.86 219.79 58.8 218.6C58.69 216.11 58.88 213.64 60 211.34C60.67 209.96 61.65 208.84 62.93 208.01C64.47 207.02 66.22 207.1 67.71 208.18C69.76 209.67 70.91 211.72 71.28 214.18C71.51 215.68 71.59 217.22 71.57 218.74C71.55 219.88 71.94 220.58 72.95 221.07C73.9 221.53 74.8 222.12 75.77 222.68C75.67 222.81 75.62 222.91 75.53 222.96C71.86 225.16 69.52 228.46 67.97 232.35C67.06 234.62 66.34 236.96 65.53 239.27C65.45 239.51 65.35 239.74 65.17 240.18H65.18Z" fill="white"></path><path d="M81.04 202.74C82.14 204.77 81.68 206.78 79.8 208.09C77.83 209.47 74.5 209.5 72.44 208.17C75.28 206.37 78.13 204.57 81.04 202.74Z" fill="white"></path><path d="M49.35 202.75C52.23 204.57 55.06 206.36 58.1 208.28C57.13 208.57 56.3 208.91 55.43 209.05C53.45 209.36 51.57 209.05 50.03 207.66C48.59 206.36 48.36 204.43 49.36 202.76L49.35 202.75Z" fill="white"></path><path d="M20.17 262.68C19.81 261.9 20.06 261.33 20.87 261.14C21.13 261.08 21.36 260.92 21.6 260.81C21.65 260.79 21.69 260.69 21.71 260.7C22.46 260.92 23.27 261.04 23.93 261.42C24.51 261.76 24.27 262.46 24.18 263.17C23.55 262.68 24.19 261.52 23.05 261.6C22.39 261.65 21.69 261.49 21.07 261.66C20.71 261.75 20.48 262.3 20.16 262.68H20.17Z" fill="white"></path><path d="M22.08 262.01C22.45 262.51 22.81 262.79 22.79 263.03C22.76 263.29 22.4 263.64 22.12 263.71C21.96 263.75 21.51 263.35 21.49 263.11C21.47 262.84 21.77 262.55 22.08 262.01Z" fill="white"></path><path d="M20.39 263.47C20.3 264.96 21.6 264.22 22.15 264.74C21.5 264.98 20.83 265.19 20.29 264.64C20.07 264.41 20.09 263.95 20 263.6L20.39 263.47Z" fill="white"></path></g></svg> 