<?xml version="1.0" encoding="UTF-8"?> <svg xmlns="http://www.w3.org/2000/svg" viewBox="0 0 978 680"><defs><style> .cls-1 { fill: #a6d3f4; } .cls-1, .cls-2, .cls-3, .cls-4, .cls-5, .cls-6, .cls-7, .cls-8, .cls-9, .cls-10, .cls-11, .cls-12, .cls-13, .cls-14, .cls-15, .cls-16, .cls-17, .cls-18, .cls-19 { stroke-width: 0px; } .cls-2 { fill: #1f960e; } .cls-3 { fill: #724004; } .cls-20 { stroke-width: 7px; } .cls-20, .cls-21, .cls-22, .cls-23, .cls-24 { stroke-miterlimit: 10; } .cls-20, .cls-21, .cls-23 { stroke: #fff; } .cls-20, .cls-21, .cls-23, .cls-24 { fill: none; } .cls-4 { fill: #919191; } .cls-5 { fill: #e9f6ff; } .cls-6 { fill: #bc0087; opacity: .37; } .cls-7 { fill: #ff33a8; } .cls-8 { fill: #fcd054; } .cls-9 { fill: #f49ac0; } .cls-21, .cls-24 { stroke-width: 5px; } .cls-22 { fill: #bc8702; stroke-width: 2px; } .cls-22, .cls-24 { stroke: #000; } .cls-11 { fill: #cfe5f9; } .cls-25 { opacity: .86; } .cls-12 { fill: red; } .cls-13 { fill: #fcd272; } .cls-23 { stroke-width: .32px; } .cls-14, .cls-16 { fill: #fff; } .cls-15 { opacity: .32; } .cls-16 { opacity: .59; } .cls-17 { fill: #6b6b6a; } .cls-18 { fill: #103b56; } .cls-19 { fill: #c60076; } </style></defs><g id="_Шар_5" data-name="Шар 5"><rect class="cls-22" x="23" y="307" width="936" height="354"></rect><path class="cls-17" d="M99,16.71c0,2.29,21.81,2.63,21.81,2.63l7,265.14-106.58,59.36.27-325.34,73.5.84,4.36,1.66-.36-4.29Z"></path><path class="cls-17" d="M828,18l-319.71.71c-2.08.26-4.15.63-6.24.88-2.85.34-5.71.52-8.58.59-5.78.14-11.56-.15-17.34-.16-1.03,0-1.71-.53-2.06-1.24l-325.57.72s5.86,268.5,6.68,268.5,261.54-5.17,261.54-5.17l.68,21.93s-17,.35-35.2,8.29c-18.2,7.95-31.69,17.95-35.94,25.95-4.26,8-.78,29-.78,29,0,0,28.96,29,112.24,26s143.28,0,143.28,0c0,0-4-110,0-110s232.01-1.32,232.01-1.16-5.01-264.84-5.01-264.84Z"></path><polygon class="cls-17" points="867 23 867.98 300.66 958.58 349.46 959.5 18.5 867 16.71 867 23"></polygon><path class="cls-4" d="M285.49,454.74c4.51-1.74,388.46,0,388.46,0,0,0,96.73,144.12,91.89,145.69s-50.84,5.97-54.84,4.27-482.98-4.27-482.98-4.27c0,0-8-59.17-8.01-63.3s65.48-82.39,65.48-82.39Z"></path><path class="cls-9" d="M368.12,470.11c-5.52-3.19-10.65-4.6-15.17-5-5.29,3.11-11.32,4.92-17.44,4.92-3.84,0-7.48-.62-10.86-1.76-7.1-.7-15.75-1.61-15.75-1.61,0,0,1.1-12.66-25.84-15.35s-41.05,29.69-42.58,32.69-17.47,7-35.98,17.5c-18.5,10.5-115.5,68.5-133.5,88.5-15.66,17.4-41.53,33.21-48,37.03-.97.57-1.5.87-1.5.87v33.6s148.5-1.5,148.32-.5c-.18,1,75.18-71,78.18-72.81s4-2.19,11.66-4.24c7.66-2.05,43.34,1.05,44.25,1.05h2.04s34.05-12,39.52-15.33c5.47-3.33,26.53-21.67,20.4-31.1-6.12-9.43-14.45-7.8-14.45-7.8,0,0,9.57-7.77,10.21-6.93s9.37,7.16,13.19,7.96c3.82.8,10.18,1.2,13.31-13.3,3.13-14.49-1.13-37.51-20.01-48.4Z"></path><path class="cls-9" d="M574.5,463.15c-7.5,5.85-13.5,20.13-7,26.49s23.84,12.29,25.17,12.83,4.33,6.07,4.33,6.07c0,0-6.74,12.02-5.37,20.74s13.52,13.04,13.52,13.04c0,0-23.15,6.63-14.65,23.66s52.88,26.54,64.69,23.28,33.74-4.13,33.74-4.13l27.07,23.87,49.64,53s168.35-1,167.35-1-55.99-55-80.99-72-104.08-88.93-114.54-104.96-42.31-30.55-53.39-31.79-25.58,11.26-25.58,11.26c0,0-12.35-.25-21.42,4.12s-9.08,5.38-9.58,5.88-23.46-5.21-30.98-9.35-22.02-1-22.02-1Z"></path><path class="cls-18" d="M498.41,19.93c-1.65.12-3.29.2-4.94.24-5.78.14-11.56-.15-17.34-.16-.48,0-.87-.12-1.21-.32l-302.71-2.99c-.22.29,7.8,223.22,7.8,223.22l629.23,3.07V23l-310.83-3.07Z"></path><path class="cls-11" d="M99.36,21c3.64,6,6.95,233.64,6.95,233.64l2.92,8.36-86.24,44-1.5-288.5,77.86,2.5Z"></path><path class="cls-5" d="M878.74,19c-.74,7-.98,256.67-.98,256.67l82.25,44.55s3-308.22-.5-301.72-80.76.5-80.76.5Z"></path><g class="cls-25"><path class="cls-1" d="M644.02,99.56c4.66.03,8.54-5.47,12.1-13.41l-24.8-.14c3.81,6.57,3.87,13.5,12.7,13.55Z"></path><path class="cls-1" d="M437.47,144.71c14.43.08,17.65-35.33,24.87-59.68l-45.44-.26c4.3,28.88,7.73,59.86,20.57,59.94Z"></path><path class="cls-1" d="M685.68,28.57c-13.19-.08-20.32,36.99-29.57,57.58l70.49.41c-17.67-.1-22.65-57.88-40.92-57.99Z"></path><path class="cls-1" d="M602.9,74.39c-19.6-.11-21.62-25.52-41.11-25.64-9.59-.06-15.98-14.48-21.3-30.64-10.2.38-20.43-.55-30.61.41-1.22.12-2.44.29-3.65.47-4.44,21.96-11,43.68-27.03,43.59-8.19-.05-13.08,9.68-16.87,22.46l168.99.98c-3.42-5.9-9.87-11.52-28.41-11.63Z"></path><path class="cls-1" d="M396.84,35.92c-9.59-.06-15.47-8.8-19.83-19.98-.37.07-.74.15-1.11.2-6.61.96-13.27.44-19.91.02-4.16-.26-8.42-.54-12.62-.22-2.01.28-4.01.59-6,.94-.89.16-1.78-.07-2.37-.66-12.82,1.58-25.85.49-38.81.05-10.45,26.88-17.27,67.71-23.4,67.68l144.11.83c-3.75-25.19-8.16-48.79-20.05-48.86Z"></path></g><path class="cls-2" d="M437.69,105.83c21.82.13,27.26,50.21,40.97,50.29,15.65.09,9.26-69.28,41.66-69.09,2.66.02,4.95-.56,6.99-1.55l-108.26-.63c4.81,11.01,9.99,20.93,18.65,20.98ZM313.84,119.91c13.5.08,20.57-23.3,30.09-35.49l-71.14-.41c17.67.1,22.78,35.79,41.05,35.9ZM586.31,85.83c3.38,8.47,8.07,14.8,16.45,14.85,26.62.15,24.67,70.47,40.85,70.56,15.23.09,20.44-42.42,41.5-42.3,21.95.13,32.37-42.35,41.5-42.3l-140.3-.81ZM561.84,42.1c-19.55-.11-18.37,35.51-34.53,43.38l59,.34c-6.91-17.32-8.32-43.63-24.47-43.73ZM396.73,55.54c-39.21-.23-24.63,21.77-41.38,21.67-4.38-.03-8.05,2.9-11.42,7.21l75.12.43c-6.01-13.77-11.43-29.25-22.32-29.32Z"></path><path class="cls-7" d="M396.48,97.3c25.52.15,17.04,31.05,41.08,31.18,22.01.13,17.61-26.34,41.41-26.2,8.62.05,14.49-6.88,18.78-17.03l-120.18-.7c4.28,7.23,10,12.69,18.91,12.75Z"></path><path class="cls-7" d="M602.59,129.44c39.21.23,24.68-30.03,41.43-29.94,6.36.04,11.23-5.92,15.84-13.31l-86.85-.5c9.99,14.11,14.64,43.67,29.58,43.75Z"></path><path class="cls-7" d="M561.62,78.35c-15.85-.09-22.99-38.9-30.96-60.16-6.03-.08-12.07-.24-18.09.14-4.34,17.54-6.79,47.92-14.83,66.92l75.25.44c-3.12-4.4-6.75-7.31-11.38-7.34Z"></path><path class="cls-7" d="M355.5,48.73c-13.43-.08-18.73-25.57-34.23-31.69-3.87.03-7.75-.08-11.63-.22-18.75,8.76-28.41,67.19-36.86,67.14l104.79.61c-8.5-14.37-11.31-35.77-22.07-35.83Z"></path><path class="cls-7" d="M685.51,58.21c-11.34-.07-18.13,15.88-25.66,27.98l66.75.39c-17.67-.1-22.82-28.26-41.09-28.36Z"></path><line class="cls-21" x1="261.25" y1="83.89" x2="738.26" y2="86.65"></line><path class="cls-20" d="M255.46,16.88c-1.46,58.12.54,116.12-1.01,173.9,1.11,0,0-.03,0,0,159.55.22,320.55,1.22,481.03,2.78"></path><g><line class="cls-21" x1="305.04" y1="185.77" x2="305.01" y2="191.07"></line><line class="cls-21" x1="688.84" y1="187.99" x2="688.81" y2="193.29"></line><line class="cls-21" x1="592.89" y1="187.43" x2="592.86" y2="192.74"></line><line class="cls-21" x1="496.94" y1="186.88" x2="496.91" y2="192.18"></line><line class="cls-21" x1="400.99" y1="186.32" x2="400.96" y2="191.63"></line></g><g><line class="cls-23" x1="271.92" y1="19.06" x2="258.46" y2="18.99"></line><line class="cls-23" x1="271.9" y1="23.89" x2="258.43" y2="23.82"></line><line class="cls-23" x1="271.87" y1="28.72" x2="258.41" y2="28.65"></line><line class="cls-23" x1="271.84" y1="33.55" x2="258.38" y2="33.47"></line><line class="cls-23" x1="271.81" y1="38.38" x2="258.35" y2="38.3"></line><line class="cls-23" x1="271.78" y1="43.21" x2="258.32" y2="43.13"></line><line class="cls-23" x1="271.76" y1="48.04" x2="258.29" y2="47.96"></line><line class="cls-23" x1="271.73" y1="52.87" x2="258.27" y2="52.79"></line><line class="cls-23" x1="271.7" y1="57.7" x2="258.24" y2="57.62"></line><line class="cls-23" x1="271.67" y1="62.53" x2="258.21" y2="62.45"></line><line class="cls-23" x1="271.64" y1="67.36" x2="258.18" y2="67.28"></line><line class="cls-23" x1="271.62" y1="72.19" x2="258.15" y2="72.11"></line><line class="cls-23" x1="271.59" y1="77.02" x2="258.13" y2="76.94"></line><line class="cls-23" x1="271.56" y1="81.85" x2="258.1" y2="81.77"></line><line class="cls-23" x1="271.53" y1="86.68" x2="258.07" y2="86.6"></line><line class="cls-23" x1="271.51" y1="91.51" x2="258.04" y2="91.43"></line><line class="cls-23" x1="271.48" y1="96.34" x2="258.02" y2="96.26"></line><line class="cls-23" x1="271.45" y1="101.17" x2="257.99" y2="101.09"></line><line class="cls-23" x1="271.42" y1="106" x2="257.96" y2="105.92"></line><line class="cls-23" x1="271.39" y1="110.83" x2="257.93" y2="110.75"></line><line class="cls-23" x1="271.37" y1="115.66" x2="257.9" y2="115.58"></line><line class="cls-23" x1="271.34" y1="120.49" x2="257.88" y2="120.41"></line><line class="cls-23" x1="271.31" y1="125.32" x2="257.85" y2="125.24"></line><line class="cls-23" x1="271.28" y1="130.15" x2="257.82" y2="130.07"></line><line class="cls-23" x1="271.25" y1="134.98" x2="257.79" y2="134.9"></line><line class="cls-23" x1="271.23" y1="139.81" x2="257.76" y2="139.73"></line><line class="cls-23" x1="271.2" y1="144.64" x2="257.74" y2="144.56"></line><line class="cls-23" x1="271.17" y1="149.47" x2="257.71" y2="149.39"></line><line class="cls-23" x1="271.14" y1="154.3" x2="257.68" y2="154.22"></line><line class="cls-23" x1="271.11" y1="159.13" x2="257.65" y2="159.05"></line><line class="cls-23" x1="271.09" y1="163.96" x2="257.62" y2="163.88"></line><line class="cls-23" x1="271.06" y1="168.79" x2="257.6" y2="168.71"></line><line class="cls-23" x1="271.03" y1="173.62" x2="257.57" y2="173.54"></line><line class="cls-23" x1="271" y1="178.45" x2="257.54" y2="178.37"></line><line class="cls-23" x1="270.97" y1="183.28" x2="257.51" y2="183.2"></line></g><circle class="cls-14" cx="732.93" cy="193.55" r="6.32"></circle><path class="cls-14" d="M704.62,166.43c-1.05,1.73-2.13,4.01-1.48,6.08.52,1.64,2.03,2.56,3.71,2.53,4.61-.1,7.02-5.19,7.35-9.13.1-1.24-1.76-2.06-2.56-1.06-2.06,2.58-5.3,10.16-.59,11.87,2.1.76,4.21-.8,5.75-2.07,1.68-1.39,3.1-3.04,4.59-4.62l-2.56-1.06c.16,2.21.85,4.66,3.26,5.31,1.95.53,4.06-.29,5.86-.96,2.01-.75,3.99-1.65,6.18-1.46s4.02,1.35,6.03,2.12c2.95,1.13,5.83.45,8.63-.81,1.76-.79.23-3.38-1.51-2.59-1.4.63-2.96,1.17-4.52,1-1.04-.12-2-.56-2.94-1-2.38-1.1-4.89-2.01-7.57-1.68-2.42.29-4.6,1.47-6.91,2.17-.76.23-1.81.58-2.54.31s-.91-1.55-.97-2.4c-.09-1.23-1.61-2.07-2.56-1.06-1.08,1.15-2.13,2.33-3.27,3.43-.91.88-2.38,2.46-3.69,2.59-.3.03-.42-.09-.55-.54-.21-.69-.02-1.52.14-2.2.34-1.4,1.07-3.23,1.85-4.21l-2.56-1.06c-.13,1.56-.59,3.15-1.58,4.39-.68.85-1.72,1.6-2.59,1.72,0,0-.39.02-.54,0,.36.04-.5-.18-.15-.04-.27-.11-.3-.22-.32-.35-.17-1.08.5-2.54,1.2-3.69,1-1.65-1.59-3.16-2.59-1.51h0Z"></path><path class="cls-14" d="M272.28,214.1c-.37-.23-.76-.39-1.21-.39-.2.02-.4.04-.6.08-.61.13-.27.32,1.02.58l-1.85,1.85c1.44.33,2.79,1.46,4.01,2.36,1.48,1.09,2.93,2.3,4.6,3.1,1.41.68,3.04,1.07,4.44.15,1.82-1.19,2.04-3.8,2.13-5.76l-1.5,1.5c2.46.28,4.84,1.08,7.23,1.69,2.15.55,4.84,1.39,7.05.81,1.82-.47,3.05-1.42,4.88-.36s3.41,2.52,5.4,3.35c1.78.74,2.56-2.16.8-2.89-1.92-.8-3.39-2.45-5.26-3.35-1.98-.96-3.8-.66-5.78.09-2.12.8-4.61-.09-6.71-.64-2.52-.66-5-1.39-7.6-1.68-.83-.1-1.46.77-1.5,1.5-.04.92-.07,1.98-.48,2.83-.23.47-.2.44-.53.5.21-.04-.24-.04-.2-.04-.26-.06-.52-.14-.76-.24-.63-.27-1.22-.66-1.79-1.04-2.39-1.6-4.73-4.1-7.62-4.76-1.11-.25-2.14.7-1.85,1.85.16.61.43,1.17,1.01,1.47.29.15.58.21.91.2l.4-.05c.27-.05.22-.08-.14-.08,1.64,1.02,3.15-1.57,1.51-2.59h0Z"></path><path class="cls-14" d="M341.47,211.69c2.01,4.7,1.81,10.15,2.2,15.16.11,1.51,1.94,2.01,2.8.76,1.73-2.52,2.71-5.42,3.25-8.41l-2.74.36c1.13,1.87,2.9,3.46,5.23,3.13s3.84-2.16,4.87-4.04l-2.05.54c2.02,1.35,4.24,3.26,6.71,3.71s4.55-.84,6.55-1.87c2.18-1.13,5.01-3.17,7.61-2.86.87.11,1.77.5,2.61.79,1.46.5,2.94.89,4.46,1.16,1.89.34,2.7-2.55.8-2.89-1.47-.27-2.91-.64-4.33-1.12-.9-.31-1.79-.66-2.73-.83-2.56-.45-4.97.64-7.22,1.77-1.45.73-2.87,1.53-4.35,2.22-.77.36-1.65.76-2.45.74-.73-.01-1.49-.42-2.19-.83-1.35-.79-2.64-1.7-3.94-2.57-.66-.44-1.68-.14-2.05.54-.54.98-1.31,2.25-2.49,2.55s-1.91-.79-2.43-1.64c-.62-1.02-2.5-.97-2.74.36-.5,2.76-1.35,5.36-2.95,7.69l2.8.76c-.43-5.6-.36-11.42-2.61-16.67-.76-1.77-3.34-.24-2.59,1.51h0Z"></path><path class="cls-14" d="M403.72,224.37c5.07,3.94,11.19-2.11,16.75-.35,1.84.59,2.63-2.31.8-2.89-3.01-.95-6.09-.27-9.03.59-1.25.37-2.53.81-3.83.97-.9.11-1.91.06-2.57-.45s-1.5-.62-2.12,0c-.52.52-.64,1.62,0,2.12h0Z"></path><path class="cls-14" d="M529.75,207.85c.51,1.38.66,2.93.87,4.38.28,1.89.5,3.79.7,5.69.09.83.62,1.47,1.5,1.5.95.03,1.96.12,2.9.03,1.62-.16,2.1-2.31,3.66-2.86,1.27-.45,2.79-.1,4.09,0,.78.06,1.5.05,2.25.32.95.33,1.84.83,2.8,1.12,1.77.54,3.29.17,4.68-1,.58-.48,1.08-1.04,1.6-1.58.3-.31.84-.97,1.2-1.01,1.05-.12,2.39,1.75,2.97,2.4,1.07,1.18,2.19,2.41,3.63,3.14,1.68.86,3.43.95,5.16.19,1.51-.67,2.42-1.59,4.01-.6s3.16-1.58,1.51-2.59c-1.34-.83-2.84-1.19-4.37-.68-1.11.37-2.1,1.29-3.28,1.43-2.76.32-4.78-3.64-6.67-5.08-1.05-.8-2.5-1.48-3.84-1.09s-2.32,1.68-3.29,2.65c-.4.4-.89.97-1.48,1.1-.68.14-1.58-.34-2.18-.6-.79-.34-1.59-.74-2.44-.92s-1.72-.15-2.57-.22c-1.48-.12-3.01-.32-4.47.1-1.88.55-3.17,1.96-4.23,3.53l1.3-.74c-.98.03-1.97,0-2.95-.03l1.5,1.5c-.22-2.05-.47-4.1-.76-6.15-.22-1.56-.38-3.23-.92-4.72-.66-1.8-3.56-1.02-2.89.8h0Z"></path><path class="cls-14" d="M633.16,203.42c-.31,2-.15,4.03.09,6.03.27,2.24.66,4.47,1.21,6.66.35,1.41,2.56,1.45,2.89,0,.27-1.17.8-2.25,1.13-3.4l-2.74.36c.83,1.35,1.96,2.68,3.67,2.76.52.03,1.05-.08,1.54-.24.23-.07.45-.16.68-.23.11-.04.69-.19.35-.12.04,0,.39-.01.18-.02s.21.05.21.05c.27.06.54.11.82.15.62.1,1.24.17,1.86.27,1.73.28,3.33.81,4.84,1.7,1.67.98,3.18-1.61,1.51-2.59-1.5-.88-3.13-1.53-4.84-1.88-1.18-.24-2.38-.36-3.56-.59-1.07-.21-1.93.07-2.94.38-.1.03-.69.16-.36.11-.04,0-.39,0-.19.02.18.02-.18-.05-.2-.06.17.08-.19-.16-.25-.21-.32-.29-.54-.66-.76-1.02-.67-1.1-2.38-.89-2.74.36-.33,1.15-.87,2.23-1.13,3.4h2.89c-.48-1.93-.86-3.89-1.1-5.86-.12-1-.22-2.01-.25-3.02-.01-.41-.02-.82,0-1.23,0-.19.01-.37.03-.56,0-.06.07-.65.04-.43.12-.8-.2-1.61-1.05-1.85-.71-.2-1.72.24-1.85,1.05h0Z"></path><path class="cls-14" d="M661.41,216.65c5.11,2.56,11.32,1.73,16.84,1.77,1.93.01,1.93-2.99,0-3-2.73-.02-5.47.11-8.2.01-2.39-.09-4.95-.28-7.13-1.37-1.72-.86-3.24,1.72-1.51,2.59h0Z"></path><path class="cls-14" d="M694.7,218.4c3.17.5,6.37.94,9.59.84.78-.02,1.54-.67,1.5-1.5s-.66-1.53-1.5-1.5c-1.52.05-3.04-.02-4.55-.16s-2.71-.33-4.24-.57c-.77-.12-1.65.2-1.85,1.05-.16.72.22,1.71,1.05,1.85h0Z"></path><path class="cls-14" d="M709.94,218.81c2.39-1.9,4.99-2.82,8.04-2.73,2.73.08,5.49.71,8.23.48s5.09-1.07,7.64-1.57c2.03-.4,4.74-.79,6.05,1.22.45.7,1.31.94,2.05.54,3.63-1.95,8.56-2.01,12.14.08,1.67.97,3.18-1.62,1.51-2.59-4.52-2.63-10.6-2.53-15.17-.08l2.05.54c-3.66-5.61-10.9-1.76-16-1.16-3.08.36-6.2-.5-9.29-.46-3.59.04-6.6,1.41-9.38,3.62-1.51,1.2.62,3.31,2.12,2.12h0Z"></path><path class="cls-14" d="M718.43,28.04c-.92.63-1.59,1.48-2.39,2.23-.76.71-.46,2.33.66,2.51,3.13.49,6.15,1.45,9.25,2.08,1.57.32,3.17.54,4.77.62s3.6.22,5.1-.51c.81-.39,2.04-1.89,2.98-1.72s1.74,1.55,2.58,2.02c1.37.76,3.44.71,4.98.85,1.85.17,3.66.02,5.39-.68s1-3.62-.8-2.89-3.39.71-5.22.5c-1.41-.16-2.64-.1-3.69-1.09-.94-.88-1.95-1.72-3.31-1.73s-2.35.75-3.39,1.5c-1.26.92-2.69.8-4.2.76s-3.05-.25-4.56-.56c-3.04-.63-6-1.56-9.07-2.04l.66,2.51c.6-.56,1.11-1.29,1.79-1.76,1.58-1.09.08-3.69-1.51-2.59h0Z"></path><path class="cls-12" d="M60.69,299.17c-8.19-9.67-3.99-17.68,1.91-36.17s7.9-25.5,21.9-25.5,83.61,29.14,93.81,37.57,9.65,14.4,9.65,14.4c0,0,.66-1.27,16.1-17.62s38.31-28.49,53.88-31.92,24.57,5.57,23.57,7.57-7.99,35.79-13,43.4-7.11,9.55-7.11,9.55l-13.39,117.1s-58.59,31.6-60.04,31.77-62.34-.34-65.4-2.58-27.06-12.24-30.56-13.74-6.5-7.5-15.5-41.5-13.84-91.05-13.84-91.05l-1.97-1.28Z"></path><path class="cls-12" d="M59,280.28c1-14.28,5-25.28,5-25.28,0,0-11.24-3.72-19.62-.36-5.66,2.27-12.27,5.28-15.97,7-.92,2.47-2.15,4.82-3.62,7.01.35,6.96,4.13,16.32,10.63,19.35,8.57,4,20.07,8.68,23.57,8s-1-1.45,0-15.72Z"></path><path class="cls-8" d="M172.22,270.7c-.22-4.7,44.78-77.7,55.78-93.7s28.02-35.78,28.02-35.78c0,0,15.05,5.28,14.01,8.53s-21.04,28.25-22.04,28.25-7.96,2.28-7.96,2.28l-61.74,94.79-6.09-6.6v2.24Z"></path><path class="cls-8" d="M182.94,280.28c.06-3.28,55.22-68.7,76.14-89.49s37.49-30.45,37.49-30.45l8.45,10.9-25.7,24.25-9.28-2.55s-54.02,60.33-57.03,62.2-26.08,28.69-26.08,28.69l-3.98-3.54Z"></path><path class="cls-13" d="M21.5,394c3.5-2,77.86-6,77.86-6,0,0-7.36,38.17-4.36,75.58s0,41.76,0,41.76l-73.5-8.34v-103Z"></path><path class="cls-13" d="M599.35,288.86s111.65,4.72,111.65,4.93,16.89,119.64,13.44,119.43-115.63,17.02-115.63,17.02l-9.47-141.37Z"></path><path class="cls-13" d="M711,282.08c0-2.08,12,140.92,19,153.92s72,11,89,8,19-3.92,19-3.92c0,0,17.83-163.73,14.92-164.41s-141.92-3.82-141.92-3.82v10.23Z"></path><path class="cls-3" d="M575,281c2-1,3.93-4.08,3.93-4.08h18.46s8.77,79.22,12.69,109.65-4.08,58.43-4.08,58.43h-7l-3.36-4.92s-13.64,2.92-20.64-1.08-10.27-14.81-10.27-14.81h-25.75s-5.91-30.38-2.44-33.28,22.86-4.33,22.86-4.33c0,0-6.3-65.42-3.35-81.99s9.04-23.53,9.04-23.53l9.92-.04Z"></path><path class="cls-3" d="M701,248v7.98l-3.83,4.57,1.91,15.12,11.91,6.41s-3.96-2.36,12.02-2.72,97.78,8.59,112.38,5.12,32.52-7.55,32.52-7.55l-2.22-7.78-3.56-2.51s.53-11.58.19-13.61-2.04-8.97-2.04-8.97l-16.53-9.06-1.44-22.57s-32.84-7.52-33.08-4.98-2.24,25.95-2.24,25.95c0,0-64.19-3.41-82.09,1.59s-10.66,1.94-15.28,2.47-8.62,10.53-8.62,10.53Z"></path><path class="cls-3" d="M132.73,477s5.73-22.62,0-52.81c-5.73-30.19-11.3-34.19-15.02-36.19-3.53-1.9-10.28-8.31-17.26-1.22-.15.01-.3.03-.45.04-.05-.05-.1-.09-.15-.14-.09-.09-.19-.16-.31-.2.05-.1.09-.2.13-.3.56-1.15-1.16-2.17-1.73-1.01-.62,1.28-1.18,2.58-1.69,3.9-.71.58-1.2,1.41-1.57,2.31-.78,1.88-1.43,3.82-2.05,5.76-1.28,3.95-2.32,7.97-3.14,12.05-.12.58.24,1,.68,1.17-1.38,8.23-2.54,19.81-3.16,36.33-2.01,53.33,11.76,64.76,11.76,64.76,0,0,9.19,4.59,18.21-6.42,9.02-11.01,10.02-5.99,10.52-6s12.08-5.12,12.08-5.12v-15.35l-6.84-1.54Z"></path><path class="cls-17" d="M806.08,472.45c-3.31,5.14-23.92,31.23,0,51.39s82.92,24.16,109.92,29.16,29,2.34,36-4.83,16.82-35.36-8.59-63.77-71.81-27.3-83.11-28.35-46.14,3.84-54.22,16.4Z"></path><path class="cls-6" d="M47.41,660.01c24.59-16.01,177.64-100.87,208.62-104.44s18.12,5.67,62.55,1.55,44.68-19.87,30.56-19.99-29.23,11.4-41.68,6.64-7.55-19.09,0-19.93,18.4-11.73,43.98-32.29,32.7,8.84,33.14,21.65-.05,14.33-6.81,15.57-8.51,6.61-11.88-.83-7.18-4.55-9.78-4.99-3.5,6.73-2.55,6.14,15.07,6.61,12.01,18.51-31.92,32.82-46.99,32.86-63.77,5.04-64.42,4.54-70.65,58.5-70.65,58.5c0,0-12.35,13.93-13.68,13.96s5.68,4.04,2.68,4.04-125.09-1.49-125.09-1.49Z"></path><path class="cls-6" d="M307.99,467.03c-1.53-2.51-3.7-4.55-6.25-5.95-.16-.13-.32-.25-.48-.38-.02-.2-.09-.4-.27-.56-4.32-3.94-9.87-6.31-15.64-6.75-.42-.15-.84-.27-1.27-.35-.74-.8-1.51-1.56-2.27-2.28-.94-.88-2.35.53-1.41,1.41.32.3.66.62,1,.95-.42.11-.84.26-1.27.47-.86.42-.48,1.97.5,1.86.94-.1,1.88-.15,2.82-.14,1.32,1.6,2.36,3.4,2.43,5.44.14,3.62-3.42,6.58-5.46,9.21-4.69,6.02-8.68,12.54-11.92,19.45-.47.99.71,2.04,1.57,1.21,5.22-5.05,10.97-9.51,17.08-13.43,2.97-1.9,6.02-3.69,9.12-5.36,3.35-1.8,6.91-3.8,10.85-3.3.77.1,1.22-.92.86-1.5Z"></path><path class="cls-6" d="M332.63,470.27c-1.19-.94-2.9-.71-4.31-.72-4.82-.03-9.61-.58-14.33-1.61-.49-.11-.86.12-1.07.45-.65-.26-1.3-.5-1.94-.72-1.22-.42-1.74,1.51-.53,1.93,2.31.8,5.32,1.87,6.45,4.27,1.41,3-1.19,6.72-2.74,9.17-3.45,5.43-7.94,10.17-10.75,16.01-.48.99.72,2.04,1.57,1.21,6.19-5.98,12.37-11.96,18.56-17.93,1.55-1.49,3.09-2.99,4.64-4.48,1.49-1.44,3.11-2.83,4.51-4.37.87-.96,1.05-2.33-.06-3.2Z"></path><path class="cls-6" d="M572.33,469.38c-2.33,16.62,21.75,14.83,34.21,18.72s-8.17,7.28,17.64,30.58,33.24,10.35,44.03,15.83,65.79,52.48,100.79,80.48c35,28,49.4,46,48.2,46.5s-51.19-1.49-51.19-1.49l-56.3-56.58s-22.05-18.53-23.88-19.48-18.83,8.05-48.83,3.05-41.66-14.44-44.33-23.72,1.53-15.66,3.93-17.47,12.65-6.09,10.52-5.95-13.65-5.31-11.89-13.58,4.76-11.28,4.76-11.28c0,0-10.19-18.22-11.59-16.11s-15.41,4.39-20.91-9.25,0-19.68,0-19.68l4.84-.57Z"></path><path class="cls-6" d="M645.96,465.12c-6.96,7.88-8.58,12.24,9.23,23.56s15.48,13.91,6.14,8.61-34.33-24.29-33.83-23.79,18.46-8.38,18.46-8.38Z"></path><path class="cls-15" d="M277.55,263l419.62-2.45s-5.19,7.15-1.68,11.3,15.51,10.23,15.51,10.23l-3.75,1.74-107.91-2.11-1.96-4.79-13.72-1.25-6.14,8.15s-6.37-5.74-12.45-2.78-6.58,8.09-7.33,12.02-2.19,18.13-2.47,29.03,10.72,6.9-.28,10.9-107.03,4.07-131.01-1.47-2.61-24.53-2.61-24.53c0,0-2.43-23.84-4.65-24.17s-142.49,0-142.49,0l3.32-19.83Z"></path><path class="cls-15" d="M346.26,339c-2.26,5-2.33,23.14-2.33,23.14,0,0-37.6,13.84-7.26,36.35s199.16,19.51,199.16,19.51c0,0-13.76,10,.71,15s15.02,2.16,17.24,7.08,19.22,14.92,34.22,15.92,139.36-23,139.36-23c0,0-4-115.98-17.68-117.49s-106.68-8.91-106.68-5.71,2.15,35.69,2.15,35.69c0,0-12.4-5.76-12.28-9.63s-2.26-42.48-6.57-43.17-13.01,0-13.01,0l2.63,43.17s-3.92-2.64-4.92-14.25-8.55-33.61-8.55-33.61c0,0,1.99,72.24,3.52,88.37s.98,16.57-1.25,17.85-8.68.92-8.68.92c0,0-19.48,1.48-19.51-1.08s-4.03-7.56,2.97-7.56,19.89.07,19.89.07c0,0,2.39-15.15-2.75-13.61s-127.65,1.27-129.89,3.41-42.27-8.87-45.26-8.37-27.56-6.65-30.28-11.07-4.96-17.93-4.96-17.93Z"></path><path class="cls-15" d="M716.02,245.15c.98,4.85,5.02,6.46,0,7.15s-6.02,4.82-5.02,10.26,1.96,10.14,7.48,9.29,32.24,2,30.38,5.07-30.8,5.24-28.83,5.16,15.47,152.08,19.22,158-8.38-1.36-6.32,7.28,32.16,43.23,49.61,49.94,13.94-25.04,26.7-29.67,24.77-9.62,23.76-11.12-5.73-12.35-4.37-16.42,16.66-157.93,16.66-157.93c0,0-39.3,1.6-38.3-.77s1.31-6.47,14.15-7.42,28.85-4.95,28.85-4.95c0,0,5-22.57,0-21.79s-37.46-2.01-32.73-1.11,20.73-5.08,20.73-6.59-15.15.9-13.08-1.31,5.92-24.53,0-24.87-14.82-.9-13.37,5.88-1.52,16.19-.04,18.99-6.02,2.2-15.27,0-80.23,6.95-80.23,6.95Z"></path><path class="cls-15" d="M268.4,240.36c-2.4-.36-39.88,6.26-55.39,24.2s-20.51,21.94-21.51,23.44.85.14-4.57-4.18-33.43-17.32-50.43-27.32-47.55-12.7-53.27-11.35c-5.73,1.35-6.64,8.08-6.64,8.08-8.58,11.77-12.85,27.56-11.21,37.66,1.63,10.1,9.15,9.55,9.15,9.55,0,0,5.39,86.55,7.93,87.55s12.09-3.3,12.09-3.3c0,0,13.67-4.83,18.56-.77s13.51,11.94,14.7,17.5c.01.05.02.12.04.18-1.85-2.85-4.16-4.65-7.04-4.79-16.81-.82-21.66,23.18-18.73,59.68s15.55,50.84,4.24,52.67c-11.31,1.83-6.31,4.51-11.31-3.83-5-8.34-8.05-76.34-7.53-87.34.53-11-64.03-4.78-64.03-4.78,0,0-.45,73.1-.45,77.44,0,.86-1.04,3.6-2.39,7.46,1.14,9.72,1.39,19.44.7,29.3-.39,5.62-.91,11.3-1.64,16.96,3.28,3.86,8.31,6.69,15.76,7.81,38.57,5.81,157.42-41.43,155-62.81-2.42-21.38,5.6-20.14,22.59-24.26s36.13-44.97,34.99-48.12c-1.14-3.15-11.13,14.37-13.06,7.19-1.94-7.19,19.6-126.48,15.33-128.34-4.27-1.85,4.82-2.71,13.78-20.78,8.96-18.07,6.75-34.35,4.35-34.71Z"></path><path class="cls-15" d="M800.46,508.09c4.54-21.09,25.99-42.7,56.77-46.39s69.85,15.79,90.81,44.05-7.97,41.58,1.5,44.92,15.47,12.3,9.47,14.82-49,14.52-84,5.52-79.5-38.11-78.75-48.06,4.21-14.86,4.21-14.86Z"></path><path class="cls-15" d="M248,588.19c-8,4.81-25.74,18.18-22.37,25.49s490.37-4.68,490.37-4.68c0,0-30.34-25.09-30.17-25.05s-28.35,8.62-50.09,3.33-37.5-10.85-37.5-10.85c0,0-1.94-6.1-4.34-7.02s-248.43.25-248.43.25c0,0-21.17,12.64-34.57,13.24s-42.67-.43-55.03,2.08c-12.37,2.51-7.87,3.21-7.87,3.21Z"></path><path class="cls-15" d="M367.34,546.19c1.66-.19,230.9-2.19,230.9-2.19l-9.24,10-89,4-135.43-3.12,2.76-8.69Z"></path><path class="cls-15" d="M359.53,525.13c-5.53-.13-8.43,4.04-5.98,3.96s10.32,8.04,10.32,8.04l3.47-5.16-7.81-6.84Z"></path><path class="cls-15" d="M383.68,485.81c.32.19,180.81-2.56,180.81-2.56,0,0,5.51,4.03,3.01,6.39s-180.27,2.3-180.27,2.3l-3.55-6.13Z"></path><path class="cls-15" d="M387.68,504.45c1.32.55,204.99-.61,204.99-.61l4.33,4.69-4.33,3.87s-10.59-.73-11.13-1.07-192.68,1.51-192.68,1.51l-1.63-7,.45-1.4Z"></path><path class="cls-15" d="M386.6,523.84c2.4,1.16,204.51-.9,204.51-.9,0,0,.88,8.6-.62,7.83s-209.96,1.2-209.96,1.2l4.84-6.33,1.22-1.8Z"></path><path class="cls-16" d="M807.98,235.11c-26.95-1.9-54.05-1.67-80.97.74-6.75.6-13.57,1.37-19.76,4.34-.31.15-.46.38-.49.64-.31.07-.58.27-.68.68-.98,4.17-1.07,8.43-.29,12.62-1.74.84-2.83,2.72-2.71,4.64-1.87.37-3.2,1.94-3.84,3.86-1.08,3.27.74,6.65-.18,9.94-.35,1.24,1.58,1.77,1.93.53.75-2.65-.08-5.22-.12-7.89-.03-1.67.91-4.87,3.14-4.56.68.09,1.51-.43,1.23-1.23-.54-1.57.32-3.26,1.95-3.68.54-.14.81-.71.7-1.23-.9-4.13-.86-8.35.11-12.46,0-.02,0-.03,0-.05.08-.02.17-.02.25-.06,5.56-2.67,11.74-3.43,17.81-3.98,6.63-.61,13.27-1.08,19.92-1.42,13.24-.68,26.52-.85,39.77-.49,7.41.2,14.82.57,22.21,1.09,1.28.09,1.28-1.91,0-2Z"></path><path class="cls-16" d="M840.04,214c-.06-.55-.41-.98-1-1-9.27-.25-18.51-1.1-27.66-2.58-.43-.07-.77.12-.99.4-.5,0-.99.32-.97.96.11,6.13.23,12.25.34,18.38.02,1.29,2.02,1.29,2,0-.11-5.91-.22-11.81-.33-17.72,8.84,1.4,17.76,2.25,26.71,2.53.57,5.26,1.04,10.52,1.39,15.8.08,1.28,2.08,1.29,2,0-.37-5.6-.86-11.19-1.49-16.77Z"></path><path class="cls-16" d="M862.77,269.29c-.53-1.1-1.4-1.9-2.5-2.26.29-6.78-.43-13.56-2.13-20.12-.09-.36-.33-.56-.6-.65.34,0,.69-.08.97-.3.48-.36.73-1.1.2-1.57-2.5-2.24-5.43-3.93-8.62-4.96-1.23-.4-1.75,1.53-.53,1.93,2.35.76,4.55,1.95,6.51,3.46-.08.3-.04.62.23.91.23.24.54.4.87.48-.58.03-1.15.5-.96,1.23,1.73,6.67,2.41,13.52,2.03,20.4-.03.56.48.97,1,1,2.42.14,2.11,3.22,1.77,5.02-9.6,2.92-19.62,4.11-29.64,3.51-1.29-.08-1.28,1.92,0,2,10.39.62,20.83-.65,30.76-3.75.32-.1.62-.35.7-.7.39-1.83.79-3.85-.06-5.63Z"></path><path class="cls-16" d="M849.94,281.9c-2.42,20.17-4.84,40.34-7.27,60.51-2.41,20.09-4.82,40.18-7.24,60.26-.45,3.79-.91,7.57-1.36,11.36-.58-.16-1.29.14-1.27.92.09,2.89.16,5.8.11,8.69-.52,4.34-1.04,8.67-1.56,13.01-.14,1.13,1.69,1.33,1.96.27,1.13-4.34,1.51-8.78,1.59-13.23,1.9-15.85,3.81-31.7,5.71-47.55,2.41-20.09,4.82-40.18,7.24-60.26,1.36-11.33,2.72-22.65,4.08-33.98.15-1.28-1.85-1.26-2,0Z"></path><path class="cls-16" d="M958.69,515.23c-1.76-5.89-5.03-11.16-8.34-16.3-3.26-5.07-6.8-10.01-10.99-14.36-7.84-8.14-17.9-13.54-28.3-17.69-5.93-2.36-11.99-4.34-18.06-6.3-1.23-.4-1.75,1.53-.53,1.93,10.42,3.36,20.94,6.79,30.53,12.16,4.7,2.63,9.14,5.72,13.05,9.43,4.32,4.09,7.94,8.84,11.23,13.78,3.72,5.58,7.55,11.4,9.49,17.88.37,1.23,2.3.71,1.93-.53Z"></path><path class="cls-16" d="M598.48,294.16c-.47-3.31-.98-6.61-1.55-9.91-.43-2.55-.42-5.52-3.48-6.05-1.44-.25-2.92-.37-4.37-.55-1.68-.21-3.46-.62-5.15-.6-1.08.01-2.02.48-2.52,1.46-.52,1.03-.22,2.26-.7,3.28-1.12,2.33-4.97,2.04-7.08,2.02-3.81-.03-7.61-.06-11.42-.1-1.29-.01-1.29,1.99,0,2,3.24.03,6.48.05,9.72.08,2.32.02,4.75.21,7.02-.45,1.76-.51,3.37-1.61,3.85-3.46.14-.52.15-1.07.22-1.6.12-.89.3-1.21,1.31-1.21,1.55,0,3.22.39,4.76.59,1.37.17,3.01.13,4.32.56,1.38.45,1.31,2.85,1.52,4.09.54,3.14,1.03,6.28,1.49,9.43.91,6.29,1.65,12.6,2.23,18.93.65,7.15,1.09,14.31,1.33,21.49.04,1.28,2.04,1.29,2,0-.44-13.38-1.61-26.73-3.49-39.98Z"></path><path class="cls-16" d="M599.35,288.86c2.15-.36,111.65,4.93,111.65,4.93,0,0-1.61-14.26-1.06-14.27s5.99-1.47,5.77.26,4.78,78.73,4.78,77.73-9.5-57.2-9.5-57.2l-109.04-6.51-2.62-4.93Z"></path><path class="cls-16" d="M21.5,394c6.5,1,70.5-5.59,70.5-5.59l5.95-3.24s20.85-.02,17.45,1.41-9.48-4.54-17.44,9.94-10.95,50.16-10.95,50.16c0,0-2.15-32.91,1.92-41.29s4.07-8.38,4.07-8.38l-71.77,1.49.27-4.49Z"></path><path class="cls-16" d="M41.93,256.01c-8.08,5.62-12.34,11.84-12.06,16.88.17,3.02,1.97,5.61,5.56,7.38,9.57,4.72,21.48,12.41,21.48,12.41,0,0-.15-14.59,6.47-32.14s11.42-22.82,14.02-22.69,13.54,2,11.57,2.07-9.8-3.46-17.39,13.3-10.39,38.82-8.99,40.79,5.42,6.01,5.91,7.49,10.65,86.49,10.65,86.49c0,0-2.95,2.98-3.05,1.99s-11.79-88.1-13.45-89.54-25.81-13.7-27.23-14.57-10.96-1.2-9.69-11.54,9.69-18.16,9.69-18.16h4.49s2.01-.16,2.01-.16Z"></path><path class="cls-16" d="M280.94,245.15c2.67-6.64-6.47,24.49-7.7,32.17s-9.19,20.89-9.19,20.89c0,0-14.04,117.79-16.04,118.79s-7.96,4.84-7.96,4.84l21.35-121.39s11.07-28.12,11.84-41.79.99-15.66.99-15.66c0,0,6.65,2.3,6.71,2.15Z"></path><path class="cls-16" d="M278.15,453.04c-3.72.67-7.35,1.75-10.83,3.23-3.41,1.45-7,3.19-9.76,5.7-2.9,2.62-4.09,6.6-5.57,10.1-1.18,2.8-2.37,5.6-3.55,8.4-.25.04-.49.17-.68.43-8.98,12.59-25.08,17.45-38.55,23.54-15.97,7.22-31.48,15.43-46.54,24.4-15,8.94-29.56,18.63-43.71,28.87-14.77,10.68-29.11,21.96-43.18,33.55-14.27,11.75-28.28,23.81-42.26,35.91-1.76,1.53-3.52,3.05-5.29,4.58-.97.84.45,2.25,1.41,1.41,14.03-12.15,28.07-24.31,42.35-36.18,14.27-11.87,28.78-23.46,43.75-34.45,14.14-10.39,28.67-20.24,43.65-29.37,14.97-9.11,30.39-17.49,46.28-24.9,7.36-3.43,14.91-6.42,22.24-9.92,6.59-3.14,13.07-6.9,18.14-12.23.33-.35.63-.72.95-1.08.37.62,1.29.87,1.65.05.54-1.23,1.12-2.44,1.72-3.63.51.2,1.15.07,1.32-.61.29-1.14.58-2.28.91-3.41,1.83-3.05,3.9-5.96,6.22-8.67,2.03-2.37,4.24-4.6,6.59-6.66.66-.58,1.34-1.17,2.03-1.75,2.25-1.3,4.5-2.6,6.77-3.87.26-.15.4-.36.46-.59,1.33-.35,2.66-.66,4.01-.91,1.26-.23.73-2.16-.53-1.93ZM259.49,462.93c1.37-1.15,2.95-2.12,4.59-2.97-1.57.92-3.12,1.89-4.59,2.97Z"></path><path class="cls-16" d="M327.23,470.4c-.56,1.27-3.34-.36-4.15-.67-1.86-.71-3.83-1.14-5.82-1.3-4.32-.37-8.44.82-12.42,2.38-4.15,1.63-8.27,3.35-12.4,5.02-3.5,1.42-7.07,2.82-9.76,5.58-.9.92.51,2.34,1.41,1.41,2.93-3,7.09-4.34,10.88-5.88,4.17-1.69,8.32-3.53,12.57-5.02,4.21-1.48,8.54-2.08,12.91-.93,2.12.56,7.07,3.7,8.5.42.51-1.17-1.21-2.19-1.73-1.01Z"></path><path class="cls-16" d="M350.39,470.83c-7.41-1.72-14.7,3.47-20.5,7.42-6.34,4.31-12.21,9.29-17.5,14.84-.76.8.22,2.19,1.21,1.57,1.39-.87,2.78-1.75,4.17-2.62-2.11,1.62-4.22,3.22-6.3,4.87-3.61,2.85-7.18,5.76-10.72,8.7-.99.82.43,2.23,1.41,1.41,7.74-6.45,15.65-12.68,23.74-18.68,3.95-2.93,7.95-5.8,11.98-8.62,1.22-.85,2.45-1.78,3.72-2.68,1.38-.87,2.77-1.74,4.15-2.61,1.47-.77,3.01-1.38,4.63-1.67.98-.18.93-1.71,0-1.93Z"></path><path class="cls-16" d="M384.34,497.99c-3.04-11.04-10.45-20.64-20.37-26.38-1.12-.65-2.12,1.08-1.01,1.73,9.48,5.49,16.54,14.63,19.45,25.19.34,1.24,2.27.71,1.93-.53Z"></path><path class="cls-16" d="M662.9,507.13c-3.01-3.06-6.04-6.11-9.48-8.71-1.44-1.08-2.95-2.03-4.5-2.91-8.79-6.38-17.98-12.29-25.27-20.44-.33-.37-.75-.38-1.08-.21-.04-.38-.25-.74-.69-.88-12.72-3.91-25.52-7.54-38.41-10.88-.68-.18-1.13.32-1.22.85-.55-.17-1.11-.33-1.66-.5-1.24-.37-1.76,1.56-.53,1.93,6.97,2.08,13.94,4.15,20.91,6.23,5.61,1.67,11.27,3.31,17.08,4.01.05.09.1.18.18.25.25.21.51.4.76.6-.16.02-.31.09-.44.21-.02-.02-.05-.03-.08-.04-1.11-.67-2.09,1.04-1.01,1.73,1.32.8,2.63,1.59,3.95,2.39.2.12.38.14.56.13,6.03,4.45,12.15,8.79,18.7,12.44,2.38,1.32,4.84,2.52,7.2,3.87,4.78,3.48,9.43,7.1,13.58,11.33.9.92,2.32-.5,1.41-1.41ZM625.6,481.07c.09,0,.18.02.28.03.29.02.51-.09.67-.25,1.82,1.7,3.71,3.32,5.66,4.87-2.23-1.51-4.43-3.07-6.61-4.65Z"></path><path class="cls-16" d="M674.72,475.05c-.51-.36-1.03-.7-1.55-1.01-7.54-4.68-16.35-6.37-25.1-5.36-2.51-.31-5.07-.59-7.52.2-1.22.4-.7,2.33.53,1.93.79-.26,1.59-.38,2.41-.42.1.51.56.98,1.22.85,1.13-.24,2.27-.42,3.41-.55.4.05.8.1,1.2.15,2.92.34,5.83.68,8.75,1.01,2.83.33,5.68.61,8.42,1.4,1.76.5,3.42,1.23,4.99,2.13.75.44,1.5.9,2.23,1.41,1.07.74,2.04-.99,1.01-1.73Z"></path><path class="cls-16" d="M706.32,457.66c-5.3-4.66-12.37-3.78-18.93-2.89-3.46.06-6.92.41-10.34,1.08-.3.06-.49.22-.6.41-4.18.83-8.16,2.3-11.16,5.51-.88.94.53,2.36,1.41,1.41,4.37-4.69,11.18-5.28,17.19-5.97,1.08-.12,2.21-.29,3.36-.46,6.11-.12,12.23.73,18.1,2.57.93.29,1.73-1.01.97-1.67Z"></path><path class="cls-14" d="M311.53,456.5c.97,0,352.98-2,353.48,0s-2.49,5.92-7.5,3.46-349.11.49-350.06.51-6.34-3.46-4.14-4.22,8.23.25,8.23.25Z"></path><path class="cls-14" d="M370.87,469.07c2.13-.07,198.32,0,198.32,0,0,0-3.36,7.41-3.28,6.67s-3.45-3.82-4.68-4.28l-1.23-.46-.84,1.11s-.44,10.95-.3,10.42-2.82-11.38-2.82-11.38l-24.29.96-1.42,10.42-1.66-10.42-26.04.34s-2.11,10.6-1.87,10.08-2.04-10.08-2.04-10.08l-24.63,1.05-2.23,4.09-.75-5.14-25.16,1.05s-4.46,8.2-4.7,7.35.7-7.35.7-7.35h-23.57l-4.14,7.35,1-7.35-22.2-.3s-3.92,5.68-3.98,5.74,2.05-5.53,1-5.24-16.63-1.6-16.63-1.6l-2.56-3.03Z"></path><path class="cls-16" d="M388.13,493.52l178.66-1.96s6.57,3.41,5.89,3.43-23.66-1.47-23.66-1.47c0,0-1.34,6.09-1.68,5.29s-1.19-5.29-1.19-5.29l-27.04.37-1.22,6.78-.91-6.78-28.1.77s-1.71,4.95-1.29,4.14-1.16-3.64-1.16-3.64l-30.43-.16-1,4.01-.62-4.25-29.38.24s-29.65,2.22-29.83,1.11-7.05-1.3-7.05-1.3v-1.29Z"></path><path class="cls-16" d="M719.71,466.66c3.29,2.34,62.84,65.71,62.84,65.71,0,0,123.99,104.16,134.72,113.89,10.73,9.73,15.72,14.73,15.72,14.73s-2.27.06-4.63.03-144.38-118.77-148.87-123.9-59.78-70.47-59.78-70.47Z"></path></g><g id="_Шар_4" data-name="Шар 4"><path class="cls-10" d="M382.2,486.83c23.94.07,47.88-.2,71.81-.54,23.87-.34,47.75-.77,71.62-1.02,13.45-.14,26.89-.23,40.34-.23,1.29,0,1.29-2,0-2-23.98-.01-47.96.28-71.94.64-23.86.35-47.72.77-71.59.99-13.42.13-26.83.19-40.25.16-1.29,0-1.29,2,0,2h0Z"></path><path class="cls-10" d="M385.16,493.84c23.95.06,47.89-.21,71.83-.56,23.85-.35,47.7-.77,71.55-1.03,13.41-.15,26.82-.24,40.23-.23,1.29,0,1.29-2,0-2-23.93,0-47.86.29-71.78.65s-47.71.77-71.56,1c-13.42.13-26.85.2-40.27.17-1.29,0-1.29,2,0,2h0Z"></path><path class="cls-10" d="M367.34,471.08c26.3,1.14,52.63,1.23,78.94.91s52.9-1.03,79.35-1.49c14.79-.26,29.58-.44,44.37-.42,1.29,0,1.29-2,0-2-26.41-.02-52.82.57-79.22,1.12s-52.84,1.08-79.27.92c-14.73-.09-29.46-.4-44.17-1.04-1.29-.06-1.28,1.94,0,2h0Z"></path><path class="cls-10" d="M388.86,506.84c25.94.06,51.89-.2,77.83-.56,25.9-.36,51.81-.8,77.71-1.11,14.54-.17,29.08-.29,43.61-.33,1.29,0,1.29-2,0-2-25.92.06-51.83.41-77.74.79-25.91.38-51.82.81-77.73,1.04-14.56.13-29.12.2-43.68.16-1.29,0-1.29,2,0,2h0Z"></path><path class="cls-10" d="M389.73,513.84c25.86.06,51.71-.2,77.57-.56,25.72-.36,51.45-.8,77.17-1.11,14.51-.17,29.03-.29,43.54-.33,1.29,0,1.29-2,0-2-25.8.06-51.59.4-77.38.79-25.74.38-51.48.81-77.22,1.04-14.56.13-29.11.2-43.67.16-1.29,0-1.29,2,0,2h0Z"></path><path class="cls-10" d="M384.05,526.81c26.93.07,53.85-.19,80.78-.54,26.95-.35,53.9-.8,80.85-1.1,15.15-.17,30.3-.29,45.45-.33,1.29,0,1.29-2,0-2-26.97.06-53.93.41-80.9.79-26.94.38-53.87.81-80.81,1.03-15.12.13-30.24.19-45.37.15-1.29,0-1.29,2,0,2h0Z"></path><path class="cls-10" d="M356.1,533c3.5.45,7.08.48,10.61.58,6.19.17,12.38.21,18.58.24,8.21.04,16.41.02,24.62-.03,9.58-.05,19.15-.13,28.73-.23,10.3-.1,20.61-.23,30.91-.36s20.78-.28,31.16-.42c9.83-.14,19.66-.28,29.49-.42,8.63-.12,17.26-.24,25.88-.35,6.81-.08,13.62-.16,20.42-.21,4.27-.03,8.54-.06,12.81,0,.6,0,1.21.02,1.81.04,1.29.04,1.29-1.96,0-2-3.58-.11-7.17-.08-10.75-.06-6.23.03-12.46.09-18.69.16-8.23.09-16.47.21-24.7.32-9.59.13-19.19.27-28.78.41-10.31.15-20.62.29-30.93.43s-20.77.27-31.15.38c-9.81.11-19.63.2-29.45.27-8.6.06-17.21.09-25.81.08-6.77,0-13.55-.04-20.32-.17-4.22-.08-8.46-.15-12.68-.49-.59-.05-1.18-.1-1.77-.18-1.27-.16-1.26,1.84,0,2h0Z"></path><path class="cls-10" d="M364.57,546.48c14.83,1.3,29.72,1.4,44.59,1.18,14.61-.21,29.22-.42,43.83-.72,29.79-.62,59.59-1.24,89.38-1.61,16.77-.21,33.53-.33,50.3-.33,1.29,0,1.29-2,0-2-29.73,0-59.46.39-89.19.93-29.64.54-59.29,1.09-88.93,1.64-16.66.31-33.36.37-49.98-1.09-1.28-.11-1.27,1.89,0,2h0Z"></path><path class="cls-10" d="M356.99,571c3.43.46,6.94.5,10.4.6,6.13.18,12.27.25,18.41.29,8.16.06,16.32.06,24.48.04,9.54-.02,19.07-.07,28.61-.14,10.27-.07,20.54-.17,30.8-.27s20.7-.21,31.06-.33c9.79-.11,19.58-.22,29.37-.33,8.58-.1,17.17-.19,25.75-.27,6.75-.07,13.51-.13,20.26-.15,4.2-.02,8.41-.04,12.61.03.58,0,1.17.02,1.75.04,1.29.04,1.29-1.96,0-2-3.51-.12-7.03-.09-10.54-.08-6.17.01-12.35.06-18.52.12-8.19.07-16.37.16-24.56.25-9.55.11-19.11.22-28.66.32-10.27.12-20.55.23-30.82.34-10.35.11-20.7.21-31.05.29-9.78.08-19.55.14-29.33.18-8.56.03-17.12.04-25.68,0-6.72-.03-13.44-.08-20.16-.23-4.16-.09-8.34-.17-12.48-.52-.57-.05-1.15-.1-1.72-.18-1.27-.17-1.26,1.83,0,2h0Z"></path><path class="cls-10" d="M356.99,578c3.53.47,7.15.5,10.7.6,6.41.18,12.82.25,19.22.29,8.56.06,17.12.06,25.68.04,10.02-.02,20.05-.07,30.07-.14,10.8-.07,21.6-.17,32.4-.27s21.78-.21,32.67-.33c10.29-.11,20.58-.22,30.87-.33,9-.1,18-.19,27-.27,7.02-.06,14.05-.12,21.07-.15,4.36-.02,8.72-.04,13.08.03.58,0,1.15.02,1.73.04,1.29.04,1.29-1.96,0-2-3.61-.12-7.23-.09-10.84-.08-6.44.01-12.89.06-19.33.12-8.59.07-17.17.16-25.76.25-10.04.11-20.08.22-30.12.32-10.81.12-21.61.23-32.42.34s-21.77.21-32.66.29c-10.28.08-20.55.14-30.83.18-8.98.03-17.95.04-26.93,0-6.99-.03-13.98-.08-20.97-.23-4.31-.09-8.65-.16-12.95-.52-.57-.05-1.13-.1-1.69-.18-1.27-.17-1.26,1.83,0,2h0Z"></path><path class="cls-10" d="M361.37,555.9c29.43.82,58.87,1.17,88.32,1.18,29.49.01,58.98-.32,88.47-.85,16.75-.3,33.5-.66,50.26-1.07,1.28-.03,1.29-2.03,0-2-29.62.71-59.24,1.3-88.87,1.63s-58.88.39-88.31.06c-16.62-.19-33.24-.5-49.86-.96-1.29-.04-1.29,1.96,0,2h0Z"></path><path class="cls-10" d="M318.57,584.91c18.85.02,37.71.1,56.56.21,19.33.12,38.66.27,57.99.44s38.74.35,58.11.54c19.35.18,38.7.36,58.05.52,18.89.15,37.79.28,56.68.36,2.35.01,4.69.02,7.04.03,2.57,0,2.58-3.99,0-4-18.83-.07-37.66-.19-56.49-.34s-38.63-.32-57.95-.5c-19.37-.18-38.74-.37-58.11-.54s-38.72-.33-58.08-.46-37.83-.21-56.75-.24c-2.35,0-4.7,0-7.05,0-2.57,0-2.58,4,0,4h0Z"></path><path class="cls-10" d="M238.86,602.43c61.24,1.48,122.5,1.45,183.76,1.53,30.45.04,60.89.12,91.33.43,30.26.31,60.51,1.04,90.77,1.04,34.18,0,68.35-.49,102.52-.62,2.57,0,2.58-4.01,0-4-30.48.12-60.96.52-91.44.61-30.23.09-60.43-.53-90.65-.9-60.88-.75-121.76-.45-182.64-.74-34.56-.16-69.11-.52-103.66-1.36-2.57-.06-2.57,3.94,0,4h0Z"></path><path class="cls-10" d="M296.04,457.29c10.58,2.18,21.56.91,32.26.84,2.7-.02,5.41-.01,8.11-.03,7.99-.04,15.98-.11,23.98-.18,11.21-.09,22.43-.19,33.64-.29,13.48-.11,26.96-.23,40.44-.33,14.86-.11,29.73-.22,44.59-.31s30.31-.16,45.46-.21c14.55-.05,29.11-.07,43.66-.05,13,.02,26,.06,39,.18,10.49.09,20.99.22,31.48.47,7.03.17,14.07.35,21.09.84,1.08.08,2.17.16,3.25.27,2.56.25,2.54-3.75,0-4-6.02-.59-12.08-.75-18.12-.94-9.73-.3-19.47-.44-29.2-.56-12.41-.14-24.83-.21-37.24-.24-14.26-.04-28.51-.03-42.77,0-15.09.03-30.19.1-45.28.18s-29.82.18-44.73.29c-13.91.1-27.82.21-41.73.33-11.89.1-23.78.2-35.67.3-8.88.08-17.76.15-26.65.21-9.68.06-19.35.33-29.03.42-5.16.05-10.4-.01-15.48-1.06-2.51-.52-3.59,3.34-1.06,3.86h0Z"></path><path class="cls-19" d="M286.62,517.11c12.75-9.64,23.18-21.74,35.08-32.31,5.18-4.6,10.87-8.72,17.07-11.83,5.84-2.93,12.4-4.91,18.96-3.69,11.98,2.22,21.8,12.86,25.44,24.19,1.77,5.52,2.41,11.43,2.41,17.2,0,2.91-.16,5.84-.7,8.71-.45,2.41-1.05,4.94-2.41,6.91-2.69,3.87-8.81,4.8-12.92,2.92-2.62-1.2-3.41-3.67-5.12-5.79-2.19-2.7-5.29-2.86-8.37-1.72-1.31.48-2.57,1.07-3.8,1.74-2.55,1.38-.28,5.27,2.27,3.89,1.18-.64,2.4-1.23,3.7-1.61,1.16-.34,1.8-.48,2.64.44s1.41,2.2,2.15,3.26c.94,1.35,2.05,2.44,3.47,3.26,5.13,2.97,12.25,2.51,16.96-1.07,4.85-3.68,5.96-10.35,6.44-16.06.54-6.38.05-12.96-1.3-19.22-2.74-12.66-11.75-24.61-23.83-29.64-6.52-2.71-13.62-2.9-20.35-.84-7.19,2.2-13.79,6.21-19.75,10.74-12.82,9.74-23.11,22.37-35.42,32.72-1.6,1.34-3.23,2.65-4.89,3.91-.97.73-1.47,1.94-.81,3.08.56.95,2.1,1.54,3.08.81h0Z"></path><path class="cls-19" d="M266.09,492.91c4.59-.08,8.21-3.03,11.3-6.14s6.32-6.4,10.15-8.98c8.92-6.03,19.73-9.08,30.48-8.12,6.17.55,11.79,3.76,18.03,3.84,2.9.04,2.9-4.46,0-4.5-5.36-.07-10.26-2.82-15.53-3.56-5.79-.81-11.67-.53-17.38.75-9.87,2.22-19.24,7.36-26.3,14.64-2.86,2.95-6.24,7.49-10.75,7.57-2.89.05-2.9,4.55,0,4.5h0Z"></path><path class="cls-19" d="M236.07,491.07c5.22-3.99,9.2-9.07,12.83-14.51,3.26-4.89,6.27-10.02,10.39-14.26,4.53-4.66,10.36-7.67,16.83-8.52,7.2-.95,15.15.63,21.07,4.91,2.65,1.91,5.19,3.98,7.87,5.85,1.9,1.33,4.58,3.41,7.07,2.74,2.8-.75,1.61-5.09-1.2-4.34-.23.06.57-.22.08-.04.28-.1.47.12.01-.05-.2-.07-.53-.22-.15-.04-.27-.12-.52-.25-.78-.39-1.12-.61-2.17-1.34-3.21-2.08-2.44-1.74-4.78-3.61-7.2-5.38-6.09-4.43-14.1-6.29-21.58-5.86s-14.24,3.14-19.77,7.91c-4.63,3.99-8.03,9.19-11.34,14.26-3.77,5.77-7.64,11.66-13.19,15.89-.96.74-1.47,1.94-.81,3.08.56.95,2.11,1.55,3.08.81h0Z"></path><path class="cls-19" d="M238.53,481.94c-14.24,8.62-30.04,14.15-45.02,21.27-7.78,3.7-15.1,8.08-22.4,12.63-7.74,4.82-15.41,9.75-23.02,14.78-15.25,10.07-30.25,20.52-45,31.3-7.38,5.39-14.82,10.76-21.92,16.51-6.91,5.6-13.44,11.64-19.82,17.83-2.97,2.89-5.81,5.95-8.91,8.7-2.62,2.32-5.44,4.33-8.36,6.29-6.25,4.2-12.82,7.94-18.93,12.34-1.45,1.05-2.88,2.14-4.26,3.27-1.25,1.03-1.07,3.18,0,4.24,1.24,1.24,2.99,1.03,4.24,0,5.4-4.43,11.91-8.17,17.94-12.03,3.11-1.99,6.2-4.03,9.15-6.26,3.06-2.32,5.82-4.86,8.54-7.56,6.31-6.26,12.72-12.43,19.46-18.24,6.68-5.76,13.78-11,20.88-16.24,14.7-10.85,29.63-21.38,44.82-31.53,7.52-5.03,15.1-9.96,22.75-14.8s14.77-9.45,22.57-13.44c14.77-7.57,30.57-12.98,45.16-20.92,1.75-.95,3.48-1.94,5.18-2.98,3.3-2,.29-7.19-3.03-5.18h0Z"></path><path class="cls-19" d="M696.63,583.62c-4.94-2.3-10.57-2.12-15.86-1.42s-10.66,2.13-15.98,3.36c-13.75,3.17-27.55,1.27-40.94-2.59-9.92-2.86-20.77-6.07-28.43-13.38-3.51-3.35-6.25-7.57-4.91-12.59s5.29-8.5,9.63-10.61c2.92-1.42,6.29-2.15,9.43-2.93,3.51-.87,7.07-1.59,10.66-1.98,7.24-.79,14.55-.38,21.42,2.16,1.14.42,2.47-.47,2.77-1.57.35-1.26-.43-2.34-1.57-2.77-13.14-4.86-27.7-2.44-40.72,1.56-5.48,1.69-10.36,4.92-13.58,9.74s-3.83,10.6-1.3,15.76,7.52,9.02,12.28,11.86c5.01,2.99,10.51,5.12,16.04,6.92,12.94,4.22,26.42,7.45,40.12,6.32,7.11-.58,13.84-2.66,20.8-4.04,3.14-.62,6.32-1.1,9.52-1.19,2.78-.08,5.78.06,8.35,1.26,1.1.51,2.42.31,3.08-.81.57-.97.3-2.56-.81-3.08h0Z"></path><path class="cls-19" d="M659.1,463.33c-11.49-4.06-23.55,1.38-32.73,8.23-.97.73-1.47,1.95-.81,3.08.56.96,2.1,1.54,3.08.81,8.25-6.15,18.87-11.44,29.27-7.77,2.74.97,3.91-3.38,1.2-4.34h0Z"></path><path class="cls-19" d="M594.88,508.79c-4.07,4.22-5.73,10.53-5.8,16.26s1.55,12.03,6.55,15.27c3.01,1.96,6.71,2.07,10.12,1.33,2.83-.61,1.63-4.94-1.2-4.34-1.2.26-2.41.38-3.78.22-.38-.05.31.05-.06-.02-.11-.02-.22-.04-.32-.06-.28-.07-.55-.13-.82-.22-.09-.03-.84-.31-.43-.13-.28-.12-.55-.26-.81-.41-.93-.53-1.35-.89-2.17-1.91.28.34-.2-.28-.25-.36-.15-.23-.3-.46-.43-.7-.12-.21-.24-.43-.35-.64-.05-.09-.4-.89-.26-.53-1.87-4.53-1.64-9.61-.25-14.22.44-1.46.73-2.22,1.4-3.45.71-1.32,1.21-2.03,2.06-2.91,2.01-2.09-1.17-5.27-3.18-3.18h0Z"></path><path class="cls-19" d="M655.19,468.13c4.14-.06,8.44,1.33,12.46,3.06,4.23,1.83,8.29,4.11,12.07,6.74,1.33.93,3.33.24,4.1-1.08.87-1.49.26-3.18-1.08-4.1-4.06-2.83-8.42-5.2-12.97-7.13s-9.54-3.57-14.58-3.49c-3.86.06-3.87,6.06,0,6h0Z"></path><path class="cls-19" d="M660.09,465.09c7.04-6.1,16.47-9.95,25.77-10.52,5.2-.32,10.44.39,15.27,2.39,5.29,2.19,9.89,6.04,14.46,9.41,9.93,7.33,19.22,15.23,27.44,24.46s16.23,19.35,25.4,28.03c4.81,4.55,9.92,8.79,14.83,13.24s9.91,9.1,14.82,13.7c9.63,8.99,19.05,18.38,29.38,26.57,9.79,7.77,20.33,14.52,30.18,22.2,8.12,6.33,15.67,13.42,23.28,20.35,15.83,14.4,31.48,29.02,46.77,44,1.59,1.55,3.16,3.11,4.74,4.68,2.05,2.05,5.24-1.13,3.18-3.18-15.14-15.08-30.77-29.69-46.52-44.13-7.44-6.82-14.86-13.69-22.54-20.24-9.65-8.24-20.31-15.16-30.48-22.71-10.74-7.97-20.39-17.25-30.15-26.37-9.97-9.32-19.93-18.63-30.23-27.59-9.62-8.37-17.71-18.22-26.04-27.82-4.11-4.74-8.28-9.43-12.88-13.71s-9.57-8.29-14.59-12.13-9.61-7.54-14.78-10.62c-4.83-2.87-10.26-4.49-15.85-4.97-10.13-.86-20.64,2.24-29.15,7.68-1.92,1.23-3.75,2.61-5.48,4.1-2.19,1.9,1,5.07,3.18,3.18h0Z"></path><path class="cls-19" d="M684.69,587.07c2.74,2.03,5.64,3.81,8.53,5.62,2.7,1.69,5.58,3.36,7.89,5.57,5.23,5,10.41,10.07,15.54,15.18,10,9.96,19.81,20.11,29.51,30.36,5.59,5.91,11.14,11.85,16.67,17.81,1.97,2.13,5.15-1.06,3.18-3.18-19.61-21.14-39.51-42.02-60.31-61.99-5.58-5.35-12.57-8.67-18.74-13.25-.98-.72-2.51-.16-3.08.81-.67,1.15-.17,2.35.81,3.08h0Z"></path><path class="cls-10" d="M833.01,461.17c14.68,1.53,28.75,7.16,40.34,16.31.85.67,2,.83,2.83,0,.69-.69.85-2.16,0-2.83-12.5-9.87-27.33-15.83-43.17-17.49-1.08-.11-2,1-2,2,0,1.17.92,1.89,2,2h0Z"></path><path class="cls-10" d="M798.2,486.28c-2.75,1.98-4.86,4.6-5.76,7.92-.82,3.05-.6,6.28.09,9.33,1.43,6.34,4.78,12.76,8.83,17.81,4.41,5.5,10.48,9.25,16.87,12.03,7.4,3.22,15.13,5.79,22.75,8.45,8.78,3.07,17.63,5.75,26.68,7.88,4.32,1.02,8.61,2.17,13.01,2.76s9.05.58,13.56.88c7.82.53,15.67.83,23.47,1.58,6.04.58,12.11,1.28,18.19.98s11.8-1.51,16.4-5.3c4.83-3.98,7.09-10.82,8.1-16.79,1.22-7.2.85-14.58-.59-21.72-1.37-6.77-3.76-13.49-7.39-19.4-7.2-11.73-18.8-20.35-31.01-26.3s-26.23-9.87-40.09-11.54c-16.1-1.95-32.81-.88-48.58,2.9-7.59,1.82-15.28,4.09-21.51,8.96-5.21,4.08-8.94,9.65-12.1,15.4-1.6,2.92-3.09,5.91-4.63,8.86-1.19,2.28,2.26,4.31,3.45,2.02,2.95-5.67,5.7-11.52,9.52-16.68s8.94-9.13,14.97-11.34c15.19-5.57,31.91-7.49,48.02-6.95,13.13.44,26.2,2.98,38.56,7.45,12.26,4.44,24.12,11.02,33.17,20.54s14.02,22.18,14.84,35.28c.41,6.55-.19,13.33-2.72,19.44-1.02,2.45-2.34,4.8-4.32,6.59-1.8,1.62-4.05,2.68-6.36,3.36-5.44,1.6-11.29,1.43-16.9,1.05s-11.26-1.09-16.92-1.37c-4.55-.23-9.09-.57-13.63-.89s-8.73-.41-13.09-.75-8.21-1.4-12.23-2.37c-4.25-1.03-8.5-2-12.71-3.2-8.68-2.48-17.18-5.54-25.66-8.61-6.37-2.31-12.88-4.44-18.74-7.89s-10.06-8.07-13.26-13.94c-2.6-4.78-5.35-10.69-4.45-16.28.44-2.75,1.92-5.07,4.18-6.7.87-.63,1.3-1.74.72-2.74-.51-.86-1.86-1.35-2.74-.72h0Z"></path><path class="cls-10" d="M831.03,532.74c-.57-8.07.96-16.07,4.87-23.15s9.3-12.47,15.54-17.01c13.78-10.03,30.63-15.61,47.28-18.56,8.32-1.48,16.81-2.27,25.27-2.01,2.57.08,2.57-3.92,0-4-16.5-.49-33.44,2.57-48.97,8.09s-32.16,14.67-41.36,29.4c-5.09,8.15-7.32,17.69-6.65,27.26.18,2.55,4.18,2.57,4,0h0Z"></path><path class="cls-10" d="M869.26,461.1c6.18,2.53,11.38,6.93,17.42,9.74.98.46,2.16.28,2.74-.72.51-.87.27-2.28-.72-2.74-6.36-2.96-11.85-7.48-18.37-10.14-1-.41-2.2.44-2.46,1.4-.31,1.15.39,2.05,1.4,2.46h0Z"></path><path class="cls-10" d="M601,286c28.24.03,56.48.01,84.72.23,7.99.06,15.97.14,23.96.25,2.57.03,2.58-3.97,0-4-28.16-.36-56.32-.43-84.48-.46-8.06,0-16.13-.01-24.19-.02-2.57,0-2.58,4,0,4h0Z"></path><path class="cls-10" d="M274.23,284.08c37.1.36,74.21.58,111.31.76,37.16.18,74.32.33,111.48.54,20.84.12,41.69.26,62.53.44,2.57.02,2.58-3.98,0-4-37.05-.32-74.1-.52-111.15-.69-37.17-.17-74.35-.33-111.52-.56-20.88-.13-41.76-.29-62.64-.49-2.57-.02-2.58,3.98,0,4h0Z"></path><path class="cls-10" d="M186.93,283.5c2.33.02,4.66.04,6.99.07,1.05,0,2.05-.93,2-2s-.88-1.99-2-2c-2.33-.02-4.66-.04-6.99-.07-1.05,0-2.05.93-2,2s.88,1.99,2,2h0Z"></path><path class="cls-10" d="M146.5,19.5c1.72,31.66,2.2,63.37,2.5,95.07s.42,63.37,1.44,95.04c.57,17.81,1.43,35.61,2.74,53.39.19,2.55,4.19,2.57,4,0-2.34-31.67-3.21-63.43-3.65-95.18-.44-31.65-.45-63.31-1.11-94.96-.37-17.79-.95-35.58-1.91-53.35-.14-2.56-4.14-2.58-4,0h0Z"></path><path class="cls-10" d="M61.62,318.5c-7.21,3.56-14.33,7.31-21.46,11.04-3.2,1.67-6.46,3.12-9.93,4.15s-7.01,1.98-10.01,4.1c-2.09,1.47-.09,4.94,2.02,3.45,2.92-2.06,6.33-2.85,9.69-3.88,3.56-1.1,6.96-2.65,10.25-4.37,7.13-3.73,14.24-7.48,21.46-11.04,2.31-1.14.28-4.59-2.02-3.45h0Z"></path><path class="cls-10" d="M118.81,19.34c.86,29.95,1.99,59.89,3.1,89.83,1.11,29.82,2.19,59.64,2.96,89.47.43,16.91.76,33.83.94,50.75.03,2.57,4.03,2.58,4,0-.32-30.12-1.12-60.24-2.12-90.35-.99-29.78-2.17-59.55-3.23-89.32-.6-16.79-1.17-33.58-1.65-50.37-.07-2.57-4.07-2.58-4,0h0Z"></path><path class="cls-10" d="M46.4,292.31c-7.97,3.85-15.94,7.68-23.96,11.41-.98.46-1.23,1.87-.72,2.74.59,1,1.75,1.17,2.74.72,8.02-3.73,15.99-7.56,23.96-11.41,2.32-1.12.29-4.57-2.02-3.45h0Z"></path><path class="cls-10" d="M97,19c1.22,29.28,2.2,58.57,3.08,87.87.85,28.11,1.63,56.21,2.58,84.32.29,8.5.59,17,.9,25.5.17,4.44.29,8.88.48,13.31.17,3.94.58,7.76-.55,11.61-.72,2.48,3.13,3.53,3.86,1.06,1.04-3.55,1.01-7.11.79-10.76s-.29-7.55-.44-11.33c-.29-7.64-.57-15.28-.83-22.92-.5-14.5-.96-29-1.4-43.5-.85-28-1.63-56-2.57-84-.57-17.06-1.21-34.11-1.92-51.16-.11-2.56-4.11-2.58-4,0h0Z"></path><path class="cls-10" d="M877.59,19.59c-1.04,1.28-.99,3.19-1.1,4.76-.22,2.86-.3,5.73-.38,8.59-.27,9.94-.31,19.89-.34,29.84-.04,13.88.01,27.76.09,41.65.09,15.8.21,31.59.36,47.39.14,15.64.3,31.29.47,46.93.14,13.53.29,27.07.43,40.6.09,9.44.19,18.89.23,28.33,0,2.54.02,5.08,0,7.61-.02,1.74-.31,3.17,1.41,4.25,3.52,2.22,7.35,4.05,11.03,6,6.83,3.64,13.68,7.25,20.52,10.87,14.29,7.55,28.62,15.04,42.73,22.91,2,1.12,4,2.24,5.97,3.42,2.21,1.32,4.23-2.13,2.02-3.45-12.07-7.22-24.7-13.61-37.12-20.2s-26.07-13.68-39.01-20.7c-1.34-.73-2.71-1.44-4.02-2.24-.14-.08-.28-.2-.43-.27-.25-.11.15.02.28.22-.04-.06.51,1.35.55,1.32.06-.05.02-.42.03-.49.22-1.74.05-3.62.05-5.37,0-8.15-.09-16.3-.16-24.45-.12-12.72-.26-25.45-.39-38.17-.16-15.18-.32-30.36-.47-45.54s-.29-31.62-.4-47.42c-.1-14.43-.17-28.85-.17-43.28,0-11.08.02-22.16.21-33.23.06-3.68.14-7.36.29-11.04.05-1.25.11-2.51.2-3.76.03-.46.07-.92.11-1.38.02-.2.04-.4.06-.6.07-.69-.08.38,0-.03.05-.23.11-.48.13-.71.05-.5-.18.26-.35.48,1.61-1.98-1.2-4.82-2.83-2.83h0Z"></path><path class="cls-10" d="M865.59,21.59c-1.11,1.36-1.05,3.46-1.17,5.12-.24,3.18-.33,6.37-.41,9.55-.28,10.95-.3,21.9-.3,32.85,0,15.29.1,30.57.23,45.86.15,17.28.34,34.55.55,51.83s.44,34.13.67,51.2c.2,14.61.4,29.23.59,43.84.13,9.92.26,19.84.31,29.75.01,2.5.03,5-.01,7.49,0,.5-.09,1.04-.06,1.54.1,1.48,1.29,2.04,2.43,2.68,12.15,6.94,24.7,13.22,37.06,19.76,15.52,8.21,31.09,16.35,46.43,24.91,2.2,1.23,4.41,2.47,6.57,3.77s4.23-2.13,2.02-3.45c-13.06-7.82-26.71-14.74-40.15-21.87-14.76-7.83-29.58-15.56-44.29-23.48-1.82-.98-3.64-1.96-5.44-2.98-.44-.25-.87-.55-1.32-.78-.4-.21.02-.04.13.11.21.31.42,1.5.58,1.2.2-.37.05-1.31.05-1.72.02-1.08.02-2.15.02-3.23,0-8.49-.12-16.97-.22-25.46-.16-13.64-.35-27.28-.54-40.93-.23-16.58-.45-33.16-.66-49.75s-.42-34.53-.59-51.8c-.15-15.82-.28-31.65-.32-47.47-.04-12.23-.05-24.46.14-36.69.06-4.06.14-8.12.3-12.18.06-1.4.12-2.81.22-4.21.04-.51.08-1.02.13-1.52.02-.22.05-.44.07-.67.06-.67-.09.45.01-.09.05-.26.12-.53.15-.79,0-.08.08-.17.08-.25.01.27-.23.46-.41.68,1.62-1.98-1.2-4.82-2.83-2.83h0Z"></path><path class="cls-10" d="M825.28,18.32c.66,24.8,1.1,49.61,1.43,74.41s.55,49.19.81,73.78c.15,14.16.3,28.32.49,42.49.03,2.57,4.03,2.58,4,0-.33-24.87-.56-49.75-.81-74.62-.25-24.58-.54-49.15-.98-73.72-.25-14.11-.56-28.23-.93-42.34-.07-2.57-4.07-2.58-4,0h0Z"></path><path class="cls-10" d="M279.32,244.75c55.07-.29,110.14-.17,165.22.17,54.8.33,109.61.87,164.41,1.39,30.89.3,61.78.59,92.66.84,2.57.02,2.58-3.98,0-4-55.05-.45-110.11-1.03-165.16-1.53-54.81-.49-109.61-.9-164.42-1.01-30.9-.06-61.8-.03-92.7.14-2.57.01-2.58,4.01,0,4h0Z"></path><path class="cls-10" d="M225.58,244.37c4.19.03,8.38.07,12.57.1,1.05,0,2.05-.93,2-2s-.88-1.99-2-2c-4.19-.03-8.38-.06-12.57-.1-1.05,0-2.05.93-2,2s.88,1.99,2,2h0Z"></path><path class="cls-10" d="M201.84,244.17c3.72.03,7.45.07,11.17.1,1.05,0,2.05-.93,2-2s-.88-1.99-2-2c-3.72-.03-7.45-.06-11.17-.1-1.05,0-2.05.93-2,2s.88,1.99,2,2h0Z"></path><path class="cls-10" d="M170.22,16.71c1.21,31.51,1.33,63.04,1.57,94.57.24,31.47.61,62.96,2.3,94.39.48,8.95,1.07,17.9,1.79,26.83.2,2.49.79,5.25,1.89,7.52,1.28,2.64,3.76,3.92,6.63,3.99,2.57.06,2.57-3.94,0-4-2.07-.05-2.93-1.11-3.49-2.9-.74-2.35-1.03-4.64-1.22-7.09-.61-7.78-1.11-15.56-1.54-23.35-.84-15.34-1.36-30.69-1.71-46.04-.69-30.73-.65-61.46-1.02-92.19-.21-17.24-.55-34.49-1.21-51.72-.1-2.57-4.1-2.58-4,0h0Z"></path><path class="cls-10" d="M805,21c.39,24.65.93,49.3,1.38,73.95.45,24.75.82,49.51.86,74.26.02,13.8-.06,27.61-.3,41.41-.04,2.57,3.96,2.58,4,0,.41-24.56.36-49.12.08-73.68-.28-24.78-.78-49.56-1.27-74.34-.27-13.87-.54-27.73-.76-41.6-.04-2.57-4.04-2.58-4,0h0Z"></path><path class="cls-10" d="M414.72,282.83c.6,10.93,2.08,21.78,3.06,32.68.1,1.08.85,2,2,2,1.01,0,2.1-.92,2-2-.98-10.9-2.46-21.75-3.06-32.68-.14-2.56-4.14-2.58-4,0h0Z"></path><path class="cls-10" d="M417.74,302.79c-9.8-.93-19.41,1.63-28.46,5.17-4.62,1.81-9.15,3.84-13.7,5.8s-8.99,3.27-12.98,5.84c-2.04,1.31-3.96,2.81-5.93,4.22s-4.08,2.6-5.94,4.15c-3.34,2.79-6.02,6.72-6.9,11.03-1.8,8.91,4.09,16.3,11.46,20.44,4.28,2.41,8.99,3.85,13.61,5.47,4.94,1.73,9.91,3.41,14.93,4.89s10.03,2.73,15.14,3.65c5.39.97,10.8,1.35,16.24,1.88,22.3,2.16,44.71,3.1,67.11,3.05,22.51-.06,45.01-1.11,67.45-2.85,2.81-.22,5.63-.45,8.44-.68,2.55-.22,2.57-4.22,0-4-21.66,1.83-43.37,3.08-65.1,3.43-21.7.35-43.42-.18-65.07-1.83-5.44-.41-10.86-1.04-16.29-1.44-5.09-.38-10.11-1.01-15.11-2.06-9.94-2.08-19.56-5.36-29.12-8.73-7.22-2.55-16.29-5.6-19.21-13.53-1.41-3.83-.89-7.78,1.21-11.25,1.06-1.76,2.45-3.3,4.03-4.61,1.76-1.46,3.81-2.57,5.66-3.91s3.76-2.81,5.75-4.06,3.97-2.04,6.1-2.88c4.38-1.75,8.69-3.68,13.02-5.54,8.46-3.64,17.32-7.15,26.61-7.73,2.35-.15,4.71-.1,7.05.12,1.08.1,2-.99,2-2,0-1.17-.92-1.9-2-2h0Z"></path><path class="cls-10" d="M344.33,338.47c-1.7,7.64-2.17,15.51-.6,23.22.35,1.72.8,3.41,1.34,5.08.31.93.64,1.86,1.01,2.77s1.23,1.52,2,2.16c2.51,2.08,5.18,3.97,7.98,5.63,11.04,6.56,23.68,9.81,36.11,12.56,6.3,1.39,12.63,2.67,18.9,4.19,1.64.4,3.22.92,4.92.93,2.15,0,4.29.02,6.44.04,3.95.04,7.9.12,11.85.21,16.01.39,32.01,1.13,48.02,1.56,18.08.48,36.19.54,54.24-.76,2.55-.18,2.57-4.18,0-4-27.34,1.96-54.76.79-82.12-.18-6.71-.24-13.43-.46-20.14-.63-3.45-.08-6.91-.15-10.36-.2-1.65-.02-3.3-.04-4.95-.05s-3.31.09-4.94-.33c-10.73-2.71-21.66-4.57-32.35-7.45-11.62-3.13-23.12-7.59-32.26-15.65l.51.88c-3.68-9.34-3.91-19.21-1.74-28.94.56-2.51-3.3-3.58-3.86-1.06h0Z"></path><path class="cls-10" d="M430.51,323.64c7.64.02,15.48,1.37,23-.58,2.49-.64,1.43-4.5-1.06-3.86-7.13,1.85-14.69.46-21.94.44-2.57,0-2.58,3.99,0,4h0Z"></path><path class="cls-10" d="M132.73,450.57c19.9,1.13,39.89,1.14,59.71-1.18,1.07-.13,2-.83,2-2,0-.99-.92-2.11-2-2-.91.1-1.75.24-2.6.57-2.39.92-1.49,4.36,1.06,3.86.7-.14,1.39-.3,2.07-.5,1.76-.5,1.84-2.69.48-3.66-.38-.27-.73-.47-1.16-.65-.99-.42-2.14-.3-2.74.72-.49.84-.28,2.31.72,2.74.43.18.78.38,1.16.65l.48-3.66c-.68.2-1.37.36-2.07.5l1.06,3.86c.5-.19,1-.37,1.54-.43v-4c-19.82,2.32-39.81,2.31-59.71,1.18-2.57-.15-2.56,3.85,0,4h0Z"></path><path class="cls-10" d="M60.6,299.68c1.84,23.03,5.96,45.77,9.08,68.64.89,6.54,1.68,13.1,2.33,19.68.11,1.07.84,2,2,2,1,0,2.11-.92,2-2-2.26-22.98-6.49-45.7-9.36-68.6-.82-6.56-1.52-13.13-2.05-19.72-.2-2.55-4.21-2.57-4,0h0Z"></path><path class="cls-10" d="M193,447c.01-8.95.07-17.9.12-26.84.07-13.14.16-26.27.24-39.4.09-13.92.19-27.84.28-41.76.08-11.28.16-22.55.24-33.83.04-5.3.28-10.64.12-15.94,0-.07,0-.15,0-.22.02-2.57-3.98-2.58-4,0-.03,4.34-.06,8.69-.1,13.03-.08,10.77-.16,21.53-.23,32.3-.1,13.79-.19,27.57-.28,41.36s-.17,26.73-.25,40.1c-.06,9.64-.11,19.29-.14,28.93,0,.76,0,1.51,0,2.27,0,2.57,4,2.58,4,0h0Z"></path><path class="cls-10" d="M63,302c2.47.16,4.97-.03,7.43-.19,3.75-.26,7.5-.62,11.24-1.01,8.93-.92,17.84-2.01,26.75-3.06,6.77-.8,13.57-1.71,20.38-2.13,6.23-.38,12.48-.57,18.71-1s12.48-1.25,18.73-1.48c4.86-.18,9.72-.08,14.57-.41,4.07-.27,9.38-.45,12.61-3.31,1.93-1.71-.91-4.53-2.83-2.83-.39.34.35-.21-.1.09-.15.1-.29.19-.45.27-.13.07-.8.38-.58.29-.82.33-1.68.55-2.54.73-2.01.43-4.07.62-6.12.76-4.38.3-8.76.27-13.14.37-5.59.13-11.17.86-16.74,1.28-7.02.52-14.04.89-21.07,1.19-6.4.27-12.8,1.17-19.15,1.91-8.73,1.02-17.46,2.09-26.2,3.03-4.32.46-8.65.91-12.98,1.23-2.82.21-5.69.45-8.52.27-2.57-.16-2.56,3.84,0,4h0Z"></path><path class="cls-10" d="M192,290c18.88.1,37.13,4.63,55.68,7.47,5.43.83,10.88,1.5,16.36,1.91,2.57.19,2.56-3.81,0-4-18.7-1.39-36.87-6.3-55.47-8.39-5.5-.62-11.03-.97-16.57-1-2.57-.01-2.58,3.99,0,4h0Z"></path><path class="cls-10" d="M262.04,295.85c-.02,1.38-.26,2.78-.42,4.15-.35,3.04-.73,6.07-1.1,9.11-1.18,9.49-2.41,18.98-3.65,28.46-1.47,11.29-2.96,22.58-4.46,33.87-1.32,9.9-2.61,19.5-3.97,29.45-.73,5.35-1.39,10.71-2.28,16.04-.03.18-.06.37-.1.55-.5,2.51,3.36,3.59,3.86,1.06.9-4.53,1.35-9.18,1.98-13.74,1.33-9.66,2.63-19.33,3.92-28.99,1.51-11.33,3.01-22.67,4.49-34,1.3-9.93,2.59-19.86,3.84-29.8.65-5.19,1.56-10.44,1.85-15.66,0-.16.03-.32.03-.49.04-2.57-3.96-2.58-4,0h0Z"></path><path class="cls-10" d="M192.53,449.93c7.19-1.89,13.39-5.96,19.86-9.44,3.45-1.85,7.03-3.42,10.46-5.31,7.45-4.11,14.84-8.36,22.11-12.78,1.16-.71,2.34-1.4,3.46-2.17.34-.23.71-.46.99-.76,1.28-1.36.33-3.3-1.42-3.47-1.08-.1-2,.99-2,2,0,1.17.92,1.89,2,2h.01c-.34-.09-.67-.18-1.01-.27h0c-.24-.24-.48-.47-.72-.71h0c-.09-.33-.18-.67-.27-1h0c.09-.33.18-.66.27-1,.1-.23.64-.59.27-.35s-.72.48-1.08.71c-1.17.74-2.35,1.46-3.53,2.17-3.47,2.09-6.96,4.12-10.47,6.15s-6.9,3.96-10.38,5.88c-2.89,1.6-5.85,2.95-8.79,4.44-6.89,3.5-13.29,8.07-20.85,10.05-2.49.65-1.43,4.51,1.06,3.86h0Z"></path><path class="cls-10" d="M194,289c-.02-.29.1-.91-.03-.29.06-.32.13-.63.22-.94.05-.15.11-.3.16-.45.16-.51-.1.19.04-.11.18-.39.36-.77.56-1.14.94-1.74,2.25-3.53,3.29-4.84,3.58-4.48,7.67-8.55,11.87-12.43,4.73-4.38,9.68-8.53,14.85-12.37,4.64-3.46,9.47-6.77,14.63-9.4,2.03-1.03,3.37-1.67,5.55-2.29,1.94-.55,4-.75,5.99-1.07,6.4-1.03,12.94-2.01,19.44-1.68,2.56.13,5.26.5,7.27,1.78.11.07.21.14.31.22-.07-.06-.24-.21.03.04.15.15.3.3.45.45-.56-.56.28.75.04.08.11.3.21.61.29.93.04.18.07.35.11.53.12.56,0-.26.05.34.37,5-.59,9.66-1.72,14.53-1.47,6.36-3.44,12.63-5.83,18.71-1.93,4.91-4.11,10.01-7.35,14.22.22-.28-.16.2-.24.29-.16.19-.32.38-.49.57-.29.32-.6.62-.92.91-1.92,1.73.92,4.55,2.83,2.83,3.75-3.38,6.07-8.53,8.07-13.06,2.78-6.29,5.03-12.83,6.8-19.47,1.49-5.58,2.85-11.44,2.93-17.24.03-1.95-.09-4.05-.96-5.83-1.02-2.11-3.41-3.27-5.54-3.91-3.13-.94-6.54-1.04-9.78-.97-3.68.09-7.35.49-10.99.98-2.88.39-5.75.87-8.62,1.32-1.94.31-3.76.71-5.6,1.43-5.2,2.06-10,5.09-14.58,8.27-5.65,3.92-11.05,8.21-16.22,12.75-4.75,4.17-9.35,8.55-13.5,13.31-2.73,3.14-5.95,6.76-7.13,10.86-.2.68-.33,1.42-.29,2.13.14,2.56,4.14,2.58,4,0h0Z"></path><path class="cls-10" d="M189.96,289.47c-.2-3.02-1.81-5.67-3.58-8.05s-3.73-4.87-5.85-7c-5.2-5.22-12.03-7.79-18.72-10.5-7.34-2.97-14.49-6.17-21.57-9.7s-14.09-6.52-21.51-9c-3.67-1.23-7.37-2.37-11.02-3.63s-6.88-2.58-10.39-3.69c-6.96-2.21-14.48-3.08-21.31.06-10.26,4.72-13.03,17.27-15.75,27.11-1.52,5.49-3.44,10.89-4.43,16.51s-1.17,11.79,1.86,16.86c.75,1.25,1.68,2.4,2.73,3.41,1.85,1.79,4.68-1.03,2.83-2.83-3.86-3.75-4.44-9-3.89-14.12.59-5.45,2.41-10.71,3.95-15.94,1.43-4.84,2.55-9.78,4.32-14.52,1.61-4.32,3.93-8.86,7.81-11.56,5.24-3.66,11.92-3.52,17.88-1.98,3.27.84,6.43,2.03,9.6,3.2,3.4,1.25,6.84,2.39,10.29,3.51,6.95,2.26,13.8,4.65,20.41,7.8s13.12,6.59,19.92,9.41c3.9,1.62,7.82,3.18,11.72,4.78,3.44,1.41,6.81,3.03,9.78,5.29,2.56,1.95,4.57,4.44,6.6,6.9,1.72,2.09,4.13,4.82,4.32,7.65.17,2.55,4.17,2.57,4,0h0Z"></path><path class="cls-10" d="M63.01,298.27c-9.85-6.58-22.2-9.32-31-17.56-.9-.84-1.87-1.87-2.46-2.73-.68-.98-1.27-2.04-1.56-2.92-.42-1.26-.52-1.91-.45-3.26.05-.99.43-2.4.94-3.57,2.57-5.96,8.42-9.02,14.47-10.41,6.87-1.58,14.06-1.32,21.05-.82,2.57.18,2.56-3.82,0-4-12.68-.9-30.21-1.23-37.85,11.1-1.65,2.66-2.85,5.9-2.59,9.08.24,2.91,1.46,5.49,3.24,7.77,3.97,5.07,10.01,8.39,15.64,11.29,6.14,3.16,12.79,5.64,18.54,9.49,2.15,1.43,4.15-2.03,2.02-3.45h0Z"></path><path class="cls-10" d="M175.13,270.05c10.48-16.5,17.42-34.93,27.49-51.66,2.64-4.39,5.57-8.6,8.44-12.85s5.88-8.73,8.85-13.07c5.92-8.64,12.11-17.04,18.48-25.34,3.43-4.47,6.8-8.98,9.94-13.66,2.54-3.79,5.18-8.01,9.1-10.52h-2.02c5.66,2.97,11.91,6.03,16.02,11.08l.4-3.14c-3.95,3.01-6.69,7.21-9.95,10.91-3.52,3.99-7.09,7.98-10.43,12.13-.64.8-1.25,1.66-2,2.36-.66.61-1.45.34-2.3.31-2.37-.09-4.19,1.25-5.74,2.92-1.43,1.54-2.62,3.3-3.86,5-1.32,1.83-2.85,3.49-4.28,5.23-3.33,4.05-6.19,8.28-8.7,12.88s-4.97,9.29-7.75,13.77c-5.63,9.06-11.4,18.05-17.76,26.61-3.57,4.81-7.08,9.67-10.81,14.36-1.7,2.14-3.4,4.23-4.87,6.55s-2.73,4.55-4.5,6.52,1.1,4.74,2.83,2.83c3.19-3.52,5.19-7.91,8.18-11.58,3.31-4.06,6.4-8.28,9.52-12.49,6.32-8.52,12.33-17.18,17.98-26.15,2.86-4.54,5.64-9.09,8.18-13.82s4.83-9.17,7.93-13.34c2.76-3.72,5.89-7.12,8.61-10.87,1.05-1.45,2.22-3.2,3.78-4.14.9-.54,1.97-.15,2.97-.2,1.18-.06,2.15-.49,3.05-1.23,1.87-1.54,3.32-3.81,4.88-5.65,1.99-2.34,3.99-4.67,6.01-6.98,1.92-2.19,3.86-4.35,5.66-6.64,1.63-2.08,3.28-4.21,5.4-5.83,1.1-.83,1.29-2.05.4-3.14-4.31-5.3-10.89-8.59-16.83-11.71-.62-.33-1.4-.39-2.02,0-3.67,2.35-6.36,5.88-8.82,9.42-2.77,3.98-5.46,7.99-8.37,11.87-6.35,8.46-12.84,16.78-18.88,25.47-6.04,8.69-12.09,17.41-17.82,26.31-5.34,8.29-9.76,17.12-14.11,25.96-4.92,10.01-9.76,20.08-15.75,29.5-1.38,2.18,2.08,4.19,3.45,2.02h0Z"></path><path class="cls-10" d="M187.39,277.46c1.93-2.99,4.2-5.7,6.48-8.42s4.44-5.48,6.63-8.24c4.68-5.89,9.53-11.64,14.33-17.43,9.45-11.38,18.85-22.74,28.88-33.62,9.94-10.78,20.07-21.5,31.27-31,2.73-2.32,5.5-4.59,8.26-6.87s5.6-4.89,8.58-7.06c1.12-.81,2.31-1.84,3.57-2.41.29-.13.3-.08.11-.09-.16,0-.15-.24.12.08.41.49,1.04.89,1.49,1.35,1.55,1.54,3.03,3.21,4.2,5.07.5.8,1.15,1.97,1.17,2.67.01.47.13-.15-.04.26-.05.13-.3.5-.43.68-.35.48-.77.9-1.19,1.32-2.2,2.22-4.57,4.37-7.1,6.2-3.03,2.19-5.71,4.59-8.31,7.28s-5.15,5.33-8.31,7.31l2.74.72c-.73-1.36-2.06-2.41-3.31-3.26s-2.75-1.68-4.29-1.73c-3.39-.12-5.98,3.12-8.16,5.27-3.11,3.05-6.43,5.89-9.56,8.92-3.33,3.23-6.57,6.56-9.68,10.01-6.33,7.03-12.37,14.32-18.6,21.44s-11.39,14.4-17.64,21.13-11.58,15.21-18.5,21.83c-1.86,1.78.97,4.61,2.83,2.83,5.88-5.63,10.42-12.41,15.64-18.6,2.73-3.24,5.68-6.29,8.38-9.56s5.45-6.8,8.21-10.17c5.68-6.94,11.65-13.67,17.54-20.43s11.91-13.14,18.4-19.21c1.76-1.64,3.56-3.24,5.32-4.88,1.23-1.15,2.34-2.44,3.65-3.5,1.17-.95,1.84-1.31,3.05-.72s2.67,1.54,3.28,2.66c.5.93,1.85,1.27,2.74.72,5.98-3.73,9.93-9.71,15.57-13.83,2.54-1.85,4.87-3.8,7.19-5.91,1.84-1.67,4.51-3.83,4.6-6.55.08-2.49-1.57-4.84-3.01-6.73s-3.09-3.84-4.96-5.37c-1.09-.88-2.29-1.47-3.72-1.18-1.58.33-2.98,1.51-4.27,2.41-3.17,2.23-6.06,4.85-9.04,7.31-5.89,4.86-11.83,9.69-17.42,14.91-5.66,5.29-11.02,10.93-16.36,16.55-10.83,11.39-21.21,23.17-31.14,35.35-5.56,6.83-11.29,13.52-16.82,20.37-2.73,3.38-5.36,6.85-8.16,10.18s-5.41,6.4-7.69,9.92c-1.4,2.17,2.06,4.18,3.45,2.02h0Z"></path><path class="cls-10" d="M809.68,228.53c-.06-2.91-.85-5.7-1.34-8.55-.35-2.06-.56-5.25.6-6.67.28-.35.8-.68,1.41-.96.74-.33,1.69-.56,2.54-.71,1.86-.35,3.79-.37,5.68-.35,1.75.02,3.5.12,5.25.2,3.04.15,5.99.82,8.96,1.43,2.09.43,4.18.42,6.29.65.65.07,1.76.19,2.09.49.25.22.44,1.13.49,1.66.25,2.62-.26,5.34-.21,7.97.07,3.77.31,7.54.32,11.31,0,2.57,4.01,2.58,4,0-.01-3.77-.26-7.54-.32-11.31-.05-2.55.36-5.11.23-7.65s-.98-5.02-3.56-5.92c-2.13-.74-4.52-.62-6.74-.8-2.83-.23-6.34-1.32-9.48-1.66-2.13-.24-4.3-.3-6.45-.35-4.14-.1-9.32-.14-12.71,2.63-2.27,1.85-2.77,5.09-2.64,7.86.16,3.64,1.51,7.11,1.58,10.74.05,2.57,4.05,2.58,4,0h0Z"></path><path class="cls-10" d="M707.62,276.92c2.38,19.13,4.31,38.3,6.19,57.49s3.75,38.53,5.99,57.76c1.13,9.68,2.36,19.35,3.73,29.01.35,2.47.71,4.93,1.08,7.39.29,1.92.43,3.93,1.04,5.78.97,2.97,2.85,5.53,5.28,7.47,5.08,4.05,11.84,5.84,18.22,6.26,9.26.61,18.52,1.11,27.8,1.24,18.29.27,36.78-.86,54.56-5.42,2.25-.58,4.48-1.21,6.69-1.9,2.45-.76,1.41-4.62-1.06-3.86-17.21,5.32-35.21,7.08-53.16,7.2-8.98.06-17.95-.28-26.91-.79-6.91-.39-14.03-.49-20.34-3.74-2.47-1.27-4.78-2.99-6.23-5.4-1.87-3.11-1.92-7.13-2.43-10.63-1.38-9.39-2.62-18.8-3.75-28.22-2.26-18.83-4.12-37.71-5.97-56.58-1.83-18.69-3.66-37.39-5.88-56.04-.28-2.34-.57-4.69-.86-7.03-.13-1.07-.82-2-2-2-.98,0-2.13.92-2,2h0Z"></path><path class="cls-10" d="M850.92,281.71c-1.36,20.63-3.49,41.19-5.77,61.74s-4.73,41.07-6.69,61.65c-1.11,11.64-2.07,23.3-2.78,34.98-.16,2.57,3.84,2.56,4,0,1.25-20.64,3.29-41.21,5.55-61.76,2.26-20.55,4.72-41.07,6.75-61.64,1.15-11.64,2.16-23.29,2.93-34.96.17-2.57-3.83-2.56-4,0h0Z"></path><path class="cls-10" d="M705.73,241.27c-2.34-1.78-5.15-1.2-6.2,1.62-.79,2.12-.59,4.67-.01,6.81.3,1.13,1.12,2.64.72,3.83-.37,1.09-1.47,1.92-2.39,2.54-.87.59-1.68,1.17-2.15,2.14-.66,1.34-.54,2.86-.42,4.3.32,3.75.41,7.51.63,11.27.16,2.74,1.32,4.46,3.99,5.32,3.69,1.19,7.73.89,11.54,1.25,4.3.41,8.59.83,12.9,1.09,8.71.52,17.44.47,26.16.95s17.56,1.15,26.34,1.58,17.42-.09,26.15.02,17.27,1.05,25.93.95,16.95-1.39,25.38-2.54c5.47-.74,15.94-1.47,14.41-9.44-.31-1.6-.98-3.11-1.08-4.75-.09-1.37-1.2-2.18-2.53-1.93-.99.19-1.82.26-2.78-.09l1.4,2.46c.36-1.61.98-3.16,1.23-4.8.32-2.18-.04-4.36-.22-6.53s-.34-4.21-.52-6.31c-.15-1.71-.48-3.37-1.76-4.62-2.71-2.63-6.95-1.46-10.28-1.28-5,.27-10,.23-15-.04-2.57-.14-2.56,3.86,0,4,4.42.24,8.84.29,13.27.12,1.68-.06,3.33-.22,5-.37,1.16-.1,3-.45,4.03.28.85.6.74,1.94.81,2.88.14,1.94.33,3.88.49,5.82.14,1.73.52,3.57.27,5.3-.21,1.52-.84,2.99-1.18,4.49-.25,1.12.34,2.08,1.4,2.46,1.62.58,3.26.4,4.91.09l-2.53-1.93c.11,1.6.52,3.09.94,4.63.28,1.02.7,2.14-.22,2.92-1.99,1.68-5.31,2.01-7.79,2.34-7.82,1.06-15.65,2.35-23.54,2.72s-15.82-.16-23.72-.6-16.23.03-24.37,0-16.41-.72-24.59-1.24-16.07-1.01-24.11-1.18-16.06-.58-24.09-1.39c-3.54-.36-7.25-.1-10.7-1.04-.46-.13-.88-.26-1.29-.51.3.18-.23-.17-.02,0,.16.13-.12-.19-.14-.25.12.43-.02-.23-.02-.25.04.39-.04-.37-.03-.35-.05-.67-.06-1.34-.09-2.01-.09-2.11-.19-4.22-.33-6.33-.11-1.73-.44-3.69-.34-5.34,0-.01.19-.7.05-.29.12-.2.12-.2-.02-.02.07-.08.15-.16.24-.24-.37.26.14-.09.18-.12.23-.16.47-.31.7-.47,1.31-.92,2.56-2.08,3.32-3.52.82-1.55.81-3.22.38-4.88-.37-1.43-.91-2.99-.97-3.91-.07-1.11.01-1.77.27-2.76-.1.38.12-.26.12-.23-.14.16-.14.17.01,0-.09.1-.2.17-.32.21-.37.18-.32-.19-.14.08.07.1.54.38.72.51.86.65,2.24.14,2.74-.72.6-1.03.15-2.08-.72-2.74h0Z"></path><path class="cls-10" d="M703.93,243.53c.11-.36.03-.14,0-.06.05-.11.12-.24.18-.35.22-.36.11-.21.29-.42.43-.49.88-.86,1.37-1.18,1.26-.82,2.63-1.47,4.03-2,2.92-1.11,5.95-1.88,8.98-2.62.75-.18,1.5-.4,2.26-.55.14-.03.29-.04.43-.07.4-.08-.55.06.13-.02,1.06-.12,2.13-.2,3.2-.26,8.2-.5,16.44-.52,24.65-.57,11.64-.07,23.28,0,34.91.15,11.03.15,22.06.37,33.09.8,4.07.16,8.15.34,12.22.62,1.48.1,2.96.22,4.44.37.28.03.56.06.84.09.17.02.96.12.58.07s.32.05.48.07c.2.03.4.07.6.1.29.06.58.12.87.21,2.46.77,3.52-3.09,1.06-3.86-2.03-.63-4.31-.7-6.41-.87-3.79-.32-7.59-.51-11.39-.67-10.91-.48-21.84-.72-32.76-.89-11.92-.18-23.84-.27-35.77-.22-8.76.04-17.55.06-26.3.52-2.05.11-4.2.16-6.21.62-2.81.65-5.62,1.36-8.37,2.23-3.13.99-6.4,2.18-8.93,4.32-1.06.9-1.88,2.03-2.3,3.36-.78,2.46,3.08,3.51,3.86,1.06h0Z"></path><path class="cls-10" d="M862.02,243.05c-1.83-2.57-4.68-4-7.56-5.1-3.69-1.41-7.61-2.2-11.49-2.82-9.06-1.45-18.27-1.94-27.44-2.12-3.84-.07-7.69-.08-11.54-.02-2.57.04-2.58,4.04,0,4,7.42-.12,14.84,0,22.25.42,8.35.48,16.96,1.16,24.99,3.65,1.81.56,3.11,1.03,4.68,1.91.32.18.64.37.94.57.12.08.24.16.36.25.41.28-.08-.09.2.14.25.2.48.41.71.64.11.11.21.22.31.33.39.4-.05-.09.14.17.63.88,1.74,1.3,2.74.72.87-.51,1.35-1.85.72-2.74h0Z"></path><path class="cls-10" d="M554.61,385.63c-3.22.09-6.35-.81-9.55-1.02-2.73-.18-5.98.13-8.15,1.96-3.29,2.78-3.22,8.27-3.04,12.17.09,1.98.3,3.95.5,5.92.36,3.55,1.29,6.95,2.14,10.4.99,3.98-.03,9.91,5.29,10.93,2.74.52,5.49-.23,8.23-.36,4.26-.2,8.53-.09,12.79-.28,2.56-.12,2.58-4.12,0-4-3.28.15-6.56.12-9.84.19-2.52.05-4.96.33-7.46.55-.96.09-1.99.19-2.94-.02-.84-.18-.9-.37-1.08-.92-.61-1.9-.56-3.99-.87-5.95-.45-2.8-1.44-5.51-1.95-8.31-.35-1.95-.5-3.96-.66-5.93-.27-3.31-.82-7.91,1.02-10.8.34-.54.74-.84,1.56-1.12,1.45-.48,2.95-.53,4.46-.44,3.2.21,6.32,1.11,9.55,1.02,2.57-.07,2.58-4.07,0-4h0Z"></path><path class="cls-10" d="M603,290c27.99,2.32,56.07,2.85,84.11,4.29,7.97.41,15.93.89,23.89,1.51,2.57.2,2.55-3.8,0-4-28-2.16-56.08-2.66-84.11-4.18-7.97-.43-15.93-.95-23.89-1.61-2.57-.21-2.55,3.79,0,4h0Z"></path><path class="cls-10" d="M610.46,432.16c29.45-4.05,58.91-8.05,88.25-12.8,8.29-1.34,16.57-2.74,24.84-4.22,1.06-.19,1.66-1.49,1.4-2.46-.31-1.12-1.39-1.59-2.46-1.4-29.3,5.22-58.75,9.5-88.23,13.59-8.29,1.15-16.58,2.28-24.87,3.42-1.07.15-1.66,1.52-1.4,2.46.32,1.15,1.39,1.54,2.46,1.4h0Z"></path><path class="cls-10" d="M561.41,285.59c.12.15-.1-.29,0,.03-.01-.04-.12-.3-.04-.07s-.05-.02.01-.07c.05-.04-.2.5.02.04-.02.03-.15.27-.03.08.21-.34-.02-.06.19-.29.61-.7,1.37-1.12,2.28-1.58s1.83-.8,2.8-1.08c.41-.12.82-.21,1.24-.3.17-.04.54-.06.16-.03.16-.01.32-.03.48-.02,2.91.24,5.47,1.81,8.27.05,1.28-.81,2.32-1.98,3.14-3.24.23-.35.42-.71.65-1.06.24-.37-.07-.03.16-.21-.33.25.21-.08.12-.05,1.08-.33,3.06-.03,4.36,0,1.98.04,3.96.05,5.94.04,1.33,0,2.7-.11,4.02,0,.35.03-.04-.02.36.07.02,0,.03-.01.05,0-.03-.02.07.05.09.09.11.18.23.36.32.56,1.49,3.27,1.25,7.38,1.74,10.88.58,4.09,1.19,8.16,1.64,12.27.91,8.34,1.26,16.74,2.12,25.09.87,8.5,1.92,16.99,2.78,25.49s.98,16.74,1.34,25.15,1.62,16.59,2.16,24.9.04,16.53-.7,24.81c-.31,3.42-.39,6.92-1.01,10.3-.26,1.41-.59,2.9-1.33,4.14-.66,1.12-1.49,1.06-2.67.82-1.67-.35-3.3-.79-5.01-.82l1.93,2.53c.24-1.67.39-3.3-.27-4.9-.41-1-1.31-1.72-2.46-1.4-1.49.41-2.92,1.09-4.43,1.4-1.72.35-3.57.07-5.31,0-2-.07-4-.17-6-.21-.89-.02-2.18.14-2.81-.63-.76-.92-.55-2.65-.51-3.74.06-1.75.15-3.48.13-5.22-.05-4.43-.31-8.84-.76-13.25-.11-1.07-.84-2-2-2-1,0-2.11.92-2,2,.52,5.05.83,10.15.77,15.23-.04,3.23-.91,7.3,1.61,9.89,1.2,1.24,2.8,1.6,4.46,1.69,2.05.12,4.11.15,6.16.21,2.22.07,4.49.33,6.7,0,1.74-.27,3.36-1.04,5.06-1.51l-2.46-1.4c.39.93.41,1.78.27,2.77-.18,1.28.5,2.51,1.93,2.53,3.32.06,6.89,2.25,9.82-.32,2.52-2.21,3.06-6.27,3.43-9.4.47-4.08.74-8.19,1.09-12.28.37-4.34.67-8.68.67-13.04,0-9.06-1.26-18.01-2.06-27.01s-.48-18.06-1.32-27.07-1.99-18.31-2.96-27.47-1.36-18.22-2.35-27.3c-.48-4.42-1.17-8.81-1.77-13.22-.52-3.82-.42-7.89-1.96-11.49-1.17-2.74-3.42-3.19-6.14-3.16-1.99.02-3.99.02-5.98,0s-4.07-.23-6.07-.11c-1.31.08-2.64.38-3.58,1.36-.73.76-1.11,1.75-1.76,2.56-.79.98-1.68,1.75-2.98,1.58-1.55-.21-3.02-.87-4.6-.91-2.1-.06-4.38.89-6.23,1.76-1.99.93-4.34,2.43-4.82,4.75-.29,1.38.24,2.58,1.11,3.63,1.64,1.99,4.45-.86,2.83-2.83h0Z"></path><path class="cls-10" d="M563.41,279.44c-2.97,1.1-4.51,3.95-5.64,6.73-1.27,3.11-2.01,6.42-2.67,9.71-.53,2.64-.97,5.13-1.03,7.81-.17,8.1.23,16.23.56,24.32.49,11.77,1.12,23.53,1.85,35.29s1.46,22.52,2.45,33.75c.36,4.12.75,8.24,1.24,12.35.31,2.59.57,5.25,1.19,7.79.07.3.15.6.26.89.88,2.4,4.75,1.36,3.86-1.06-.26-.7-.39-1.45-.53-2.19-.1-.54-.19-1.08-.27-1.63-.05-.3-.09-.61-.13-.91-.02-.16-.05-.32-.07-.49-.08-.6.02.13-.02-.17-.48-3.69-.85-7.4-1.2-11.11-.99-10.66-1.75-21.34-2.44-32.02-.76-11.73-1.41-23.48-1.95-35.22-.4-8.88-.8-17.77-.82-26.66,0-1.3,0-2.6.05-3.89.02-.46.04-.93.07-1.39.01-.19.03-.38.05-.57,0-.08.02-.16.02-.23.01-.36-.13.5-.03.25.25-.69.3-1.54.44-2.26.29-1.49.59-2.98.93-4.46.7-3.02,1.47-6.2,3.1-8.88.33-.53.52-.82.95-1.26.21-.21.38-.35.38-.35.1-.07.76-.39.46-.28,2.39-.88,1.36-4.75-1.06-3.86h0Z"></path><path class="cls-10" d="M573.68,437.71c-.12-.08-.24-.16-.36-.24.42.29.01,0-.06-.06-.19-.18-.39-.35-.57-.54-.65-.68-.59-.62-1.07-1.36-.78-1.19-1.5-2.68-1.94-3.79-1.42-3.6-2.35-7.37-3.11-11.15-1.72-8.54-2.57-17.25-3.14-25.93-.24-3.66-.42-7.32-.54-10.99-.08-2.57-4.08-2.58-4,0,.25,7.72.75,15.43,1.6,23.11.96,8.64,2.07,17.67,5.26,25.81,1.26,3.23,2.91,6.66,5.92,8.6,2.17,1.39,4.18-2.07,2.02-3.45h0Z"></path><path class="cls-10" d="M99.36,386.7c4.65.31,9.42.33,13.93,1.64,1.95.56,3.88,1.41,5.42,2.75,1.8,1.57,2.87,3.53,3.82,5.69,4.83,11.06,6.34,23.43,7.71,35.32,1.22,10.6,1.39,21.37.57,32.01-.78,10.07-2.35,20.63-6.54,29.91-2.15,4.77-5.24,9.49-9.55,12.59s-9.59,4.15-14.84,2.54c-2.47-.76-3.52,3.1-1.06,3.86,5.16,1.58,10.57,1.15,15.37-1.36s8.31-6.51,11.04-10.91c5.74-9.24,7.85-20.63,9.07-31.27,1.3-11.34,1.34-22.87.27-34.22-.56-6.02-1.42-12.03-2.38-18-1.03-6.46-2.44-12.87-4.78-19-1.18-3.1-2.42-6.25-4.64-8.76-1.79-2.03-4.12-3.43-6.63-4.4-5.28-2.06-11.22-2.01-16.79-2.39-2.57-.17-2.56,3.83,0,4h0Z"></path><path class="cls-10" d="M131,480.84c2.86.8,5.88,1.13,8.84.95l-2-2c.14,2.23.45,4.44.59,6.66.08,1.22.11,2.45.04,3.67-.03.55-.05.81-.14,1.28-.05.25-.11.5-.18.75-.02.08-.26.69-.12.38-.41.89-1.04,1.67-1.86,2.11-.66.36-1.44.43-2.36.49-2.56.18-4.94.5-7.12,1.97s-.13,4.9,2.02,3.45,4.03-1.24,6.41-1.55c2.79-.36,5.09-1.89,6.36-4.46,1.13-2.28,1.1-5.05.98-7.54s-.47-4.81-.62-7.22c-.06-1.03-.87-2.07-2-2-2.63.16-5.24-.1-7.78-.81s-3.54,3.16-1.06,3.86h0Z"></path><path class="cls-10" d="M95.34,382.93c-4.35,5.87-6.64,13.09-8.02,20.19-1.55,7.98-2.07,16.14-2.24,24.25-.15,7.52.02,15.05.03,22.57.01,9.81.22,19.63,1.16,29.4,1.05,10.94,2.96,21.87,6.81,32.19l1.93-2.53s-.08-.01-.12-.01c-1.08-.04-2,.95-2,2,0,1.18.92,1.88,2,2s2.2.24,3.3.37c.4.05.79.1,1.19.15.17.02.35.04.52.07-.38-.05.16.02.23.03.3.04.6.1.9.14.33.04.69.3.03-.07l-.72-.72h.01v-2h0c.24-.23.48-.47.72-.7l.41-.18c-2.51.56-1.45,4.42,1.06,3.86.5-.11,1.03-.5,1.27-.95.31-.58.43-1.46,0-2.02-1.08-1.4-3.25-1.3-4.86-1.5-1.35-.17-2.71-.31-4.06-.47v4s.08,0,.12.01c1.23.13,2.35-1.39,1.93-2.53-6.74-18.08-7.67-37.75-7.81-56.85-.11-15.36-.92-31.05,1.49-46.28,1.25-7.86,3.37-15.9,8.18-22.39.64-.87.14-2.23-.72-2.74-1.02-.6-2.09-.15-2.74.72h0Z"></path><path class="cls-10" d="M93.01,504.27c-2.46-1.17-5.35-1.49-8.01-1.91-4.77-.76-9.57-1.33-14.37-1.88-11.16-1.29-22.34-2.36-33.51-3.62-4.78-.54-9-.99-13.59-1.79-1.06-.18-2.15.28-2.46,1.4-.26.96.33,2.27,1.4,2.46,9.31,1.61,18.79,2.4,28.18,3.39,10.46,1.1,21.19,2.11,31.42,3.62,1.97.29,3.94.6,5.89,1,.67.14,1.35.29,2.01.47.27.07.53.16.79.24.11.03.22.09.33.12.37.11-.48-.22-.1-.04,2.31,1.1,4.34-2.35,2.02-3.45h0Z"></path><path class="cls-10" d="M23.53,395.93c.23-.03-.57.07-.11.01.13-.01.26-.03.38-.05.29-.04.59-.07.88-.1.73-.08,1.47-.16,2.2-.23,1.97-.19,3.94-.37,5.91-.54,5.3-.46,10.61-.89,15.91-1.31,11.59-.92,23.17-1.78,34.76-2.71,3.84-.31,7.69-.58,11.52-1.01,1.07-.12,2-.83,2-2,0-.99-.92-2.12-2-2-8.64.95-17.33,1.47-25.99,2.14-11.6.9-23.2,1.77-34.79,2.76-3.92.34-7.85.63-11.75,1.17-1.07.15-1.66,1.52-1.4,2.46.32,1.15,1.39,1.54,2.46,1.4h0Z"></path><path class="cls-10" d="M115.05,397.96c-7.23,22.8-8.75,46.73-7.26,70.48.43,6.83,1.07,13.64,1.83,20.43.12,1.07.83,2,2,2,.99,0,2.12-.92,2-2-2.59-23.27-3.82-46.96.38-70.13,1.21-6.67,2.85-13.26,4.91-19.72.78-2.46-3.08-3.51-3.86-1.06h0Z"></path><path class="cls-10" d="M363.54,554.62c-1.59,5.44-3.12,10.9-4.57,16.38-.33,1.25,1.6,1.78,1.93.53,1.45-5.48,2.98-10.94,4.57-16.38.36-1.24-1.57-1.77-1.93-.53h0Z"></path><path class="cls-10" d="M386.4,532.39c-1.27,3.93-2.51,7.88-3.73,11.83-.38,1.23,1.55,1.76,1.93.53,1.22-3.95,2.46-7.89,3.73-11.83.4-1.23-1.53-1.75-1.93-.53h0Z"></path><path class="cls-10" d="M391.59,470.48c-1.66,4.77-3.33,9.54-4.99,14.31-.43,1.22,1.51,1.74,1.93.53,1.67-4.77,3.33-9.54,4.99-14.31.42-1.22-1.51-1.74-1.93-.53h0Z"></path><path class="cls-10" d="M386.96,556.74c-1.45,4.38-2.87,8.77-4.24,13.18-.38,1.23,1.55,1.76,1.93.53,1.37-4.41,2.79-8.8,4.24-13.18.41-1.22-1.52-1.75-1.93-.53h0Z"></path><path class="cls-10" d="M411.05,533.25c-1.44,4.08-2.87,8.17-4.29,12.26-.42,1.22,1.51,1.74,1.93.53,1.41-4.09,2.84-8.18,4.29-12.26.43-1.22-1.5-1.74-1.93-.53h0Z"></path><path class="cls-10" d="M402.37,512.63c-1.37,3.87-2.74,7.73-4.11,11.6-.43,1.22,1.5,1.74,1.93.53,1.37-3.87,2.75-7.73,4.11-11.6.43-1.22-1.5-1.74-1.93-.53h0Z"></path><path class="cls-10" d="M395.09,493.25c-1.24,3.67-2.51,7.33-3.78,10.99-.42,1.22,1.51,1.74,1.93.53,1.28-3.66,2.54-7.32,3.78-10.99.41-1.22-1.52-1.75-1.93-.53h0Z"></path><path class="cls-10" d="M416.44,470.48c-1.39,4.58-2.84,9.14-4.32,13.69-.4,1.23,1.53,1.75,1.93.53,1.49-4.55,2.93-9.11,4.32-13.69.38-1.23-1.55-1.76-1.93-.53h0Z"></path><path class="cls-10" d="M444.15,534.25c-.74,3.56-1.47,7.12-2.21,10.68-.26,1.26,1.67,1.79,1.93.53.74-3.56,1.47-7.12,2.21-10.68.26-1.26-1.67-1.79-1.93-.53h0Z"></path><path class="cls-10" d="M432.79,512.24c-.87,4-1.72,8-2.56,12-.26,1.26,1.66,1.79,1.93.53.84-4,1.69-8.01,2.56-12,.27-1.25-1.65-1.79-1.93-.53h0Z"></path><path class="cls-10" d="M423.02,493.62c-.9,3.76-1.77,7.52-2.61,11.29-.28,1.25,1.65,1.79,1.93.53.85-3.77,1.72-7.53,2.61-11.29.3-1.25-1.63-1.78-1.93-.53h0Z"></path><path class="cls-10" d="M442.65,471.84c-1.17,4.16-2.28,8.33-3.34,12.52-.32,1.25,1.61,1.78,1.93.53,1.07-4.18,2.18-8.36,3.34-12.52.35-1.24-1.58-1.77-1.93-.53h0Z"></path><path class="cls-10" d="M478.26,534.29c-.33,3.6-.6,7.2-.82,10.8-.08,1.29,1.92,1.28,2,0,.22-3.6.49-7.2.82-10.8.05-.54-.49-1-1-1-.58,0-.95.46-1,1h0Z"></path><path class="cls-10" d="M464.76,512.93c-.52,3.73-1.01,7.47-1.45,11.21-.06.54.5,1,1,1,.59,0,.94-.46,1-1,.42-3.56.88-7.12,1.38-10.68.08-.53-.13-1.07-.7-1.23-.47-.13-1.15.16-1.23.7h0Z"></path><path class="cls-10" d="M454.04,492.5c-.72,4.07-1.41,8.16-2.05,12.24-.08.53.14,1.08.7,1.23.48.13,1.15-.16,1.23-.7.64-4.09,1.33-8.17,2.05-12.24.09-.53-.14-1.08-.7-1.23-.48-.13-1.14.16-1.23.7h0Z"></path><path class="cls-10" d="M471.93,472.18c-.82,4.06-1.63,8.12-2.4,12.18-.24,1.26,1.69,1.8,1.93.53.77-4.07,1.57-8.13,2.4-12.18.26-1.26-1.67-1.79-1.93-.53h0Z"></path><path class="cls-10" d="M514.32,533.23c-.11,3.93-.2,7.87-.27,11.8-.02,1.29,1.98,1.29,2,0,.06-3.94.16-7.87.27-11.8.04-1.29-1.96-1.29-2,0h0Z"></path><path class="cls-10" d="M498.99,512.41c-.13,3.7-.25,7.4-.38,11.11-.04,1.29,1.96,1.29,2,0,.12-3.7.25-7.4.38-11.11.04-1.29-1.96-1.29-2,0h0Z"></path><path class="cls-10" d="M485.58,492.97c-.08,3.47-.18,6.94-.29,10.41-.04,1.29,1.96,1.29,2,0,.11-3.47.21-6.94.29-10.41.03-1.29-1.97-1.29-2,0h0Z"></path><path class="cls-10" d="M499.81,470.74c.03,4.17,0,8.33-.05,12.5-.02,1.29,1.98,1.29,2,0,.05-4.17.07-8.33.05-12.5,0-1.29-2.01-1.29-2,0h0Z"></path><path class="cls-10" d="M548.01,531.97c.27,4.04.56,8.07.88,12.11.1,1.27,2.1,1.29,2,0-.32-4.03-.61-8.07-.88-12.11-.09-1.28-2.09-1.29-2,0h0Z"></path><path class="cls-10" d="M530.76,511.43c.22,3.91.45,7.82.69,11.72.08,1.28,2.08,1.29,2,0-.24-3.91-.47-7.81-.69-11.72-.07-1.28-2.07-1.29-2,0h0Z"></path><path class="cls-10" d="M515.69,492.12c.19,3.45.38,6.9.57,10.35.07,1.28,2.07,1.29,2,0-.19-3.45-.38-6.9-.57-10.35-.07-1.28-2.07-1.29-2,0h0Z"></path><path class="cls-10" d="M528.4,470.74c.27,4.14.53,8.27.77,12.41.08,1.28,2.08,1.29,2,0-.24-4.14-.5-8.27-.77-12.41-.08-1.28-2.08-1.29-2,0h0Z"></path><path class="cls-10" d="M571.04,557.32c1.07,4,2.14,8.03,2.46,12.18.1,1.28,2.1,1.29,2,0-.33-4.33-1.41-8.53-2.53-12.71-.33-1.24-2.26-.72-1.93.53h0Z"></path><path class="cls-10" d="M580.58,531.75c.85,4.38,1.83,8.73,2.98,13.03.33,1.24,2.26.72,1.93-.53-1.15-4.31-2.12-8.66-2.98-13.03-.25-1.26-2.17-.73-1.93.53h0Z"></path><path class="cls-10" d="M561.46,512.11c.49,3.71,1.02,7.41,1.61,11.1.09.53.75.83,1.23.7.57-.16.78-.69.7-1.23-.56-3.52-1.07-7.04-1.54-10.57-.07-.54-.41-1-1-1-.48,0-1.07.46-1,1h0Z"></path><path class="cls-10" d="M545.01,492.41c.45,3.62.88,7.25,1.33,10.87.07.54.41,1,1,1,.49,0,1.07-.46,1-1-.44-3.62-.88-7.25-1.33-10.87-.07-.54-.41-1-1-1-.49,0-1.07.46-1,1h0Z"></path><path class="cls-10" d="M555.67,469.65c.85,4.72,1.57,9.45,2.22,14.2.07.54.76.82,1.23.7.58-.15.77-.7.7-1.23-.65-4.75-1.37-9.48-2.22-14.2-.23-1.26-2.16-.73-1.93.53h0Z"></path><path class="cls-10" d="M570.01,492.41c.45,3.62.88,7.25,1.33,10.87.07.54.41,1,1,1,.49,0,1.07-.46,1-1-.44-3.62-.88-7.25-1.33-10.87-.07-.54-.41-1-1-1-.49,0-1.07.46-1,1h0Z"></path><path class="cls-10" d="M386.23,485.55c-.04,1.84.48,3.61.93,5.37.13.51.72.86,1.23.7s.84-.69.7-1.23c-.21-.82-.44-1.64-.61-2.47-.04-.2-.08-.41-.12-.62-.02-.1-.03-.19-.05-.29-.02-.12-.02-.13,0-.02,0-.05-.01-.1-.02-.14-.05-.43-.07-.87-.06-1.31.01-.52-.47-1.02-1-1s-.99.44-1,1h0Z"></path><path class="cls-10" d="M412.02,485.81c-.03,1.02.14,2.03.31,3.03.08.46.16.92.23,1.38.02.12.02.14,0,.05,0,.05.01.11.02.16.01.12.03.25.04.37.02.25.03.5.03.75,0,.52.46,1.02,1,1s1-.44,1-1c0-1.02-.18-2.03-.36-3.03-.04-.23-.08-.46-.12-.69-.02-.12-.04-.25-.06-.37-.05-.35.02.19-.02-.16-.06-.49-.09-.99-.08-1.49.01-.52-.47-1.02-1-1s-.98.44-1,1h0Z"></path><path class="cls-10" d="M439.35,486.19c.07.16-.06-.17-.02-.05.01.04.03.08.04.11.03.09.06.18.09.28.06.21.11.43.15.65.01.06,0,.3.05.33-.05-.04-.02-.19,0,0,0,.05.01.1.02.16.02.25.04.5.05.75.02.47,0,.94-.03,1.41-.01.12-.02.24-.04.37-.02.14.02,0,0-.05.01.05-.02.12-.03.17-.03.2-.07.39-.13.59-.14.5.17,1.11.7,1.23s1.08-.16,1.23-.7c.27-.99.32-2.07.28-3.1-.04-1.08-.19-2.17-.64-3.16-.21-.48-.95-.63-1.37-.36-.5.32-.59.86-.36,1.37h0Z"></path><path class="cls-10" d="M469.5,485.69c.02.11.02.11,0-.02,0,.05.01.11.02.16.01.11.02.22.03.33.02.19.03.39.04.59.02.41.04.82.06,1.23.06.87.16,1.76.49,2.57.19.48.68.88,1.23.7.47-.15.91-.71.7-1.23-.15-.38-.26-.78-.33-1.18,0-.05-.08-.4-.02-.15-.02-.08-.02-.17-.03-.25-.02-.21-.04-.42-.05-.63-.05-.88-.08-1.76-.21-2.64-.08-.52-.76-.85-1.23-.7-.57.18-.78.67-.7,1.23h0Z"></path><path class="cls-10" d="M499.72,484.79c.13,1.61.25,3.24.13,4.85-.04.52.49,1.02,1,1,.58-.03.96-.44,1-1,.13-1.61,0-3.24-.13-4.85-.04-.52-.43-1.03-1-1-.51.02-1.05.44-1,1h0Z"></path><path class="cls-10" d="M529.25,484.29c.03.1.05.2.07.3.03.17,0-.04,0-.04,0,0,.01.14.01.15.01.21.01.42,0,.63s-.02.43-.06.64c.05-.22,0,.06-.02.14-.02.12-.04.24-.05.37-.14.97-.26,1.97.06,2.92.17.49.69.87,1.23.7.49-.16.88-.7.7-1.23-.03-.1-.06-.2-.09-.3-.01-.05-.02-.1-.03-.15-.04-.17,0,.03,0,.04-.05-.01-.02-.56-.02-.63,0-.21.03-.43.05-.64,0-.05,0-.11.02-.16-.02.08-.02.14,0,.02s.04-.24.05-.37c.14-.97.28-1.95.02-2.92-.14-.5-.72-.86-1.23-.7s-.85.69-.7,1.23h0Z"></path><path class="cls-10" d="M558.19,484.4c-.05.81.02,1.63.05,2.44.02.41.03.82,0,1.23,0,.19-.02.38-.05.56.03-.21-.02.07-.02.11-.02.13-.05.25-.08.37-.13.51.17,1.11.7,1.23s1.09-.16,1.23-.7c.44-1.74.05-3.49.16-5.24.03-.52-.48-1.02-1-1-.57.03-.96.44-1,1h0Z"></path><path class="cls-10" d="M547.47,504.45c.17,2.08.13,4.17.13,6.26,0,.52.46,1.02,1,1s1-.44,1-1c0-2.09.04-4.17-.13-6.26-.04-.52-.43-1.03-1-1-.51.02-1.04.44-1,1h0Z"></path><path class="cls-10" d="M516.71,505.85c.06.13-.09-.26-.05-.12.01.03.02.07.03.1.02.08.04.16.06.23.02.09.04.18.05.27,0,.04.03.2,0,.02-.02-.19,0,0,0,.05.05.46.07.92.07,1.37s-.02.9-.07,1.35c0,.05-.01.1-.02.16.03-.33.02-.14,0-.07-.01.09-.03.18-.05.27-.02.08-.04.16-.06.23,0,.03-.02.06-.03.08-.05.18.11-.24.05-.11-.22.47-.15,1.1.36,1.37.44.23,1.14.15,1.37-.36.41-.9.44-1.96.44-2.93s-.03-2.04-.44-2.93c-.22-.47-.94-.63-1.37-.36-.49.32-.6.86-.36,1.37h0Z"></path><path class="cls-10" d="M485.56,505.72c.1.15.17.31.25.46.06.11-.08-.21-.02-.04.02.05.04.1.05.15.03.09.06.18.09.28.13.43.22.88.29,1.32,0,.03.03.19,0,.04-.02-.16,0,.05,0,.08.01.12.03.24.04.35.02.22.04.44.04.65.02.39.02.79,0,1.18-.03.52.48,1.02,1,1,.57-.03.96-.44,1-1,.06-.95-.02-1.9-.16-2.84s-.36-1.87-.87-2.64c-.29-.44-.9-.66-1.37-.36-.44.28-.67.9-.36,1.37h0Z"></path><path class="cls-10" d="M451.86,506.23c.25.35.45.74.63,1.13-.1-.21.04.1.06.16.04.11.08.23.12.34.08.23.15.47.22.7.13.46.23.92.32,1.38.04.23.08.45.12.68,0,.06.01.12.03.18-.02-.06-.02-.19,0-.05.01.11.03.22.04.34.06.52.42,1.03,1,1,.49-.02,1.06-.44,1-1-.11-1.03-.29-2.06-.57-3.05s-.63-1.98-1.23-2.81c-.3-.42-.89-.67-1.37-.36-.42.27-.68.91-.36,1.37h0Z"></path><path class="cls-10" d="M421.38,505.99c.67,1.82.64,3.4.86,5.35.06.52.42,1.03,1,1,.49-.02,1.06-.44,1-1-.22-1.96-.24-4.02-.93-5.88-.18-.49-.69-.87-1.23-.7-.48.16-.89.7-.7,1.23h0Z"></path><path class="cls-10" d="M391.63,506.56s.06.07.09.11c.12.14-.14-.2-.04-.05.05.08.11.16.16.24.1.17.19.35.26.53l-.1-.24c.31.74.48,1.53.77,2.28.1.25.22.46.46.6.21.13.53.18.77.1s.48-.23.6-.46.2-.53.1-.77c-.23-.58-.38-1.19-.58-1.78-.25-.72-.56-1.4-1.08-1.98-.35-.39-1.06-.38-1.41,0-.38.42-.37,1,0,1.41h0Z"></path><path class="cls-10" d="M398.23,526.15c-.11,1.24.3,2.4.79,3.51.11.24.22.48.33.72.06.13.11.25.17.38,0,.02.08.19.04.09-.05-.11.05.12.06.14.1.24.18.49.26.74.04.13.07.26.1.4.02.07.03.15.04.22.04.16-.02-.23,0,.05.05.52.42,1.03,1,1,.49-.02,1.06-.44,1-1-.13-1.23-.61-2.3-1.12-3.42-.05-.11-.1-.23-.15-.34-.03-.06-.08-.19-.03-.06-.02-.06-.05-.11-.07-.17-.1-.26-.2-.52-.27-.78-.04-.13-.07-.27-.1-.4-.01-.06-.02-.12-.03-.18,0-.02-.03-.21-.02-.1.01.13,0-.12,0-.14,0-.06,0-.13,0-.19,0-.16,0-.32.02-.48.05-.52-.49-1.02-1-1-.58.03-.95.44-1,1h0Z"></path><path class="cls-10" d="M429.67,526.54c.27.78.45,1.59.58,2.41.02.11.03.21.05.32,0,.02.04.32.01.1.03.21.05.42.08.63.05.42.09.84.14,1.26.06.52.42,1.03,1,1,.49-.02,1.06-.44,1-1-.19-1.76-.34-3.56-.93-5.24-.17-.49-.69-.87-1.23-.7-.49.16-.88.7-.7,1.23h0Z"></path><path class="cls-10" d="M463.12,525.9c.17.7.34,1.39.45,2.1.01.08,0,.05-.01-.09,0,.05.01.09.02.14.01.09.02.19.03.28.01.18.02.37.02.55,0,.09,0,.18-.01.27,0,.04,0,.09-.01.13-.01.11,0,.09.01-.07-.03.04-.03.19-.05.25-.02.08-.04.16-.07.24-.16.5.18,1.11.7,1.23.54.12,1.06-.16,1.23-.7.26-.82.22-1.69.1-2.53-.11-.79-.29-1.56-.49-2.34-.13-.51-.72-.86-1.23-.7s-.84.69-.7,1.23h0Z"></path><path class="cls-10" d="M499.34,525.64c0,.34.04.68.08,1.02.03.26.07.52.1.78.02.16,0,.04,0-.05,0,.05.01.11.02.16.01.11.03.21.04.32.05.41.09.82.08,1.23,0,.1,0,.19-.01.29,0,.04,0,.07,0,.11-.01.2.05-.25,0-.05-.01.08-.03.15-.05.22-.02.09-.15.38,0,.05-.21.48-.15,1.1.36,1.37.44.23,1.14.15,1.37-.36.39-.87.37-1.81.26-2.73-.02-.21-.05-.43-.08-.64-.02-.18-.05-.37-.07-.55,0-.04-.03-.23,0-.05s0-.02,0-.05c-.05-.36-.09-.72-.09-1.08,0-.52-.47-1.02-1-1s-.99.44-1,1h0Z"></path><path class="cls-10" d="M531.77,524.62c.22,1.69.13,3.41,0,5.11-.04.52.49,1.02,1,1,.58-.03.96-.44,1-1,.13-1.7.22-3.41,0-5.11-.04-.28-.09-.5-.29-.71-.17-.17-.46-.3-.71-.29-.48.02-1.07.44-1,1h0Z"></path><path class="cls-10" d="M563.43,525.13c0,.66.07,1.31.1,1.97.02.31.03.63.02.94,0,.17-.02.33-.03.5-.02.24.04-.23,0,.01-.02.09-.03.18-.05.27-.11.51.15,1.11.7,1.23.5.11,1.11-.15,1.23-.7.3-1.41.04-2.81.04-4.22,0-.52-.46-1.02-1-1s-1,.44-1,1h0Z"></path><path class="cls-10" d="M548.88,546.06c.03.05.06.11.08.16-.07-.16,0,.05.01.08.02.09.07.32.08.33.03.22.04.66.03.96-.02.66-.11,1.32-.19,1.98-.16,1.32-.04,2.68-.5,3.88-.19.5.21,1.1.7,1.23.56.15,1.04-.19,1.23-.7.54-1.41.4-3.04.59-4.51s.43-3.1-.3-4.43c-.62-1.13-2.35-.12-1.73,1.01h0Z"></path><path class="cls-10" d="M514.16,546.31c.24.41.34,1.14.4,1.74.06.76.08,1.53.15,2.29.15,1.59.89,3.32.38,4.9-.4,1.23,1.53,1.75,1.93.53.32-1,.25-2.04.1-3.06-.12-.85-.35-1.76-.42-2.49-.14-1.61.02-3.46-.81-4.92-.64-1.12-2.36-.11-1.73,1.01h0Z"></path><path class="cls-10" d="M478.4,545.55c0,2.78.49,5.52.51,8.3,0,1.29,2.01,1.29,2,0-.02-2.77-.5-5.52-.51-8.3,0-1.29-2-1.29-2,0h0Z"></path><path class="cls-10" d="M440.91,547.28c.42.4.72.94.9,1.48.23.68.38,1.48.45,2.08.18,1.51.19,3.04.43,4.55.09.53.75.83,1.23.7.57-.16.78-.69.7-1.23,0-.01-.05-.31-.02-.11-.01-.08-.02-.16-.03-.25-.02-.17-.04-.34-.05-.52-.03-.39-.06-.77-.09-1.16-.06-.87-.13-1.74-.25-2.6-.22-1.58-.67-3.23-1.86-4.36-.93-.89-2.35.52-1.41,1.41h0Z"></path><path class="cls-10" d="M406.18,547.86c.2,1.12.67,2.16,1.08,3.21.2.53.4,1.06.53,1.61s.18.92.14,1.55c-.03.52.48,1.02,1,1,.57-.03.96-.44,1-1,.16-2.49-1.4-4.54-1.82-6.9-.1-.53-.74-.83-1.23-.7-.56.15-.79.7-.7,1.23h0Z"></path><path class="cls-10" d="M382.82,546.46c.67,1.93.85,3.99,1.15,6,.08.52.76.85,1.23.7.57-.18.78-.67.7-1.23-.3-2.01-.48-4.07-1.15-6-.17-.49-.69-.87-1.23-.7-.49.16-.88.7-.7,1.23h0Z"></path><path class="cls-10" d="M382.82,572.24c.16.6.36,1.19.52,1.8.08.3.14.6.2.91.01.08,0,.04-.01-.1,0,.04.01.09.01.13,0,.08.01.15.02.23,0,.16,0,.32,0,.48-.03.52.48,1.02,1,1,.57-.03.97-.44,1-1,.08-1.37-.47-2.66-.8-3.97-.13-.51-.72-.86-1.23-.7s-.84.69-.7,1.23h0Z"></path><path class="cls-10" d="M358.57,570.97c.31.8.51,1.65.66,2.49.02.12.04.25.06.37.03.19-.02-.16,0-.03,0,.05.01.11.02.16.02.23.04.46.05.69,0,.2-.02.4-.03.61,0-.05.05-.26,0-.1,0,.04-.02.07-.02.11-.01.04-.03.08-.04.12-.03.15.11-.24.04-.09-.22.47-.15,1.1.36,1.37.45.24,1.13.15,1.37-.36.47-.99.32-2.14.15-3.18-.14-.91-.36-1.83-.69-2.69-.19-.49-.68-.88-1.23-.7-.47.15-.9.71-.7,1.23h0Z"></path><path class="cls-10" d="M340.9,576.29c1.11.54,2.3.65,3.51.72,1.36.08,2.7.27,4.06.37,1.44.11,2.9.13,4.35.18.66.02,1.3.03,1.95.15s1.37.27,2.07.25c1.28-.04,1.29-2.04,0-2s-2.48-.36-3.73-.39c-1.35-.03-2.72-.08-4.07-.15s-2.63-.27-3.94-.37c-1.05-.08-2.22-.01-3.2-.49-1.15-.56-2.17,1.16-1.01,1.73h0Z"></path><path class="cls-10" d="M355.2,568.84c-1.19-.24-2.39-.17-3.59-.09s-2.38.18-3.43-.04c-.53-.11-1.08.16-1.23.7-.14.5.17,1.12.7,1.23,1.23.26,2.47.22,3.72.13.58-.04,1.17-.09,1.75-.1s1.11.01,1.55.1c.53.11,1.08-.15,1.23-.7.14-.49-.17-1.12-.7-1.23h0Z"></path><path class="cls-10" d="M583.47,544.28c-.11,2.53-.29,5.1-1.11,7.52-.17.51.2,1.09.7,1.23.55.15,1.06-.19,1.23-.7.87-2.58,1.06-5.35,1.18-8.05.02-.54-.48-1-1-1-.56,0-.98.46-1,1h0Z"></path><path class="cls-19" d="M668.07,498.93c-6.94-4.7-14.39-8.54-21.58-12.83s-13.07-9.4-19.75-13.95c-3.28-2.24-6.67-4.12-10.48-5.28-3.58-1.09-7.28-1.67-10.93-2.44-7.22-1.53-13.85-5.56-21.26-6.14s-13.47,3.96-17.24,9.97c-3.37,5.38-5.21,12.45-3.16,18.65,2.15,6.52,8.32,9.8,14.06,12.74,1.57.8,3.13,1.57,4.8,2.14,1.76.59,3.57,1.02,5.35,1.58,1.51.48,3.1,1.03,4.37,2.02s1.95,2.36,2.58,3.75c.72,1.59,1.32,3.22,2.2,4.74s2,3.01,3.19,4.35c2.32,2.62,5.11,4.79,7.95,6.8s6.07,3.21,9.07,4.92c2.74,1.56,4.52,3.76,6.43,6.2.68.87,1.33,1.8,2.11,2.58,2.06,2.05,5.24-1.14,3.18-3.18-1.64-1.63-2.87-3.68-4.37-5.43-2.21-2.59-5.22-4.21-8.24-5.67-5.75-2.77-11.56-6.67-15.03-12.17-1.72-2.74-2.46-5.98-4.46-8.55-2.25-2.88-5.75-4.13-9.16-5.11-1.65-.47-3.33-.9-4.93-1.52-1.37-.53-2.68-1.29-3.99-1.97-2.67-1.38-5.42-2.82-7.66-4.85-4.45-4.01-4.46-10.19-2.53-15.49,1.96-5.39,6.48-11.17,12.51-11.97,3.24-.43,6.51.51,9.54,1.55,3.38,1.16,6.66,2.61,10.1,3.59,6.91,1.95,14.21,2.22,20.5,6.01,6.62,3.98,12.34,9.24,18.81,13.45s13.81,7.96,20.61,12.11c1.74,1.06,3.45,2.16,5.13,3.3,2.4,1.63,4.66-2.27,2.27-3.89h0Z"></path><path class="cls-19" d="M171.42,662c10.2-9.78,20.58-19.33,31.12-28.74,9.99-8.91,18.96-18.88,28.65-28.11,7.85-7.47,16.27-16.18,27.03-19.19,6.31-1.77,13.21-1.2,19.65-.61s13.41,1.44,20.17,1.18c14.12-.54,28.17-4.07,40.17-11.72,2.43-1.55.18-5.45-2.27-3.89-10.58,6.74-22.82,10.17-35.28,10.97-6.77.44-13.44-.14-20.17-.8s-13.71-1.23-20.51-.13c-11.45,1.86-20.85,10.5-28.97,18.17-9.47,8.95-18.32,18.53-27.82,27.45-5.75,5.39-11.74,10.52-17.54,15.86s-11.64,10.85-17.39,16.36c-2.09,2.01,1.09,5.19,3.18,3.18h0Z"></path><path class="cls-19" d="M307.45,546.02c8.97,0,17.79-.3,25.94-4.46,6.13-3.13,11.97-8.16,19.17-8.28,2.79-.05,5.42.66,7.42,2.54,1.9,1.78,3.01,4.11,3.48,6.69.42,2.3.13,5-.95,7.16-1.4,2.81-3.92,5.19-6.11,7.38-5.43,5.43-12.76,11.5-20.87,11.54-2.89.01-2.9,4.51,0,4.5,8.23-.04,15.66-5.16,21.54-10.47,2.9-2.62,5.68-5.49,8.03-8.61,1.95-2.59,2.94-5.81,3.02-9.03.16-6.5-3.51-12.89-9.67-15.28-7.61-2.95-15.57,1.15-22,4.97-4.1,2.43-8.15,4.67-12.84,5.74-5.29,1.2-10.76,1.13-16.15,1.13-2.9,0-2.9,4.5,0,4.5h0Z"></path></g><g id="_Шар_6" data-name="Шар 6"><rect class="cls-24" x="21.5" y="18.5" width="938" height="643"></rect></g></svg> 