<?xml version="1.0" encoding="UTF-8"?> <svg xmlns="http://www.w3.org/2000/svg" width="159" height="280" viewBox="0 0 159 280" fill="none"><path d="M94.51 73.4905C94.51 73.4905 93.51 84.5505 104.42 96.7105C115.32 108.87 127.32 120 133.32 132.93C139.32 145.86 136.58 170.37 136.58 170.37C136.58 170.37 139.82 183.05 140.57 185.46C141.32 187.87 152.45 206.94 155.39 225.41C158.33 243.88 145.77 256.75 145.77 256.75C145.77 256.75 132.1 272.75 123.71 272.81C115.32 272.87 33.93 272.02 33.93 272.02C33.93 272.02 3.75001 260.83 4.03001 234.85C4.31001 208.87 17.93 189.01 20.62 182.44C23.31 175.87 21.97 168.51 21.64 154.19C21.31 139.87 24.09 133 35.7 118.93C47.31 104.86 59.1 94.8605 61.71 89.8705C64.32 84.8805 67.38 71.2305 67.38 71.2305L94.5 73.4905H94.51Z" fill="#B1CDDD"></path><path d="M76.32 69.8701C77.32 77.8701 78.45 93.7401 67.39 104.81C56.33 115.88 40.59 120.34 34.96 141.11C29.33 161.88 36.33 163.88 33.33 182.88C30.33 201.88 18.33 205.88 22.33 230.88C26.33 255.88 49.87 260.65 87.6 258.76C125.33 256.88 133.85 230.87 126.09 215.87C118.33 200.87 107.85 182.61 109.59 149.74C111.33 116.87 93.33 122.87 88.33 102.87C83.33 82.8701 63.33 103.87 63.33 102.87C63.33 101.87 69.33 63.8701 71.33 62.8701C73.33 61.8701 92.04 65.6801 92.04 65.6801C92.04 65.6801 94.33 84.8701 98.33 90.8701C102.33 96.8701 125.92 118.86 134.12 134.87C142.33 150.87 134.33 167.87 137.33 176.87C140.33 185.87 147.76 199.84 153.05 212.86C158.34 225.88 154.77 238.75 153.05 245.31C151.33 251.87 139.99 260.94 137.16 265.41C134.33 269.88 124.11 272.75 123.72 272.81C123.33 272.87 33.94 272.02 33.94 272.02C33.94 272.02 4.75996 258.83 4.03996 234.85C3.31996 210.87 22.33 186.87 23.33 176.87C24.33 166.87 21.88 154.08 22.1 144.48C22.32 134.88 44.47 108.68 44.47 108.68C44.47 108.68 56.11 103.87 61.72 89.8701C67.33 75.8701 69.32 60.8701 69.32 60.8701L76.32 69.8701Z" fill="#83B6CC"></path><path d="M84.32 61.8694C84.32 63.8694 76.7 83.3494 94.51 102.109C112.32 120.869 120.67 131.609 121.49 149.739C122.31 167.869 118.1 161.359 123.71 181.609C129.32 201.859 134.67 209.819 136.99 234.839C139.31 259.859 97.45 267.369 67.38 265.109C37.31 262.849 19.23 256.919 14.77 237.389C10.31 217.859 16.07 207.239 22.69 189.549C29.31 171.859 21.64 154.179 21.64 154.179C21.64 154.179 25.39 173.999 20.85 184.429C16.31 194.859 3.73996 219.819 4.02996 234.839C4.31996 249.859 16.98 260.129 23.15 265.489C29.32 270.849 37.18 272.569 37.18 272.569L126.32 272.339C126.32 272.339 157.73 256.179 154.03 228.019C150.33 199.859 135.32 174.239 135.32 174.239C135.32 174.239 140.45 150.479 135.39 137.669C130.33 124.859 97.71 92.9394 94.51 84.3994C91.31 75.8594 92.03 65.6694 92.03 65.6694L84.32 61.8594V61.8694Z" fill="#69A3B7"></path><path d="M71.7501 90.0493C71.7501 90.0493 71.7701 90.0193 71.7901 89.9993C72.5501 88.9593 70.8101 87.9593 70.0601 88.9893C61.1701 101.199 54.1101 114.719 49.1501 128.989C47.7301 133.069 46.5001 137.219 45.4301 141.399C45.2201 142.209 46.1401 143.009 46.9001 142.529C50.5101 140.219 54.4101 138.499 58.5501 137.379C58.9501 137.269 59.3101 136.849 59.2801 136.419C58.1601 120.279 66.8201 105.729 72.5401 91.2293C72.8001 90.5593 72.3101 90.1093 71.7401 90.0493H71.7501Z" fill="#DEF6FC"></path><path d="M57.0199 261.09C50.4599 259.81 43.3599 258.23 39.6099 252.12C37.8099 249.18 36.8499 245.83 35.9999 242.52C34.9699 238.54 34.1399 234.51 33.4799 230.44C33.4299 230.1 33.0899 229.84 32.7799 229.74L25.9599 227.64C25.3699 227.46 24.9499 227.81 24.7999 228.26C24.8499 227.01 22.8899 227.03 22.7999 228.29C22.2999 235.27 22.0499 242.76 26.6199 248.56C28.7999 251.32 31.6799 253.48 34.6199 255.36C37.7599 257.36 41.1299 259 44.6299 260.28C48.4599 261.67 52.4299 262.56 56.4799 263.02C56.5699 263.03 56.6599 263.05 56.7499 263.06C57.8599 263.18 58.1199 261.31 57.0199 261.1V261.09Z" fill="#DEF6FC"></path><path d="M63.45 13.2198C63.32 13.8698 64.71 25.4198 64.71 25.4198C64.71 25.4198 61.83 26.2898 64.08 31.5798L66.33 36.8698L67.86 69.0298L66.78 73.8198L92.82 74.1598C92.82 74.1598 90.76 47.3998 92.04 42.6298C93.32 37.8598 94.72 31.6298 94.72 31.6298L95.11 20.4098C95.11 20.4098 102.3 10.6398 92.81 6.74979C83.32 2.85979 67.9 7.63979 66.61 7.74979C65.32 7.85979 63.45 13.2098 63.45 13.2098V13.2198Z" fill="#05A2C9"></path><path d="M95.23 26.3096C94.88 24.6496 94.67 22.9796 94.62 21.2696C94.99 19.5196 95.33 17.7696 95.61 15.9996C95.96 13.8296 96.7 11.1996 95.58 9.13964C94.5 7.14964 92.38 6.55964 90.21 6.55964C89 6.17964 87.76 6.23965 86.63 6.82965C86.53 6.80965 86.43 6.78964 86.33 6.77964C85.35 6.65964 85.14 7.79965 85.66 8.40965C85.88 8.80965 86.36 9.10964 86.83 8.99964C86.9 8.97964 86.98 8.96964 87.05 8.94964C88.41 9.40964 89.46 10.6496 89.88 12.0196C90.49 14.0096 89.54 15.5996 88.12 16.9396C86.68 18.2996 85.01 19.4196 84.08 21.2196C83.25 22.8196 83.02 24.6296 84 26.2196C84.3 26.7096 84.87 26.8196 85.37 26.5796C87.38 25.6296 89.09 28.4796 88.56 30.1796C87.9 32.2896 85.66 33.3897 83.66 33.8497C83.2 33.9497 82.97 34.3896 82.93 34.8096C82.38 40.5496 82.05 46.2996 81.92 52.0596L81.67 52.5697C81.47 52.9897 81.6 53.4496 81.88 53.7496C81.79 60.0896 81.95 66.4396 82.38 72.7796C82.42 73.3196 82.81 73.7796 83.38 73.7796C84.07 73.7796 84.75 73.7796 85.44 73.7796C85.58 73.8096 85.73 73.8096 85.88 73.7796H85.9C87.72 73.7796 89.55 73.7796 91.37 73.7696C91.86 73.7696 92.44 73.3096 92.37 72.7696C92.34 72.5496 92.32 72.3196 92.3 72.0996C92.63 71.6896 92.78 71.1496 92.71 70.6196C92.63 69.9796 92.33 69.4497 91.96 68.9597C91.5 64.3197 91.2 59.6696 91.08 55.0096C91.52 53.9196 91.96 52.8296 92.4 51.7496C92.73 50.9196 91.74 50.3197 91.04 50.5697C91.21 50.1397 91.4 49.7196 91.56 49.2896C91.74 48.7896 91.45 48.3696 91.04 48.1696C91.04 47.5496 91.06 46.9196 91.07 46.2896C91.11 46.1896 91.15 46.0796 91.19 45.9796C91.3 45.6796 91.25 45.4097 91.1 45.2097C91.1 44.9497 91.12 44.6996 91.13 44.4396L91.94 42.5596C92.23 41.8796 91.81 41.2597 91.27 41.0997C91.3 40.4497 91.33 39.7996 91.37 39.1496C91.49 37.1796 91.68 35.2896 92.89 33.6496C93.51 32.8096 94.24 32.0396 94.8 31.1596C95.38 31.4996 96.23 31.1597 96.32 30.3197C96.47 28.8497 96.08 27.4596 95.26 26.2896L95.23 26.3096ZM85.38 23.4396C85.38 23.4396 85.36 23.4996 85.34 23.5296C85.48 22.3396 86.4 21.2096 87.34 20.2996L85.38 23.4396ZM87.29 65.4996C87.29 65.4996 87.31 65.5497 87.32 65.5697C87 66.6897 86.75 67.8296 86.56 68.9696C86.56 68.4296 86.56 67.8996 86.55 67.3596C86.55 67.1996 86.51 67.0496 86.46 66.9296C86.75 66.4596 87.02 65.9697 87.29 65.4897V65.4996ZM83.87 59.6196C83.87 59.6196 83.86 59.6496 83.85 59.6596C83.83 58.2296 83.83 56.7996 83.85 55.3696C83.86 55.3696 83.87 55.3696 83.88 55.3596C83.86 56.7796 83.86 58.1996 83.88 59.6196H83.87ZM84.23 70.5196C84.3 70.6896 84.43 70.7996 84.58 70.8896C84.58 71.1796 84.58 71.4796 84.58 71.7696H84.29C84.26 71.3496 84.25 70.9296 84.22 70.5196H84.23ZM92.98 27.9096C92.94 27.9596 92.89 28.0096 92.85 28.0596C92.95 27.7096 93.06 27.3596 93.16 27.0096C93.16 26.9896 93.16 26.9696 93.16 26.9496C93.23 27.0396 93.3 27.1296 93.38 27.2196C93.41 27.3496 93.45 27.4796 93.48 27.6196C93.31 27.6596 93.14 27.7396 92.98 27.9096Z" fill="#067E91"></path><path d="M71.21 48.8503C71.02 44.9903 70.95 40.7703 69.83 37.0503C69.31 35.3203 68.32 33.8703 67.46 32.3003C67.37 32.1403 67.29 31.9703 67.21 31.8003C68.02 30.1703 68.36 28.3903 68.16 26.5603C68.12 26.2203 67.95 25.9503 67.72 25.7803C67.72 25.7203 67.72 25.6703 67.72 25.6103C68.29 25.7403 68.97 25.4403 68.98 24.6903C69.03 19.6003 68.24 14.5603 66.61 9.7403C66.2 8.5303 64.27 9.0503 64.68 10.2703C64.71 10.3603 64.74 10.4503 64.76 10.5403C64.56 10.7003 64.4 10.9403 64.38 11.2903C64.11 14.7503 64.51 18.1903 65.56 21.4903C65.61 21.6603 65.71 21.7903 65.82 21.9003C65.83 23.3103 65.79 24.7103 65.69 26.1103C65.56 26.1803 65.44 26.2703 65.36 26.4003C64.18 28.1103 64.35 29.8803 64.99 31.5903C64.98 31.6503 64.97 31.7103 64.96 31.7603C64.86 32.3103 65.17 32.7603 65.59 32.9403C66.03 33.8203 66.54 34.6803 66.98 35.4803C67.5 36.4303 67.87 37.4503 68.15 38.5203C67.79 38.6303 67.51 38.9303 67.53 39.4303C68.07 50.7403 68.1 62.0603 67.64 73.3703C67.59 74.4803 69.41 74.7603 69.6 73.6403C71.03 65.4703 71.59 57.1503 71.19 48.8603L71.21 48.8503Z" fill="#067E91"></path><path d="M83.48 27.8594C78.05 28.1794 72.62 28.6194 67.21 29.1694C65.94 29.2994 65.93 31.2994 67.21 31.1694C67.48 31.1394 67.75 31.1194 68.03 31.0994C68.1 31.7094 68.79 32.3194 69.54 31.9894C71.81 30.9894 74.37 31.0494 76.81 30.9894C79.28 30.9294 81.71 30.7394 83.99 29.7294C84.9 29.3294 84.44 27.8094 83.49 27.8694L83.48 27.8594Z" fill="#DEF6FC"></path><path d="M71.25 10.2304C71.01 8.97041 69.0801 9.50041 69.3201 10.7604C70.2201 15.5004 70.5 20.3204 70.19 25.1304C70.11 26.4104 72.11 26.4104 72.19 25.1304C72.51 20.1404 72.19 15.1404 71.25 10.2204V10.2304Z" fill="#DEF6FC"></path><path d="M74.26 49.0901C74.07 46.2001 73.79 43.3101 73.4 40.4401C73.08 38.0801 72.53 35.8501 71 33.9701C70.19 32.9701 68.78 34.3901 69.59 35.3801C71.1 37.2301 71.34 39.7701 71.61 42.0501C71.95 44.8701 72.19 47.7001 72.35 50.5401C72.67 56.1401 72.63 61.7401 72.27 67.3401C72.19 68.6301 74.19 68.6201 74.27 67.3401C74.66 61.2601 74.67 55.1601 74.27 49.0801L74.26 49.0901Z" fill="#DEF6FC"></path><path d="M80.3201 242.87C108.487 242.87 131.32 220.037 131.32 191.87C131.32 163.704 108.487 140.87 80.3201 140.87C52.1535 140.87 29.3201 163.704 29.3201 191.87C29.3201 220.037 52.1535 242.87 80.3201 242.87Z" fill="black"></path><path d="M92.5099 7.85003C94.8999 8.29003 95.6199 9.77003 95.4699 12.07C95.3199 14.37 94.5499 16.54 94.1799 18.78C93.7599 21.31 94.2299 23.75 94.5799 26.26C94.9299 28.77 95.3699 31.85 92.9999 33.36C91.7799 34.14 92.9099 36.09 94.1399 35.3C99.7999 31.68 95.4399 23.9 96.4799 18.64C97.3899 14.07 99.7399 6.88002 93.0999 5.67002C91.6799 5.41002 91.0799 7.58002 92.4999 7.84002L92.5099 7.85003Z" fill="black"></path><path d="M91.98 35.0599C91.43 36.9099 91.35 38.8599 91.29 40.7799C91.23 42.9299 91.05 45.0699 90.97 47.2199C90.81 51.9799 90.87 56.7599 90.91 61.5199C90.97 70.0099 92.12 78.7399 95.4 86.6399C96.12 88.3799 96.98 90.0599 98.09 91.5899C99.35 93.3099 100.92 94.7699 102.41 96.2799C105.77 99.6899 109.15 103.09 112.42 106.59C118.32 112.93 124.06 119.53 128.66 126.89C130.95 130.55 132.97 134.41 134.48 138.46C136.13 142.89 136.83 147.33 136.69 152.05C136.44 160.64 134.33 169.12 136.42 177.65C137.42 181.71 139.28 185.42 141.15 189.14C143.13 193.08 145.12 197.01 146.95 201.02C150.61 209.06 153.66 217.6 154.18 226.49C154.66 234.82 153.27 243.29 148.96 250.52C146.71 254.29 143.74 257.45 140.52 260.4C137.53 263.14 134.56 266.04 131.01 268.04C129.31 269 127.46 269.78 125.5 269.89C124.06 269.97 124.05 272.22 125.5 272.14C129.4 271.92 132.91 269.77 135.92 267.42C139.18 264.89 142.3 261.99 145.17 259.04C151.06 252.98 154.82 245.34 156 236.97C157.18 228.6 156.13 219.52 153.4 211.2C150.67 202.88 146.5 194.78 142.51 186.84C140.6 183.03 138.9 179.21 138.16 174.99C137.42 170.77 137.66 166.52 138.09 162.3C138.57 157.59 139.18 152.86 138.9 148.12C138.62 143.38 137.36 139.37 135.59 135.23C128.48 118.6 114.75 105.68 102.32 92.9999C99.36 89.9799 97.56 86.5999 96.32 82.5699C95.08 78.5399 94.02 74.2799 93.57 70.0699C93.05 65.2599 93.16 60.4199 93.17 55.5899C93.18 50.7599 93.38 46.2699 93.52 41.5999C93.58 39.6099 93.58 37.5899 94.15 35.6699C94.56 34.2799 92.39 33.6799 91.98 35.0699V35.0599Z" fill="black"></path><path d="M66.31 6.67954C59.68 7.88954 62.03 15.0895 62.93 19.6495C63.98 24.9095 59.62 32.6895 65.27 36.3095C66.49 37.0895 67.62 35.1495 66.41 34.3695C64.05 32.8595 64.5 29.6596 64.83 27.2696C65.18 24.7596 65.65 22.3195 65.23 19.7895C64.86 17.5495 64.09 15.3595 63.94 13.0795C63.79 10.7995 64.51 9.28955 66.9 8.85955C68.32 8.59955 67.72 6.42955 66.3 6.68955L66.31 6.67954Z" fill="black"></path><path d="M65.2701 36.6601C66.1001 39.4601 65.8401 42.5001 66.0501 45.3801C66.2901 48.7101 66.2601 52.0501 66.2601 55.3901C66.2501 62.2101 66.5701 69.1701 65.0701 75.8701C63.9101 81.0801 62.7401 86.7101 59.6101 91.1401C57.7101 93.8301 55.0401 96.0701 52.7301 98.4101C50.4201 100.75 48.0301 103.2 45.7401 105.64C37.4401 114.51 29.2601 124.03 24.2601 135.22C23.0101 138.03 21.8501 140.95 21.2001 143.96C20.5501 146.97 20.3801 150.31 20.4901 153.5C20.7301 159.88 22.0901 166.22 21.6601 172.62C21.2601 178.64 18.9001 183.86 16.2201 189.18C13.5401 194.5 10.6401 200.25 8.30006 205.99C3.69006 217.29 1.30006 229.63 4.11006 241.71C5.42006 247.35 8.03006 252.64 11.6701 257.14C14.8701 261.09 18.8401 264.59 22.7501 267.83C27.9601 272.15 34.2101 273.42 40.8401 273.73C47.1101 274.02 53.3901 273.54 59.6501 273.28C66.5501 272.99 73.3901 273.33 80.2801 273.57C87.0801 273.81 93.8901 273.94 100.7 274C104.15 274.03 107.6 274 111.05 274.07C113.93 274.13 116.82 274.24 119.69 273.98C122.37 273.73 124.97 273.15 127.36 271.88C128.64 271.2 127.5 269.26 126.22 269.94C121.15 272.63 114.96 271.84 109.44 271.8C102.63 271.75 95.8301 271.72 89.0301 271.57C82.2301 271.42 75.4701 270.98 68.6901 270.86C61.9101 270.74 55.4601 271.31 48.8501 271.51C41.4501 271.73 32.8201 271.99 26.3601 267.75C23.3001 265.74 20.6101 263.01 17.9601 260.52C13.5401 256.37 9.88006 251.6 7.72006 245.89C3.43006 234.54 4.90006 221.89 8.89006 210.7C10.9801 204.83 13.7001 199.21 16.4801 193.64C19.0901 188.42 22.0401 183.27 23.2401 177.5C24.4401 171.73 23.8301 165.87 23.2401 160.02C22.5701 153.43 22.2901 146.99 24.4901 140.65C28.4801 129.16 36.2501 119.42 44.3001 110.51C48.7201 105.61 53.3901 100.94 58.0101 96.2401C60.0001 94.2101 61.8001 92.2101 63.1001 89.6501C64.3101 87.2501 65.1601 84.6701 65.8601 82.0701C67.4701 76.0801 68.3901 70.1401 68.4901 63.9301C68.6001 57.3301 68.5701 50.7201 68.2101 44.1401C68.0601 41.4401 68.2101 38.6601 67.4401 36.0401C67.0301 34.6601 64.8601 35.2401 65.2701 36.6401V36.6601Z" fill="black"></path><path d="M63.75 8.87015C69.6 7.99015 75.48 7.29015 81.37 6.73015C83.56 6.52015 85.76 6.36015 87.95 6.39015C89.87 6.42015 92.08 6.47015 93.77 7.48015C95.02 8.23015 96.15 6.28014 94.91 5.54014C93.14 4.48014 90.97 4.26015 88.95 4.17015C86.52 4.06015 84.08 4.23015 81.67 4.45015C75.48 5.03015 69.3 5.78015 63.15 6.70015C61.72 6.91015 62.33 9.08015 63.75 8.87015Z" fill="black"></path><path d="M67.28 75.3001C76.36 75.2901 85.43 74.6301 94.51 74.6201C95.96 74.6201 95.96 72.3701 94.51 72.3701C85.43 72.3801 76.36 73.0401 67.28 73.0501C65.83 73.0501 65.83 75.3001 67.28 75.3001Z" fill="black"></path><path d="M39.08 219.01V210.44C39.2 209.38 39.19 208.31 39.22 207.24C39.25 206.07 39.16 204.91 39.3 203.74C39.34 203.38 39.42 203.05 39.71 202.81C42.26 201.66 44.78 200.43 47.35 199.31C48.14 198.97 48.92 198.59 49.7 198.21C52.31 197.05 54.8999 195.84 57.5099 194.67C58.9299 194.03 60.38 193.48 61.75 192.73C63.83 191.83 65.88 190.87 67.95 189.94C70.25 188.91 72.56 187.88 74.85 186.81C76.03 186.26 77.2299 185.74 78.3999 185.15C80.9699 184.04 83.51 182.86 86.06 181.71C88.87 180.45 91.67 179.18 94.47 177.89C96.12 177.13 97.78 176.39 99.45 175.66C100.11 175.37 100.75 175.04 101.41 174.74C101.98 174.67 102.45 174.34 102.96 174.11C103.72 173.75 104.48 173.4 105.23 173.01C105.65 172.79 105.61 172.58 105.23 172.39C104.96 172.25 104.7 172.1 104.47 171.9C103.46 171.13 102.32 170.56 101.18 170.02C99.8399 169.13 98.4099 168.4 97.0199 167.59C96.7299 167.42 96.4 167.28 96.42 166.89C96.44 166.54 96.79 166.44 97.06 166.31C97.68 166.03 98.3099 165.8 98.8699 165.42C99.9799 164.89 101.11 164.38 102.23 163.86C104.5 162.82 106.8 161.82 109.06 160.77C109.14 160.73 109.25 160.71 109.32 160.66C110.73 159.68 111.93 160.47 113.15 161.1C115.04 162.07 116.97 162.97 118.83 163.99C119 164.08 119.18 164.12 119.36 164.17C120 164.47 120.63 164.79 121.25 165.14C121.49 165.27 121.75 165.39 121.86 165.67C121.98 166.23 121.91 166.79 121.92 167.35C121.98 171.6 121.68 175.85 121.78 180.11C121.8 181.1 121.47 181.8 120.45 182.24C117.6 183.47 114.81 184.81 111.97 186.06C110.86 186.55 109.76 187.06 108.67 187.58C107.76 188.08 106.75 188.36 105.86 188.88C103.41 189.91 101.01 191.03 98.59 192.11C97.79 192.47 96.97 192.8 96.19 193.23C93.96 194.12 91.82 195.19 89.64 196.21C88.92 196.55 88.1499 196.74 87.4599 197.15C84.2699 198.51 81.17 200.08 77.97 201.4C77.6 201.55 77.27 201.76 76.92 201.95C74.36 203.13 71.76 204.23 69.2 205.42C67.11 206.4 64.98 207.3 62.88 208.26C60.5 209.34 58.08 210.34 55.77 211.58C55.57 211.69 55.2499 211.74 55.2299 211.97C55.2099 212.28 55.57 212.32 55.78 212.42C58.45 213.78 60.96 215.42 63.61 216.81C63.84 216.93 64.1799 217.02 64.1799 217.37C64.1799 217.76 63.81 217.8 63.55 217.94C62.58 218.45 61.61 218.97 60.59 219.38C59.43 219.91 58.27 220.46 57.1 220.99C55.64 221.65 54.1699 222.32 52.6799 222.94C51.9699 223.24 51.27 223.55 50.6 223.93C49.99 224.27 49.43 224.22 48.82 223.89C46.16 222.44 43.42 221.15 40.72 219.76C40.55 219.67 40.38 219.6 40.2 219.58C39.79 219.46 39.42 219.25 39.09 218.99L39.08 219.01Z" fill="#05A2C9"></path><path d="M39.08 187.389V165.739C39.6 165.209 40.2799 164.919 40.9299 164.629C42.3799 163.989 43.7299 163.139 45.1499 162.449C46.9899 161.549 48.8099 160.599 50.6799 159.749C51.3699 159.439 52.01 159.579 52.63 159.889C53.36 160.259 54.09 160.619 54.83 160.969C56.73 161.899 58.64 162.809 60.52 163.799C60.83 163.959 61.1299 164.139 61.4799 164.219C61.5499 164.249 61.61 164.279 61.67 164.319C63.57 165.369 65.53 166.309 67.45 167.309C70.85 169.069 74.25 170.829 77.6 172.669C78.17 172.979 78.74 173.309 79.27 173.699C79.8 174.089 79.7699 174.369 79.1799 174.659C77.1799 175.619 75.15 176.509 73.13 177.399C71.18 178.289 69.2399 179.179 67.2899 180.059C66.6199 180.359 66.0899 180.379 65.3999 180.019C63.7799 179.149 62.18 178.259 60.56 177.379C59.48 176.649 58.26 176.159 57.14 175.499C55.83 174.739 54.5 174.029 53.17 173.299C52.89 173.149 52.62 172.939 52.27 172.929C51.94 173.019 51.95 173.289 51.95 173.549C51.93 177.699 51.9499 181.839 51.9299 185.989C51.9299 186.249 51.93 186.499 51.8 186.739C51.28 187.439 50.42 187.539 49.71 187.909C49.18 188.189 48.62 188.409 48.07 188.659C46.6 189.299 45.1199 189.919 43.6499 190.569C42.5699 191.039 41.5199 191.609 40.3999 191.989C39.5099 192.289 39.31 192.149 39.32 191.199C39.34 190.129 39.2 189.059 39.22 187.989C39.22 187.779 39.22 187.569 39.08 187.389Z" fill="#05A2C9"></path><path d="M122.14 197.65V213.11C121.87 213.99 122.01 214.91 121.91 215.81C121.85 216.37 121.89 216.93 121.91 217.5C121.91 217.96 121.77 218.28 121.37 218.55C120.31 219.28 119.15 219.84 118.02 220.46C115.47 221.88 112.85 223.17 110.28 224.54C109.84 224.77 109.44 224.83 108.95 224.58C104.58 222.34 100.22 220.09 95.88 217.8C93.53 216.56 91.13 215.41 88.85 214.05C88.75 213.99 88.63 213.99 88.51 213.95C87.23 213.42 86.1 212.62 84.89 211.98C84.07 211.54 83.27 211.05 82.44 210.62C82.16 210.48 81.87 210.33 81.9 209.97C81.93 209.65 82.2 209.53 82.46 209.41C86.1 207.74 89.82 206.24 93.42 204.47C94.24 204.07 95.04 204.04 95.89 204.49C99.21 206.24 102.53 207.99 105.85 209.76C106.67 210.2 107.56 210.5 108.38 210.97C108.84 211.23 109.15 211 109.16 210.29C109.18 209.33 109.34 208.38 109.34 207.42C109.34 204.47 109.37 201.52 109.32 198.57C109.3 197.6 109.65 197.14 110.53 196.74C113.68 195.27 116.9 193.96 120 192.38C120.07 192.34 120.14 192.3 120.21 192.28C120.52 192.23 120.75 192.01 121.04 191.9C121.68 191.66 121.94 191.8 121.94 192.48C121.94 193.93 122.07 195.38 122.04 196.83C122.04 197.1 121.97 197.4 122.18 197.64L122.14 197.65Z" fill="#05A2C9"></path><path d="M60.31 229.269C59.73 228.719 59.94 228.609 60.63 228.339C62.4 227.659 64.1 226.799 65.83 226.019C68.18 224.959 70.53 223.919 72.86 222.839C73.62 222.479 74.24 222.909 74.84 223.159C76.16 223.709 77.46 224.339 78.72 225.029C79.95 225.709 81.13 225.749 82.39 225.179C84.44 224.259 86.5 223.369 88.56 222.479C88.94 222.319 89.33 222.309 89.7 222.509C90.82 223.119 92.01 223.589 93.1 224.269C93.32 224.409 93.59 224.549 93.89 224.489C96.19 225.659 98.49 226.829 100.79 227.999C101.14 228.179 101.49 228.369 101.84 228.549C102.37 228.819 102.21 229.069 101.81 229.269C100.32 230.029 98.83 230.779 97.34 231.519C94.78 232.789 92.22 234.039 89.66 235.309C88.55 235.549 87.63 236.199 86.62 236.669C84.75 237.539 82.92 238.489 81.07 239.409C80.54 239.669 80.07 239.469 79.61 239.239C77.87 238.359 76.14 237.459 74.4 236.579C71.07 234.879 67.74 233.199 64.42 231.489C63.04 230.779 61.68 230.019 60.31 229.279V229.269Z" fill="#05A2C9"></path><path d="M79.56 159.549C78.92 159.569 78.46 160.019 77.92 160.279C76.87 160.779 75.8 161.249 74.8 161.829C73.97 162.309 73.26 162.089 72.53 161.719C70.08 160.489 67.63 159.249 65.17 158.029C63.61 157.249 62.0499 156.469 60.5399 155.599C60.3599 155.499 60.08 155.459 60.08 155.219C60.08 154.999 60.34 154.909 60.52 154.819C63.61 153.159 66.68 151.449 69.81 149.869C71.63 148.949 73.43 147.999 75.25 147.089C76.9 146.259 78.53 145.379 80.2 144.589C80.5 144.449 80.7 144.449 80.96 144.589C82.7 145.499 84.45 146.409 86.19 147.319C88.69 148.639 91.2 149.949 93.69 151.289C96.29 152.679 98.8799 154.079 101.46 155.479C101.62 155.569 101.76 155.689 102.03 155.879C99.84 156.859 97.72 157.759 95.64 158.749C94.95 159.079 94.13 159.209 93.6 159.839C93.56 160.039 93.41 160.149 93.23 160.229C91.5 160.979 89.76 161.699 88.06 162.519C87.55 162.769 87.05 162.709 86.57 162.459C85.22 161.759 83.8499 161.109 82.5399 160.319C81.9799 159.979 81.3399 159.809 80.7599 159.509C80.3599 159.299 79.9599 159.759 79.5399 159.559L79.56 159.549Z" fill="#05A2C9"></path></svg> 