<?xml version="1.0" encoding="UTF-8"?> <svg xmlns="http://www.w3.org/2000/svg" viewBox="0 0 1000 1000"><defs><style> .cls-1, .cls-2 { fill: #bc0087; } .cls-1, .cls-2, .cls-3, .cls-4, .cls-5, .cls-6, .cls-7, .cls-8, .cls-9, .cls-10, .cls-11, .cls-12, .cls-13, .cls-14, .cls-15, .cls-16, .cls-17, .cls-18, .cls-19, .cls-20, .cls-21, .cls-22, .cls-23, .cls-24, .cls-25 { stroke-width: 0px; } .cls-2 { opacity: .23; } .cls-3 { opacity: .45; } .cls-3, .cls-19, .cls-20, .cls-21 { fill: #fff; } .cls-4 { fill: #020002; opacity: .14; } .cls-5 { fill: #aa115e; } .cls-6 { fill: #fc8922; } .cls-7 { fill: #6d4203; } .cls-8 { fill: #ffdcec; } .cls-9 { fill: #ff3939; } .cls-10 { fill: #5e5e5e; } .cls-11 { fill: #d1a647; } .cls-12 { fill: #f49ac0; } .cls-14 { fill: #fee320; } .cls-15 { fill: #f453a0; } .cls-16 { fill: #ff277f; } .cls-17 { fill: red; } .cls-18 { fill: #967114; } .cls-19 { opacity: .43; } .cls-21 { opacity: .55; } .cls-22 { fill: #444; } .cls-23 { fill: #e30d86; } .cls-24 { fill: #ffbc00; } .cls-25 { fill: #c60076; } </style></defs><g id="_Шар_1" data-name="Шар 1"><g><path class="cls-14" d="M597.46,53.82c-12.04-.68-45.96-.32-68.11,1.1-22.15,1.43-30.1-4.21-30.1-4.21,0,0-6.76-5.22-9.76-5.22s-10,9-11.73,10.03-18.27,9.97-18.95,9.8c-.69-.17-3.31,18.17-16.61,18.46-13.08.28-12.72-11.87-12.47-12.2-.47.23-11.52,2.89-20.1,2.22-8.87-.69-14.13-8.31,6.87-25.31s50-21,52.08-20.79c2.07.21-38.08-5.21-61.67-2.09-23.6,3.12-51.32,17.51-51.32,17.51l.02-2.06s-8.1,6.43-14.43,11.3c-6.33,4.87-8.67,14.13-8.31,15.77.36,1.64-20.5-1.48-20.5-1.48,0,0-6.61,2.39-12.78,4.36-.28-.25-.54-.52-.78-.81-.08-.11-.15-.22-.22-.33-.04-.13-.1-.26-.17-.38-.15-.26-.31-.52-.46-.79-.22-.37-.58-.67-.99-.84,2.38-7.81,12.62-25.07,12.62-25.07l-38.51,28.79s-35.57,41.91-28.27,66.39c7.3,24.48,25.7,15.52,25.6,17.81,0,0,34.11.71,34.91,1.26s-2.8,3.45,1.2,9.45,11,7,11.67,6.9-3.67,5.1,3.68,9.48c7.35,4.39,22.65,4.62,32.65,1.62s16-12,15.79-12.7c-.21-.7,2.21-.3,3.21-.3s0,14,0,14c0,0,13,12,25.43,13.61,12.43,1.61,41.57-4.61,53.56-6.26,11.99-1.65,22.01-11.35,22.79-16.22.77-4.87,2.23-12.13,2.23-15.13s2-3,4.86-4.97,14.14-11.03,20.46-20.68c6.32-9.65,2.68-15.35.79-18.57-1.89-3.22-.11-10.78,7.61-17.02,7.71-6.25,31.29-12.75,43.29-15.75s46-9,47.27-9.49,30.73-7.51,32.73-8.51-23-12-35.04-12.68Z"></path><path class="cls-14" d="M429.75,71.57s0,.01-.01.02c.02,0,.02-.01.01-.02Z"></path></g><path class="cls-6" d="M266.9,149.39c-27.4-28.89,4.26-51.07,16.43-59.98s3.23-25.43,3.23-25.43c0,0,12.88,9.13,8.41,20.33-4.47,11.19,8.39-1.6,26.46-9.7s28.07,3.89,34.07-7.11,12-17,25-23-6.3-1.32-6.65,17.34,12.65,13.66,19.65,14.66,1,10,3,12-2-1,12,1,8.8-13.36,18.4-4.68c9.6,8.68-4.73,18.12,17.93,10.9s10.9-6.64,25.28-17.93,8.3-4.29,37.84-8.29,35.22-10.07,35.22-10.07c0,0-9.3,14.65-39.49,23.86-30.19,9.21-45.6,17.45-38.89,38.83,6.7,21.38,10.71,30.7-8.29,40.04-19,9.34-44.6,2.25-44.6,2.25,0,0,26.6,2.09-3.4,11.09s-25.01-8.6-43-5.3c-18,3.3-16.3,17.11-33.65,3.2-17.35-13.9-64.95-24.01-64.95-24.01Z"></path><path class="cls-9" d="M304.66,154.71c2.34.29,44.34,7.29,59.34,7.29s34.11-7.56,30.05-19.28c-4.05-11.72-15.71-20.48-17.38-21.6s-1.67-.12-2.67-1.12,23-11,23-11c0,0,10.57,3.55,17.29,3.27s12.61-4.91,12.61-4.91c0,0-17.9-4.36-21.9-4.36s-9,5-13,4-4-3-2-6,7-4,6-5-18-5-34-3-26,8-27,7,6-9,6-10-3.96,1-3.48,0,6.48-12,5.48-12-11-4-16,4-6.83,15.41-15.41,21.7c-8.59,6.3-15.59,6.3-15.59,6.3,0,0-1.9-6.17-2.45-6.08s-15.11,6.08-19.83,21.58c-4.72,15.5-6.83,31.85-4.77,31.68s35.71-2.47,35.71-2.47Z"></path><path class="cls-12" d="M943.08,529.35c-1.42-.15-.58-.85-4.12-3.98-3.54-3.13-11.82-1.42-11.82-1.42,0,0-5.64-2.45-11.72,5.4-4.74,6.12-14.95,16.67-14.95,16.67,0,0-9.97-1.52-22.97-11.52s-23-25-27.5-30.91-1.5-17.09-1.32-18.07-2.89,1.63-2.89,1.63c0,0,.71-3.65.94-5.09.24-1.44-5.24-.56-5.91-.93-.67-.37,2.67-4.63,2.67-4.63,0,0-21.07-7.64-27-13-5.93-5.36-15.53-18.04-30-28s-30-7-29.57-7.56c.43-.56,6.57-5.44,12.36-11.28s12.22-17.16,16.92-25.76c4.7-8.59,6.3-24.41,2.37-41.77-3.93-17.36-8.66-25.32-8.66-25.32,0,0-3.4-10.32-2.94-11.45.46-1.13-1.46-18.87-.46-18.87s8,1,13.66,1.58,24.34-.58,28.34-9.58,1-40,.91-40.54c-.09-.54,1.28-25.68-8.91-38.46-10.18-12.78-39-6-45.94-2.41-6.94,3.59-11.49,8.18-11.49,8.18l-4.02-3.3-5.29-9.61s-12.48-16.33-37.26-25.86c-24.59-9.46-47.57-.11-47.94,1.16,0-.52-.02-1.45-.02-1.45,0,0-19.04-18.71-34.72-22.68-15.68-3.97-17.32-5.03-26.92-4.73-6.87.22-8.51.94-8.89,1.34l.76-1.97-4.27-8.66s-18.1-15.64-26-15-26,6-35.42,22.65c-9.42,16.65.42,31.35.93,33.65.51,2.3,0,3.17,0,3.17,0,0-5.51,1.53-12.46,4.16-6.95,2.63-7.11,11.94-7.11,11.94l-2.74,3.88-3.01,12.75s-4.18-4.2-4.73.99c-.55,5.19,7.55,20.81,7.55,20.81l-3.23,4.67c-2.58,3.73-24.52,18.32-35.7,30.53,0,.08.07.16.03.23-8.06,11.67-6.58,14.05-5.93,17.81.15.9-1.11,1.44-2.06,1.17-.01,0-.03-.01-.04-.02-1.12,14.62,2.38,36.15,10.9,55.42,10.97,24.81,14.21,40.04,14.21,40.04l-2.62,5.55s-6.56-5.41-31.86-19.06c-25.3-13.65-59.7-13.35-63.76-10.98-4.06,2.37-10.55,3.13-10.55,3.13,0,0-103.38-23.5-102.37-30.52s-14.02-14.98-18.15-16.78c-4.14-1.8-12.25-4.51-12.25-4.51l-31.95-.09s-27.67,2.4-43.93-17.3c-1.45-1.76-3.04-3.78-4.73-5.99-2.34-2.24-5.65-3.84-6.93-6.82-4.08-9.49-10.07-9.3-15.08-20.49-3.53-6.01-13.58-21.19-17.26-27.09-.26-.41-.3-.81-.22-1.17-.39-.63-.77-1.25-1.15-1.88-.68-.82-1.36-1.65-2.07-2.46-1.21-1.37-2.45-2.71-3.76-3.99-.4-.39.02-.74.54-1.09.48.07.79-.05.75-.51.32-.26.48-.53.17-.81-.02-.01-.19-.03-.46-.05-.13-.27-.31-.58-.54-.95-.93-1.45-4.15-2.96-2.82-2.85l-7.25-9.2h-1.28c-16.04-1.41-32.92,10.02-41.98,18.27-1.48,2.54-2.99,5.05-4.49,7.57.3,7.87-2.43,15.52-5.1,22.97-.86,8.17-.67,16.49-.46,24.68,0,.38-.1.69-.26.93,2.05,6.47,4.11,12.94,6.22,19.39.26.5.53.99.8,1.48,3.39,4.74,6.5,9.69,10.22,14.18.3.32.6.65.91.96.17.17.29.36.37.55.56.63,1.13,1.27,1.73,1.88,5.44,5.56,12.01,9.91,16.97,15.96.46.56.49,1.2.28,1.75,4.05,3.68,7.85,7.63,11.3,11.87.48.59.48,1.27.24,1.82,1.87,2.17,4.15,4.91,6.63,8.09.41-.13.86-.15,1.3.03,5.25,2.26,8.75,6.29,11.04,11.07,1,.97,1.87,2.09,2.64,3.29,2.81,4.36,4.53,9.45,5.93,14.48.06.12.13.23.19.35,5.62,11.14,8.6,24.15,8.95,36.6.02.8-.43,1.3-1,1.51,1.06,12.33-1.08,18.36-1.08,18.36,0,0-20-8-37.55.82-17.55,8.82-15.45,41.18-16.45,49.18s-6.67,31.43-13,43-14.4,57.57-7,77c7.4,19.43,26,27,49.05,48.12,23.05,21.12,31.95,20.88,46.77,25.32,14.82,4.43,16.43-.75,16.43-.75,0,0,5.75,8.32,11.43,17.36s14.32,14.96,31.41,25.17c17.09,10.21,51.91,5.79,71.15,6.62s35.13,7.22,35.13,7.22c0,0,9.63,16.95,17.97,19.5,8.34,2.55,20.66-.55,33.26-8.96s28.4-20.59,34.14-30.54c5.74-9.95,20.26-31.05,21.72-32.29,1.46-1.25,28.54-42.75,28.67-43.25.13-.5,1.11,22.73,1.11,22.73,0,0,4.76,35.77,9.76,52.77s2,35,0,42-24,19-30,21-13,8-10.8,16.97c2.2,8.97,13.42,14.32,13.42,14.32,0,0-.62.71,4.77,4.27s12.47,5.16,12.47,5.16c0,0-1.86,1.28,9.12,7.36,1.49.82,2.98,1.39,4.46,1.75,2.19-.47,4.34-1.26,6.36-2.09.58-.24,1.24.04,1.66.49.94-.32,1.89-.63,2.83-.94,2.42-1.51,5.17-2.8,8.04-3,2.37-1.87,4.6-4.06,6.62-6.37,7.94-9.06,16.34-24.88,16.34-24.88l5.19-5.99s-3.48-1.06-3.08-1.16c.4-.1,3.6-3.9,4.42-5,.82-1.1-5.7-1.17-5.7-1.17,0,0,4.89-5.73,5.54-11.49.65-5.75,9.35-38.25,13.09-50.54s11.53-26.2,11.53-26.2c6.28,3.5,39.72,7.5,68.42,10.03,28.69,2.53,48.3-2.53,48.3-2.53,9-2,66,57,67,59s11,8,13,17-3,9-11,17-21,8-21,22,13,13,13,13l4.77,3.32c4.77,3.32,15.23,2.68,15.58,2.54s-1.35,4.14,4.14,7.31c5.49,3.17,18.51,5.83,24.58-2.61,6.07-8.44,5.93-15.56,10.37-21.35,4.44-5.79,9.56-7.21,14.29-18.08s-2.72-21.13-2.72-22.13,1-2,1.59-2.31c.59-.31-9.59-2.69-10.59-2.69s4-4,3.87-5.81-5.43,2.01-5.43,2.01c0,0-4.44-18.21-5.34-27.95s-6.1-49.25-8.57-68.86c-2.47-19.61-4.53-67.39-4.4-67.94.13-.55.87-3.45,4.66-23.29s-1.35-57.21-1.35-57.21l-1.44-12.95s9,6,19,12,44,24,62.82,32.84,45.73,15.32,45.73,15.32c0,0,2.45,2.85,8.27,7.25,5.83,4.4,17.15,4.72,27.18-3.4,10.03-8.12,15-12,15.92-15.77.92-3.77-.69-6.69-.69-6.69,0,0,6.77-10.53,7.8-19.73s-5.03-10.8-6.46-10.95Z"></path><path class="cls-12" d="M107.98,222.16s-.03,0-.03,0c-.01-.01,0,0,.03,0Z"></path><path class="cls-8" d="M657.08,431.6s18.42,12.9,21.42,29.9-4,32,7,54,15.29,23.87,15.15,46.94c-.15,23.06-21.78,49.75-21.78,49.75h-2.85l-1.51-4.69s-1,8-11,16-22.35,14.02-26.18,14.51-4.82,1.49-4.82,1.49c0,0,5-9,4-8s-6,8-15,11-26.96,7.5-26.96,7.5c0,0,.04-5.16,0-6.33s-20.04,17.83-20.04,16.83-16-22-16-22c0,0,1,8-8,4s-16.77-23.09-16.77-23.09c0,0,.97,8.97-5.13,4.03-6.1-4.94-16.56-11.42-20.33-25.68s-2.27-21.71-2.27-21.71c0,0,9.62-16.75,14.5-35.55s11-40,3-70-20-51-20-51c0,0,14.04,17.47,22.02,22.23,7.98,4.77,53.87,1.23,56.43,0s68.55-8.23,68.55-8.23l6.58-1.9Z"></path><path class="cls-14" d="M708.26,270.22c-.03-1.73-.12-3.47-.35-5.19-.67-.63-1.25-.92-1.25-.92,0,0-11.17-7.61-38.07-32.81-26.9-25.19-50.59-19.55-50.59-19.55,0,0-4.51,4.74-5.72,5.98-1.21,1.23-6.34,11.97-6.34,11.97,0,0-11.45-2.21-19.79-9.9-8.34-7.7-34.66-18.3-43.79-20.69-9.13-2.39-31.57-3.04-31.57-3.04,0,0-6.3.43-8.18,2.15-1.89,1.71-3.11,11.29-3.93,14.48-.82,3.2,17.82,16.8,43.68,25.91,25.87,9.11,52.13,11.89,53.08,11.66.95-.24,2.94,2.62,2.94,2.62l1.75-.98s-8.64-4.41,24.36-1.41,69,32,71.68,32.79c2.68.79,3.32,3.21,10.49-6.2.48-.63.9-1.24,1.25-1.82.04-1.69.14-3.38.34-5.05Z"></path><path class="cls-8" d="M498.27,271.51c12.23-17.01,34.67-18.85,48.45-.93,13.78,17.92,12.78,12.92,49.78,11.92s45.92,10.4,84.96,18.7c39.04,8.3,42.47,5.34,57.25,37.82,14.79,32.48-33.05,85.69-81.63,92.58s-124.87,24.13-128.22,27.52c-3.36,3.38-29.58-43.5-29.58-43.5l-21.18-27.9.7-6.73s.5-12.85-10.4-29.67,5.34-60.76,16.72-71.29c11.38-10.53,13.15-6.07,13.15-6.07v-2.45Z"></path><path class="cls-23" d="M531.91,256.39l8.14,15.64,6.67,15.34,3.05,3.47s21.4.37,31.07-1.98,21.68-1.72,22.68-14.04-23.14-22.43-27.57-23.87-34.69-5.34-38.06-4.39c-3.37.95-6.55,3.73-5.96,9.84Z"></path><path class="cls-8" d="M757.5,242.5c0-1-1.7-7.85,13.15-19.42,14.85-11.58,26.5-13.2,32.17-9.39,5.67,3.81.33,41.28,0,48.54-.33,7.27.67,12.27-10.33,18.27s-21.52-2.55-23.76-2.28-11.3-11.13-11.3-11.13l.06-24.59Z"></path><path class="cls-8" d="M571.44,159.29c-.16,2.28-9,10.4-9,10.4,0,0-21.22-2.16-33.58,8.32,0,0-8.21.59-4.78-20.97s12.04-29.78,28.73-23.66,19.57,12.7,18.63,25.91Z"></path><path class="cls-15" d="M493.95,277.76c-4.79-2.7-4.14,12.02-4.14,12.02,0,0-11.17,10.83-6.24,42.78,4.93,31.95,10.39,43.93,30.66,54.94s64.7,16.15,64.7,16.15h24.61s66.96-15.14,89.96-32.14,14.58-47.52,14.58-47.52l-12.65-10.4s-22.93-4.08-42.93.92-81.65-7.2-109.32-15.6c-27.68-8.4-39.68-18.67-39.68-18.67,0,0-9.09-2.22-9.55-2.47Z"></path><path class="cls-16" d="M503.5,349.28c-1-2.78,27-31.78,31-31.78s51,11,91,14,57.32-3.21,63.16-1.11-.65,13.81-1.9,19.96c-1.25,6.15-34.25,19.15-34.25,19.15,0,0-25,9-30,10s-57.65,6.45-79.32,1.23c-21.68-5.23-32.68-15.23-33.68-16.23s-6-15.22-6-15.22Z"></path><path class="cls-5" d="M495.24,296.35c1.96,1.16-2.97,8.51.26,29.15,3.23,20.64,8,23.56,8,23.78s5.43-14.38,22-20.78,30.66-6.8,30.66-6.8c0,0-23.15-3.9-42.9-12.55-19.76-8.65-18.27-12.95-18.01-12.8Z"></path><g><path class="cls-22" d="M165.48,530.04c-.03.11-.05.21-.06.27,0,.17.01.05.06-.27Z"></path><path class="cls-22" d="M440.5,412.5c-17-18-47-40-57-45s-22.27-9.17-22.27-9.17c0,0-.29-6.27-.61-12.17.15-.04.3-.1.44-.19.46-.3.72-.68.92-1.2.99-2.61.7-5.6-.59-8.05-.33-.62-1.05-.98-1.76-.98-.14-.26-.42-.7-1.04-1.27.26-.63.18-1.37-.51-1.98-3.33-2.9-7.99-3.49-12.15-4.45-4.88-1.13-9.76-2.23-14.65-3.28-.8-.17-1.46.11-1.9.58-23.07-3.84-45.87-3.52-58.32,3.02-13.57,7.13-8.75,13.81-8.75,13.81,1.18,4.32,0,17.69,0,17.69l1.49,4.49s-34.3,10.15-56.3,37.15-32.5,53.6-37.75,66.3c-5.25,12.7-4.25,16.7-4.25,16.7l3,17s-2.6,25.29-3.02,28.54c.84-2.95,12.14-21.33,42.02-15.54,31,6,46,34,46,34l19,64s6,20,7,19-1.26-36.41,39.37-40.71c40.63-4.29,55.34,37.34,54.98,38.52-.35,1.18,8.93,19.72,8.93,19.72,0,0,61.31-27.24,82.02-92.39,20.71-65.15-7.29-126.15-24.29-144.15Z"></path></g><path class="cls-18" d="M293.31,161.04c26.19-16.54,38.92-27.95,39.56-29.24.64-1.3-8.15,2.48-7.26,1.59.89-.89,4.89-6.89,2.89-5.89s-11.4,5.89-11.4,5.89l6.4-7.89s-24.67,18.5-27.33,18.25c-2.67-.25-25.31,16.36-25.31,16.36,0,0-15.84,13.53-16.6,35.96-.76,22.43,6.24,33.43,24.24,45.43.25.17.49.35.75.52.97,3.11,3.91,5.37,6.42,7.23,1.14.84,2.34,1.6,3.56,2.3,1.4,1.44,3.04,2.59,5.02,2.94.15.12.31.25.46.37,8.66,8.68,14.43,17.28,17.35,22.56,4.46,8.08,3.17,27.69,3.17,27.69l-4.08,16.6-4.18,6.66-3.45,2.13c-.46.73-.82,1.4-1.08,2.02-3.7,8.79,11.68,7.05,20.08-6.02,9-14,10.51-31.29,9.26-37.64-1.26-6.36-2.73-29.99-23.99-42.67-21.26-12.68-36.7-50.12-36.7-50.12,0,0-3.95-18.48,22.24-35.02Z"></path><path class="cls-11" d="M268.9,195.97c-3.19,2.8-5.66,6.32-7.3,10.23-.8,1.91-1.41,3.9-1.77,5.94-.18,1.07-.32,2.15-.39,3.23-.03.51-.05,1.02-.05,1.53,0,.23,0,.45,0,.68,0,.05,0,.1,0,.16-1.3,1.46.52,4.15,2.56,3.02,2.07-1.15,1.36-4.1,1.54-6.07.19-2.02.68-4.02,1.37-5.93,1.39-3.86,3.8-7.27,6.87-9.97,1.94-1.7-.9-4.52-2.83-2.83Z"></path><path class="cls-11" d="M273.59,209.78c1.46-2.13-2.01-4.13-3.45-2.02-2.17,3.18-2.91,7.01-3.14,10.79-.23,3.78-.06,7.6.35,11.37-.33.61-.39,1.37.02,1.95.14.2.28.41.43.61.51.74,1.35,1.17,2.26.92.77-.21,1.58-1.07,1.47-1.93-.51-4.03-.74-8.11-.56-12.18.15-3.35.7-6.7,2.63-9.52Z"></path><path class="cls-11" d="M281.58,240.2c-2.91-6.97-3.03-14.69-.32-21.74.39-1.01-.43-2.19-1.4-2.46-1.13-.31-2.07.38-2.46,1.4-2.93,7.61-2.82,16.33.32,23.86.42,1,1.32,1.71,2.46,1.4.94-.26,1.82-1.46,1.4-2.46Z"></path><path class="cls-11" d="M291.05,247.03c-1.97-6.46-2.57-13.19-1.8-19.9.12-1.07-1.01-2-2-2-1.18,0-1.88.92-2,2-.8,7.03-.12,14.2,1.94,20.96.75,2.45,4.61,1.41,3.86-1.06Z"></path><path class="cls-11" d="M298.88,234.77c-.58-2.51-4.44-1.45-3.86,1.06,1.67,7.19,2.18,14.56,1.58,21.91-.21,2.57,3.79,2.55,4,0,.62-7.7.02-15.45-1.73-22.98Z"></path><path class="cls-11" d="M307.63,253.01c-.04-3.27-.29-6.53-1.84-9.48-1.2-2.28-4.65-.26-3.45,2.02,1.31,2.49,1.27,5.4,1.3,8.14.03,3.41.06,6.81.1,10.22.02,2.57,4.02,2.58,4,0-.03-3.64-.06-7.27-.1-10.91Z"></path><path class="cls-11" d="M315.67,256.4c-.08-1.08-.86-2-2-2-1.02,0-2.08.92-2,2,.4,5.4-.4,10.73-2.35,15.78-.39,1.01.43,2.19,1.4,2.46,1.13.31,2.07-.39,2.46-1.4,2.06-5.34,2.91-11.14,2.49-16.85Z"></path><path class="cls-11" d="M320.64,261.22c-1.18,0-1.88.92-2,2-.54,4.96-2.12,9.8-4.54,14.15-1.25,2.25,2.2,4.27,3.45,2.02,2.78-5.01,4.47-10.48,5.09-16.17.12-1.08-1-2-2-2Z"></path><path class="cls-11" d="M326.58,269.18c-.98-.27-2.26.33-2.46,1.4-.58,3.04-1.62,5.93-3.18,8.61-1.57,2.7-3.55,5.11-5.54,7.5-.69.83-.81,2.01,0,2.83.71.71,2.14.84,2.83,0,2.2-2.65,4.42-5.33,6.16-8.31,1.72-2.95,2.94-6.21,3.58-9.57.2-1.06-.3-2.16-1.4-2.46Z"></path><path class="cls-11" d="M329.84,279.9c-1.19,0-1.86.92-2,2-.33,2.67-2.44,5.04-4.19,7.02-2.23,2.51-4.6,4.88-7.1,7.13-.8.72-.74,2.09,0,2.83.8.8,2.02.72,2.83,0,2.71-2.43,5.28-5.02,7.67-7.77,2.35-2.7,4.34-5.57,4.8-9.2.13-1.07-1.02-2-2-2Z"></path><path class="cls-11" d="M332.47,291.54c-1.05-.29-2.16.35-2.46,1.4-.11.39-.23.78-.38,1.17-.02.04-.13.32-.14.36-.06.12-.11.25-.17.37-.33.69-.72,1.36-1.15,1.99-.11.17-.23.33-.35.49-.05.07-.07.11-.08.12-.02.02-.04.05-.1.12-.23.29-.47.57-.72.85-.52.59-1.08,1.15-1.66,1.68-1.25,1.16-2.19,1.88-3.52,2.82-1.31.92-2.66,1.79-4.02,2.65-.91.58-1.28,1.78-.72,2.74.53.91,1.82,1.3,2.74.72,5.84-3.68,12.14-7.99,14.13-15,.29-1.04-.36-2.18-1.4-2.46Z"></path><path class="cls-11" d="M331.23,305.31c-.94-.5-2.19-.26-2.74.72-.32.58-.67,1.15-1.04,1.7-.2.29-.4.57-.61.85-.04.05-.05.06-.06.08,0,0,0,0-.04.04-.1.12-.2.25-.3.37-.85,1.03-1.79,1.98-2.81,2.84-.22.19-.45.37-.68.55-.05.04-.16.12-.19.14-.13.09-.26.19-.39.28-.55.38-1.11.74-1.68,1.08-.58.33-1.17.64-1.77.92-.17.08-.33.15-.5.22-.02,0-.05.02-.07.03-.35.14-.71.27-1.07.4-.99.34-1.75,1.38-1.4,2.46.32.97,1.4,1.77,2.46,1.4,5.73-2,10.63-6.03,13.59-11.35.51-.91.25-2.22-.72-2.74Z"></path><path class="cls-11" d="M322.32,321.42c-.79-.73-2.05-.8-2.83,0-.21.21-.43.41-.65.6-.03.03-.07.05-.1.08-.12.09-.25.17-.38.25-.26.16-.52.3-.79.43-.04.02-.08.04-.12.06-.13.05-.26.1-.39.14-.29.1-.58.18-.87.24-.15.03-.3.06-.44.09,0,0,0,0,0,0,0,0-.02,0-.02,0-.32.03-.64.04-.96.04-.15,0-.3-.01-.45-.02-.07,0-.15-.02-.23-.02-.03,0-.04,0-.05,0-.48-.06-.91-.04-1.36.22-.41.24-.81.72-.92,1.2-.12.51-.09,1.09.2,1.54.26.41.69.84,1.2.92,1.67.25,3.35.2,4.97-.34,1.58-.53,3.03-1.4,4.2-2.59.73-.75.8-2.09,0-2.83Z"></path><path class="cls-11" d="M314.28,332.21c-.35-1.08-1.36-1.64-2.46-1.4-1.72.38-3.44.76-5.16,1.14-1.02.23-1.72,1.47-1.4,2.46.35,1.08,1.36,1.64,2.46,1.4l5.16-1.14c1.02-.23,1.72-1.47,1.4-2.46Z"></path><path class="cls-11" d="M268.96,186.55c-8.39,2.68-14.49,10.37-15.33,19.11-.1,1.08.99,2,2,2,1.17,0,1.9-.92,2-2,.65-6.81,5.8-13.15,12.39-15.25,2.44-.78,1.4-4.64-1.06-3.86Z"></path><path class="cls-11" d="M277.83,174.84c-.31-1.13-1.39-1.58-2.46-1.4-2.25.39-4.56.41-6.82.75-2.29.35-4.32,1.21-6.23,2.52-3.3,2.26-6.9,4.76-8.54,8.56-.43.99-.29,2.14.72,2.74.84.49,2.31.28,2.74-.72,1.41-3.28,4.52-5.4,7.39-7.32,1.62-1.08,3.25-1.69,5.18-1.95,2.2-.29,4.44-.35,6.62-.73,1.07-.18,1.66-1.49,1.4-2.46Z"></path><path class="cls-11" d="M281.86,165.68c-7.19-2.61-15.31-1.09-21.3,3.55-.85.66-.7,2.13,0,2.83.84.84,1.97.66,2.83,0,4.88-3.79,11.66-4.61,17.4-2.53,1.02.37,2.19-.41,2.46-1.4.31-1.11-.38-2.09-1.4-2.46Z"></path><path class="cls-11" d="M292.01,158.04c-4.64-1.49-9.4-2.59-14.22-3.29-1.07-.16-2.15.26-2.46,1.4-.26.94.32,2.3,1.4,2.46,4.82.7,9.58,1.81,14.22,3.29,1.03.33,2.18-.39,2.46-1.4.3-1.08-.36-2.13-1.4-2.46Z"></path><path class="cls-11" d="M302.33,152.1c-3.94-1.82-8.05-3.22-12.3-4.11-1.02-.21-2.21.3-2.46,1.4-.23,1,.3,2.23,1.4,2.46,2,.42,3.98.94,5.92,1.58,1.98.65,3.67,1.32,5.42,2.13.95.44,2.2.3,2.74-.72.47-.88.3-2.27-.72-2.74Z"></path><path class="cls-11" d="M310.62,145.71c-3.5-1.54-7.1-2.52-10.89-2.98-1.04-.13-2.04,1.01-2,2,.05,1.19.88,1.86,2,2,.08.01.17.02.25.03.03,0,.07.01.13.02.18.03.36.05.54.08.42.07.84.15,1.26.23.78.16,1.55.34,2.32.55.77.21,1.53.45,2.28.71.4.14.81.29,1.2.45.17.07.34.14.51.21.02,0,.03.01.05.02.11.05.21.09.32.14.96.42,2.19.31,2.74-.72.46-.87.3-2.29-.72-2.74Z"></path><path class="cls-11" d="M318.88,140.78c-3.68-1.95-7.83-2.95-12-2.78-1.04.04-2.05.89-2,2,.05,1.05.88,2.04,2,2,.92-.04,1.84-.02,2.75.06.23.02.45.04.68.07.07.01.3.04.35.05.45.07.9.16,1.35.26.89.2,1.78.47,2.64.78.18.07.37.14.55.21.05.02.1.04.13.05.1.04.2.09.3.13.42.19.83.4,1.23.61.92.49,2.22.26,2.74-.72.49-.93.27-2.21-.72-2.74Z"></path><path class="cls-11" d="M326.46,137.09c-4.04-1.02-8.11-1.88-12.21-2.59-1.03-.18-2.2.27-2.46,1.4-.22.97.29,2.27,1.4,2.46,4.1.71,8.18,1.57,12.21,2.59,1.01.26,2.22-.33,2.46-1.4.24-1.04-.31-2.19-1.4-2.46Z"></path><path class="cls-10" d="M332.76,410.14c-23.26.36-57.47-3.36-57.47-3.36-44.78,10.72-82.48,33.61-88.63,107.66,0,0,19.54-2.96,48.69,10.55,0,0,14.18,19.34,19.17,26.93,4.99,7.58,15.99,46.58,15.99,46.58,0,0,8.2,3.5,20.75,6.65.02-.24.07-.47.22-.67.12-.16.25-.3.38-.45,2.73-5.16,7.42-8.95,12.78-11.22,11.28-4.79,24.97-4.14,36.42-.25,5.32,1.8,10.52,4.42,14.55,8.4,1.53,1.51,3.08,3.01,4.59,4.54,22.07-7.14,42.38-23.79,52.9-58.03,30.4-98.96-57.08-137.68-80.34-137.32Z"></path><path class="cls-2" d="M503.5,419.5s27.71,36.7-1.65,108.85c-29.35,72.15-106.46,184.58-139.41,181.87s7.91-64.08-41.02-80.9-33.63,30.25-30.28,41.72,11.9,38,11.9,38c0,0-29.86-19.71-67.7-89.62-37.85-69.91-46.34-79.85-65.59-61.38s-16.22,44.5-16.22,44.5c0,0-1.29-13.45-19.16-68.24-17.87-54.79-49.89-57.63-54.38-21.21,0,0-17.28,43.01-10.38,77.72s45.89,66.71,68.89,83.71,31.25,10.42,31.25,10.42c0,0,4.75,22.58,36.75,36.58s77,4,90,8,20,10,21,11,11,19,32,17,51-38,80-76,68-87,88-121,14-72,16-87,6,8,59,2,67.3-14.3,108.15-29.15c40.85-14.85,59.72-12.97,64.79-19.41,0,0-7.59-.72-8.51-1.33s28.07-14.61,31.07-44.61-6.56-40.47-6.56-40.47c0,0-5.14,54.74-37.79,63.11-32.65,8.36-121.65,4.36-172.65,19.36s-57.85-16.45-58.42-16.22-17.8-2.85-25.19-6.81,16.11,19.54,16.11,19.54Z"></path><path class="cls-2" d="M88.53,209.99c-12.03,25.51,58.97,81.51,71.97,115.51s70.49,17.41,93.75,29.21c23.25,11.79,0,2.64,0,2.64l7.32-1.93s6.54,8.8,2.24,8.95-48.48,17.28-72.39,59.71c-23.91,42.43-25.91,60.43-25.91,60.43,0,0-8-26-20-32s7.09-25.02-14.96-65.01c-22.04-39.99-58.15-59.54-76.6-109.27-18.45-49.72,34.59-68.24,34.59-68.24Z"></path><path class="cls-2" d="M474.48,624.77c-3.06,1.49,80.77,73.91,175.9,54.32s91.32-145.43,82.72-166.01c-8.6-20.58-38.94-24.58-36.77-28.58s35.47-7,87.32,17.5c51.85,24.5,105.85,55.5,118.85,66.5s27,5,34-2,1,5.82,0,6.91-20.49,15.05-27.74,14.07-14-7.43-14.63-8.71c-.63-1.28-31.65-9.59-73.39-29.68s-57.74-32.09-57.74-31.09,4.75,40.13,4.37,58.56c-.37,18.44-6.37,38.44-6.37,39.44s5,77,8,89,8.43,63.82,8.43,63.82c0,0-17.77-88.64-33.1-89.73-15.33-1.09-38.33,20.91-51.33,27.91s-32.5.5-32.5.5c0,0-32.58,4.52-78.04-.49-45.46-5.01-94.46-33.01-105.46-40.01s-22.74-16-20.37-17,18.32-25.46,17.85-25.23Z"></path><path class="cls-2" d="M707.5,820.5c1,10,10.62,1.04,10.81,2.02.19.98-1.5,10.66,10.84,7.32s23.64-12.38,22.49-11.36-16.15,14.02-4.15,18.02,22-23,34-32,6-18,6-18l1.5-2.01s6.78,8.58,5.64,18.8c-1.14,10.21-10.14,13.21-14.14,20.21s-4.26,17.89-12.63,24.44c-8.37,6.56-16.53,4.61-20.95,3.08s-7.74-9.81-7.58-9.67-6.84.14-13.84-2.86-5.72-2.96-6.36-2.98-6.64-.02-9.64-6.02-2.53-10.03-2.76-9.02.76.02.76.02Z"></path><path class="cls-2" d="M425.52,797.84c2.98,10.66,11.98,9.66,11.98,9.66,0,0,0,10,10,10s14.85-5.19,14.85-5.19c0,0-19.85,13.19,2.15,15.19s36.96-25.99,38.98-33.49c2.02-7.51-3.48-5.77-3.48-5.77,0,0,10.5-12.73,11.5-27.73s10-42-2-59-41-34-46-29-5,11-5,11l-2.76-32.74s.01-1.26.89-.76,23.87,24.44,49.37,33.97,35.5,14.11,35,14.82-12.4,29.6-12.4,29.6c0,0-12.1,43.11-13.1,49.11s-3.89,11.73-3.89,11.73c0,0,6.59-2.16,5.24-.94s-6.78,6.08-6.06,6.15,7.76-1.92,6.24-.43-12.52,11.49-14.52,17.49-5,13-16,21-23,5-26,2-4.59-5.28-4.59-5.28c0,0-13.27-2.33-17.34-7.52s-2.07-6.2-4.07-5.2-9.95-7.43-9.97-13.21c-.03-5.79.99-5.45.99-5.45Z"></path><path class="cls-12" d="M761.63,610c-.13,2.5,8.7,7.01,24.28,7.76s34.32-16.25,34.95-16.75,11.86-15.43,15.25-15.96,11.78-.87,11.78-.87c0,0,.84-7.17,2.22-5.92,1.38,1.25,2.97,3.89,2.97,3.89l5.23-3.37,2.43,8.52,2.6-3.95s8.03,5.37-5.91,31.76-46.6,35.3-48.77,35.35-24.32-.94-31.24-2.45-10.93-4.51-13.43-5.01-2.37-33-2.37-33Z"></path><path class="cls-2" d="M764.5,611.5c-1,3,8,7,20,7s22-6,22-6c0,0-12.55,7.3-13.28,16.15s9.28,16.85,34.28,2.85,32.49-45.74,32.49-45.74l.76,1.54s2.44-4.1,2.6-3.95,4.39,18.64-9.22,37.9c-13.62,19.26-31.28,26.16-45.45,29.21s-34.42-4.91-41.3-5.93-6.87-2.02-6.87-2.02l1.13-30.55,2.87-.45Z"></path><path class="cls-19" d="M291.89,353.14c-8.42-2.55-16.61-5.75-24.52-9.6-2.3-1.12-4.33,2.32-2.02,3.45,3.28,1.6,6.62,3.09,9.99,4.48.35,16.33,1.2,32.66,2.55,48.94.21,2.55,4.21,2.57,4,0-1.3-15.75-2.13-31.54-2.51-47.33,3.76,1.44,7.57,2.75,11.43,3.92,2.47.75,3.52-3.11,1.06-3.86Z"></path><path class="cls-19" d="M222.44,508.64c13.65,9.13,26.66,19.17,39.54,29.35.16.11.32.22.48.33.62-.3,1.06-.88,1.02-1.71-.92-16.17-2.08-32.35-2.54-48.54-.43-15.17-.09-30.51,2.89-45.44,1.66-8.37,4.15-16.59,7.7-24.35.46-1,.28-2.13-.72-2.74-1.67-1.01-3.34-2.03-5.01-3.04-.11-1.36-1.47-2.6-2.9-1.61-11.72,8.08-20.73,19.48-26.99,32.19-7,14.19-10.54,29.7-12.37,45.34-.78,6.62-1.23,13.27-1.53,19.93.15.1.3.19.45.29Z"></path><path class="cls-21" d="M74.5,637.5c-4-1-25.34-31.04-18.17-57.02,7.17-25.98,15.17-56.98,19.17-65.98s4.11-41.01,5.55-48,8.63-26.24,36.54-24.12c27.91,2.12,40.16,29.16,40.16,29.16,0,0,7.93,14.21,8.84,20.09s-.71,31.27-1.4,28.07-.69-35.2-29.69-56.2-42-12-46,2-5.27,38.78-15.14,64.89c-9.86,26.11-16.86,60.11-9.86,80.11s33,43,31,43-21-16-21-16Z"></path><path class="cls-21" d="M280.97,634.95s-2.47-6.45-3.84-8.24c-1.37-1.8-10.63-35.2-19.25-63.45s-29.38-43.75-50.38-48.75c-20.88-4.97-35.82,2.91-49.6,23.47-.77,2.04-1.41,4.15-1.99,6.25-.95,3.46-1.86,6.93-3.07,10.29-.61,7.45-1.46,14.89-2.61,22.28.9,6.43,2.5,10.95,3.26,11.71,0,0,5-45,13.36-52.28s20.64-28.72,49.62-13.96c28.98,14.77,34.02,38.23,42.4,68.53,8.38,30.29,16.62,53.71,22.08,55.73,5.47,2.02,0-11.57,0-11.57Z"></path><path class="cls-21" d="M386.5,666.5s-7.13-32.91-20.37-53.52c-5.77-5.29-12.03-10.01-18.23-14.8-.06,0-.11-.02-.17-.03-.9-.11-1.69-.68-1.68-1.68,0-.03,0-.05,0-.08-22.49-7.6-47.33-9.39-60.29,16.08-13.72,26.98,4.31,66.61,4.31,66.61,0,0-6.59-29.59-6.7-43.83s3.1-22.76,19.65-32.73c16.55-9.97,42.45-8.03,59.45,14.97s25.4,61.59,25.4,61.59l-1.4-12.59Z"></path><path class="cls-21" d="M94.57,209.46c-.07,4.04,56.93,93.04,79.93,106.04s53.85,1.97,70.43,3.98,24.56,8.77,23.07,8.89-11.49-12.39-27.49-15.13c-16-2.74-38.81-.21-51.4-.98s-36.37-30.07-49.48-46.42c-13.11-16.35-29.11-48.35-32.11-51.35s-9-6-10-6-2.93.96-2.93.96Z"></path><path class="cls-4" d="M504.44,197.07c.06.43-1,.48-3.47,6.96-2.47,6.48,4.25-4.48,27.89,0,23.64,4.48,51.58,19.47,60.61,28.98s10.31,23.32,10.67,18.91,1.09-14.94,2.72-16.17,3.08-14.58,17.36-14.41,69.77,35.35,78.02,45.76c8.25,10.41,2.41,14.78,2.41,14.78,0,0,7.37-6.92,7.61-11.65s-14.07-21.33-39.76-39.72-38.17-18.06-40.09-18.53-12.92-.7-12.92-.7l-3.2,6.47s-4.04,10.24-7.92,10.5-23.11-13.07-38.99-21.91-41.82-10.07-47.35-9.95-9.5-.14-10.52,0-3.08.69-3.08.69Z"></path><path class="cls-1" d="M534.54,262.23c-1.04-5.73.57-8.25,18.27-4.99,17.69,3.26,41.74,14.71,46.22,20.98,4.48,6.28-6.8,7.99-20.66,10.63s-24.33,7.32-28.59,1.98-15.23-28.61-15.23-28.61Z"></path><path class="cls-2" d="M525.64,179.49c-9.14-9.99-4.8-18.04-4.97-17.52s8.18,8.11,23.5-2.68c15.33-10.79,20.58-19.33,17.45-21.56-3.12-2.23,6.38,2.73,11.13.25s1.63-10.27,3.69-8.38,8.5,6.91,10.28,11.4l1.78,4.5s-9.59,7.8-11.79,8.9c-2.21,1.1-2.45,3.91,27.67,10,30.12,6.09,31.21,20.13,38.17,13.61s-.96-19.44,0-17.98,16,13.17,16,13.17c0,0-4.97,1.71-8.01,6.5s24.26-6.95,46.61,4.42,32.37,45.16,31.86,42.77-19.72-23.29-48.61-28.84c-28.9-5.55-17.98-1.51-9.94,5.97s25.21,19.63,22.13,19.05-47.91-26.61-64-22.59-18.09,7.02-14.09,9.02,8,4,4,2-4.41,4.47-6.2,6.23-3.41,12.1-5.6,10.43-2.56-4.28-21.88-12.98c-19.32-8.69-24.21-10.31-24.21-10.31,0,0,32.44,22.72,28.17,3.16-4.27-19.55-35.42-23-43.35-26.77-7.93-3.78-19.79-1.79-19.79-1.79Z"></path><path class="cls-2" d="M674.51,232.94c3.99,1.56,26.16,19.04,35.07,20.3,8.92,1.26-6.45-21.64-9.27-23.19s11.54,5.24,20.86,16.34,7.85,13.97,4.09,10.54c-3.77-3.43-3.22-1.31-5.99,9.63-2.77,10.94-.07,6.79-5.92,9.87-5.85,3.08-5.17,13.8-8.51,13.44s2.34,10.05,0,8.84-21.67-31.98-39.01-35.59c0,0,27.68,16.7,31.17,20.04s8.84.52,9.66-7.07,3.17-10.37,0-12.98-27.28-24.41-28.73-25.01-3.44-5.16-3.44-5.16Z"></path><path class="cls-2" d="M753.07,212.26s9.62-9.56,15.02-10.66c5.4-1.1,10.33-2.64,8.87-2.37s-11.02,8.8-5.74,12.03,15.71,3.93,15.71,3.93c0,0-5.57,3.38-5.5,8.84.07,5.46,10.43,29.64,15.75,43.05s1.99,8.75,1.99,8.75l3.65-13.6s12.65,13,5.16,19.64c-7.49,6.63-24.56,7.7-31.03,5.16-6.46-2.53-4.95,1.2-12.21-5.16-7.26-6.37-14.3,10.53-14.3,10.53,0,0,4.96-29.7,0-53.3s-11.07-42.5-9.01-41.05,12.21,15.98,11.63,14.21Z"></path><path class="cls-12" d="M486,346.25s-5,33.06,25.5,51.25c30.5,18.19,56,17,104,9s71.25-30.72,71.25-30.72c0,0-16.75,7.22-27.75,11.22s-46,19-68,17-49.6-3.94-66.3-11.97-28.4-16.2-32.05-25.12c-3.65-8.91-6.65-20.67-6.65-20.67Z"></path><path class="cls-15" d="M583.52,258.23c-6.51-5.93-14.93-8.91-23.41-10.76-4.57-1-9.34-2.02-14.05-1.63s-9.07,1.88-12.96,4.41c-2.15,1.4-.15,4.87,2.02,3.45,3.4-2.22,7.3-3.63,11.36-3.9,4.36-.28,8.73.66,12.97,1.61,7.64,1.7,15.35,4.28,21.24,9.64,1.9,1.73,4.74-1.09,2.83-2.83Z"></path><path class="cls-15" d="M593.3,261.75c-.06-.26-.18-.49-.36-.68-.08-.1-.15-.19-.23-.28l-.08-.09c-.11-.12-.22-.24-.33-.36-.18-.2-.4-.33-.64-.41-.24-.13-.5-.18-.77-.17-.28-.01-.53.05-.77.17-.25.08-.46.22-.64.41-.1.13-.21.27-.31.4-.18.31-.27.65-.27,1.01.02.17.05.34.07.51-.05.16-.08.32-.07.5.02.18.05.35.07.53.09.34.27.63.51.88.13.1.27.21.4.31.31.18.65.27,1.01.27.19-.02.47-.03.68-.11.09-.03.38-.14.54-.23.01,0,.02-.02.04-.02.14-.1.29-.22.43-.33.17-.14.31-.36.42-.52.13-.18.21-.42.28-.62,0-.03.02-.05.02-.08.03-.19.08-.37.08-.56.02-.18,0-.36-.07-.54Z"></path><path class="cls-3" d="M509.89,373.9c-3.63-3.67-5.91-8.35-7.93-13.04-2.2-5.1-4.26-10.27-6.1-15.52-3.69-10.56-6.35-21.59-6.2-32.84.08-6.23,1.06-12.39,3.1-18.28.84-2.44-3.02-3.48-3.86-1.06-7.88,22.75-.1,46.71,8.82,67.88,2.38,5.65,4.97,11.28,9.34,15.7,1.81,1.83,4.64-1,2.83-2.83Z"></path><path class="cls-3" d="M546.01,389.09c-4.51-1.07-9.04-2.06-13.52-3.25-4.05-1.08-7.98-2.46-11.44-4.88-2.12-1.48-4.12,1.99-2.02,3.45,3.6,2.51,7.77,4.03,11.98,5.17,4.61,1.25,9.29,2.26,13.93,3.37,2.5.59,3.57-3.26,1.06-3.86Z"></path><path class="cls-3" d="M500,280.65c-6-.65-5.29,3.06,1.85,8.21,7.15,5.14,48.15,26.14,104.15,31.14s73.8-.72,74.4-3.86c.6-3.14-9.4-3.14-19.4-.14s-63.98,2.55-111.99-14.73c-48.01-17.27-49.01-20.62-49.01-20.62Z"></path><path class="cls-3" d="M493.95,212.32c-3.88,5.02,10.43,20.68,10.43,20.68,0,0-11.33,12.68-14.11,14.09-2.78,1.41-25.9,15.69-33.34,35.55-7.44,19.86.77,44.35,8.16,58.61s14.09,35.81,14.09,35.81c0,0-18.3-59.99-17-83.77s45.76-56.3,45.76-56.3c0,0-.58-3.7-3.52-10.09-2.94-6.39-2.23-10.18-2.58-9.79s-5.45-7.96-7.9-4.78Z"></path><path class="cls-3" d="M505,194.44c1.5-3.94,4.03-10.21,14.27-13.57,10.23-3.36,11.23-4.36,10.23-3.36s31.88,6.04,41.94,11.02,22.32,13.94,19.69,11.96-42.71-17.73-63.17-16.36-20.44,12.25-20.44,12.25l-2.52-1.94Z"></path><path class="cls-21" d="M765.44,426.94s18.19,5.1,32.63,17.83,17.44,20.73,24.44,24.73,21,7,21,7l-2.67,4.63,5.8-.69v5.21l2.05-.14-.43,14.48s3.42,10.88,20.34,26.69,33.85,18.86,31.88,19.33,2.03,8.07-27.97-14.23-31-39.3-31-39.3c0,0,4,0,2,0s-2.15-5.4-2.15-5.4l-5.85-1.6s3.21-4.39,2.11-3.7-7.11-3.3-7.11-3.3c0,0-6.95,2.06-18.97-15.47s-30.17-26.66-34.1-28.6-11.99-7.49-11.99-7.49Z"></path><path class="cls-15" d="M768.1,201.6s19.33-7.06,35.37,2.42c16.04,9.48,15.78,30.68,15.91,35.08.13,4.4-.13,32.25,0,38.32.13,6.08-9.21,13.87-11.54,14.98s-14.08,1.68-14.08,1.68c0,0,22.39,5.24,22.07-26.67-.32-31.91-1.02-51.15-8.17-58.53-7.15-7.38-34.96-9.17-39.55-7.27Z"></path><path class="cls-4" d="M493.95,299.7c.55,1.8.55,33.71,11.05,53.75s-6.77-3.21,10.5-18.96,107.63,3.86,124,10c32,12-4,33-4,33,0,0,28.39-14.87,30.69-14.44s15.82-6.86,20.56-12.71c4.75-5.85,1.9-22.13,1.9-22.13,0,0-43.87,3.24-44.01,4.26-.15,1.02-38.64,1.43-71.89-6.27s-55.74-15.41-59.5-17.06-17.3-10.74-17.3-10.74l-2,1.3Z"></path><path class="cls-21" d="M638.16,200.53l-.62-.74c-.69-.83-2.11-.72-2.83,0-.18.18-.31.39-.41.6-3.21.62-6.45,1.21-9.59,2.1-3.43.98-6.52,2.58-8.71,5.46-.65.86-.14,2.24.72,2.74,1.03.6,2.08.15,2.74-.72,1.68-2.21,4.58-3.18,7.15-3.85,3.51-.91,7.11-1.52,10.66-2.25,1.6-.33,1.77-2.28.88-3.34Z"></path><g><path class="cls-21" d="M602.63,252.51c-.54-.84-1.83-1.37-2.74-.72-1.63,1.18-2.81,2.77-3.42,4.7-.55,1.74-.57,3.75.06,5.47.35.98,1.38,1.75,2.46,1.4.97-.31,1.78-1.41,1.4-2.46-.12-.33-.21-.67-.28-1.01,0-.03,0-.05-.01-.08,0-.16-.02-.32-.03-.49,0-.18,0-.37.01-.55,0-.06,0-.12.01-.18.08-.31.12-.62.21-.93.04-.13.08-.25.13-.37,0,.01,0-.02.02-.07,0-.01,0-.02.01-.03.03-.07.06-.14.08-.21-.02.06-.04.1-.05.14,0,0,0-.01,0-.02.15-.32.32-.62.52-.91.03-.04.06-.09.09-.13.09-.11.19-.22.29-.33.13-.13.26-.26.4-.38.05-.05.1-.09.16-.13.41-.31.74-.65.88-1.16.13-.48.07-1.12-.2-1.54Z"></path><path class="cls-21" d="M600.43,257.29s.02-.06.06-.17c-.01.03-.03.07-.04.1,0,.02-.01.04-.02.07Z"></path></g><path class="cls-21" d="M706.2,298.38c-10.63-14.99-24.95-27.3-41.48-35.37-5.11-2.49-10.53-4.35-15.47-7.18-2.24-1.28-4.25,2.17-2.02,3.45,4.36,2.5,9.09,4.2,13.64,6.31,4.06,1.88,7.99,4.02,11.78,6.4,7.55,4.74,14.48,10.42,20.62,16.89,3.43,3.61,6.6,7.46,9.48,11.52.62.88,1.75,1.3,2.74.72.87-.51,1.35-1.85.72-2.74Z"></path><path class="cls-21" d="M493.67,408.88c-5.47-12.6-18.32-19.58-29.86-25.72-14.47-7.7-29.11-15-45.42-17.77-9.32-1.58-18.77-2.09-28.21-2.48-2.57-.11-2.57,3.89,0,4,8.12.33,16.26.71,24.31,1.89,7.95,1.16,15.68,3.18,23.15,6.12,7.25,2.85,14.19,6.42,21.07,10.06,5.99,3.17,12.06,6.29,17.63,10.16,5.84,4.07,10.99,9.14,13.87,15.75.43.99,1.88,1.22,2.74.72,1.02-.6,1.15-1.74.72-2.74Z"></path><path class="cls-21" d="M473.26,745.74c-.92-9.3-2.23-18.63-3.84-27.83-1.8-10.3-4.31-20.51-8.3-30.19-.41-1-1.33-1.71-2.46-1.4-.94.26-1.81,1.46-1.4,2.46,6.95,16.88,9.3,35.1,11.55,53.08.57,4.56,1.07,9.17.45,13.75-.57,4.2-1.87,8.51-4.16,12.1-2.27,3.55-5.95,5.66-9.06,8.37-3.04,2.65-5.73,5.68-8.82,8.27-3.21,2.69-6.87,4.14-10.7,5.69-3.81,1.55-7.39,3.38-9.79,6.85-1.47,2.12,2,4.12,3.45,2.02,1.92-2.77,5.22-4.14,8.24-5.34,3.57-1.42,7.04-2.82,10.11-5.18,3.29-2.52,6.08-5.57,9.11-8.38,3.09-2.86,6.88-5.03,9.51-8.35,5.68-7.17,6.97-17.08,6.1-25.92Z"></path><path class="cls-21" d="M743.71,781.94c-2.37-6.34-6.07-11.81-10.65-16.75-4.69-5.06-9.79-9.76-14.72-14.58l-15.47-15.11c-5.04-4.92-10-9.97-15.5-14.4-5.89-4.75-12.32-8.74-18.97-12.33-2.27-1.22-4.29,2.23-2.02,3.45,5.81,3.14,11.5,6.56,16.75,10.59,5.29,4.06,10.02,8.78,14.77,13.42,9.95,9.72,20.05,19.3,29.83,29.18,5.09,5.15,9.55,10.73,12.11,17.58.89,2.39,4.76,1.36,3.86-1.06Z"></path><path class="cls-21" d="M734.95,793.8c-.55,2.32-3.49,3.3-5.26,4.53-2.75,1.92-4.82,4.65-7.39,6.8-4.81,4.02-10.24,7.3-13.67,12.7-1.38,2.18,2.08,4.19,3.45,2.02,3.42-5.38,9.24-8.54,13.93-12.66,2.4-2.11,4.33-4.62,7.09-6.3,2.43-1.48,4.99-3.07,5.7-6.03.6-2.5-3.26-3.57-3.86-1.06Z"></path><path class="cls-21" d="M845.22,584.37c-3.95-1.74-7.84.31-11.02,2.7-2.89,2.18-5.35,4.79-7.59,7.61-4.51,5.66-8.27,12.06-13.87,16.76-3.62,3.03-8.02,5.01-12.47,6.46-2.44.79-1.4,4.66,1.06,3.86,3.92-1.27,7.78-2.9,11.21-5.21,3.03-2.03,5.66-4.55,8-7.33,4.43-5.27,7.95-11.31,12.85-16.18,1.32-1.31,2.74-2.53,4.3-3.55,1.43-.94,3.72-2.46,5.51-1.67.99.44,2.15.29,2.74-.72.5-.85.28-2.3-.72-2.74Z"></path></g><g id="_Шар_2" data-name="Шар 2"><path class="cls-25" d="M269.69,329.49c-3.98-6.98-10.7-11.33-17.78-14.71-1.75-.84-3.52-1.63-5.29-2.41-1.64-.72-3.51-.2-5.25-.37s-3.32-1.19-4.97-1.68c-2-.58-4.22-.31-6.28-.3-9.35.04-18.74.16-28.06-.75-4.61-.45-9.2-1.18-13.7-2.3s-8.94-2.5-12.94-4.73c-7.44-4.16-13.55-10.46-18.86-17.04-5.77-7.15-11.45-14.38-16.89-21.79-5.37-7.32-10.49-14.81-15.23-22.55-2.4-3.91-4.7-7.88-6.88-11.92-1.97-3.63-3.49-7.76-6.33-10.81-.66-.71-1.62-1.32-1.72-2.3-.11-1.13-.41-1.82-1.2-2.65-1.28-1.35-2.69-2.63-4.21-3.7-3.32-2.36-7.15-2.68-11.11-2.48-7.53.38-14.79,3.11-20.99,7.33s-11.73,10.08-15.78,16.61-6.53,13.93-8.27,21.38c-3.57,15.35-3.27,31.77,3.05,46.38,1.59,3.68,3.56,7.2,5.88,10.47.58.82,1.19,1.63,1.8,2.43.3.39.72.75.82,1.24.1.45,0,.94.14,1.4.28.94,1.07,1.57,1.69,2.29s1.16,1.53,1.69,2.33c1.26,1.94,2.48,3.81,3.97,5.59,1.48,1.77,3.03,3.48,4.62,5.16,3.26,3.46,6.68,6.72,10.15,9.96,7.04,6.6,13.94,13.33,20.79,20.12,3.36,3.34,6.72,6.69,10.07,10.04,1.55,1.55,2.48,3.89,3.52,5.81s2.11,4,3.12,6.02c8.06,16.12,14.47,34,13.34,52.29-.27,4.43-1.04,8.81-2.25,13.08-.53,1.86,2.37,2.65,2.89.8,4.97-17.5,1.77-35.85-4.65-52.52-3.19-8.28-7.12-16.26-11.42-24.03-.5-.9-.95-1.93-1.59-2.73-.77-.96-1.8-1.8-2.68-2.68-1.65-1.65-3.3-3.3-4.95-4.94-3.32-3.31-6.65-6.6-10-9.88-6.82-6.68-13.97-13.04-20.68-19.81-3.25-3.28-6.6-6.61-9.38-10.3-1.24-1.64-2.18-3.49-3.4-5.14-.53-.72-1.3-1.37-1.77-2.11-.44-.69-.17-1.72-.63-2.5-.51-.86-1.29-1.63-1.89-2.43-.64-.86-1.25-1.75-1.84-2.64-1.08-1.65-2.08-3.36-2.99-5.12-1.81-3.49-3.24-7.16-4.3-10.94-2.11-7.48-2.75-15.29-2.26-23.04.49-7.75,2.13-15.4,4.62-22.74,2.43-7.18,6.1-13.77,11.2-19.41,4.97-5.49,11.13-10.08,18.12-12.62,3.47-1.26,7.12-2.03,10.82-2.16,1.88-.06,3.88-.12,5.7.41s3.34,1.58,4.72,2.8c.68.6,1.33,1.23,1.97,1.87.34.34.5.48.58.95s.05.94.21,1.41c.35.99,1.27,1.68,1.98,2.42.65.67,1.28,1.36,1.79,2.15,1.15,1.79,2,3.82,2.99,5.7,1.04,1.98,2.11,3.95,3.21,5.9,4.38,7.81,9.18,15.38,14.27,22.75,5.1,7.38,10.49,14.54,16.02,21.6,5.44,6.94,10.82,14.06,17.41,19.97,3.03,2.71,6.31,5.15,9.88,7.11,3.98,2.18,8.47,3.6,12.86,4.72,8.78,2.25,17.88,2.98,26.92,3.2,4.67.12,9.33.1,14,.07,2.2-.01,4.56-.27,6.74-.01,1.73.21,3.32,1.26,4.99,1.72s3.36.31,5,.27c.55-.01.25-.09.69.11.47.22.95.42,1.42.63.94.42,1.88.85,2.82,1.29,3.43,1.61,6.82,3.38,9.89,5.63,3.06,2.24,5.64,5.04,7.52,8.34.96,1.68,3.55.17,2.59-1.51h0Z"></path><path class="cls-25" d="M374.61,363.6c4.1-2.74,9.56-2.37,14.25-2.04,2.39.17,4.77.43,7.15.55,2.96.16,5.93.11,8.9.27,6.15.33,12.25,1.15,18.25,2.59s11.64,3.39,17.27,5.56c11.03,4.26,21.8,9.69,31.11,17.03,8.06,6.36,15.26,13.84,21.51,21.97,12.9,16.79,22.22,36.45,27.19,57.02,5.14,21.23,4.69,43.44.72,64.84-4.2,22.61-12.8,44.42-26.07,63.27-1.63,2.32-3.33,4.59-5.1,6.8-1.19,1.49.92,3.63,2.12,2.12,14.82-18.59,24.95-40.52,30.32-63.64,5.05-21.76,6.59-44.93,2.45-66.97-4.01-21.32-12.79-41.92-25.2-59.7-6.08-8.7-13.07-16.8-21.04-23.83-8.83-7.79-18.84-13.87-29.59-18.64-11.37-5.05-23.3-9.1-35.68-10.69-3.2-.41-6.42-.67-9.64-.81-2.85-.12-5.7-.07-8.54-.26-5.11-.34-10.25-1.1-15.37-.37-2.32.33-4.59,1.02-6.55,2.33-1.6,1.07-.1,3.67,1.51,2.59h0Z"></path><path class="cls-13" d="M543.54,201.82c.38.08.75.14,1.13.2,1.52.22,3.02.45,4.51.75,9.06,3.55,18.37,6.48,27.46,9.95.48.33.96.64,1.43.98,4.89,3.51,9.54,7.62,14.83,10.54-2.67,13.02-14.31,22.47-27.78,22.18-.8-.62-1.66-1.13-2.58-1.52-.21-.19-.48-.33-.82-.37-.09-.01-.18-.03-.28-.05-1.08-.36-2.2-.57-3.34-.67-2.84-.7-5.61-1.66-8.43-2.45-7.73-5.45-12.48-14.7-11.72-24.82.42-5.55,2.45-10.6,5.58-14.72Z"></path><path class="cls-13" d="M676.13,236.23s-.06-.09-.09-.14c-2.67-1.99-5.29-4.05-7.92-6.06-.32,0-.67-.09-1.01-.33-.84-.61-1.67-1.24-2.5-1.87-1.58-1.08-3.1-2.24-4.6-3.43-.88-.42-1.75-.86-2.6-1.32-8.97,4.05-15.51,12.71-16.31,23.22-.18,2.35-.05,4.64.33,6.86,5.76,2,11.39,4.36,16.78,7.19.44.19.86.41,1.3.62,6.37,2,11.87,5.51,16.9,9.76.92.1,1.84.2,2.76.27.33.03.59.15.8.3.67.08,1.35.16,2.02.21.78-.05,1.56-.08,2.34-.08,6.08-4.1,10.48-10.54,11.84-18.15-7.09-5.18-14.55-10.14-20.05-17.05Z"></path><path class="cls-25" d="M753.87,212.55c7.58-8.95,19.54-12.47,30.89-13.1,2.97-.17,6.09-.3,9.03.17s5.74,1.49,8.31,2.95c5.28,3.01,9.75,7.71,12.26,13.26,2.93,6.46,2.83,13.9,3.37,20.86.58,7.4,1.09,14.81,1.45,22.23.19,3.93.34,7.86.43,11.79.08,3.26.02,6.4-1.12,9.49-1.8,4.89-5.53,8.93-10.37,10.9s-10.58,2.06-15.88,1.68-10.98-1.33-16.5-1.67c-1.45-.09-1.44,2.16,0,2.25,10.12.62,20.7,3.53,30.73.68,5.07-1.44,9.33-4.58,12.17-9.03,3.95-6.17,3.31-13.24,3.05-20.22-.3-8.1-.8-16.18-1.41-24.26-.29-3.84-.6-7.67-.92-11.5-.3-3.59-.55-7.15-1.63-10.6-1.93-6.22-5.87-11.52-11.02-15.46-5.18-3.98-11.08-5.82-17.58-5.86-13.26-.08-27.94,3.34-36.86,13.87-.93,1.1.65,2.7,1.59,1.59h0Z"></path><path class="cls-25" d="M796.61,211.35c-.36.23-.86.09-1.26.1s-.82.09-1.23.15c-.45.06-.87.18-1.32.26-.58.1-1.14-.05-1.72-.02-1.68.1-3.25.53-4.84,1.04-1.94.63-3.66,1.39-5.42,2.42s-3.72,1.96-5.44,3.13c-.73.49-1.45,1.02-2.13,1.57-.76.62-1.42,1.06-2.28,1.51-1.71.89-3.29,2.6-4.52,4.06-1.35,1.61-2.7,3.17-4.12,4.73-1.28,1.4-2.51,2.95-3.43,4.61-.98,1.77-2.25,3.75-2.49,5.79-.14,1.17-.13,2.36-.19,3.54-.05,1.01-.53,1.85-.58,2.85-.07,1.45,2.18,1.44,2.25,0,.04-.75.49-1.47.55-2.25.07-.91.08-1.84.12-2.75.09-2.05,1.02-3.66,1.96-5.44,1.81-3.45,4.8-6.12,7.23-9.12,1.18-1.46,2.69-3.16,4.36-4.06.75-.41,1.41-.66,2.05-1.24.69-.62,1.42-1.19,2.19-1.72,1.64-1.14,3.5-2.01,5.22-3.02s3.38-1.81,5.28-2.43,3.49-.93,5.46-.89c.93.02,1.83-.34,2.75-.43.99-.09,1.81.12,2.69-.44,1.22-.77.09-2.72-1.14-1.94h0Z"></path><path class="cls-25" d="M753.29,292.97c7.21-14.51,5.18-30.7,4.61-46.31-.15-3.98-.19-7.96.07-11.93.27-4.05,1.99-7.95,1.49-12.06-.24-2.01-1.17-3.46-2.27-5.12-1.03-1.55-2.12-3.06-3.21-4.56-2.17-2.98-4.36-5.94-6.15-9.17-.95-1.72-1.54-3.68-2.61-5.32-.96-1.46-2.11-2.77-3.35-4-1.78-1.75-3.45-3.67-5.34-5.31-1.99-1.73-4.09-3.33-6.23-4.87-2.84-2.04-6.1-3.49-9.24-5.02-3.83-1.87-7.69-3.69-11.47-5.67s-7.75-3.33-11.98-4.08c-3.97-.71-8.01-.95-12.04-.98s-8.31-.02-12.44.21-8.07,1.45-11.82,2.7c-1.75.59-3.66,1.14-5.23,2.12s-2.97,2.06-4.3,3.26c-5.17,4.67-8.45,10.91-11.89,16.87-.91,1.58-1.84,3.15-2.82,4.69-.78,1.23,1.17,2.36,1.94,1.14,3.61-5.71,6.48-11.97,10.74-17.25,2.15-2.67,4.69-5.1,7.64-6.87,1.61-.97,3.59-1.5,5.37-2.07,1.89-.6,3.8-1.12,5.73-1.55s3.95-.78,5.98-.82,3.92-.1,5.88-.14c3.92-.08,7.86-.1,11.77.23s7.98,1.08,11.78,2.42c3.97,1.4,7.66,3.68,11.45,5.52s7.29,3.5,10.87,5.4c2.24,1.19,4.26,2.76,6.25,4.33,1.61,1.27,3.22,2.68,4.48,4.07,2.26,2.5,5.33,4.56,6.82,7.68,1.58,3.31,3.17,6.43,5.27,9.45s4.22,5.74,6.19,8.71c.46.7.94,1.4,1.35,2.13.54.97.68,2.06.71,3.16.04,2.05-.41,4.07-.9,6.05-.9,3.63-.89,7.47-.88,11.2.03,15,2.98,30.6-1.92,45.17-.63,1.87-1.39,3.68-2.27,5.45-.64,1.29,1.3,2.43,1.94,1.14h0Z"></path><path class="cls-25" d="M759.89,270.05c2.14,1.55,2.32,4.42,4.12,6.17,1.91,1.85,3.82,3.63,5.39,5.8,1.52,2.1,2.77,4.39,3.59,6.85.93,2.78,1.24,5.73,1.55,8.63.64,5.91.92,11.88,2.05,17.72.55,2.87,1.33,5.7,2.44,8.41,1.13,2.75,2.73,5.26,3.92,7.99,2.38,5.47,3.67,11.35,4.6,17.22s1.61,11.71,1.46,17.65-.98,11.49-2.6,17.02c-.8,2.75-1.78,5.44-2.96,8.05s-2.61,5.05-3.88,7.59c-2.41,4.88-5.49,9.41-9.07,13.5-1.79,2.05-3.71,3.99-5.71,5.82-2.11,1.93-4.27,3.88-6.77,5.27-10.48,5.81-22.31,8.6-34.26,8.6-12.03,0-23.98-1.21-35.94-2.37-4.36-.42-8.79-.14-13.15.17-5.76.41-11.51,1-17.26,1.53-6.34.58-12.7.95-19.04,1.53s-12.35,1.33-18.51,2.16c-12.46,1.67-24.89,3.57-37.42,4.61-3.22.27-6.45.48-9.68.63-1.44.07-1.45,2.32,0,2.25,12.95-.59,25.79-2.3,38.62-4.07,6.36-.88,12.72-1.77,19.1-2.5s13.02-1.19,19.54-1.71c6.26-.5,12.5-1.14,18.76-1.69,5.04-.45,10.11-.89,15.17-.83s10.42.77,15.59,1.27c6.28.61,12.57,1.19,18.88,1.27s12.06-.02,18.04-1c5.92-.97,11.69-2.7,17.18-5.13,2.73-1.21,5.66-2.5,8.01-4.35,2.22-1.74,4.35-3.59,6.37-5.56,3.99-3.87,7.57-8.2,10.53-12.92,1.45-2.32,2.57-4.78,3.89-7.16,1.44-2.6,2.78-5.22,3.91-7.96,2.18-5.3,3.6-10.86,4.34-16.54.76-5.83.9-11.89.14-17.73-.76-5.94-1.55-11.89-3.13-17.68-.77-2.82-1.73-5.57-2.9-8.24-1.3-2.95-3.05-5.65-4.16-8.69-2.08-5.73-2.71-11.82-3.26-17.85-.52-5.75-.66-11.9-2.91-17.29-.96-2.31-2.24-4.44-3.77-6.42-.79-1.03-1.63-2.01-2.53-2.94-1-1.04-2.39-1.98-3.11-3.23-1.24-2.15-1.96-4.25-4.05-5.76-1.17-.85-2.3,1.1-1.14,1.94h0Z"></path><path class="cls-25" d="M657.87,171.41c-10.61-10.52-23.43-18.13-37.21-23.74-7.15-2.91-14.91-4.01-22.6-3.99-2.04,0-4.08.09-6.12.24-.85.06-1.84.02-2.67.23-.76.2-1.46.93-2.09,1.4-2.73,2.02-5.55,3.93-8.32,5.9-6.31,4.49-12.34,9.44-16.42,16.14-.75,1.24,1.19,2.37,1.94,1.14,3.49-5.73,8.52-10.17,13.89-14.09,2.6-1.9,5.26-3.7,7.88-5.57.68-.48,1.35-.97,2.02-1.46.6-.44,1.23-1.1,1.95-1.29.84-.22,1.88-.16,2.74-.21.98-.06,1.97-.11,2.95-.14,7.45-.22,14.95.55,22,3.03s13.33,5.67,19.45,9.32c6.91,4.11,13.29,9.03,19.01,14.69,1.03,1.02,2.62-.57,1.59-1.59h0Z"></path><path class="cls-25" d="M589.86,143.87c-.6-3.88-3.18-6.52-5.9-9.11-1.44-1.37-2.67-2.91-4.25-4.11-1.74-1.34-3.48-2.79-5.3-3.99-3.3-2.17-6.49-4.57-10.27-5.85-4.16-1.4-8.13-.77-12.26.37-7.12,1.98-13.78,5.26-19.47,10.02-2.99,2.5-5.67,5.36-8.08,8.42-1.35,1.72-2.62,3.49-3.83,5.31-1.1,1.66-1.3,4-1.62,5.94-1.57,9.44-.88,19.81,5.02,27.73.86,1.15,2.81.03,1.94-1.14-4.91-6.59-6.02-14.95-5.2-22.95.2-2,.54-3.98.97-5.94.23-1.05.45-1.93,1.06-2.84s1.19-1.75,1.81-2.6c2.19-3.02,4.63-5.86,7.35-8.41,5.05-4.74,11.07-8.24,17.63-10.44,3.53-1.18,7.4-2.48,11.16-1.99s7.01,2.54,10.09,4.6c1.77,1.19,3.45,2.44,5.16,3.7.98.73,1.97,1.43,2.93,2.19.79.63,1.39,1.42,2.09,2.14,2.82,2.91,6.13,5.28,6.79,9.55.22,1.43,2.39.82,2.17-.6h0Z"></path><path class="cls-25" d="M549.47,133.46c11.27,2.51,23.92,12.72,20.1,25.54-.41,1.39,1.76,1.98,2.17.6,4.17-14.01-9.18-25.52-21.68-28.3-1.41-.31-2.01,1.85-.6,2.17h0Z"></path><path class="cls-25" d="M596.45,262.3c-12.53-8.55-26.96-14.43-42.06-16.25-4.91-.59-9.97-1.03-14.85-.05-3.89.78-8.11,2.85-8.67,7.22-.38,2.94.95,5.83,2.15,8.43,1.44,3.12,3.25,6.04,4.97,9,1.8,3.1,3.41,6.24,4.56,9.64,1.07,3.15,2.72,6.39,5.25,8.63s5.34,2.26,8.44,2.36c1.59.05,3.12.36,4.7.52,1.89.19,3.8.19,5.69.05,7.96-.57,15.65-2.99,23.61-3.6,4.68-.36,9.62-3.3,12.32-7.1,3.21-4.53,2.33-10.07-.86-14.35-1.12-1.5-2.42-2.84-3.82-4.08-1.08-.96-2.68.63-1.59,1.59,3.87,3.42,7.82,8.62,5.34,14-1.86,4.02-6.2,6.54-10.37,7.51-1.43.33-2.95.29-4.41.47-1.92.22-3.83.54-5.74.89-3.6.67-7.17,1.49-10.78,2.02s-7.17.78-10.69.16c-2.71-.48-5.65.03-8.28-.84-2.8-.92-4.62-4.17-5.78-6.68-.71-1.53-1.15-3.17-1.79-4.73-.6-1.47-1.27-2.91-2.01-4.31-1.46-2.79-3.15-5.45-4.69-8.19-1.54-2.74-3.25-5.78-3.88-8.89-1.86-9.17,12.8-8.16,18.16-7.72,15.78,1.29,30.95,7.37,43.96,16.25,1.2.82,2.33-1.13,1.14-1.94h0Z"></path><path class="cls-25" d="M550.51,288.62c-4.4,2.24-7.46,6.25-9.23,10.78-.22.57.24,1.23.79,1.38.64.18,1.16-.22,1.38-.79,1.56-4,4.34-7.48,8.2-9.44,1.29-.66.15-2.6-1.14-1.94h0Z"></path><path class="cls-25" d="M513.93,260.2c-8.3,3.18-15.18,9.51-19.14,17.46-.64,1.29,1.3,2.43,1.94,1.14,3.69-7.4,10.04-13.45,17.79-16.42,1.34-.51.76-2.69-.6-2.17h0Z"></path><path class="cls-25" d="M709.89,327.5c.03-3.15-1.29-5.44-3.79-7.29-1.22-.9-2.54-1.67-3.71-2.64s-2.24-2.13-3.43-3.11-2.41-1.75-3.86-2.18c-1.97-.59-4.17-.49-6.21-.59-4.6-.22-9.21-.38-13.82-.49-4.33-.11-8.57,0-12.86.65s-8.51,1.71-12.84,2.07-9,.3-13.51.35-9.12-.12-13.66-.47c-18.12-1.41-36-5.51-53.71-9.44-17.25-3.83-34.24-8.63-49.98-16.82-3.88-2.02-7.67-4.19-11.37-6.5-1.9-1.18-3.82-2.22-5.92-3.01-3.4-1.28-8.82-2.69-11.63.53-1.67,1.92-1.59,4.68-1.18,7.03.67,3.8,2.63,7.29,4.99,10.29,4.68,5.95,11.46,10.38,18.17,13.71,6.92,3.43,14.31,5.79,21.74,7.85,8.36,2.32,16.74,4.59,25.13,6.82,4.37,1.16,8.76,2.26,13.24,2.92s9.1.96,13.65,1.45c9.22,1,18.4,2.27,27.59,3.47,5.9.77,11.77,1.42,17.72,1.49,5.48.06,10.97-.07,16.45-.27,11.37-.4,22.77-1.01,34.1-2.17,1.83-.19,3.65-.4,5.47-.66,1.43-.2.82-2.37-.6-2.17-9.74,1.39-19.68,1.84-29.5,2.34-10.33.52-20.78,1.08-31.12.52-7.78-.42-15.52-1.75-23.24-2.77-8.88-1.16-17.77-2.14-26.68-3.01s-17.33-3.53-25.81-5.87c-7.71-2.13-15.5-4.01-23.13-6.43-7.07-2.25-13.99-5.05-20.27-9.06-6.29-4.01-12.75-9.36-15.15-16.7-.68-2.08-1.54-5.45.12-7.33,1.14-1.29,3.23-1.24,4.79-1.04,5,.66,9.05,3.54,13.27,6.04,14.63,8.68,30.41,14.57,46.87,18.75,8.26,2.1,16.61,3.85,24.95,5.6,8.62,1.81,17.24,3.6,25.95,4.91s17.65,2.21,26.54,2.25c4.28.02,8.58.02,12.86-.18s8.41-.93,12.61-1.71c3.98-.73,7.97-1.28,12.02-1.27,4.52,0,9.04.2,13.55.38,2.21.09,4.42.19,6.64.31,1.86.1,3.51.27,5.11,1.31,1.23.8,2.25,1.89,3.33,2.89s2.3,1.92,3.55,2.77c1.08.73,2.24,1.45,3.09,2.46.97,1.16,1.23,2.54,1.22,4.02-.01,1.45,2.24,1.45,2.25,0h0Z"></path><path class="cls-25" d="M489.66,288.06c-1.58,1.97-2.51,4.46-3.41,6.79-1,2.59-1.9,5.24-2.61,7.92-2.11,8.01-2.63,16.79-1.92,25.02.37,4.31,1.55,8.47,2.64,12.64.99,3.79,1.75,7.64,2.76,11.43,1.88,7.03,4.4,14.02,8.47,20.11,7.33,10.99,19.58,17.87,31.63,22.56,9.01,3.5,18.47,5.9,28.01,7.4,2.68.42,5.34.72,8.05.97,8.74.81,17.49,1.73,26.28,1.84,4.43.06,8.86-.09,13.26-.55,4.02-.41,8.24-.9,12.11-2.1-.53.17.1-.02.25-.06.33-.09.66-.19.99-.28,1.1-.3,2.21-.6,3.31-.89,8.66-2.32,17.29-4.76,25.83-7.47,11.21-3.56,22.36-7.52,33.01-12.53,7.95-3.73,15.53-8.13,21.89-14.26,3.03-2.92,5.63-6.31,7.4-10.14,2.38-5.13,3.32-10.78,3.22-16.42-.07-3.61-.54-7.21-1.25-10.75-.28-1.42-2.45-.82-2.17.6,2.17,10.91,1.64,22.7-5.62,31.67-4.89,6.05-11.55,10.58-18.34,14.22-10.02,5.37-20.75,9.42-31.5,13.06-9.34,3.17-18.8,5.97-28.31,8.56-2.64.72-5.29,1.41-7.94,2.14-4.07,1.12-8.19,1.89-12.4,2.35-8.55.92-17.16.67-25.72.03-4.22-.32-8.44-.72-12.65-1.12-1.92-.18-3.85-.29-5.76-.56-7.25-1.02-14.43-2.48-21.47-4.54-11.52-3.38-23.03-8.29-32.26-16.12-5.5-4.67-9.54-10.48-12.38-17.09-2.91-6.78-4.35-13.94-6.13-21.06-1.03-4.13-2.33-8.23-2.85-12.48-.51-4.18-.43-8.51-.19-12.71.39-6.92,1.81-13.54,4.22-20.02.81-2.18,1.64-4.73,3.12-6.58.9-1.12-.68-2.72-1.59-1.59h0Z"></path><path class="cls-25" d="M499.95,419.56c5.35.13,8.49,5.53,11.23,9.41,1.55,2.19,3.16,4.42,5.16,6.23,2.5,2.25,5.37,4.24,8.35,5.81,12.37,6.5,26.67,5.27,40,3.19,3.9-.61,7.79-1.3,11.7-1.93,2.1-.34,4.12-.62,6.24-.64,2.27-.02,4.53-.13,6.77-.52,1.42-.25.82-2.42-.6-2.17-2.04.36-4.11.42-6.18.44-1.81.02-3.51.2-5.3.48-3.44.54-6.87,1.14-10.3,1.71-6.87,1.13-13.8,2.14-20.77,2.09s-13.62-1.17-19.74-4.23c-3.04-1.52-5.93-3.46-8.48-5.72-2.04-1.8-3.63-4.04-5.19-6.25-3.19-4.53-6.75-10-12.9-10.14-1.45-.03-1.45,2.22,0,2.25h0Z"></path><path class="cls-25" d="M483.91,357.34c.68,11.33-3.88,21.95-7.94,32.27-.53,1.35,1.64,1.93,2.17.6,4.14-10.51,8.71-21.33,8.02-32.87-.09-1.44-2.34-1.45-2.25,0h0Z"></path><path class="cls-25" d="M709.07,210.47c-7.13-7-16.02-11.81-25.4-15.1-2.36-.83-4.76-1.49-7.16-2.21s-4.91-1.43-7.47-1.82c-4.85-.74-9.78-.68-14.61.26-5.58,1.08-10.87,3.36-15.58,6.53-1.19.8-.07,2.75,1.14,1.94,7.98-5.38,17.5-7.83,27.08-6.75,4.78.54,9.46,2.06,14.01,3.54,4.6,1.5,9.09,3.35,13.35,5.66,4.75,2.58,9.16,5.73,13.03,9.52,1.03,1.02,2.63-.57,1.59-1.59h0Z"></path><path class="cls-25" d="M712.87,245.73c2.61,1.46,4.15,4.41,4.86,7.22.41,1.62.57,3.36.29,5.02s-1.09,2.92-1.88,4.35c-.76,1.38-1.58,2.76-2.99,3.57-1.6.92-3.15-.08-4.32-1.2-2.6-2.49-5.13-5.07-7.74-7.56-11.21-10.73-23.04-20.84-35.9-29.54-6.65-4.5-13.56-8.61-20.68-12.3-3.7-1.92-7.3-3.4-11.46-3.95s-8.05-.39-12.08-.52c-2.17-.07-7.72.11-6.57-3.61.5-1.61,2.97-2.89,4.33-3.74,1.64-1.03,3.37-1.93,5.19-2.6,3.76-1.39,7.45-1.64,11.36-.8,3.59.77,7.17,1.56,10.72,2.48,14.38,3.74,28.65,9.41,39.96,19.3,1.43,1.25,2.8,2.57,4.13,3.93,1.01,1.04,2.6-.55,1.59-1.59-11.38-11.74-26.5-18.64-42.06-23-3.8-1.06-7.64-1.99-11.49-2.82-1.96-.42-3.93-.94-5.94-1.07s-4,.08-5.93.53c-3.97.91-7.71,2.84-10.94,5.28-1.6,1.2-2.95,2.24-3.26,4.34-.21,1.47.29,2.89,1.41,3.87s2.38,1.37,3.79,1.52c2.15.23,4.31.26,6.46.29,4.41.05,8.88.05,13.16,1.27s8.35,3.75,12.25,5.93c3.77,2.11,7.47,4.33,11.1,6.68,14.31,9.23,27.32,20.25,39.59,32.02,1.59,1.52,3.16,3.06,4.73,4.6,1.14,1.13,2.25,2.37,3.5,3.38s2.99,1.82,4.63,1.52,3.06-1.6,4.02-2.85c2.03-2.66,3.66-5.85,3.71-9.25.05-3.43-1.11-6.99-3.18-9.73-.88-1.16-1.93-2.18-3.21-2.89s-2.4,1.24-1.14,1.94h0Z"></path><path class="cls-25" d="M615.78,212.15c-4.13,3.85-7.31,8.72-9.89,13.7-2.84,5.48-5.09,11.38-6.2,17.46-.56,3.07-.84,6.2-.54,9.32.14,1.43,2.39,1.44,2.25,0-.7-7.16,1.47-14.54,4.27-21.06s6.51-12.98,11.71-17.83c1.06-.99-.53-2.58-1.59-1.59h0Z"></path><path class="cls-25" d="M601.78,274.35c.5,2.09,1.47,3.85,2.46,5.74.47.88,1.15,1.53,1.77,2.29.7.85,1.16,1.86,1.78,2.77,1.14,1.67,2.43,3.29,3.8,4.77.75.8,1.3,1.75,1.94,2.63.7.95,1.5,1.81,2.24,2.72.71.87,1.26,1.87,1.99,2.73.69.81,1.63,1.26,2.35,2.03,1.43,1.54,3.34,2.6,5.17,3.59,1.98,1.07,4.03,2.16,6.15,2.9,1.07.37,2.18.59,3.27.86.96.25,1.87.61,2.88.59,1.45-.03,1.45-2.28,0-2.25-1.02.02-2.1-.46-3.09-.69s-1.93-.47-2.86-.83c-1.93-.74-3.8-1.74-5.61-2.74-.91-.5-1.8-1.03-2.66-1.62-.95-.65-1.6-1.52-2.5-2.21-.82-.63-1.45-1.13-2.05-2-.55-.81-1.12-1.57-1.75-2.32-1.28-1.51-2.32-3.21-3.62-4.71-1.37-1.57-2.81-3.18-3.94-4.95-.5-.79-.93-1.62-1.5-2.37-.52-.69-1.19-1.26-1.64-2-1.05-1.72-1.96-3.59-2.43-5.55-.33-1.41-2.5-.81-2.17.6h0Z"></path><path class="cls-25" d="M631.9,197.26c-11.92-10.2-25.93-17.53-40.87-22.22-7.23-2.27-14.59-3.93-22.1-4.93-6.96-.93-14.06-1.47-21.06-.6-7.71.96-15.03,3.74-20.71,9.16-1.05,1,.54,2.59,1.59,1.59,10.11-9.64,24.93-9.73,37.96-8.18,14.62,1.74,29.11,5.96,42.27,12.61,7.64,3.86,14.82,8.6,21.33,14.17,1.09.94,2.69-.65,1.59-1.59h0Z"></path><path class="cls-25" d="M598.02,254.24c-.03-1.55,0-3.05-1.19-4.22-2.03-2-4.97-1.52-7.55-1.61-6.22-.22-12.39-1.19-18.46-2.56-6.16-1.39-12.21-3.2-18.23-5.12-5.59-1.78-11.2-3.49-16.79-5.28-10.39-3.33-19.88-8.99-28.2-16-2.16-1.82-4.26-3.73-6.28-5.71-1.49-1.46-3.22-3.69-5.61-2.97-1.81.54-2.66,2.55-2.85,4.27-.26,2.47,1.01,4.53,2.05,6.68,2.64,5.42,5.67,10.87,10.32,14.84,1.22,1.05,2.64,1.61,4.03,2.41s2.73,1.71,4.06,2.62c2.68,1.85,5.32,3.73,8.26,5.15,1.3.63,2.44-1.31,1.14-1.94-4.78-2.31-8.75-5.92-13.43-8.39-1.2-.63-2.21-1.19-3.21-2.11-.93-.86-1.8-1.79-2.62-2.77-1.66-2.01-3.05-4.24-4.32-6.52-1.24-2.24-2.35-4.55-3.45-6.87-.63-1.33-1.18-4.05.39-5.07.78-.51,1.56.22,2.11.74,1.05.98,2.05,2.03,3.09,3.02,1.89,1.78,3.84,3.5,5.85,5.15,7.64,6.26,16.15,11.4,25.46,14.76,2.39.86,4.83,1.49,7.26,2.25,2.68.83,5.34,1.73,8,2.59,5.48,1.78,10.97,3.52,16.54,5.01,6.2,1.65,12.5,2.97,18.89,3.65,3.17.34,6.32.37,9.49.48.98.03,2.39.4,2.84,1.42.28.63.15,1.44.16,2.11.03,1.45,2.28,1.45,2.25,0h0Z"></path><path class="cls-25" d="M503.64,195.27c-.59.64-1.19,1.28-1.71,1.98-.61.8-.91,1.73-1.47,2.55-.52.76-1.06,1.43-1.25,2.35-.18.9-.19,1.8-.44,2.69-.49,1.8-.59,3.83-.63,5.7s.5,3.64,1.49,5.21c.77,1.22,2.72.09,1.94-1.14-.86-1.36-1.25-2.79-1.17-4.4.08-1.71.19-3.42.62-5.08.18-.7.24-1.4.32-2.12.11-.95.66-1.46,1.14-2.23.42-.66.65-1.41,1.11-2.06s1.07-1.27,1.63-1.88c.98-1.06-.61-2.66-1.59-1.59h0Z"></path><path class="cls-25" d="M687.38,331.23c.3-.22.24-.24.51-.02.24.2.47.56.64.82.35.53.52,1.17.66,1.78.38,1.6.22,3.13-.11,4.72-.35,1.72-.82,3.41-1.27,5.1-.4,1.53-1.31,2.72-1.85,4.17l1.08-.83-.29.03c-1.42.16-1.44,2.41,0,2.25l.29-.03c.54-.06.9-.31,1.08-.83.35-.94,1-1.74,1.37-2.67.35-.87.55-1.79.78-2.7.58-2.22,1.23-4.48,1.38-6.78.11-1.65-.24-3.62-1.04-5.08-.87-1.59-2.58-3.22-4.39-1.88-1.15.85-.03,2.81,1.14,1.94h0Z"></path><path class="cls-25" d="M680.47,355.47c-13.21,6.1-26.63,11.73-40,17.46-2.4,1.03-4.81,2.06-7.21,3.1-1.04.45-2.16,1.14-3.25,1.45-.86.24-1.94.29-2.84.45-1.32.23-2.64.45-3.96.67-2.56.43-5.12.83-7.69,1.21-5.38.8-10.77,1.48-16.18,2-11.2,1.08-22.48,1.5-33.72.8s-22.65-2.22-33.13-6.46c-5.13-2.08-10.05-4.69-14.75-7.62-2.59-1.61-4.94-2.93-6.71-5.42-3.46-4.85-5.66-10.68-7.58-16.27-2.52-7.31-4.46-14.83-5.81-22.44-1.25-7.03-2.1-14.29-1.56-21.43.11-1.44.29-2.87.57-4.28s-1.89-2.02-2.17-.6c-1.33,6.74-.86,13.8.02,20.56,1.03,7.95,2.77,15.8,5.08,23.47,1.95,6.49,4.25,13.03,7.56,18.97,1.09,1.96,2.33,3.96,3.95,5.54,1.27,1.24,2.88,2.15,4.37,3.1,2.39,1.53,4.83,2.96,7.33,4.3,4.86,2.6,9.94,4.83,15.21,6.45,5.42,1.67,11.06,2.59,16.68,3.32,11.6,1.51,23.35,1.69,35.02,1,11.02-.65,21.98-2.06,32.87-3.85,2.56-.42,5.13-.86,7.68-1.32.63-.11,1.08-.33,1.64-.59,1.69-.76,3.39-1.48,5.09-2.22,13.5-5.8,27.04-11.5,40.44-17.53,1.4-.63,2.81-1.27,4.21-1.92,1.31-.61.17-2.55-1.14-1.94h0Z"></path><path class="cls-20" d="M659.53,260.97c1.18.37,2.34.79,3.46,1.26.32-.5.57-1.05.72-1.62.63-2.42-.37-4.88-1.48-7-2.16-4.11-6.5-9.34-3.88-14.2.58-1.07-.23-2.05-1.14-2.21,0,0,0,0,0,0-1.56-2.13-4.16-3.01-6.73-2.37-2.54.63-4.33,2.79-5.2,5.16-1.78,4.84.57,10.56,2.9,14.81.22.4.45.79.69,1.18,3.18,1.32,6.31,2.77,9.36,4.37.44.19.87.41,1.31.62Z"></path><path class="cls-20" d="M674.79,263.08c1.01,2.68,4.34,3.11,6.5,1.54,1.07-.78,1.83-1.83,2.53-2.94.64-1.02,1.27-2.05,1.91-3.07.52-.45.77-1.32.34-1.91-.09-.12-.17-.44-.09-.11-.02-.07-.04-.15-.06-.21,0-.02-.01-.03-.01-.04,0,0,0,0,0-.02,0-.11-.02-.23-.03-.34-.03-.49-.04-.99-.15-1.48-.31-1.37-1.61-2.23-3-1.87-.59.15-1.13.5-1.65.8-.5.29-.99.58-1.48.9-1.01.65-1.99,1.39-2.82,2.26-1.55,1.65-2.85,4.2-1.98,6.49Z"></path><path class="cls-20" d="M546.7,226.5c1.22,2.23,2.69,4.38,4.47,6.2,1.65,1.68,3.91,3.61,6.4,3.62,2.29,0,4.12-1.87,4.67-3.99.63-2.42-.37-4.88-1.48-7-2.16-4.11-6.5-9.34-3.88-14.2.58-1.07-.23-2.05-1.14-2.21,0,0,0,0,0,0-1.56-2.13-4.16-3.01-6.73-2.37-2.54.63-4.33,2.79-5.2,5.16-1.78,4.84.57,10.56,2.9,14.81Z"></path><path class="cls-20" d="M573.32,234.79c1.01,2.68,4.34,3.11,6.5,1.54,1.07-.78,1.83-1.83,2.53-2.94.64-1.02,1.27-2.05,1.91-3.07.52-.45.77-1.32.34-1.91-.09-.12-.17-.44-.09-.11-.02-.07-.04-.15-.06-.21,0-.02-.01-.03-.01-.04,0,0,0,0,0-.02,0-.11-.02-.23-.03-.34-.03-.49-.04-.99-.15-1.48-.31-1.37-1.61-2.23-3-1.87-.59.15-1.13.5-1.65.8-.5.29-.99.58-1.48.9-1.01.65-1.99,1.39-2.82,2.26-1.55,1.65-2.85,4.2-1.98,6.49Z"></path><path class="cls-25" d="M767.62,279.63c.02.58.19,1.11.72,1.41.57.32.97.06,1.55.06.76,0,1.59.43,2.35.55.95.15,1.91.14,2.86.3,4.02.69,8.04.74,12.09,1,3.38.22,6.79-1.12,9.53-3.07,1.27-.9,2.41-1.97,3.28-3.27.94-1.4,1.38-3.05,1.84-4.66.6-2.1,1.05-4.2,1.28-6.38.23-2.14.99-4.08.77-6.28-.14-1.43-2.39-1.44-2.25,0,.21,2.13-.53,4-.75,6.07-.22,2.12-.69,4.16-1.28,6.21s-1.13,3.68-2.6,5.16c-1.21,1.21-2.7,2.11-4.25,2.82-1.89.86-3.72,1.28-5.8,1.13-2.28-.17-4.51-.22-6.79-.38-2.15-.16-4.25-.6-6.39-.77-1-.08-1.88-.3-2.85-.53-.38-.09-.78-.17-1.17-.15-.17.01-.33.04-.49.08-.52.07-.32.3.6.69-.06-1.44-2.31-1.45-2.25,0h0Z"></path><path class="cls-13" d="M580.83,291.33c15.74-.12,31.8,2.57,46.06,9.46,4.06,1.96,7.95,4.27,11.61,6.9,1.18.85,2.3-1.1,1.14-1.94-13.2-9.5-29.16-14.4-45.22-16.04-4.51-.46-9.05-.66-13.59-.62-1.45.01-1.45,2.26,0,2.25h0Z"></path><path class="cls-13" d="M579.08,297.43c13.36,3.72,26.65,8.8,37.87,17.12,1.16.86,2.29-1.09,1.14-1.94-11.35-8.42-24.88-13.59-38.4-17.35-1.4-.39-1.99,1.78-.6,2.17h0Z"></path><path class="cls-13" d="M575.37,303.77c4.42,2.32,8.16,5.64,12.06,8.7,4.13,3.25,8.32,6.44,12.17,10.02,1.06.98,2.65-.6,1.59-1.59-3.97-3.69-8.28-6.96-12.53-10.31-3.92-3.09-7.7-6.44-12.15-8.77-1.28-.67-2.42,1.27-1.14,1.94h0Z"></path><path class="cls-13" d="M546.62,200.55c4.63,1.12,9.13,2.72,13.43,4.75.61-.64,1.71-.94,2.46-.39,2.35,1.71,4.7,3.43,7.22,4.89,2.64,1.53,5.48,2.51,8.25,3.75,5.27,2.36,9.67,6.21,13.97,9.99,1.93,1.7-.89,4.54-2.82,2.84-4.18-3.68-8.42-7.31-13.58-9.55-2.64-1.14-5.31-2.11-7.81-3.56-.38-.22-.74-.45-1.11-.68-.5.25-1.12.27-1.76-.12-5.97-3.69-12.43-6.39-19.25-8.04-2.5-.61-1.5-4.48,1-3.87Z"></path><path class="cls-25" d="M612.86,214.56c-6.62-5.11-13.09-10.42-19.86-15.34-6.88-5-14.31-8.99-22.2-12.17-8.22-3.31-16.82-5.61-25.57-6.94-3.75-.57-7.54-1.03-11.31-1.39-3-.29-6.04-.28-9.04.02-5.81.6-11.82,2.28-16.29,6.21-2.14,1.89-3.77,4.31-4.69,7.01-.39,1.14-1.08,2.78-.2,3.83.95,1.13,2.83,1.49,4.18,1.85,2.19.59,4.41-.7,6.7-.32,1.85.31,3.69.94,5.5,1.41.91.24,1.74.48,2.68.46,1.21-.02,2.42-.02,3.64.01,2.29.05,4.57.2,6.85.44,8.74.9,17.27,3.23,25.49,6.28,4.23,1.57,8.38,3.32,12.49,5.16,3.82,1.71,7.86,3.29,11.41,5.53,6,3.79,10.9,9.22,17.69,11.72,1.7.63,3.46,1,5.25,1.21,1.44.17,1.42-2.08,0-2.25-7.13-.84-12.48-5.69-17.94-9.88-6.23-4.78-13.74-7.7-20.93-10.73-7.71-3.24-15.62-6.05-23.82-7.78-4.11-.86-8.29-1.46-12.48-1.76-2.16-.15-4.33-.22-6.5-.21-1.02,0-1.88-.02-2.87-.28l-3.01-.78c-1.86-.48-3.63-1.01-5.57-.84-1.04.09-2.04.38-3.07.49-.81.09-1.65-.25-2.43-.5-.41-.13-.79-.33-1.19-.47-.09-.03-.22-.11-.29-.18-.13-.13,0,.38.09.02.19-.71.35-1.42.6-2.11.47-1.29,1.15-2.52,1.99-3.6,3.39-4.42,9.05-6.47,14.36-7.37,6.13-1.04,12.16-.27,18.27.45,8.46.99,16.82,2.9,24.86,5.73s15.55,6.3,22.38,10.95c6.73,4.59,13.07,9.73,19.48,14.76,1.4,1.1,2.81,2.2,4.22,3.29,1.15.88,2.27-1.07,1.14-1.94h0Z"></path><path class="cls-25" d="M701.11,288.98c-9.2-9.47-19.75-17.63-31.12-24.34-5.76-3.4-11.74-6.53-17.98-8.96-6.46-2.51-13.19-4.3-20.01-5.49-3.39-.59-6.81-.94-10.2-1.46s-6.69-1.09-10.08-.96-6.81.95-9.96,2.2c-2.63,1.05-5.35,2.44-7.12,4.72-3.24,4.16-.83,9.65,2.51,12.98,4.37,4.36,11.31,4.54,17.08,4.9,4.06.26,8.15.5,12.07,1.68,3.71,1.12,7.08,3.04,10.46,4.89,7.17,3.92,14.61,7.34,21.6,11.61,1.24.76,2.37-1.19,1.14-1.94-5.85-3.57-12.03-6.56-18.09-9.73-5.74-3.01-11.28-6.55-17.74-7.77s-13.03-.55-19.32-2.23c-2.82-.75-5.22-2.17-6.92-4.59-1.24-1.76-2.48-3.99-2.05-6.22.5-2.6,3.07-4.24,5.26-5.34,2.84-1.43,6.11-2.39,9.26-2.76,3.34-.39,6.67.03,9.97.54s6.36.85,9.54,1.34c6.47,1.01,12.86,2.55,19.04,4.71s11.81,4.96,17.4,8.09c12.37,6.93,23.81,15.56,33.69,25.74,1.01,1.04,2.6-.55,1.59-1.59h0Z"></path><g><path class="cls-13" d="M361.23,358.33c-.05,1.02-.13,2.04-.24,3.06,69.46,19.88,117.12,87.26,109.73,161.66-5.54,55.77-40.63,101.6-88.19,123.51.67.77,1.28,1.59,1.79,2.47,48.22-22.44,83.76-69.03,89.38-125.69,7.55-76.07-41.33-144.96-112.47-165.01Z"></path><path class="cls-13" d="M166.48,508.2c-.18.65-.36,1.29-.54,1.91.41,3.56.67,7.13.63,10.71-.04,3.43-.37,7-1.38,10.33,0,.02,0,.03,0,.05.83-.56,1.7-1.07,2.59-1.51.07-.06.14-.11.2-.17-1-6.99-1.5-14.11-1.51-21.33Z"></path><path class="cls-13" d="M263.54,362.73c-52.36,20.08-91.98,67.86-98.97,126.99.2.08.38.2.52.38.94,1.21,1.59,2.52,2.03,3.9.03-.36.05-.72.09-1.08,5.86-59.07,44.88-106.98,96.75-127.14-.16-1.01-.3-2.03-.42-3.05Z"></path></g><path class="cls-13" d="M363.63,338.22c0-4.8-5.44-8.96-15.74-12.05-6.48-1.94-14.4-3.3-23.03-3.97-.64,1-1.33,1.96-2.08,2.86,1.65.11,3.29.23,4.89.39,7.22.72,13.83,1.93,19.36,3.59,8.52,2.55,13.6,5.98,13.6,9.17,0,6.39-19.96,13.49-48.59,13.48-13.24,0-25.66-1.55-34.99-4.34-8.52-2.55-13.6-5.98-13.6-9.17,0-6.24,19.07-13.17,46.67-13.47-.23-.3-.36-.67-.32-1.11.03-.33.04-.66.13-.98.08-.28.23-.53.39-.77.01-.05.03-.1.04-.14-24.51.24-49.92,5.99-49.92,16.47,0,4.8,5.44,8.96,15.74,12.05,5.7,1.71,12.51,2.96,19.94,3.7,5.07.5,10.43.77,15.91.77,25.01,0,51.59-5.77,51.6-16.48Z"></path><path class="cls-13" d="M365.5,387.38h0c0-3.74-1.95-7.24-5.43-10.32-.09,1.08-.22,2.16-.43,3.25-.03.14-.07.27-.12.39,1.92,2.1,2.97,4.35,2.97,6.68,0,10.72-22.26,19.76-48.6,19.76-13.18,0-25.55-2.18-34.83-6.12-8.74-3.72-13.75-8.7-13.75-13.67,0-1.8.67-3.59,1.92-5.33-.34-.14-.63-.41-.79-.88-.25-.71-.46-1.42-.65-2.14-2.27,2.61-3.47,5.43-3.47,8.35,0,6.32,5.53,12.16,15.58,16.43,6.83,2.9,15.25,4.89,24.4,5.79,3.76.37,7.65.57,11.6.57,28.93,0,51.59-9.99,51.6-22.75Z"></path><path class="cls-13" d="M260.07,338.07c1.3,9.91,1.64,19.91,2.53,29.86.44,4.94.54,9.92,1.09,14.85.21,1.82.5,3.63.69,5.46.12,1.21.5,3.08,0,4.22-.77,1.75,1.81,3.28,2.59,1.51,1.04-2.36.5-5.21.18-7.68-.45-3.47-.76-6.91-.96-10.4-.46-8.07-1.2-16.14-1.8-24.2-.34-4.55-.73-9.09-1.33-13.61-.11-.81-.61-1.49-1.5-1.5-.73,0-1.61.7-1.5,1.5h0Z"></path><path class="cls-13" d="M360.95,338.51c-.82,8.29-1.37,16.61-2.13,24.91-.72,7.87.79,15.86-.63,23.67-.34,1.89,2.55,2.7,2.89.8,1.45-7.96.03-16.01.69-24.02.7-8.45,1.34-16.92,2.17-25.37.19-1.92-2.81-1.91-3,0h0Z"></path><path class="cls-7" d="M331.8,132.33c-14.44,13.25-33.01,20.89-47.51,34.05-6.27,5.69-12.01,12.81-13.99,21.22-.98,4.18-.97,8.54.1,12.7.97,3.8,2.73,7.47,4.62,10.89,7.19,13,18.47,23,28.92,33.3,10.42,10.28,20.54,21.52,24.64,35.92,2.05,7.21,2.53,14.86,1.64,22.3-.87,7.33-3.25,14.98-8.12,20.67-1.16,1.36-2.45,2.62-3.88,3.69-1.52,1.15-.03,3.76,1.51,2.59,12.35-9.33,15.25-27.1,13.43-41.6-.94-7.47-3.36-14.64-7.04-21.21s-8.23-12.14-13.22-17.49c-10.07-10.81-21.79-20.21-30.52-32.23-2.15-2.96-4.11-6.07-5.77-9.33-1.84-3.62-3.51-7.48-3.92-11.55-.9-8.72,3.37-16.71,9.03-23.05,6.32-7.07,14.28-12.48,22.2-17.58,8.23-5.3,16.67-10.32,24.37-16.39,1.94-1.53,3.82-3.12,5.63-4.79,1.43-1.31-.7-3.43-2.12-2.12h0Z"></path><path class="cls-25" d="M489.18,601.64c-13.23,18.61-26.62,37.09-39.97,55.62-4.62,6.42-9.25,12.83-13.8,19.3-6.21,8.84-12.03,17.93-17.92,26.98-3.25,5-6.54,9.98-9.96,14.86-2.49,3.56-5,7.15-7.8,10.48-4.24,5.03-9,9.64-13.98,13.92-5.76,4.95-11.92,9.47-18.52,13.22-6.01,3.41-12.6,6.38-19.51,7.28-5.85.76-11.95-.25-16.56-4.13-3.28-2.76-5.72-6.51-7.95-10.13-2.79-4.53-5.16-9.31-7.39-14.13-2.22-4.79-4.29-9.65-6.51-14.44-2.43-5.25-5.02-10.43-7.37-15.72-4.88-10.98-9.2-22.21-13.03-33.6-4.47-13.29-7.33-27.49-6.23-41.56,1-12.85,6.16-25.57,17.86-32.12,7.14-4,15.75-5.52,23.86-5.13,9.63.46,18.67,4.17,26.43,9.77,4.13,2.98,8.02,6.47,11.36,10.32,3.44,3.97,6.21,8.48,8.57,13.17,2.48,4.93,4.45,10.09,6.74,15.11,2.5,5.48,5.14,10.91,6.14,16.9.92,5.54.94,11.21,2.47,16.65.52,1.86,3.42,1.07,2.89-.8-1.61-5.73-1.55-11.73-2.63-17.55-1.12-6.03-3.96-11.6-6.48-17.14-2.36-5.2-4.39-10.54-7.02-15.61-2.5-4.83-5.49-9.43-9.13-13.49-6.67-7.44-15.13-13.69-24.49-17.24-9.1-3.45-19.04-3.95-28.52-1.88-7.13,1.55-13.94,4.77-19.17,9.94-4.73,4.67-7.92,10.68-9.77,17.02-3.99,13.68-2.51,28.71.73,42.38,2.19,9.24,5.49,18.21,8.87,27.08,4.36,11.43,9.41,22.51,14.63,33.56,4.61,9.75,8.49,19.88,14.05,29.15,4.02,6.7,8.77,13.39,16.55,15.82,6.34,1.98,13.25.96,19.43-1.1,7.3-2.43,14.09-6.28,20.4-10.64s12.23-9.26,17.72-14.58c5.15-4.99,9.61-10.39,13.79-16.21,7.15-9.96,13.65-20.36,20.36-30.61,4.91-7.5,10.03-14.84,15.24-22.13,12.38-17.33,24.92-34.54,37.32-51.85,3.63-5.07,7.26-10.15,10.88-15.23,1.12-1.58-1.48-3.08-2.59-1.51h0Z"></path><path class="cls-25" d="M319.63,744.26c-18.39-8.1-38.52-7.68-58.2-7.59-18.77.08-38.34-.49-55.28-9.58-12.87-6.91-22.65-18.01-29.5-30.78-7.02-13.07-11.15-27.53-13.99-42.03-1.4-7.1-2.41-14.26-3.37-21.43-1.05-7.86-2.3-15.69-3.37-23.55-2.24-16.44-4.01-33.51-1.22-50,1.31-7.72,3.68-15.3,7.72-22.04,3.95-6.6,9.42-12.88,15.85-17.16,6.21-4.14,13.38-5.95,20.82-5.41,8.61.62,17.23,3.86,24.82,7.84,7.99,4.19,15.36,9.74,21.06,16.76,5.92,7.3,9.98,16.17,13.19,24.94,3.33,9.12,5.84,18.54,8.27,27.94,2.56,9.93,4.33,20.11,8.05,29.7,1.47,3.78,3.31,7.85,3.21,11.98-.05,1.93,2.95,1.93,3,0,.11-4.43-1.75-8.73-3.32-12.78-1.78-4.6-3.09-9.29-4.27-14.08-2.51-10.19-4.9-20.4-7.82-30.48-2.74-9.45-5.95-18.85-10.56-27.57-4.38-8.3-10.08-15.57-17.49-21.37-7.25-5.68-15.52-10.03-24.26-12.93-7.93-2.62-16.4-4.07-24.66-2.18-7.43,1.7-13.89,6.04-19.17,11.42-5.74,5.84-10.36,12.63-13.38,20.25-6.21,15.64-6.07,33.23-4.59,49.73.76,8.51,1.96,16.98,3.2,25.43,1.12,7.62,2.1,15.26,3.22,22.87,2.22,15,5.45,29.99,11.13,44.09,5.53,13.71,13.51,26.69,25.07,36.12,6.03,4.92,12.83,8.76,20.14,11.44,9.48,3.47,19.57,4.95,29.62,5.52,20.13,1.14,40.66-1.47,60.52,2.96,4.82,1.08,9.56,2.56,14.08,4.56,1.75.77,3.28-1.81,1.51-2.59h0Z"></path><path class="cls-25" d="M168.69,688.12c-1.4,1.1-3.6,1.35-5.38,1.41-2.7.09-5.4-.25-8.05-.74-5.69-1.06-11.27-2.78-16.69-4.79-5.65-2.1-10.97-4.78-15.96-8.19-6.48-4.42-12.3-9.72-18.03-15.06-5.68-5.3-11.32-10.61-17.38-15.48-5.63-4.53-11.36-8.99-16.32-14.26-4.89-5.2-8.79-11.25-10.74-18.16-2.52-8.93-2.96-18.51-2.44-27.74.52-9.23,2.01-18.49,4.29-27.45,2.23-8.75,5.29-17.26,8.3-25.76,2.98-8.41,6.08-16.86,7.8-25.64,1.74-8.88,2.39-17.91,3.18-26.91.6-6.84,1-13.82,4.12-20.08,2.28-4.58,5.73-8.48,10.1-11.16,8.9-5.46,20.12-5.56,29.89-2.58,12.48,3.81,23.4,13.03,30.56,23.78,3.98,5.97,6.85,12.6,8.42,19.6,1.95,8.68,1.16,17.34.38,26.1-.38,4.29-.68,8.59-.48,12.9.09,1.92,3.09,1.93,3,0-.43-9.31,1.5-18.52,1.4-27.83-.09-7.99-1.91-15.87-5.13-23.18-5.73-13.01-16.43-24.51-29.14-30.95-9.98-5.05-22-7.08-32.85-3.79-5.01,1.52-9.67,4.2-13.33,7.96-4.04,4.15-6.73,9.45-8.12,15.05-.92,3.72-1.21,7.56-1.56,11.37-.43,4.68-.79,9.36-1.25,14.04-.93,9.38-2.53,18.48-5.4,27.47-2.85,8.91-6.21,17.64-9.13,26.52-2.94,8.94-5.21,18-6.62,27.31-1.45,9.59-2.1,19.33-1.12,29,.84,8.36,2.65,16.57,7.14,23.76,3.93,6.28,9.31,11.47,14.93,16.22,5.94,5.01,12.09,9.71,17.83,14.96,11.6,10.62,22.83,22.51,37.48,28.91,4.88,2.13,9.94,3.88,15.07,5.31,5.51,1.53,11.58,3.01,17.34,2.39,2.2-.23,4.27-.81,6.04-2.19,1.52-1.19-.62-3.3-2.12-2.12h0Z"></path><path class="cls-17" d="M305.55,157.45c11.33.6,22.49,2.65,33.71,4.22,10.57,1.48,21.5,2.8,32.17,1.58,6.61-.75,13.52-2.69,18.72-7.02,2.42-2.01,4.33-4.7,5.12-7.78.93-3.62.27-7.39-1.11-10.8-3.58-8.86-11.56-17.03-21.39-18.17l1.06,2.56c1.83-1.43,3.88-2.56,5.97-3.56s4.16-1.68,6.14-2.7,3.82-2.56,5.92-3.55,4.5-1.73,6.79-1.37c.95.15,1.86.64,2.78.93,1.1.35,2.22.63,3.35.84,2.05.39,4.14.59,6.23.6,4.27,0,8.55-.75,12.61-2.05,4.55-1.46,8.87-3.59,12.84-6.23,1.6-1.06.1-3.66-1.51-2.59-7.11,4.72-15.52,7.95-24.15,7.87-2.16-.02-4.31-.25-6.42-.74s-4.04-1.52-6.17-1.67c-4.7-.33-9.15,2.22-12.88,4.78-2.1,1.44-4.76,2.18-7.06,3.28-2.34,1.12-4.54,2.43-6.58,4.03-1.15.9-.05,2.43,1.06,2.56,8.12.94,14.77,7.95,18.08,15.02,1.4,2.99,2.35,6.47,1.62,9.77-.6,2.73-2.23,4.97-4.34,6.75-4.59,3.88-11.1,5.62-16.97,6.26-10.07,1.09-20.39-.03-30.38-1.41-11.72-1.62-23.39-3.8-35.22-4.43-1.93-.1-1.92,2.9,0,3h0Z"></path><path class="cls-17" d="M269.49,157.05c.8-8.06,1.58-16.16,3.52-24.05,1.86-7.53,4.84-15.06,10.34-20.69,3.25-3.33,7.24-5.78,11.61-7.33l-1.9-1.45c-.14,2.62-1.6,8.75,2.56,9.04,2.03.14,4.25-.84,6.1-1.53,2.91-1.09,5.69-2.53,8.25-4.28s4.92-3.8,6.81-6.29c1.26-1.66,2.41-3.42,3.56-5.16,2.64-3.98,5.3-8.02,8.75-11.35,3.64-3.53,8.14-5.75,13.19-3.97-.35-.62-.7-1.23-1.05-1.85-1.92,4.56-5.45,8.22-7.33,12.82-.52,1.27,1.16,2.29,2.2,1.69,1.92-1.09,4.04-1.87,6.25-2.03l-1.45-1.9c-.8,2.29-2.48,4.16-4,6.01-1.57,1.91-3.04,3.83-3.96,6.14-.53,1.32,1.16,2.22,2.2,1.69,7.86-3.93,16.57-6.18,25.18-7.75,4.26-.77,8.69-1.57,13.03-1.51,4.63.06,9.14,1.18,13.61,2.3,5.02,1.25,10.1,2.47,15.31,2.36v-3c-3.67.1-7.58,1.11-10.92,2.6-1.69.75-3.48,1.81-4.45,3.44s-.8,3.81.45,5.28c2.8,3.28,8.55,1.23,11.91.16.95-.3,1.9-.63,2.86-.92.38-.12.77-.23,1.16-.32.65-.16.5-.13,1.16-.15,2.93-.12,5.82.67,8.61,1.48,6.29,1.81,13.3,4.19,19.33.32,1.62-1.04.12-3.64-1.51-2.59-4.66,2.99-10.14,1.39-15.06-.05-4.36-1.27-9.32-3.02-13.87-1.75-1.79.5-3.54,1.15-5.33,1.67s-3.71,1.09-5.55.84c-1.12-.15-1.94-.93-1.8-1.84.18-1.14,1.66-2,2.72-2.55,3.04-1.57,6.94-2.52,10.29-2.61,1.93-.05,1.94-3.04,0-3-9.52.19-18.38-4.2-27.85-4.63-4.43-.2-8.94.57-13.29,1.31s-9.03,1.76-13.45,3.02c-4.82,1.37-9.57,3.07-14.06,5.31l2.2,1.69c1.82-4.56,6.3-7.45,7.95-12.15.31-.88-.51-1.97-1.45-1.9-2.75.21-5.38,1.08-7.77,2.44l2.2,1.69c1.87-4.58,5.4-8.25,7.33-12.82.33-.78-.37-1.6-1.05-1.85-9.57-3.39-17.03,4.87-22.05,11.89-2.48,3.47-4.56,7.31-7.32,10.56-3.85,4.54-9.44,7.57-15.04,9.38-.91.3-1.93.65-2.78.66-.09,0-.18-.01-.27-.01.11,0,.21.04.12,0,.18.07.21.37.12.01-.37-1.45.12-4.23.21-6.06.05-.93-1-1.76-1.9-1.45-8.17,2.89-14.66,8.55-18.82,16.13-4.1,7.48-5.99,15.98-7.2,24.36-.7,4.8-1.18,9.63-1.66,14.46-.19,1.92,2.81,1.91,3,0h0Z"></path><path class="cls-25" d="M500.48,233.37c-4.25,9.33-13.78,14.73-21.67,20.61-8.48,6.32-16.41,14.23-21.07,23.83-5.15,10.62-4.77,22.87-2.94,34.28,1.98,12.33,6.11,24.24,10.9,35.73,2.64,6.32,5.63,12.47,8.42,18.73,1.37,3.09,2.71,6.17,3.02,9.56.27,2.98.25,6.05,1.57,8.8.63,1.3,2.57.16,1.94-1.14-1.19-2.47-1.03-5.4-1.3-8.06-.28-2.82-1.18-5.33-2.27-7.93-2.34-5.6-5.1-11.02-7.52-16.59-4.85-11.17-9.15-22.67-11.65-34.62-1.26-6-2.03-12.11-2.05-18.24-.02-5.74.55-11.39,2.67-16.76,3.89-9.86,11.68-18.12,19.95-24.54,8.54-6.63,19.26-12.25,23.95-22.53.6-1.31-1.34-2.45-1.94-1.14h0Z"></path><path class="cls-25" d="M697.15,286.65c5.98-.61,10.21-5.29,11.39-11.02.77-3.72,1.9-10.53-2.54-12.49-1.31-.58-2.46,1.36-1.14,1.94,1.71.75,2.03,2.72,2.08,4.41.06,1.86-.2,3.72-.58,5.54-.96,4.66-4.23,8.86-9.22,9.37-1.43.15-1.44,2.4,0,2.25h0Z"></path><path class="cls-25" d="M554.02,321.85c-8.15-.75-16.15.67-23.77,3.55-7.49,2.83-14.73,6.47-20.28,12.38-2.98,3.17-4.11,7.56-7.08,10.7-.99,1.05.59,2.65,1.59,1.59,2.49-2.64,3.64-6.1,5.7-9.03,2.19-3.11,5.49-5.65,8.66-7.68,3.38-2.18,7.07-3.84,10.8-5.32,3.54-1.4,7.17-2.57,10.91-3.31,4.45-.88,8.97-1.05,13.48-.64,1.44.13,1.43-2.12,0-2.25h0Z"></path><path class="cls-25" d="M846.03,498.57c10.13,15.71,21.45,32.05,37.56,42.17,4.38,2.75,9.12,4.94,14.11,6.35,1.4.39,1.99-1.78.6-2.17-18-5.08-31.25-20.12-41.77-34.8-2.97-4.15-5.79-8.4-8.56-12.69-.78-1.21-2.73-.09-1.94,1.14h0Z"></path><path class="cls-25" d="M724.55,502.92c23.98,4.31,44.23,19.24,64.31,32.08,10.78,6.9,22.84,11.58,34.21,17.38,11.55,5.88,22.99,11.94,35.03,16.79,12.81,5.16,26.12,8.84,39.81,10.7,1.42.19,2.03-1.98.6-2.17-12.16-1.65-24.04-4.71-35.52-9.03-12.2-4.59-23.78-10.53-35.35-16.48-5.82-2.99-11.68-5.9-17.62-8.67-5.7-2.66-11.41-5.31-16.84-8.51s-10.26-6.57-15.37-9.87-10.1-6.45-15.29-9.44c-11.64-6.72-24.05-12.56-37.37-14.96-1.42-.25-2.02,1.91-.6,2.17h0Z"></path><path class="cls-25" d="M520.8,544.8c7.04-6.86,16.04-11.5,25.35-14.48,10.58-3.4,21.78-4.76,32.87-4.25,6.65.31,13.25,1.32,19.69,3.02,1.4.37,2-1.8.6-2.17-21.87-5.78-46.75-4.04-66.86,6.74-4.81,2.58-9.33,5.74-13.24,9.55-1.04,1.01.55,2.6,1.59,1.59h0Z"></path><path class="cls-25" d="M456.75,649.72c10.36,15.5,27.56,23.48,43.69,31.54,9.83,4.91,19.36,10.39,29.53,14.6,10.13,4.19,20.66,7.37,31.39,9.59,12.55,2.59,25.32,4.02,38.11,4.72,1.45.08,1.44-2.17,0-2.25-21.97-1.2-43.93-4.61-64.56-12.49-10.17-3.89-19.68-9.07-29.33-14.06-8.19-4.24-16.6-8.05-24.53-12.79-8.66-5.17-16.71-11.52-22.37-19.98-.8-1.2-2.75-.07-1.94,1.14h0Z"></path><path class="cls-25" d="M762.88,520c.84,10.56,2.09,21.08,2.82,31.65s.69,22.01-.9,33.02c-.85,5.89-1.97,11.74-3.08,17.58-1.01,5.3-1.87,10.63-2.94,15.92-1.6,7.89-3.89,15.68-7.12,23.06-6.47,14.79-16.61,27.52-29.35,37.4-15.87,12.31-34.87,20.51-54.32,25.16-21.81,5.22-44.48,6.18-66.79,4.62-2.75-.19-5.5-.43-8.25-.7-1.44-.14-1.43,2.11,0,2.25,22.65,2.21,45.68,1.96,68.08-2.37,20.37-3.94,40.24-11.52,57.38-23.34,13.62-9.4,25.06-21.68,32.63-36.45,3.69-7.2,6.48-14.85,8.48-22.69,1.1-4.31,1.89-8.67,2.67-13.05,1.07-6.01,2.28-11.98,3.36-17.99,2.02-11.3,3.28-22.58,2.87-34.08-.39-10.9-1.6-21.75-2.62-32.6-.23-2.47-.45-4.93-.65-7.4-.11-1.43-2.36-1.45-2.25,0h0Z"></path><path class="cls-25" d="M760.88,610c-.41,3.2-.4,6.47-.36,9.7.05,4.86.28,9.71.57,14.56.76,12.94,1.93,25.86,3.22,38.75,1.45,14.44,3.09,28.85,4.89,43.25,1.56,12.47,3.23,24.94,5.18,37.36.69,4.42,1.42,8.85,2.26,13.24.52,2.72,1.02,5.48,1.86,8.12.11.35.23.69.37,1.03.34.82,1.17,1.07,1.88.5,1.72-1.4,3.67-1.97,5.86-1.54-.09-.69-.18-1.37-.27-2.06-2.62,1.76-4.6,4.23-4.74,7.48-.03.61.54,1.13,1.12,1.12,3.55-.02,6.99.95,10.51,1.26-.19-.7-.38-1.4-.57-2.1-3.03,1.31-5.67,3.73-7.13,6.7-.63,1.3,1.31,2.44,1.94,1.14,1.31-2.68,3.59-4.72,6.32-5.89,1.13-.49.41-2.01-.57-2.1-3.52-.31-6.96-1.28-10.51-1.26l1.12,1.12c.11-2.41,1.7-4.24,3.63-5.54.74-.49.75-1.86-.27-2.06-3.04-.59-5.67.18-8.05,2.12l1.88.5c-.87-2.09-1.27-4.42-1.73-6.63-.83-4.01-1.51-8.04-2.17-12.08-1.95-11.93-3.58-23.9-5.11-35.89-1.82-14.25-3.48-28.53-4.96-42.83-1.37-13.2-2.6-26.42-3.47-39.67-.58-8.76-1.3-17.71-.64-26.48.05-.61.1-1.22.18-1.83.18-1.43-2.07-1.42-2.25,0h0Z"></path><path class="cls-25" d="M659.95,708.89c3.93,1.78,7.4,4.79,10.69,7.52,4.36,3.61,8.57,7.39,12.79,11.17,10.13,9.07,20.39,17.91,29.93,27.63,2.55,2.59,5.01,5.27,7.6,7.82,2.44,2.41,4.93,4.76,7.31,7.22,2.41,2.5,4.69,5.11,6.62,8.01,1.58,2.38,4.09,5.81,3.15,8.84-.41,1.31-1.42,2.57-2.22,3.67-1.1,1.51-2.31,2.94-3.59,4.3-2.29,2.46-4.77,4.65-7.63,6.44s-6.12,3.36-9.03,5.3c-2.01,1.34-3.7,3.03-5.14,4.96-3.18,4.25-5.38,10.05-4.06,15.38,1.48,6,8.43,10.68,14.52,9.14,1.4-.36.81-2.53-.6-2.17-5.48,1.39-11.46-3.53-11.99-8.97-.48-4.85,1.9-9.88,5.06-13.43,4.1-4.62,10.37-6.53,15.22-10.21,2.57-1.95,4.86-4.29,6.95-6.75,1.04-1.23,2.04-2.51,2.94-3.84.82-1.21,1.66-2.46,1.91-3.92.5-2.95-1.02-5.86-2.52-8.29-1.73-2.8-3.74-5.4-5.94-7.85-4.64-5.16-9.82-9.85-14.64-14.85-5.3-5.5-10.77-10.83-16.41-15.99-4.57-4.19-9.3-8.18-13.92-12.3s-9.19-8.27-13.93-12.23c-3.67-3.07-7.53-6.53-11.93-8.52-1.31-.59-2.45,1.35-1.14,1.94h0Z"></path><path class="cls-25" d="M731.09,806.97c-6.68,2.73-11.67,8.95-13.34,15.93-1.58,6.64.31,13.89,6.63,17.29,4.73,2.54,10.41,2.6,15.61,1.93,1.42-.18,1.43-2.44,0-2.25-6.94.9-16.23.44-19.51-6.96-2.47-5.57-.41-12.32,2.95-17.04,2.07-2.91,4.94-5.37,8.26-6.73,1.32-.54.74-2.72-.6-2.17h0Z"></path><path class="cls-25" d="M748.85,821.53c-5.98,3.87-10.3,10.68-10.12,17.95.08,3.18,1.1,6.3,3.18,8.73,2.24,2.61,5.52,3.98,8.87,4.4,4.74.6,10.05-.32,14.27-2.54,4-2.1,6.76-5.67,8.57-9.74,1.94-4.33,2.9-9.1,5.19-13.26,2.76-5.01,7.12-8.76,10.8-13.04,1.81-2.1,3.56-4.3,4.6-6.89,1.01-2.52,1.46-5.27,1.53-7.98.13-5.13-1.1-10.93-4.9-14.64-1.04-1.01-2.63.58-1.59,1.59,3.14,3.07,4.19,7.81,4.25,12.06.06,4.68-1.17,8.83-4.04,12.53-3.1,3.99-6.93,7.33-10.01,11.34-2.98,3.89-4.52,8.25-6.11,12.82-1.31,3.76-2.8,7.61-5.65,10.49-3.32,3.35-8.09,4.79-12.7,5.12-3.33.23-6.83-.19-9.63-2.14-2.26-1.57-3.64-4.03-4.16-6.7-1.39-7.09,2.97-14.4,8.78-18.16,1.21-.78.09-2.73-1.14-1.94h0Z"></path><path class="cls-25" d="M454.88,650c-.58,6.45-.18,12.99.35,19.42.64,7.84,1.64,15.65,2.83,23.42,1.1,7.22,2.37,14.41,3.9,21.56,1.5,7.03,3.59,13.93,4.96,20.98,1.52,7.85.74,15.73-.04,23.62-.14,1.44,2.11,1.43,2.25,0,.71-7.16,1.48-14.38.42-21.55-1.04-7.05-3.24-13.89-4.8-20.83-3.3-14.62-5.64-29.55-7.03-44.48-.68-7.32-1.25-14.8-.59-22.15.13-1.44-2.12-1.43-2.25,0h0Z"></path><path class="cls-25" d="M539.92,699.7c-1.4,3.52-2.89,6.98-4.45,10.44-2.89,6.38-5.4,12.92-7.59,19.57-4.59,13.87-7.83,28.19-10.91,42.46-.75,3.49-1.28,7.09-2.72,10.39-.76,1.73-1.74,3.23-3.08,4.56-1.24,1.23-2.57,2.33-3.68,3.68-.91,1.11.67,2.71,1.59,1.59,2.01-2.44,4.67-4.19,6.25-6.98,1.6-2.82,2.42-5.97,3.08-9.11,1.53-7.25,3.16-14.47,4.88-21.68,3.38-14.19,7.48-28.25,13.36-41.63,1.86-4.22,3.74-8.4,5.45-12.69.53-1.35-1.64-1.93-2.17-.6h0Z"></path><path class="cls-25" d="M508.72,793.22c.51-.4,1.11-.86,1.78-1.33.8-.56,1.62-1.08,2.48-1.53.77-.41,1.57-.74,2.43-.92.27-.06.25-.06.46-.07s.4-.01.61,0c.12,0-.08-.02.11.01.09.02.19.04.28.07.29.08.19.05.42.18l-.4-1.54c-.65,1.1-1.9,1.8-3,2.47-1.25.76-2.57,1.53-3.48,2.7-.41.52-.49,1.41.23,1.77,1.15.57,2.32.58,3.56.35,1.02-.19,2.03-.59,3.07-.61l-.97-1.69c-1.42,2.11-2.76,4.27-4.89,5.75-.5.35-.73.99-.4,1.54.29.49,1.04.75,1.54.4,2.47-1.72,4.04-4.1,5.69-6.56.48-.71-.15-1.71-.97-1.69-1.02.02-2,.31-2.99.55-.8.19-1.73.41-2.51.03l.23,1.77c1.86-2.37,5.24-2.95,6.83-5.62.31-.52.12-1.24-.4-1.54-1.97-1.12-4.29-.39-6.18.54s-3.51,2.15-5.12,3.41c-.48.38-.39,1.2,0,1.59.47.47,1.11.38,1.59,0h0Z"></path><path class="cls-25" d="M467.91,747.42c-.72,7.32-.78,15.23-4.49,21.8-3.43,6.09-9.81,9.57-15.87,12.55-2.86,1.41-5.74,2.75-8.65,4.03-2.76,1.21-5.53,2.46-8.01,4.2-2.35,1.65-4.43,3.72-5.67,6.34-1.55,3.29-2.51,7.38-1.19,10.89,1.3,3.46,3.58,7.17,6.45,9.55,2.02,1.67,5.33,3.98,8.1,2.91,1.34-.52.75-2.69-.6-2.17-2.17.84-5.09-1.53-6.57-2.91-1.17-1.09-2.1-2.44-2.97-3.77-1.03-1.57-2.06-3.3-2.55-5.13-.87-3.3.48-7.46,2.4-10.19,1.61-2.27,3.98-3.9,6.39-5.22,2.52-1.38,5.19-2.47,7.81-3.64,2.84-1.27,5.66-2.64,8.42-4.07,5.7-2.95,11.36-6.64,14.53-12.41,3.81-6.92,3.95-15.09,4.7-22.76.14-1.44-2.11-1.43-2.25,0h0Z"></path><path class="cls-25" d="M509.99,800.76c-4.56,4.57-7.3,10.44-10.37,16.02-1.53,2.77-3.15,5.52-5.18,7.95-2.16,2.58-4.69,4.54-7.56,6.26-5.9,3.55-13.32,7.51-20.35,5.18-5.64-1.87-12.27-7.19-10-13.81,1.14-3.33,3.76-6.1,6.41-8.32s5.65-4.09,8.89-5.19c1.36-.46.78-2.64-.6-2.17-6.18,2.11-12.38,6.71-15.65,12.42-1.51,2.64-2.33,5.78-1.42,8.77,1.03,3.38,3.73,6.05,6.61,7.96,2.99,1.98,6.57,3.37,10.19,3.32,4.02-.05,7.92-1.47,11.5-3.18,3.33-1.59,6.71-3.45,9.61-5.75,2.75-2.18,4.97-4.93,6.87-7.85,4.3-6.62,7-14.34,12.65-20.02,1.02-1.03-.57-2.62-1.59-1.59h0Z"></path><path class="cls-25" d="M455.36,828.09c-3.18-.33-6.35-1.03-9.08-2.75-2.66-1.69-5.01-4.32-6.58-7.04-3.28-5.69-1.85-13.14,3.68-16.84,1.2-.8.07-2.75-1.14-1.94-4.92,3.29-7.31,9.02-6.32,14.84.92,5.4,5.15,10.61,9.85,13.3,2.93,1.67,6.25,2.34,9.58,2.68,1.44.15,1.43-2.1,0-2.25h0Z"></path><path class="cls-25" d="M890.26,578.21c1.86,1.49,3.19,3.47,4.9,5.1s3.75,2.8,5.92,3.62c4.19,1.59,9.24,2.28,13.68,1.62,5.67-.85,10.45-4.41,14.89-7.82,4.47-3.43,9.01-7.17,12.24-11.84,1.21-1.75,2.36-3.87,2.3-6.06s-1.42-3.82-3.26-4.81c-3.52-1.88-7.11-.96-10.47.83-3.77,2.01-6.95,4.86-10.37,7.37-1.15.85-.03,2.8,1.14,1.94,2.7-1.98,5.24-4.17,8.05-6,2.51-1.62,5.96-3.74,9.07-2.8,1.56.47,3.35,1.48,3.57,3.19s-.8,3.42-1.69,4.77c-2.79,4.24-6.92,7.67-10.87,10.79-3.51,2.77-7.37,5.84-11.62,7.36-4.6,1.65-9.62,1.15-14.26-.13-2.34-.64-4.63-1.73-6.45-3.36s-3.24-3.8-5.2-5.37c-1.12-.9-2.72.69-1.59,1.59h0Z"></path><path class="cls-25" d="M916.2,552.63c9.98-2.6,15.8-11.1,21.56-18.97,1.24-1.69,2.69-4.47,5.17-4.16,2.21.28,3.89,2.49,4.68,4.41,1.97,4.82.21,10.1-1.75,14.61-.87,2.01-1.81,4-2.93,5.89-.57.97-1.87,3.51-3.2,3.49-1.45-.02-1.45,2.23,0,2.25,1.73.02,3.01-1.51,3.94-2.78,1.3-1.77,2.31-3.76,3.23-5.74,2.17-4.62,4.24-9.57,3.68-14.8-.47-4.39-4.05-11.02-9.49-9.41-2.61.77-4.09,3.47-5.59,5.53-1.67,2.29-3.31,4.61-5.09,6.82-3.94,4.88-8.6,9.06-14.8,10.68-1.4.36-.81,2.53.6,2.17h0Z"></path><path class="cls-25" d="M909.55,547.23c3.21-2.58,6.87-4.69,9.51-7.91s4.38-6.99,6.45-10.58c1.33-2.31,2.79-5.3,5.82-5.34,1.71-.02,3.54.34,5.14.95.8.31,1.59.72,2.28,1.24.42.32,1.89,1.47,1.83,2.05l.56-.97-.09.06.87-.11c-.4-.08-.72-.12-1.12,0-1.38.41-.79,2.59.6,2.17-.4.12.17.05.37.02.27-.04.54-.17.73-.37.54-.57.36-1.35.01-1.95-.83-1.43-2.1-2.61-3.53-3.43-2.55-1.46-6.18-2.34-9.11-1.76-2.65.52-4.2,2.87-5.53,5.02-2.16,3.48-3.78,7.29-6.23,10.59-2.71,3.66-6.67,5.93-10.16,8.74-1.13.91.47,2.49,1.59,1.59h0Z"></path><path class="cls-25" d="M927.44,521.86c-6.96-1.96-11.87,4-15.27,9.18-3.57,5.43-7.91,11.91-14.47,13.88-1.38.42-.79,2.59.6,2.17,6.26-1.88,10.64-7.37,14.21-12.54,3.26-4.71,7.37-12.47,14.33-10.52,1.4.39,1.99-1.78.6-2.17h0Z"></path><path class="cls-25" d="M574.8,661.8c7.41-5.95,13.92-13.13,21.98-18.26l-1.65-1.27c-.75,2.71-1.19,5.49-1.47,8.29-.08.78.78,1.22,1.42,1.08,8.19-1.7,16.1-3.9,23.81-7.18,3.4-1.44,6.93-2.99,9.73-5.45,2.52-2.21,4.41-5.2,7.43-6.8l-1.69-.97c.1,3.29-2.37,5.89-3.84,8.63-.44.82.13,1.59.97,1.69,3.24.4,6.52-.74,9.45-1.99,3.62-1.55,7.02-3.57,10.33-5.69,6.72-4.32,14.04-8.78,18.73-15.4,2.41-3.4,3.27-8.28,6.6-10.96l-1.92-.8c.13,2.4-.2,4.91.6,7.22.25.73.97.99,1.65.67,4.69-2.17,8.08-6.67,10.77-10.91,3.23-5.08,5.75-10.61,7.98-16.19,2.14-5.36,4.18-10.85,5.15-16.55,1.28-7.54,1.19-15.28.02-22.82-.55-3.55-1.34-7.05-2.7-10.38-1.28-3.14-2.92-6.11-4.69-9-3.5-5.71-7.57-11.2-9.96-17.52-2.93-7.77-2.76-16.37-3.81-24.51-.55-4.29-.23-8.45.09-12.75.29-3.94.17-7.76-.65-11.64-2.56-12-9.89-24.33-21.53-29.37-1.42-.62-2.88-1.12-4.39-1.51-1.4-.36-2,1.81-.6,2.17,12.28,3.14,20.31,14.63,23.6,26.3.95,3.35,1.55,6.77,1.5,10.26-.05,4.18-.74,8.34-.64,12.52.05,2.05.39,4.07.62,6.11s.42,4.27.62,6.4c.37,3.98.75,8,1.61,11.91,2.88,13.08,13.82,22.36,17.41,35.13,2,7.09,2.51,14.76,2.02,22.09-.42,6.34-2.02,12.28-4.18,18.22-1.94,5.31-4.14,10.54-6.81,15.53-2.51,4.68-5.5,9.63-9.79,12.9-.86.66-1.79,1.21-2.77,1.67l1.65.67c-.73-2.12-.41-4.42-.52-6.62-.05-1.04-1.16-1.4-1.92-.8-2.8,2.25-3.96,6.06-5.58,9.13-2.07,3.93-5.41,7.09-8.91,9.76-2.83,2.16-5.84,4.13-8.81,6.09-3.14,2.07-6.34,4.06-9.72,5.71-3.18,1.56-6.87,3.13-10.5,2.69l.97,1.69c1.68-3.14,4.26-5.99,4.14-9.77-.03-.87-.93-1.37-1.69-.97-2.98,1.57-4.94,4.38-7.34,6.65-2.64,2.5-6.13,4.02-9.42,5.43-7.65,3.27-15.54,5.43-23.67,7.12l1.42,1.08c.26-2.6.69-5.17,1.39-7.69.25-.92-.81-1.81-1.65-1.27-8.22,5.24-14.87,12.54-22.43,18.61-1.13.91.47,2.49,1.59,1.59h0Z"></path><path class="cls-25" d="M575.26,660.25c-4.98-8.15-10.98-15.61-15.98-23.73-.53-.85-1.75-.64-2.06.27-.7,2.07-.45,6.45-3.61,6.2-1.41-.12-2.78-1.18-3.83-2.06-1.22-1.02-2.34-2.17-3.41-3.35-5.33-5.91-9.12-12.98-12.34-20.21-.41-.92-1.82-.59-2.06.27-.64,2.29-.98,4.63-1.27,6.98l1.12-1.12c-1.05-.03-2.1-.69-2.97-1.21-1.34-.79-2.6-1.71-3.83-2.66-2.32-1.79-4.7-3.68-6.73-5.8-2.75-2.89-4.8-6.39-6.48-9.99-1.78-3.8-3.08-7.75-3.65-11.91-.64-4.62-.59-9.3-1.05-13.93-.14-1.43-2.39-1.44-2.25,0,.44,4.4.44,8.83.96,13.22.53,4.43,1.74,8.58,3.55,12.65,1.69,3.81,3.77,7.5,6.53,10.66,2.16,2.47,4.83,4.57,7.41,6.59,2.34,1.83,5.38,4.52,8.52,4.62.66.02,1.05-.54,1.12-1.12.26-2.16.6-4.29,1.19-6.39l-2.06.27c3.01,6.76,6.52,13.4,11.31,19.08,1.75,2.08,3.61,4.11,5.8,5.74,1.96,1.47,4.58,2.66,6.97,1.38,2.59-1.39,2.4-4.88,3.22-7.31l-2.06.27c5.01,8.12,11.01,15.58,15.98,23.73.75,1.23,2.7.1,1.94-1.14h0Z"></path><path class="cls-25" d="M555.09,544.46c6.74,2.13,13.87,3.78,19.65,8.06,1.16.86,2.29-1.09,1.14-1.94-5.92-4.39-13.28-6.1-20.18-8.28-1.38-.44-1.98,1.73-.6,2.17h0Z"></path><path class="cls-25" d="M558.01,552.86c1.3-3.25,4.78-5.4,7.67-7.07,3.15-1.82,6.51-3.26,9.69-5.02,1.27-.7.13-2.65-1.14-1.94-3.4,1.88-6.98,3.4-10.32,5.39s-6.61,4.4-8.07,8.04c-.54,1.34,1.64,1.93,2.17.6h0Z"></path><path class="cls-25" d="M757.49,428.6c2.39-1.03,5.45-.5,7.9-.03,2.76.53,5.45,1.34,8.13,2.2,6.88,2.2,13.04,5.78,18.73,10.2,6.07,4.71,12.21,9.58,17.31,15.35,4.24,4.8,7.55,10.49,13,14.1,6.59,4.36,14.75,5.1,22.06,7.65l-.27-2.06c-1.67.87-3.23,1.92-4.77,3-.8.56-.69,1.74.27,2.06,1.03.33,2.14.21,3.2.12.54-.05,1.08-.1,1.63-.11.25,0,.5.02.75.02.16,0,.51.22.29-.04s-.11.45-.14.7c-.06.53-.16,1.05-.27,1.57-.17.85-.37,1.69-.59,2.52-.25.92.81,1.8,1.65,1.27.94-.59,1.94-1.06,2.89-1.63l-1.69-.97c-.2,3.94.02,7.89.39,11.81.2,2.05.64,3.95.97,5.97.23,1.43,2.4.82,2.17-.6-.31-1.96-.74-3.8-.93-5.81-.35-3.78-.55-7.58-.35-11.38.04-.85-.99-1.4-1.69-.97-.95.58-1.95,1.04-2.89,1.63l1.65,1.27c.3-1.1.55-2.23.75-3.36.16-.95.51-2.28,0-3.18-1.31-2.3-5.2-.38-7.17-1.02l.27,2.06c1.54-1.08,3.1-2.14,4.77-3,.92-.48.59-1.76-.27-2.06-6.78-2.37-14.23-3.12-20.51-6.79-5.83-3.41-9.21-9.45-13.56-14.38-5.21-5.89-11.48-10.84-17.68-15.64-5.72-4.43-11.93-8.09-18.84-10.32-3.07-.99-6.17-1.94-9.35-2.49-2.95-.51-6.11-.83-8.93.39-1.33.57-.18,2.51,1.14,1.94h0Z"></path><path class="cls-13" d="M518.83,266.29c-15.52-13.84-36.51-20.16-57.09-20.02-5.77.04-11.53.6-17.2,1.63-1.42.26-.82,2.43.6,2.17,19.51-3.54,40.6-1.2,58.22,8.18,4.99,2.66,9.66,5.87,13.88,9.64,1.08.96,2.67-.62,1.59-1.59h0Z"></path><path class="cls-13" d="M513.14,271.06c-15.38-7.92-33.86-10.64-50.95-8.35-1.41.19-1.43,2.44,0,2.25,16.7-2.24,34.77.3,49.81,8.04,1.29.66,2.42-1.28,1.14-1.94h0Z"></path><path class="cls-13" d="M508.26,274.75c-8.84-1.94-17.95-1.4-26.86-.28-1.42.18-1.44,2.43,0,2.25,8.69-1.1,17.63-1.69,26.26.2,1.41.31,2.01-1.86.6-2.17h0Z"></path><path class="cls-24" d="M274.53,155.53c-8.5,1.15-18.57-1.13-24.69-7.43-7.7-7.94-6-20.57-3.81-30.37,4.57-20.44,17.13-37.53,32.65-51.17,10.11-8.88,21.28-16.47,32.92-23.19l-2.05-2.05c-2.44,5.49-6.43,10.08-9.62,15.13-2.99,4.75-5.76,9.34-2.73,14.82.25.45.78.75,1.3.74,3.08-.07,5.92-.97,8.77-2.05,2.5-.94,5.05-2.05,7.77-1.93,5.26.24,10.56,3.76,15.81,1.42,2.7-1.21,3.77-3.55,5.05-6.06,1.42-2.81,2.75-5.71,4.57-8.29,3.9-5.54,10.37-9.02,15.89-12.71l-2.26-1.3c-.03.69-.03,1.37-.02,2.06.03,1.16,1.25,1.84,2.26,1.3,12.74-6.9,25.97-13.73,40.49-15.82,7.64-1.1,15.6-.93,23.3-1s15.75.09,23.61.4c9,.35,18,.9,26.99,1.51-.13-.98-.27-1.96-.4-2.95-2.19.38-4.4.77-6.63.87-.26.01-1.33-.15-1.54-.01.15-.1.24,1.88.47,2.18.1.13-.32.06-.09.09.76.11,2.08-.44,2.89-.49,1.64-.1,3.28-.01,4.9.25v-2.89c-18.38,3.32-36.22,10.01-52.08,19.91-5.44,3.4-11.21,7.35-14.83,12.76-3.46,5.17-2.77,11.24,2.57,14.85,7.06,4.76,16.87,1.22,24.16-1.07l-1.9-1.45c.8,5.97,4.12,11.69,10.3,13.27,6.3,1.61,12.52-.45,16.61-5.5,1.96-2.42,3.38-5.27,4.18-8.28.44-1.66.29-3.82,1.72-5,1.39-1.14,3.59-1.7,5.22-2.48,7.58-3.64,14.58-8.37,21.25-13.46,1.22-.93,2.86-2.61,4.6-2.12.54.15,1.32.83,1.81,1.13.96.58,1.92,1.17,2.9,1.73,3.44,2,7.08,3.91,10.97,4.82,4.17.97,8.73.96,12.99,1.05,4.48.09,8.97-.05,13.45-.3,17.9-1.02,35.62-3.66,53.58-2.34,8.62.63,17.17,2.32,25.23,5.5,4.29,1.69,8.41,3.83,12.31,6.28,1.84,1.15,3.6,2.79,5.7,3.37s4.67.78,6.44,2.36l1.82-2.36c-1.81-.87-3.63-1.73-5.5-2.44-.68-.26-1.62-.71-2.37-.46-.69.23-1.03.75-1.1,1.45-.11,1.08,1.12,1.61,1.91,1.98,1.9.89,3.91,1.57,5.91,2.21,1.87.6,2.56-2.21.8-2.89-5.39-2.11-11.92-3.45-17.61-1.8-6.98,2.02-13.94,4.04-21,5.78-13.94,3.44-28.01,6.28-42,9.49-12.65,2.9-25.33,5.98-37.55,10.39-6.97,2.52-16.18,5.68-19.54,12.95-1.94,4.19-.62,7.81.32,12.03,1.14,5.08.6,10.34-1.39,15.14-3.94,9.5-12.44,16.64-20.8,22.21-1.62,1.08-4.85,2.27-5.4,4.21-.85,2.99-.8,6.48-1.09,9.56-.3,3.24-.35,6.64-1.94,9.55-1.31,2.38-3.18,4.37-5.32,6.02-5.06,3.91-11.34,5.76-17.42,7.46-6.45,1.8-13.05,3.08-19.69,3.9-6.74.83-13.53,1.22-20.31,1.27-5.7.04-11.61.26-17.18-1.16-7.59-1.94-17.85-7.18-18.09-16.23-.06-2.42.65-4.73,1.72-6.88.4-.79.12-2.02-.9-2.2-1.71-.32-4.36.63-3.03,2.85,1.23,2.06,3.42.65,4.08-1,.32-.8-.36-1.59-1.05-1.85-2.16-.8-4.39-1.13-6.57-.22-2.65,1.11-3.97,3.68-5.91,5.65-4.05,4.11-9.55,7.03-15.32,7.74-3.09.38-6.36.28-9.48.39s-6.41.16-9.56-.36c-2.96-.49-6-1.45-8.42-3.29-2.62-1.99-2.99-4.21-.81-6.84.8-.96.32-2.56-1.06-2.56-1.51,0-7.38.53-5.07,3.56,1.57,2.06,4.82.49,6.13-1,.86-.98.28-2.52-1.06-2.56-3.52-.11-7.27-1.5-9.84-3.95-3.27-3.12-2.91-7-.51-10.57,1.08-1.61-1.52-3.11-2.59-1.51-2.94,4.38-3.29,9.55.38,13.6,3.1,3.42,8.01,5.29,12.56,5.43l-1.06-2.56c-.36.41-.73.64-1.18.94-.12.08-.67.05-.72.11.05-.05.03,1.83.03,1.83,0,0,.32-.14.35-.13.74.09,1.8-.19,2.57-.19l-1.06-2.56c-2.96,3.57-3.34,7.6.39,10.76,3.89,3.3,9.07,4.52,14.04,4.83,2.7.17,5.41.07,8.1-.05s5.43-.02,8.07-.35c4.87-.6,9.66-2.54,13.59-5.46,2.27-1.69,4.29-3.65,6.03-5.88,2.03-2.6,4.19-3.01,7.16-1.91-.35-.62-.7-1.23-1.05-1.85.35.62.7,1.23,1.05,1.85l-.9-2.2c-3.55,7.13-2.25,14.61,3.63,20.02,5.52,5.08,13.36,8,20.79,8.53,11.45.81,23.22.2,34.58-1.37,5.93-.82,11.82-1.99,17.59-3.58,5.16-1.43,10.6-2.96,15.23-5.69,4.27-2.51,8.19-5.93,10.27-10.51,1.23-2.72,1.35-5.84,1.63-8.78.33-3.4.59-6.8,1.14-10.17l-.69.9c9.97-6.01,20.23-13.64,25.62-24.26,2.61-5.16,3.82-10.9,3.08-16.67-.36-2.85-1.66-5.58-1.8-8.43-.1-2.25.6-4.38,1.96-6.17,2.91-3.83,7.81-6.04,12.15-7.79,5.59-2.26,11.34-4.11,17.14-5.77,16.32-4.66,32.95-8.06,49.5-11.74,9.42-2.09,18.82-4.28,28.12-6.84,2.26-.62,4.51-1.26,6.75-1.93,2.28-.68,4.44-1.46,6.83-1.57,4.31-.2,8.57.79,12.56,2.35l.8-2.89c-1.48-.48-2.95-.97-4.38-1.56-.39-.16-.78-.4-1.18-.52-1.1-.35.1-.71-.05.79l-1.1,1.45c-.78.26-.61-.11-.06.15.37.18.8.29,1.19.44,1.51.6,2.97,1.3,4.44,2s3.17-1.15,1.82-2.36c-2.93-2.6-6.97-2.34-10.12-4.49-3.27-2.22-6.69-4.22-10.25-5.93-6.66-3.21-13.74-5.43-21.01-6.7-16.78-2.92-33.77-1.43-50.61.05-8.67.76-17.37,1.46-26.08,1.34-4.43-.06-9.28.03-13.58-1.11-3.86-1.02-7.39-3.02-10.79-5.05-1.35-.81-3.1-2.38-4.68-2.58-1.23-.15-2.86.11-3.96.68-1.62.83-3.07,2.29-4.53,3.37-1.71,1.27-3.44,2.52-5.2,3.72-3.35,2.29-6.79,4.44-10.36,6.36-1.71.92-3.46,1.79-5.23,2.59-2.05.94-3.74,1.39-5.15,3.22-1.07,1.39-1.04,2.89-1.42,4.54-.41,1.8-1.05,3.54-1.93,5.17-1.68,3.07-4.23,5.81-7.57,7.06s-7.71.94-10.75-1.05-4.68-5.56-5.15-9.08c-.12-.91-.87-1.77-1.9-1.45-6.1,1.92-13.83,4.94-20.14,2.31-2.5-1.04-4.88-3.38-5.07-6.22-.16-2.36,1.16-4.61,2.55-6.41,3.68-4.76,9.03-8.28,14.11-11.37,5.74-3.5,11.74-6.6,17.91-9.27,10.38-4.49,21.3-7.69,32.41-9.7,1.42-.26,1.44-2.65,0-2.89-2.3-.38-4.63-.52-6.95-.25-1.19.14-3.05.28-3.83,1.36-1.14,1.58.6,2.65,2,2.75,2.88.21,5.96-.48,8.78-.97,1.75-.31,1.19-2.84-.4-2.95-16.21-1.11-32.44-1.99-48.69-1.92-7.8.03-15.79-.08-23.54.8-7.26.82-14.3,2.8-21.08,5.48-7.79,3.08-15.23,6.97-22.59,10.96l2.26,1.3c-.02-.69-.01-1.37.02-2.06.05-1.1-1.32-1.92-2.26-1.3-5.22,3.49-11.05,6.77-15.23,11.55-1.87,2.13-3.28,4.6-4.57,7.11-.68,1.32-1.33,2.66-2.01,3.99-.7,1.36-1.35,3.08-2.69,3.91-2.44,1.52-5.47.79-8.06.13-2.54-.64-5.13-1.48-7.77-1.46-5.61.04-10.37,3.87-16,4l1.3.74c-2.76-4.99,1.43-9.95,4.15-14.01s6.11-8.21,8.2-12.91c.58-1.3-.65-2.86-2.05-2.05-20.52,11.84-40.59,26.64-54,46.5-6.14,9.08-10.67,19.25-13.02,29.96-2.29,10.42-3.72,23.01,3.63,31.84,6.69,8.05,18.66,10.69,28.63,9.34,1.9-.26,1.09-3.15-.8-2.89h0Z"></path><path class="cls-7" d="M303.78,333.31c1.04-1.59,2.8-2.56,4.17-3.82,1.52-1.39,2.69-3.19,3.6-5.03,1.92-3.9,3.24-8.29,4.16-12.52,1.94-8.94,1.05-18.02-1.21-26.82-2.2-8.57-5.84-17.01-12.16-23.35-2.82-2.83-5.99-5.28-9.11-7.78s-6.16-5.31-9.11-8.15c-5.62-5.43-11.43-10.72-16.4-16.77-5-6.09-8.87-13.04-10.68-20.75-1.95-8.32-1.7-17,.82-25.17,1.26-4.1,3.06-8,5.26-11.69,2.12-3.56,4.47-6.9,7.73-9.49,3.1-2.46,6.67-4.28,10.13-6.15,3.69-2,7.19-4.17,10.53-6.71,3.67-2.79,7.3-5.45,11.33-7.72,3.98-2.24,7.99-4.43,11.82-6.93,1.81-1.18,3.56-2.45,5.26-3.79,1.51-1.2-.62-3.31-2.12-2.12-7.19,5.69-15.8,9.1-23.18,14.47-3.63,2.65-7.07,5.54-10.94,7.85-3.37,2.01-6.9,3.71-10.26,5.74-3.37,2.04-6.55,4.44-8.99,7.56-2.66,3.41-4.92,7.22-6.74,11.14-3.53,7.61-5.34,15.95-4.9,24.35.43,8.34,2.85,16.45,7.15,23.62,3.98,6.64,9.32,12.34,14.83,17.73,5.78,5.66,11.55,11.29,17.87,16.34,3.11,2.49,6.23,5.01,8.92,7.97,2.97,3.26,5.13,7.13,6.87,11.16,1.85,4.29,3.14,8.82,4.07,13.39.92,4.54,1.48,9.15,1.28,13.79-.2,4.6-1.19,9.09-2.62,13.46-1.28,3.91-2.64,8.02-5.9,10.76-1.48,1.24-3.01,2.3-4.08,3.94-1.06,1.62,1.54,3.13,2.59,1.51h0Z"></path><path class="cls-25" d="M761.92,612.08c3.88,4.26,9.61,6.03,15.17,6.66,6,.68,12.18.1,18.06-1.2,13.95-3.11,25.01-12.74,33.5-23.86,2.27-2.97,4.21-6.15,7.84-7.6,3.41-1.36,7.14-.92,10.59.05.5.14,1-.1,1.27-.52,1.36-2.09,1.57-4.63,2.74-6.8l-1.77.23c1.78,1.42,2.85,3.24,3.29,5.47.17.87,1.3,1.04,1.88.5,2.09-1.96,3.6-4.41,5.55-6.49l-1.88-.5c1.12,3.31-.69,7.14,1.79,10.07.37.43,1.23.44,1.59,0,1.59-1.95,2.84-4.07,3.77-6.42l-2.21-.3c1.09,8.97.5,18.27-2.53,26.83-3.17,8.94-9.7,15.96-16.41,22.45-3.56,3.44-7.37,6.68-11.66,9.19-3.21,1.88-6.7,3.33-10.18,4.61-7.74,2.84-15.89,4.57-24.13,4.83-11.64.37-23.13-2.25-33.62-7.26-1.3-.62-2.44,1.32-1.14,1.94,9.66,4.61,20.11,7.34,30.84,7.59,8.84.2,17.7-1.25,26.08-4.04,3.49-1.16,6.92-2.54,10.24-4.13,4.46-2.12,8.46-5.11,12.16-8.37,3.86-3.41,7.39-7.16,10.78-11.03,3.1-3.54,5.81-7.21,7.74-11.53,4.34-9.67,5.35-20.65,4.08-31.1-.15-1.27-1.73-1.51-2.21-.3-.78,1.96-1.86,3.79-3.2,5.42h1.59c-.99-1.17-.82-3.05-.79-4.47.03-1.54.08-3.12-.42-4.6-.26-.77-1.27-1.15-1.88-.5-1.95,2.08-3.46,4.54-5.55,6.49l1.88.5c-.51-2.56-1.81-4.83-3.87-6.47-.54-.43-1.39-.47-1.77.23-1.17,2.17-1.4,4.73-2.74,6.8l1.27-.52c-6.07-1.72-12.5-1.28-17.07,3.51-2.31,2.42-4.07,5.39-6.22,7.96-2.34,2.8-4.86,5.45-7.56,7.91-5.36,4.86-11.54,8.96-18.51,11.05-5.51,1.65-11.32,2.47-17.07,2.37-6.29-.11-13.31-1.4-17.73-6.27-.98-1.07-2.56.52-1.59,1.59h0Z"></path></g></svg> 