<?xml version="1.0" encoding="UTF-8"?> <svg xmlns="http://www.w3.org/2000/svg" viewBox="0 0 695 509"><defs><style> .cls-1 { fill: #fff; opacity: .38; } .cls-1, .cls-2, .cls-3, .cls-4, .cls-5, .cls-6, .cls-7, .cls-8, .cls-9 { stroke-width: 0px; } .cls-3 { opacity: .21; } .cls-4 { fill: #babab6; } .cls-5 { fill: #e02b07; } .cls-6 { fill: #0051e1; } .cls-7 { fill: #4c4c4c; } .cls-8 { opacity: .33; } .cls-10 { fill: none; stroke: #000; stroke-miterlimit: 10; stroke-width: 5px; } .cls-9 { fill: #588e3a; } </style></defs><g id="_Шар_5" data-name="Шар 5"><path class="cls-7" d="M334.62,52.19c-.12.31,4.88,377.31,1.38,381.81s-273.5,3.5-273.5,3.5l.61-390.34,271.51,5.03Z"></path><path class="cls-4" d="M151.53,171.59s12.06-9.22,12.77-9.4,102,31.53,102.85,31.17,15.84-21.77,15.84-21.77c0,0,42.06-1.63,42.04,2.89s-6.7,18.42-6.7,18.42l-22.39,33.11-.79,181.36-10.87,8.36h-133.91l1.16-244.14Z"></path><path class="cls-5" d="M300.99,89.74c-6.99.26-27.84-5.32-34.42,9.97s-5.34,35.47,4.04,42.38,26.28,16.56,31.33,18.23,23.61,5.33,27.33,0,15.72-25.33,10.72-30.33-39.01-40.26-39.01-40.26Z"></path><path class="cls-9" d="M356.08,201.36l-9.94-16.01s-14.71,11.58-37.42,5.11-26.72-15.47-28.72-21.47,2.19-18,2.19-18c0,0,6.03,1.62,8.42,1.31s13.39,3.69,13.39,3.69c0,0,14.66-3.42,14.33-22.71s-7.6-32-12.47-35.14-19.25-8.24-19.55-9.19,11.48-9.07,24.09-9.51,14.63,1.1,14.63,1.1c0,0,9.39-4.23,22.68,2.11s17.6,7.66,17.6,7.66c0,0,.76-2.21,13.23,4.73s17.3,28.29,16.88,28.12,1.2,15.24,6.39,24.53,6.9,14.72,6.9,14.72l-52.63,38.93Z"></path><path class="cls-6" d="M410,151s-29,14-43,34-23.79,46.11-23.79,46.11c0,0,8.16,37.24,51.48,80.57s87.79,73.23,93.55,76.78,9.76,8.82,9.76,8.82c0,0,6.17,12.1,57.58,20.91s75.69,3.68,75.69,3.68l7.84-1.29s3.23-140.54,2.55-139.56-59.9,2.42-72.79,1.7-14.89-3.72-14.89-3.72c0,0-43-26-77-57s-67-71-67-71Z"></path><path class="cls-8" d="M240.66,219.12s2.71,16.89-.48,17.88-16.89,19.54-16.89,19.54l1.81-37.42h15.56Z"></path><path class="cls-8" d="M243.59,307.44c.41,1.56-2.21,61.87-2.21,61.87l-19.07.53,1-33.06,20.29-29.34Z"></path><path class="cls-8" d="M164.3,162.18c-.3,5.82-2.27,242.9-2.27,242.9l133.13,2.28-15.65,9.72s-140.72,15.45-140.61,11.68,6.98-247.3,6.98-247.3l18.43-19.29Z"></path><path class="cls-8" d="M280.93,148.98c-12.93-14.98-13.01-46.87-1.47-53.93s18.84-5.75,15.69-7.9,5.25-8.32,26.55,9.26,16.65,38.55,31.98,52.57,26.84,19.04,28.58,20.03-2.54-.53-1.9,18.73,146.64,131.26,140.64,111.26,0-41,4-24,18.81,59.91,20.4,60.46-9.32-54.02-5.36-52.74,6.96,15.28,15.96,29.28,83.88-7.12,83.94-4.56,2.06,108.1.56,106.83-85.5,5.73-136.5-24.27-116-89-135-120-22.86-46.11-22.86-46.11l14.55-29.06-9.58-18.72s-18.82,17.1-40.72,9.24-27.52-16-28.21-22.93-1.26-13.44-1.26-13.44Z"></path><path class="cls-8" d="M223,275c-.24-2.56,64-96,61.28-97.5-.77-.43,6.02,6.21,10.87,7.86s26.51,5.45,23.18,7.55-95.42,141.95-95.42,141.95l.09-58.85s.7,6.53,0-1Z"></path><path class="cls-3" d="M310.03,191.05c-1.03,1.95-88.03,126.48-88.03,127.71s1.6,19.8,1.3,18.02,95.03-143.88,95.03-143.88l-7.93-.34-.37-1.51Z"></path><path class="cls-1" d="M402.36,152.05c-4.87-7.99-5.48-17.57-7.87-26.42-2.52-9.33-7.3-17.9-13.12-25.55-2.9-3.81-6.42-7.79-11.41-8.57-1.07-.17-2.15.27-2.46,1.4-.26.95.32,2.29,1.4,2.46,4.02.63,6.81,3.82,9.15,6.91,2.8,3.69,5.35,7.58,7.53,11.68,2.15,4.06,3.87,8.31,5.06,12.74,1.18,4.37,1.93,8.84,2.95,13.25,1.14,4.92,2.67,9.79,5.32,14.13,1.34,2.19,4.8.19,3.45-2.02Z"></path><path class="cls-1" d="M634.1,282.19c-13.48,3.52-27.44.12-41.09-.13-7.1-.13-14.01,1.3-21.08,1.58-3.37.14-6.68-.12-9.92-1.11-2.72-.83-5.28-2.05-7.8-3.36-5.49-2.85-10.92-6.18-17.05-7.41-.13-.4-.23-.81-.37-1.2-.63-1.83-2.99-1.68-3.74-.44-.4-.87-.84-1.73-1.33-2.55-2.89-4.8-7.46-8.12-12.17-10.99-5.1-3.11-10.22-6.13-15.19-9.45-4.92-3.3-9.73-6.76-14.42-10.37-19.14-14.71-36.38-31.76-52.81-49.39-9.14-9.81-18.04-19.83-26.92-29.87.16-.03.32-.07.48-.11,2.53-.49,1.46-4.34-1.06-3.86-10.67,2.05-20.19,8.66-25.98,17.83-1.38,2.18,2.08,4.19,3.45,2.02,4.48-7.1,11.42-12.34,19.35-14.9-.01.46.13.94.52,1.37,16.01,18.08,32.07,36.17,49.45,52.97,17.32,16.74,36.02,32.24,56.75,44.61,5.16,3.08,10.99,6.04,14.45,11.15,3.54,5.22,4.59,11.66,8.55,16.66,1.05,1.33,3.57.25,3.41-1.41-.24-2.57-.65-5.12-1.22-7.62,4.56,1.34,8.73,3.74,12.95,5.96,5.7,3.01,11.47,5.37,18.01,5.51,7.15.15,14.2-1.56,21.36-1.62,7.03-.06,14.01.81,21.01,1.33,7.85.59,15.8.68,23.47-1.33,2.49-.65,1.43-4.51-1.06-3.86Z"></path><path class="cls-1" d="M292.17,336.6c-.3-11-.78-22.01-.64-33.02.14-10.94,1.1-21.85,1.73-32.77.71-12.19.93-24.41-.75-36.54-.15-1.07-1.52-1.66-2.46-1.4-1.15.32-1.55,1.39-1.4,2.46,2.98,21.53-.48,43.24-1.06,64.81-.29,10.9.17,21.81.47,32.71.3,10.99.6,21.99.91,32.98.34,12.49.69,24.99,1.03,37.48.07,2.57,4.07,2.58,4,0-.61-22.24-1.22-44.47-1.83-66.71Z"></path><path class="cls-1" d="M367.44,98.05c-4.89-4.81-10.04-9.45-15.55-13.54-2.65-1.97-5.51-3.34-8.82-3.74-3.45-.41-6.92.22-10.3.84-2.53.46-1.46,4.32,1.06,3.86,2.95-.54,6.01-1.11,9.01-.72,2.93.37,5.38,1.93,7.66,3.71,4.95,3.84,9.64,8.03,14.1,12.42,1.84,1.81,4.67-1.02,2.83-2.83Z"></path><path class="cls-1" d="M355.13,110.93c-2.52-2.7-4.07-6.08-5.84-9.28-1.77-3.2-3.9-6.16-6.58-8.67-5.51-5.16-12.54-8.41-19.84-10.12-4.64-1.09-9.41-1.61-14.17-1.85-2.57-.13-2.57,3.87,0,4,7.71.39,15.61,1.57,22.61,5,6.17,3.02,11.09,7.48,14.43,13.49,1.99,3.57,3.75,7.25,6.57,10.27,1.76,1.88,4.59-.95,2.83-2.83Z"></path><path class="cls-1" d="M266.27,193.15c-27.47-2.87-52.61-15.41-79.01-22.61-7.49-2.04-15.08-3.62-22.79-4.52-1.07-.13-2,1.01-2,2,0,1.19.92,1.87,2,2,27.43,3.21,52.51,15.8,78.98,22.82,7.49,1.99,15.1,3.5,22.81,4.31,1.08.11,2-1,2-2,0-1.17-.92-1.89-2-2Z"></path></g><g id="_Шар_4" data-name="Шар 4"><path class="cls-2" d="M334.48,190.79c0,31.76.01,63.51.01,95.27,0,31.55,0,63.1,0,94.66,0,17.76,0,35.52,0,53.28,0,1.93,3,1.93,3,0,0-31.71,0-63.41,0-95.12,0-31.57,0-63.13,0-94.7,0-17.8,0-35.59,0-53.39,0-1.93-3-1.93-3,0h0Z"></path><path class="cls-2" d="M333.17,52.59c1.41,9.15,1.32,18.49,1.04,27.72-.06,1.93,2.94,1.93,3,0,.29-9.51.31-19.09-1.14-28.52-.29-1.9-3.18-1.09-2.89.8h0Z"></path><path class="cls-2" d="M162.82,162.7c-.01,7.51-.4,15.03-.63,22.53-.35,11.06-.71,22.12-1.08,33.19-.14,4.2-.37,8.41-.38,12.62-.01,5.05.02,10.1.04,15.15.03,8.44.08,16.89.12,25.33.05,10.53.1,21.06.14,31.58.04,11.04.08,22.08.1,33.11.02,10.26.03,20.51.01,30.77-.02,8.01-.04,16.02-.14,24.03-.05,4.33,0,8.71-.35,13.03-.02.21-.04.41-.06.62-.01.14.1-.44-.02.02-.46,1.88,2.43,2.68,2.89.8.26-1.08.24-2.27.29-3.37.09-2.19.14-4.38.18-6.57.13-7.21.16-14.42.19-21.63.04-9.82.03-19.64.02-29.45-.01-11.01-.05-22.01-.09-33.02s-.09-21.54-.14-32.32c-.04-9.15-.09-18.3-.13-27.45-.03-6.03-.06-12.06-.06-18.09,0-3.13.08-6.25.18-9.38.35-10.18.68-20.37,1.01-30.55.3-9.45.63-18.9.85-28.35.02-.87.05-1.74.05-2.61,0-1.93-3-1.93-3,0h0Z"></path><path class="cls-2" d="M165.07,163.87c6.33,1.04,12.61,2.61,18.64,4.83,5.53,2.04,10.98,4.32,16.63,6.03,3.57,1.08,7.16,2.12,10.75,3.18,13.26,3.92,26.53,7.84,39.72,11.99,2.7.85,5.41,1.71,8.09,2.63.85.29,1.7.58,2.53.91.15.06.29.12.44.18.34.13-.33-.17.05.02.15.07.3.13.43.23,1.6,1.09,3.1-1.5,1.51-2.59-.94-.64-2.25-.96-3.32-1.34-2.19-.77-4.4-1.48-6.61-2.18-6.46-2.06-12.95-4.03-19.44-5.99-10.93-3.3-21.89-6.5-32.84-9.76-5.09-1.51-10.03-3.48-14.98-5.37-6.75-2.57-13.69-4.48-20.82-5.65-1.89-.31-2.7,2.58-.8,2.89h0Z"></path><path class="cls-2" d="M163.54,160.89c-3.99,2.67-8.2,5.14-11.45,8.74-.54.6-.59,1.53,0,2.12.55.55,1.58.6,2.12,0,3.08-3.42,7.06-5.73,10.84-8.27.67-.45.96-1.32.54-2.05-.39-.67-1.38-.99-2.05-.54h0Z"></path><path class="cls-2" d="M151.39,169.98c-.35.81-.33,1.75-.38,2.62-.08,1.61-.13,3.22-.18,4.83-.16,5.76-.26,11.53-.35,17.29-.13,8.46-.24,16.92-.34,25.38-.12,10.32-.22,20.64-.31,30.96-.1,11.31-.2,22.61-.28,33.92-.09,11.55-.17,23.09-.25,34.64-.07,10.91-.14,21.83-.2,32.74-.05,9.42-.1,18.83-.14,28.25-.03,7.16-.06,14.32-.08,21.48-.01,4.03-.03,8.06,0,12.09,0,.41,0,.83.01,1.24.03,1.93,3.03,1.93,3,0-.05-3.14-.02-6.28-.01-9.41.01-6.41.04-12.83.06-19.24.04-8.95.08-17.91.13-26.86.06-10.55.12-21.09.18-31.64.07-11.46.15-22.93.24-34.39s.17-22.79.27-34.19c.09-10.67.19-21.34.31-32,.1-8.96.2-17.93.33-26.89.09-6.56.19-13.13.35-19.69.08-3.25.11-6.5.35-9.74.03-.36.12-.39,0-.02.06-.18.15-.44-.11.15.75-1.75-1.83-3.28-2.59-1.51h0Z"></path><path class="cls-2" d="M162.34,406.09c1.38.77,3.4.66,4.92.77,3.26.23,6.53.33,9.8.43,10.33.31,20.66.41,30.99.5,12.35.1,24.7.14,37.05.14,10.82,0,21.65-.02,32.47-.06,5.73-.02,11.46-.02,17.19-.11.17,0,.35,0,.52-.01,1.93-.05,1.93-3.05,0-3-4.79.13-9.59.09-14.37.11-10.32.05-20.64.08-30.96.08-12.31,0-24.62-.02-36.93-.1-10.77-.07-21.53-.17-32.3-.44-3.7-.09-7.4-.2-11.1-.39-1.24-.06-2.49-.14-3.73-.25-.44-.04-.87-.09-1.31-.14-.35-.04.33.05.1.01-.09-.01-.18-.02-.27-.04-.13-.03-.27-.05-.4-.07-.39-.07-.48-.19-.17-.01-1.69-.94-3.2,1.65-1.51,2.59h0Z"></path><path class="cls-2" d="M147.94,416.97c.24,1.64,3.47,1.32,4.59,1.36,3.1.11,6.2.14,9.29.17,10.46.1,20.92.09,31.38.07,12.81-.02,25.63-.08,38.44-.15,11.37-.06,22.73-.14,34.1-.22,5.86-.04,11.72,0,17.58-.13.16,0,.31,0,.47,0,1.93,0,1.93-3,0-3-4.87,0-9.73.07-14.6.11-10.64.08-21.27.15-31.91.21-12.71.07-25.43.14-38.14.17-10.99.03-21.97.05-32.96-.02-5.45-.03-11.01.17-16.44-.37.72.07.29.07.16.01.15.06.85.45.92.99-.28-1.9-3.17-1.09-2.89.8h0Z"></path><path class="cls-2" d="M294.45,405.75c-.17.26-.34.52-.52.77-.04.05-.3.4-.15.21-.1.13-.21.26-.32.39-.41.5-.85.98-1.31,1.44s-.92.88-1.41,1.3c-.23.2-.46.39-.69.58-.05.04-.11.09-.16.13-.03.02-.25.2-.12.09.13-.1-.05.04-.06.05-.07.05-.14.11-.21.16-1.53,1.15-3.17,2.17-4.88,3.04-.25.13-.51.26-.77.38-.07.03-.15.06-.22.1-.09.05.46-.15.25-.11l1.16.15h0c.1.78.2,1.57.3,2.36-.35.37-.36.24-.13.15.16-.07.32-.14.49-.21.74-.32.91-1.41.54-2.05-.45-.77-1.3-.86-2.05-.54-.33.14-.71.27-.97.54-.61.64-.61,1.94.3,2.36.84.38,1.43.06,2.16-.29.69-.34,1.37-.71,2.04-1.1,2.19-1.28,4.29-2.79,6.13-4.54,1.2-1.15,2.29-2.43,3.18-3.82.44-.68.14-1.66-.54-2.05-.73-.42-1.61-.15-2.05.54h0Z"></path><path class="cls-2" d="M240.66,219.4c-4.95-1.43-10.26-.23-15.19-1.72-.83-.25-1.56.31-1.85,1.05-1.45,3.76-.56,7.96-.23,11.84.4,4.71.05,9.55-.13,14.27-.38,10.02-.85,20.02-1.4,30.02-.27,4.93-.48,9.86-.5,14.8s.2,9.97-.04,14.97-.66,9.89-.79,14.84.2,9.95.32,14.92c.13,5.54.38,11.08.52,16.62s.08,11.19.08,16.78c0,1.93,3,1.93,3,0,0-4.94.06-9.89-.03-14.83s-.36-9.77-.48-14.66-.39-9.96-.44-14.94.3-9.74.6-14.6c.61-9.9.1-19.81.56-29.72s1.05-19.87,1.44-29.82c.21-5.47.48-10.94.41-16.41-.05-4.33-1.6-9.11.01-13.3l-1.85,1.05c4.94,1.5,10.24.3,15.19,1.72,1.86.53,2.65-2.36.8-2.89h0Z"></path><path class="cls-2" d="M222.66,371.34c3.1,0,6.2-.02,9.3-.14s6.26-.12,9.24-.73c1.41-.29,1.82-1.33,2.08-2.63.82-4.05.88-8.32,1.07-12.43.55-12.21.65-24.44.71-36.66.02-3.77.03-7.54.02-11.31,0-1.93-3-1.93-3,0,.02,8.6-.03,17.2-.15,25.8-.09,6.17-.21,12.35-.43,18.52-.17,4.59-.33,9.21-.87,13.78,0,.08-.02.17-.03.25-.05.41.05-.32-.01.08-.03.18-.05.36-.08.54-.05.31-.1.61-.17.92-.06.24-.13.47-.2.7s.24-.32.03-.08c-.24.27.22-.2.1-.12.38-.27.89-.36-.04-.25-.81.09-1.62.18-2.43.25-1.62.15-3.23.25-4.85.32-3.42.16-6.85.18-10.28.19-1.93,0-1.93,3,0,3h0Z"></path><path class="cls-2" d="M226.01,257.97c4.11-6.36,9.14-12.05,13.78-18.01,3.98-5.11,7.5-10.54,11.1-15.91,7.44-11.08,14.86-22.18,22.04-33.44,3.77-5.92,7.49-11.89,11.01-17.97.97-1.67-1.62-3.19-2.59-1.51-6.5,11.21-13.58,22.09-20.71,32.91-3.66,5.54-7.35,11.07-11.05,16.58s-6.94,10.65-10.76,15.71c-5.1,6.74-10.81,13.01-15.41,20.12-1.05,1.63,1.54,3.13,2.59,1.51h0Z"></path><path class="cls-2" d="M224.06,318.27c1.38-2.09,3.21-3.86,4.97-5.63s2.85-4.3,4.13-6.44c2.66-4.44,5.39-8.84,8.19-13.19,5.46-8.5,11.16-16.85,16.97-25.12,11.47-16.31,23.41-32.28,34.82-48.63,6.41-9.19,12.65-18.5,18.55-28.03,1.02-1.65-1.57-3.15-2.59-1.51-10.49,16.94-22.06,33.16-33.72,49.3-11.78,16.29-23.65,32.54-34.62,49.39-3.11,4.78-6.16,9.6-9.11,14.48-.77,1.27-1.52,2.53-2.28,3.81s-1.43,2.73-2.47,3.83c-1.9,2.01-3.9,3.91-5.44,6.24-1.06,1.62,1.53,3.12,2.59,1.51h0Z"></path><path class="cls-2" d="M317.03,191.9c-12.67,18.67-25.17,37.45-37.55,56.3-12.55,19.12-24.98,38.31-37.34,57.54-6.68,10.39-13.11,20.91-20.53,30.8-1.16,1.55,1.44,3.04,2.59,1.51,3.11-4.14,6.19-8.3,8.95-12.68,3.08-4.88,6.18-9.73,9.3-14.59,6.23-9.7,12.48-19.39,18.74-29.06,12.32-19.02,24.73-37.99,37.29-56.86,7-10.52,14.04-21.01,21.14-31.46,1.09-1.6-1.51-3.1-2.59-1.51h0Z"></path><path class="cls-2" d="M239.64,221.14c-.02,4.9-1.25,9.75-.88,14.67.06.81.65,1.5,1.5,1.5.76,0,1.56-.69,1.5-1.5-.37-4.91.86-9.76.88-14.67,0-1.93-2.99-1.93-3,0h0Z"></path><path class="cls-2" d="M266.09,97.75c-3.45,8.31-4.99,17.46-3.82,26.42,1.06,8.16,4.28,16.39,10.09,22.35,2.52,2.58,5.7,4.87,9.32,5.51s7.09-.36,9.93-2.52c5.44-4.15,7.47-11.33,9.14-17.65,1.26-4.77,1.98-9.59,1.65-14.53-.35-5.19-1.62-10.25-2.91-15.27-.48-1.87-3.38-1.08-2.89.8,2.08,8.09,3.84,16.15,2.16,24.49-.66,3.25-1.57,6.52-2.64,9.66-.97,2.82-2.2,5.69-4.12,8s-4.66,4.12-7.75,4.24c-3.26.12-6.24-1.58-8.59-3.71-5.57-5.03-8.76-12.36-10.1-19.63-1.69-9.21-.13-18.76,3.43-27.34.74-1.78-2.16-2.56-2.89-.8h0Z"></path><path class="cls-2" d="M268.59,100.11c1.33-3.82,5.68-5.87,9.27-6.95,4.5-1.36,9.54-1.75,14.14-.67,2.09.49,4.19,1.29,5.75,2.81,1.39,1.34,3.51-.77,2.12-2.12-3.59-3.48-9.12-4.35-13.92-4.27-5.27.09-11.01,1.31-15.4,4.36-2.19,1.52-3.97,3.49-4.86,6.04-.64,1.83,2.26,2.61,2.89.8h0Z"></path><path class="cls-2" d="M291.78,91.77c9.57,3.8,17.84,10.19,27.37,14.08,1.79.73,2.56-2.17.8-2.89-9.53-3.88-17.8-10.27-27.37-14.08-1.79-.71-2.57,2.19-.8,2.89h0Z"></path><path class="cls-2" d="M279.27,150.48c3.81.34,7.57,1.28,11.22,2.39s7.25,2.43,10.71,4.05c1.74.81,3.26-1.77,1.51-2.59-7.31-3.42-15.37-6.13-23.44-6.85-1.92-.17-1.91,2.83,0,3h0Z"></path><path class="cls-2" d="M280.96,150.57c-.14-.29-.2-.66-.19-.3h-3c.22,3.51-.6,6.94-.55,10.44.05,3.16.95,6.28,2.14,9.2,2.26,5.56,6.09,9.63,11.06,12.9,5.73,3.77,11.85,7.07,18.37,9.26s12.95,2.84,19.65,1.66c7.07-1.24,14.29-3.87,20.03-8.25,1.51-1.16.02-3.76-1.51-2.59-4.86,3.71-10.69,6.03-16.61,7.4s-12.2,1.38-18.32-.35-12.2-4.77-17.75-8.21c-4.68-2.9-8.82-6.07-11.34-11.1-1.44-2.88-2.6-6.26-2.72-9.49-.13-3.64.77-7.21.54-10.86-.12-1.91-3.04-1.95-3,0,.01.73.29,1.18.6,1.81.86,1.73,3.45.21,2.59-1.51h0Z"></path><path class="cls-2" d="M287.07,88.88c4.88-3.61,10.39-6.16,16.37-7.28s11.59-.8,17.24.36,10.5,3.01,15.13,6.05c4.27,2.8,8.01,6.38,11.16,10.39,3.66,4.64,6.55,9.91,8.68,15.4.69,1.78,3.59,1.01,2.89-.8-4.05-10.42-10.56-20-19.73-26.56-9.54-6.82-22.19-9.65-33.78-8.11-7.09.94-13.74,3.71-19.48,7.96-1.53,1.14-.04,3.74,1.51,2.59h0Z"></path><path class="cls-2" d="M297.77,94.24c1.53,4.12,5.78,6.37,8.89,9.17,1.86,1.67,3.01,3.63,4.2,5.82,1.45,2.67,2.77,5.43,3.86,8.27,2.01,5.25,3.28,10.88,3.06,16.53-.19,4.86-1.59,10.17-4.79,13.95-1.43,1.69-3.06,3.25-4.82,4.59-1.35,1.03-3.23,2.5-5.04,2.34-1.92-.16-1.91,2.84,0,3s3.77-.87,5.28-1.86c1.87-1.22,3.58-2.7,5.15-4.28,3.54-3.58,5.77-8.11,6.69-13.06,1.08-5.82.44-11.81-1.14-17.47-.85-3.04-2.01-6-3.32-8.87s-2.66-5.69-4.41-8.22c-1.53-2.21-3.71-3.83-5.79-5.49-1.77-1.41-4.11-3.02-4.93-5.23-.67-1.79-3.57-1.02-2.89.8h0Z"></path><path class="cls-2" d="M325.02,82.05c2.5.21,4.91-.34,7.38-.64s4.93-.04,7.37.51c4.14.93,8.31,2.25,12.19,3.99,7.09,3.17,12.86,8.07,17.13,14.56,1.06,1.61,3.65.11,2.59-1.51-3.52-5.36-8.01-9.94-13.54-13.23-2.71-1.61-5.6-2.9-8.55-3.99-3.5-1.29-7.16-2.45-10.85-3.07-2.19-.37-4.37-.5-6.58-.22-2.38.3-4.73.81-7.14.61-1.92-.16-1.91,2.84,0,3h0Z"></path><path class="cls-2" d="M365.3,91.82c12.66-.28,20.65,12.54,25.22,22.69,1.33,2.95,2.46,5.98,3.45,9.06.59,1.83,3.48,1.05,2.89-.8-1.96-6.11-4.5-12.1-7.84-17.59s-7.68-10.81-13.45-13.88c-3.17-1.69-6.68-2.57-10.27-2.49-1.93.04-1.93,3.04,0,3h0Z"></path><path class="cls-2" d="M345.38,186.65c5.04,3.58,7.05,10.05,9.4,15.47.32.74,1.41.91,2.05.54.77-.45.86-1.31.54-2.05-2.62-6.04-4.89-12.58-10.48-16.55-.66-.47-1.67-.12-2.05.54-.44.75-.12,1.58.54,2.05h0Z"></path><path class="cls-2" d="M408.91,153.77c16.85,20.19,35.56,38.72,54.45,56.98,18.64,18.02,38,35.39,59.04,50.58,11.87,8.57,24.68,15.69,37.29,23.09,1.67.98,3.18-1.61,1.51-2.59-11.2-6.57-22.56-12.89-33.27-20.25s-20.84-15.49-30.7-23.9c-19.69-16.8-38.31-34.94-56.43-53.41-10.31-10.51-20.34-21.31-29.78-32.62-1.24-1.48-3.35.65-2.12,2.12h0Z"></path><path class="cls-2" d="M393.55,124.4c2.81,9.46,3.95,19.77,9.15,28.36,1,1.65,3.59.14,2.59-1.51-5.05-8.34-6.11-18.44-8.85-27.64-.55-1.85-3.44-1.06-2.89.8h0Z"></path><path class="cls-2" d="M392.95,64.88c5.87,8.91,9.74,18.89,13.84,28.69s8.49,20.09,12.35,30.29c2.21,5.84,4.27,11.73,6.12,17.7.57,1.84,3.46,1.05,2.89-.8-3.29-10.64-7.29-21.04-11.52-31.35-4.16-10.14-8.28-20.34-12.73-30.36-2.41-5.42-5.09-10.73-8.36-15.7-1.06-1.61-3.66-.1-2.59,1.51h0Z"></path><path class="cls-2" d="M407.27,52.4c2.87,7.14,5.64,14.32,8.48,21.47s5.7,13.95,8.47,20.95c5.55,13.98,10.52,28.18,16.08,42.16,3.11,7.8,6.18,15.64,8.42,23.75.51,1.86,3.41,1.07,2.89-.8-1.98-7.18-4.62-14.16-7.36-21.08s-5.37-13.64-7.9-20.53c-5.25-14.29-10.98-28.36-16.62-42.49-3.22-8.06-6.33-16.16-9.56-24.22-.71-1.77-3.61-1-2.89.8h0Z"></path><path class="cls-2" d="M295.21,226.78c-.11-.18,0-.05,0,.05.01.24,0,.48,0,.71-.03.56-.12,1.12-.22,1.68-.21,1.2-.47,2.38-.65,3.59-.07.48-.12.95-.15,1.43-.07,1.08-.1,2.16-.13,3.24-.11,3.99-.15,7.97-.19,11.96-.14,13.28-.17,26.56-.2,39.85-.03,16.26-.03,32.52-.02,48.79.01,14.49.04,28.98.07,43.47.02,7.94.04,15.89.05,23.83,0,.28,0,.57,0,.85,0,1.93,3,1.93,3,0,0-6.87-.03-13.75-.05-20.62-.03-14.01-.06-28.03-.07-42.04-.02-16.43-.02-32.86,0-49.28.02-13.83.05-27.66.17-41.49.04-4.48.08-8.97.18-13.45.06-2.61.08-5.16.57-7.73.35-1.85,1.26-4.6.21-6.35-.99-1.65-3.59-.15-2.59,1.51h0Z"></path><path class="cls-2" d="M409.6,149.55c-2.91.59-5.62,2.08-8.13,3.61-2.85,1.75-5.55,3.74-8.21,5.77-6,4.59-11.8,9.42-17.18,14.72-10.34,10.19-19.62,21.96-26.19,34.95-3.56,7.04-6.35,14.59-7.01,22.5-.16,1.92,2.84,1.91,3,0,.55-6.65,2.82-13.11,5.68-19.11,3.05-6.39,6.84-12.43,11.01-18.15,8.54-11.71,18.88-21.96,30.3-30.85,2.82-2.19,5.66-4.37,8.66-6.32,2.72-1.78,5.65-3.58,8.88-4.24,1.89-.39,1.09-3.28-.8-2.89h0Z"></path><path class="cls-2" d="M341.76,229.75c3.45,8.48,5.77,17.39,9.26,25.85,2.05,4.97,4.66,9.68,7.53,14.22,7.4,11.72,16.32,22.49,25.59,32.76,10.99,12.18,22.71,23.7,34.86,34.73,12.27,11.14,25.02,21.77,38.25,31.75,11.52,8.69,23.42,16.98,36.01,24.06,1.32.74,2.65,1.47,3.99,2.18,1.7.91,3.22-1.68,1.51-2.59-12.27-6.52-23.85-14.34-35.04-22.56-13.13-9.64-25.75-19.97-37.93-30.79-12.26-10.88-24.09-22.27-35.27-34.27-9.64-10.36-18.93-21.18-26.85-32.93-3.1-4.59-6-9.35-8.4-14.35-3.53-7.38-5.74-15.35-8.44-23.05-.68-1.95-1.39-3.89-2.17-5.81-.72-1.76-3.62-.99-2.89.8h0Z"></path><path class="cls-2" d="M529.35,326.7c-.17,7.55.78,15.14,2.27,22.53,1.59,7.9,3.86,15.71,6.96,23.15,1.58,3.79,3.37,7.49,5.53,10.99,1.01,1.64,3.61.14,2.59-1.51-3.87-6.28-6.63-13.19-8.82-20.21-2.34-7.5-4.05-15.25-4.94-23.07-.45-3.94-.68-7.91-.59-11.88.04-1.93-2.96-1.93-3,0h0Z"></path><path class="cls-2" d="M493.79,395.17c12.4,13.5,30.23,19.09,47.76,22.29,9.05,1.65,18.24,2.48,27.27,4.23,11.6,2.24,23.4,3.47,35.21,3.54,13.19.08,26.37-1.29,39.29-3.95,1.89-.39,1.09-3.28-.8-2.89-22.62,4.67-46,5.07-68.77,1.17-9.26-1.59-18.57-2.81-27.84-4.36-8.71-1.46-17.41-3.31-25.71-6.39-9.17-3.41-17.64-8.51-24.29-15.75-1.31-1.42-3.43.7-2.12,2.12h0Z"></path><path class="cls-2" d="M563.02,283.78c19.89.55,39.8.69,59.69-.21,5.75-.26,11.49-.61,17.23-1.04,1.91-.15,1.93-3.15,0-3-19.85,1.51-39.77,1.88-59.67,1.62-5.75-.08-11.5-.2-17.25-.36-1.93-.05-1.93,2.95,0,3h0Z"></path><path class="cls-2" d="M538.6,288.04c3.34,19.05,7.49,38.01,9.2,57.3.47,5.26.74,10.55.71,15.83-.01,1.93,2.99,1.93,3,0,.11-19.57-3.57-39.01-7.13-58.17-.97-5.25-1.96-10.5-2.88-15.76-.33-1.9-3.22-1.09-2.89.8h0Z"></path></g><g id="_Шар_6" data-name="Шар 6"><rect class="cls-10" x="62.5" y="51.5" width="578" height="386"></rect></g></svg> 