<?xml version="1.0" encoding="UTF-8"?> <svg xmlns="http://www.w3.org/2000/svg" width="135" height="356" viewBox="0 0 135 356" fill="none"><path d="M92.18 91.48C93.32 91.52 95.79 101.33 96.05 109.42C96.31 117.51 91.61 123.46 91.96 127.98C92.31 132.5 110.98 144.13 117.14 157.82C123.31 171.51 118.25 313.35 115.78 318.43C113.31 323.51 123.14 341.49 123.73 345C124.32 348.51 120.82 349.01 120.82 349.01C120.82 349.01 32.32 350.51 23.82 350.01C15.32 349.51 9.90999 351.34 13.61 343.42C17.31 335.5 20.32 328.51 20.32 328.51C20.32 328.51 16.42 168.47 19.37 158.99C22.32 149.51 39.04 140.4 42.68 133.45C46.32 126.5 40.55 117.33 40.93 109.42C41.31 101.51 46.1 89.32 46.1 89.32C46.1 89.32 48.48 41.56 48.4 32.54C48.32 23.52 73.61 40.75 75.46 44.13C77.31 47.51 92.17 91.47 92.17 91.47L92.18 91.48Z" fill="#0051E1"></path><path d="M25.89 196.51C25.33 200.51 33.41 301.35 30.37 318.43C27.33 335.51 34.52 331.53 66.92 334.02C99.32 336.51 79.32 332.51 77.32 324.51C75.32 316.51 81.34 190.55 77.83 167.03C74.32 143.51 34.6 153.83 31.96 154.17C29.32 154.51 23.23 153.49 23.23 153.49C23.23 153.49 43.55 132.02 44.44 131.26C45.33 130.5 39.34 115.62 40.34 104.57C41.34 93.5201 49.43 82.0701 49.43 82.0701C49.43 82.0701 68.97 56.1901 71.15 58.8501C73.33 61.5101 90.92 90.08 90.92 90.08C90.92 90.08 94.8 99.33 96.06 109.42C97.32 119.51 89.91 125.89 91.12 129.7C92.33 133.51 113.99 150.13 117.16 157.82C120.33 165.51 118.59 208.73 118.59 208.73C118.59 208.73 113.33 313 116.33 324.76C119.33 336.52 124.16 345.49 123.74 345C123.32 344.51 120.83 349.01 120.83 349.01C120.83 349.01 18.08 351.09 15.21 348.8C12.34 346.51 13.63 343.42 13.63 343.42C13.63 343.42 18.77 340.11 20.55 325.31C22.33 310.51 18.32 167.03 18.32 167.03C18.32 167.03 19.93 156.89 20.63 156.2C21.33 155.51 36.83 141.15 39.58 140.83C42.33 140.51 29.55 149.85 27.44 164.68C25.33 179.51 25.89 196.51 25.89 196.51Z" fill="#0047AF"></path><path d="M123.74 345C121.33 338.51 115.33 338 116.33 324.76C117.33 311.52 118.38 186.53 118.86 182.52C119.33 178.51 119.96 161.51 115.15 154.51C110.34 147.51 89.92 135.89 91.13 129.7C92.34 123.51 95.81 119.33 96.07 109.42C96.33 99.5098 91.98 87.0698 91.98 87.0698C91.98 87.0698 58.53 76.9098 57.43 78.7098C56.64 79.9898 58.97 85.5098 60.36 88.5698C54.88 89.0098 49.49 90.5898 44.64 93.2798C44.3 93.4698 44.17 93.7498 44.17 94.0498C43.8 94.2798 43.42 94.5098 43.06 94.7498C42.17 95.3398 42.71 96.9898 43.83 96.5798C49.13 94.6498 54.56 93.0698 60.07 91.8798C61.23 91.6298 62.48 91.3298 63.76 91.0698C64.53 91.1898 65.29 91.3498 66.06 91.5698C69.23 92.4798 72.17 94.2298 74.38 96.6998C77 99.6198 77.92 103.24 78.02 107.09C78.12 110.88 77.77 114.66 77.05 118.38C72.78 127.21 60.81 130.05 54.41 130.95C57.07 131.58 61.41 133.25 68.55 137.05C86.33 146.52 88.9 158.72 89.62 199.12C90.33 239.52 83.91 310.35 89.62 324.43C95.33 338.52 98.33 340.52 86.33 341.52C74.33 342.52 17.48 339.52 15.41 341.52C13.34 343.52 10.08 346.1 15.21 348.81C20.33 351.52 120.83 349.02 120.83 349.02C120.83 349.02 126.16 351.5 123.74 345.01V345ZM70.18 91.0698C70.82 91.1898 71.46 91.3298 72.09 91.4798C73.01 92.1898 73.78 93.0798 74.48 94.0198C73.18 92.8398 71.74 91.8398 70.18 91.0698Z" fill="#003E89"></path><path d="M50.26 131.35C50.26 131.35 51.91 131.29 54.41 130.94C50.45 129.99 50.26 131.35 50.26 131.35Z" fill="#003E89"></path><path opacity="0.35" d="M50.52 99.9999C45.33 108.51 45.77 119.9 59.05 119.21C72.33 118.52 68.54 104.49 64.44 99.9999C60.34 95.51 52.34 99.9999 52.34 99.9999H50.53H50.52Z" fill="white"></path><path opacity="0.35" d="M47.38 142.31C36.32 158.51 31.49 156.38 32.4 187.95C33.31 219.52 37.9 302.23 37.61 315.87C37.32 329.51 32.3 334.02 32.3 334.02C32.3 334.02 69.32 333.53 69.32 334.02C69.32 334.51 56.32 331.25 54.32 314.88C52.32 298.51 46.45 182.85 47.38 164.68C48.31 146.51 54.4 139.56 54.4 139.56L49.42 143.29L47.38 142.31Z" fill="white"></path><path d="M54.43 112.12C53.33 109.47 53.06 106.57 53.75 103.78C54.06 102.53 52.13 102 51.82 103.25C51.05 106.36 51.27 109.69 52.5 112.65C52.71 113.15 53.16 113.5 53.73 113.35C54.2 113.22 54.64 112.62 54.43 112.12Z" fill="white"></path><path d="M44.95 148.63C40.17 157.41 38.76 167.41 38.5 177.28C38.21 188.3 38.82 199.37 39.13 210.39L41.03 279.81C41.39 292.96 41.75 306.11 42.11 319.27C42.15 320.55 44.15 320.56 44.11 319.27C43.48 296.3 42.85 273.32 42.22 250.35C41.91 238.86 41.59 227.38 41.28 215.89C40.98 204.77 40.5 193.63 40.45 182.51C40.4 171.3 41.21 159.68 46.68 149.65C47.3 148.52 45.57 147.51 44.95 148.64V148.63Z" fill="white"></path><path d="M94.1 87.9599C94.11 87.8899 94.14 87.8299 94.13 87.7599C93.87 80.8499 92.86 73.9899 91.11 67.2999C91.02 66.9599 90.81 66.7599 90.56 66.6599C90.36 65.1199 90.18 63.5699 90.01 62.0199C90.47 61.9899 90.89 61.6899 90.9 61.0699C90.92 58.1299 90.75 55.1899 90.4 52.2799C90.33 49.4699 90.36 46.6499 90.47 43.8399C90.69 43.7299 90.87 43.5399 90.92 43.2199C91.46 39.9799 92 36.5099 90.7 33.3799C90.03 31.7599 88.61 30.3799 88.7 28.5199C88.79 26.5599 90.03 24.7799 90.95 23.1199C92.67 19.9799 93.9 16.5699 94.5 13.0299C94.74 11.5999 95.01 10.0999 94.12 8.83987C93.23 7.57987 91.55 6.90988 90.2 6.26988C84 3.30988 77.08 1.88987 70.21 2.14987C66.67 2.27987 63.16 2.85987 59.77 3.86987C56.11 4.95987 52.61 6.16988 48.82 6.74988C45.74 7.21988 42.33 8.18988 41.3 11.5199C40.49 14.1499 41.54 17.1099 43.82 18.6199C44.27 20.5399 44.8 22.4299 45.4 24.3099C45.41 24.4299 45.44 24.5599 45.5 24.6899C45.54 24.7799 45.58 24.8799 45.62 24.9699C45.78 25.4399 45.94 25.9199 46.1 26.3899C46.47 27.9499 46.39 29.5899 45.79 31.1099C45.42 32.0499 44.9 32.9299 44.6 33.8999C44.28 34.9599 44.21 36.0999 44.28 37.1899C44.41 39.2699 44.89 41.3199 45.18 43.3799C45.53 45.8299 45.78 48.2899 45.94 50.7599C46.59 60.2599 45.96 69.8299 44.08 79.1699C43.54 81.2699 43 83.3799 42.49 85.4899C41.99 87.5899 41.88 89.9099 43.69 91.4199C45.21 92.6899 47.33 92.8699 49.19 92.3999C51.51 91.8099 53.56 90.3799 55.74 89.4199C58.05 88.3999 60.46 87.6099 62.92 87.0199C67.59 85.8999 72.43 85.5499 77.21 85.9499C82.73 86.4099 88.14 87.9299 93.09 90.4299C93.79 90.7799 94.9 90.1799 94.56 89.2999C94.39 88.8699 94.25 88.4299 94.09 87.9899L94.1 87.9599Z" fill="#FFC522"></path><path d="M48.81 6.74011C42.32 11.5101 49.3 13.5101 50.81 19.0101C52.32 24.5101 55.92 22.5101 58.62 23.0101C61.32 23.5101 73.82 22.0901 73.82 22.0901C73.82 22.0901 78.9 20.4401 76.11 14.9701C73.32 9.50011 70.32 2.8901 63.82 3.7001C57.32 4.5101 84.08 2.0201 90.2 6.2601C96.32 10.5001 95.15 14.5101 92.73 19.0101C90.31 23.5101 89.39 31.0101 89.39 31.0101L91.31 35.5501C91.31 35.5501 88.88 42.7201 89.6 45.6201C90.32 48.5201 92.15 72.3001 92.73 76.4001C93.31 80.5001 95.5 91.0601 95.5 91.0601L93.09 90.3901C93.09 90.3901 77.43 84.6801 67.87 86.0901C58.31 87.5001 48.4 90.6301 48.4 90.6301C48.4 90.6301 58.43 74.8301 67.87 74.1701C77.31 73.5101 73.64 73.0101 74.48 68.2601C75.32 63.5101 74.65 64.1901 74.48 57.8501C74.31 51.5101 64.31 43.5101 58.31 44.5101C52.31 45.5101 53.29 63.9101 50.8 69.7101C48.31 75.5101 41.5 89.8301 41.5 89.8301C41.5 89.8301 45.57 63.9701 45.94 50.7401C46.31 37.5101 42.88 34.2601 44.59 33.8801C46.3 33.5001 48.39 29.9501 48.39 29.9501L41.27 11.5001L48.79 6.7301L48.81 6.74011Z" fill="#E09500"></path><path d="M79.58 49.1598C80.37 55.2498 80.89 61.3598 81.34 67.4798C81.81 73.9598 82.29 80.4398 82.76 86.9198C86.63 87.8798 90.25 89.6898 94.13 90.6098C94.46 90.6898 94.75 90.8398 95 91.0398C95.51 90.8998 95.92 90.4498 95.73 89.8398C91.29 76.2398 89.01 62.0098 88.93 47.7398C89.74 44.5398 90.55 41.3498 91.37 38.1498C91.8 36.4498 92.35 34.5998 91.82 32.8598C91.23 30.9198 89.34 29.9498 89.77 27.6998C90.15 25.6898 91.13 23.7198 91.85 21.8198C92.59 19.8598 93.42 17.9198 93.99 15.9098C94.89 12.7698 94.7 9.26977 91.73 7.31977C88.86 5.44977 85.14 5.94976 82.11 4.50976C81.63 4.27976 81.19 4.44976 80.9 4.75976C80.21 4.91976 79.69 5.78977 80.36 6.40977C82.02 7.94977 83.03 10.0498 83.2 12.3198C83.28 13.3698 83.2 14.4198 82.92 15.4298C82.59 16.6498 81.84 17.5698 81.34 18.6998C80.86 19.7798 81.18 20.5698 81.58 21.5998C82.13 22.9998 81.31 24.2498 80.57 25.3998C79.17 27.5498 78.09 29.5198 77.78 32.1198C77.47 34.7298 77.81 37.3498 78.21 39.9298C78.69 43.0098 79.18 46.0798 79.58 49.1698V49.1598Z" fill="#DD5E00"></path><path d="M64.56 6.35024C58.54 6.71024 52.61 7.88023 46.91 9.86023C45.7 10.2802 46.22 12.2102 47.44 11.7902C48.98 11.2502 50.54 10.7802 52.11 10.3602C52.1 10.4702 52.09 10.5902 52.11 10.7202C52.99 14.5702 53.62 18.4702 53.99 22.4002C54.04 22.9402 54.41 23.4002 54.99 23.4002C55.49 23.4002 56.04 22.9402 55.99 22.4002C55.61 18.2902 54.97 14.2102 54.04 10.1902C54.01 10.0702 53.96 9.99023 53.91 9.90023C57.4 9.08023 60.96 8.55023 64.55 8.34023C65.83 8.26023 65.84 6.26023 64.55 6.34023L64.56 6.35024Z" fill="white"></path><path d="M74.08 63.93C68.55 63.99 63.05 64.56 57.63 65.63C57.87 64.84 57.85 63.94 57.89 63.14C58.04 60.14 58.1 57.13 58.05 54.13C57.96 48.19 57.47 42.27 56.64 36.39C56.46 35.12 54.53 35.66 54.71 36.92C55.49 42.46 55.94 48.04 56.04 53.64C56.09 56.32 56.06 59 55.95 61.68C55.91 62.67 56.2 64.87 55.31 65.5C54.72 65.92 54.14 66.01 53.66 66.47C52.49 66.63 51.33 66.8 50.17 66.98C48.9 67.17 49.44 69.09 50.7 68.91C55.12 68.26 59.55 67.6 64.03 67.41C67.58 67.26 71.4 67.72 74.57 65.79C75.4 65.28 75.08 63.92 74.07 63.93H74.08Z" fill="white"></path><path d="M55.06 73.1299C54.47 73.1299 54.12 73.5899 54.06 74.1299C53.59 78.1499 53.03 82.1699 52.36 86.1599C52.27 86.6899 52.5 87.2399 53.06 87.3899C53.54 87.5199 54.2 87.2299 54.29 86.6899C54.98 82.5199 55.57 78.3299 56.06 74.1299C56.12 73.5899 55.56 73.1299 55.06 73.1299Z" fill="white"></path><path d="M44.79 5.5602C42.63 6.7602 40.73 8.4902 40.41 11.0602C40.13 13.3102 41.05 15.4902 41.95 17.5002C43.05 19.9602 44.1 22.4202 45.09 24.9202C45.62 26.2602 46.07 27.5902 46.19 29.0302C46.2 29.2002 46.19 29.4002 46.23 29.5602C46.44 30.3902 45.76 29.0602 46.66 29.2302C46.43 29.1902 45.85 29.8202 45.71 29.9502C45.22 30.4002 44.62 30.8502 44.16 31.3302C43.49 32.0402 43.41 33.2902 43.34 34.2102C43.25 35.5302 43.61 36.7602 44.04 37.9902C44.63 39.6502 44.84 41.2002 44.93 42.9602C45.32 50.2002 45.18 57.6502 44.44 64.8602C43.6 73.1102 42.33 81.4702 40.4 89.5302C40.31 89.9102 40.4 90.3502 40.69 90.6202C41.92 91.7502 43.42 92.1702 45.06 92.3202C46.5 92.4502 46.49 90.2002 45.06 90.0702C44.05 89.9802 43.05 89.7302 42.29 89.0302L42.58 90.1202C44.26 83.0702 45.22 75.8902 46.22 68.7202C47.22 61.5502 47.31 54.8202 47.3 47.8302C47.3 44.6302 47.48 41.1202 46.45 38.0502C46.02 36.7802 45.48 35.5702 45.59 34.2002C45.63 33.7302 45.69 33.1902 45.86 32.7402C45.83 32.8302 45.54 33.0802 45.78 32.8902C45.95 32.7502 46.15 32.6302 46.32 32.4902C46.85 32.0602 47.32 31.5602 47.85 31.1302C48.57 30.5402 48.5 29.8902 48.43 29.0202C48.21 26.1802 46.95 23.7202 45.95 21.1002C45.01 18.6302 43.61 16.3002 42.89 13.7402C42.06 10.8102 43.33 8.92021 45.91 7.49021C47.17 6.78021 46.04 4.84021 44.77 5.55021L44.79 5.5602Z" fill="black"></path><path d="M43.84 90.9099C40.04 97.4099 39.12 105.29 40.13 112.66C40.65 116.43 41.44 120.12 42.76 123.69C43.27 125.06 43.87 126.51 43.9 127.99C43.92 129.24 43.41 130.39 42.76 131.43C39.8 136.18 34.51 139.24 30.55 143.08C25.81 147.68 20.1 152.65 18.12 159.19C17.18 162.3 17.16 165.66 17.19 168.87C17.22 172.32 17.18 175.75 17.13 179.2C17.01 187.72 17.1 196.23 17.23 204.75C17.47 221.57 17.89 238.38 18.33 255.19C18.56 263.77 18.79 272.35 19.01 280.93C19.2 288.63 19.6 296.3 19.95 303.99C20.3 311.68 20.5 319.53 19.2 327.16C18.58 330.82 17.55 334.05 15.68 337.27C14.33 339.59 12.63 341.95 12.06 344.63C11.73 346.18 11.91 347.77 13.14 348.88C14.37 349.99 16.24 350.35 17.86 350.58C22.72 351.28 27.71 351.42 32.61 351.6C43.58 352 54.56 351.93 65.53 351.74C83.32 351.44 101.09 350.42 118.87 350.13C119.52 350.12 120.18 350.11 120.83 350.13C122.28 350.19 122.28 347.94 120.83 347.88C115.56 347.67 110.21 348.14 104.94 348.33C94.95 348.7 84.95 349.04 74.95 349.29C63.78 349.56 52.6 349.72 41.43 349.56C36.46 349.49 31.49 349.35 26.52 349.06C24.09 348.92 21.66 348.77 19.25 348.5C17.86 348.35 15.69 348.24 14.61 347.18C13.6 346.19 14.39 344.4 14.86 343.33C16.2 340.27 18.28 337.62 19.59 334.53C20.9 331.44 21.44 327.76 21.86 324.34C22.3 320.69 22.45 317.01 22.45 313.33C22.45 305.77 21.83 298.24 21.53 290.7C21.2 282.56 21.1 274.4 20.88 266.25C20.44 249.52 19.98 232.79 19.67 216.05C19.52 207.85 19.39 199.65 19.35 191.45C19.31 183.79 19.5 176.12 19.45 168.46C19.43 165.35 19.44 162.05 20.53 159.09C21.72 155.87 24.02 153 26.31 150.5C28.6 148 31.13 145.52 33.66 143.2C35.6 141.42 37.72 139.84 39.7 138.1C41.68 136.36 43.73 134.39 45.03 132.03C46.44 129.47 46.3 126.99 45.37 124.27C44.89 122.86 44.27 121.48 43.87 120.04C43.32 118.08 42.96 116.03 42.61 114.02C41.95 110.25 41.82 106.38 42.3 102.57C42.78 98.7599 43.9 95.2699 45.79 92.0399C46.52 90.7899 44.58 89.6499 43.85 90.8999L43.84 90.9099Z" fill="black"></path><path d="M49.8 92.1201C58.83 86.8601 69.41 87.9101 79.43 87.9201C80.4 87.9201 80.4 86.4201 79.43 86.4201C69.12 86.4001 58.32 85.4201 49.04 90.8201C48.21 91.3101 48.96 92.6001 49.8 92.1201Z" fill="black"></path><path d="M50.45 33.2601C59.73 31.8801 69.13 32.1701 78.47 32.1801C79.44 32.1801 79.44 30.6801 78.47 30.6801C68.98 30.6801 59.47 30.4101 50.05 31.8101C49.1 31.9501 49.5 33.4001 50.45 33.2601Z" fill="black"></path><path d="M91.06 7.49989C93.34 8.76989 94.83 10.4899 94.22 13.1899C93.71 15.4499 92.51 17.5099 91.61 19.6299C90.57 22.0799 89.28 24.6899 88.75 27.2999C88.58 28.1599 88.3 29.3999 88.52 30.2799C88.67 30.8899 89.13 31.0799 89.57 31.4399C89.93 31.7399 90.21 32.1299 90.57 32.4299C90.73 32.5599 90.89 32.7099 91.07 32.8099C91.33 32.9599 91.22 33.0599 91.1 32.7699C91.47 33.6699 91.45 35.0399 91.18 36.0699C90.84 37.3499 90.26 38.5399 90.04 39.8599C89.76 41.5899 89.73 43.3899 89.69 45.1399C89.52 52.2399 89.58 59.4599 90.44 66.5199C91.4 74.4199 92.52 82.3799 94.37 90.1299L94.66 89.0399C93.9 89.7399 92.9 89.9899 91.89 90.0799C90.46 90.2099 90.45 92.4599 91.89 92.3299C93.52 92.1799 95.02 91.7699 96.26 90.6299C96.56 90.3499 96.64 89.9199 96.55 89.5399C93.12 75.1899 91.67 60.3699 91.93 45.6399C91.96 43.9599 91.97 42.2399 92.2 40.5699C92.41 39.0999 93.11 37.7799 93.43 36.3399C93.71 35.0899 93.67 33.7799 93.37 32.5299C93.17 31.7199 92.83 31.3799 92.21 30.8799C91.84 30.5799 90.91 29.2499 90.39 29.2899C90.14 29.3099 90.51 30.0199 90.73 29.7499C90.77 29.7099 90.76 29.3999 90.76 29.3299C90.82 28.4599 90.95 27.6499 91.2 26.8099C91.99 24.2099 93.14 21.5999 94.27 19.1299C95.31 16.8599 96.62 14.4299 96.61 11.8599C96.61 8.92989 94.59 6.90988 92.18 5.55988C90.91 4.84988 89.78 6.79989 91.04 7.49989H91.06Z" fill="black"></path><path d="M91.21 92.0399C93.47 95.9099 94.62 100.26 94.9 104.72C95.2 109.46 94.46 113.99 93.46 118.61C92.71 122.11 90.29 125.67 90.96 129.35C91.51 132.35 93.84 134.85 95.97 136.88C98.35 139.14 101.02 141.06 103.43 143.29C106.33 145.97 109.24 148.75 111.8 151.76C114.36 154.77 116.67 158.3 117.25 162.36C117.79 166.13 117.44 169.96 117.5 173.75C117.81 193.72 117.42 213.68 116.95 233.65C116.72 243.63 116.45 253.6 116.18 263.58C115.91 273.56 115.83 282.98 115.37 292.67C114.95 301.6 114.18 310.55 114.7 319.49C114.94 323.71 115.42 328 116.53 332.09C117.64 336.18 120.21 339.39 121.94 343.06C122.8 344.87 122.94 346.51 121.2 347.84C120.06 348.71 121.18 350.66 122.34 349.78C123.74 348.71 124.82 347.4 124.87 345.56C124.91 343.85 124.08 342.23 123.29 340.76C122.3 338.93 121.26 337.12 120.28 335.27C119.2 333.23 118.57 331.18 118.11 328.93C116.3 320.01 116.67 310.77 117.14 301.74C118.16 282.04 118.48 262.31 118.98 242.6C119.48 222.89 120.07 201.86 119.88 181.49C119.84 177.15 119.77 172.81 119.8 168.46C119.82 164.69 119.73 160.72 118.12 157.24C116.36 153.45 113.59 150.18 110.69 147.22C108.11 144.59 105.48 141.98 102.64 139.64C100 137.46 97.2 135.31 95.07 132.61C94.17 131.47 93.3 130.11 93.12 128.63C92.89 126.75 93.81 124.8 94.45 123.09C96.03 118.88 96.91 114.15 97.16 109.66C97.41 105.17 97.03 100.94 95.76 96.8199C95.12 94.7499 94.24 92.7699 93.15 90.8999C92.42 89.6499 90.47 90.7799 91.21 92.0399Z" fill="black"></path><path d="M93.95 90.8302C84.25 85.1602 72.87 86.4202 62.1 86.4302C61.13 86.4302 61.13 87.9302 62.1 87.9302C72.58 87.9202 83.76 86.6102 93.19 92.1302C94.02 92.6202 94.78 91.3202 93.95 90.8302Z" fill="black"></path><path d="M92.94 31.8198C83.52 30.4198 74.01 30.6798 64.52 30.6898C63.55 30.6898 63.55 32.1898 64.52 32.1898C73.87 32.1898 83.27 31.8898 92.54 33.2698C93.48 33.4098 93.89 31.9698 92.94 31.8198Z" fill="black"></path><path d="M51.5 7.73997C52.19 6.75997 53.8 6.38997 54.88 6.05997C55.87 5.75997 56.86 5.44997 57.87 5.21997C60.19 4.69997 62.56 4.26997 64.91 3.87997C68.86 3.22997 73.09 3.76997 77.03 4.27997C79.7 4.61997 82.23 5.18996 84.82 5.92996C87.05 6.56996 89.26 7.24997 91.47 7.97997C92.85 8.42997 93.44 6.25997 92.07 5.80997C87.42 4.27997 82.74 2.78997 77.88 2.13997C73.64 1.56997 69.2 1.02997 64.93 1.61997C62.35 1.97997 59.71 2.48998 57.17 3.06998C54.63 3.64998 51.15 4.35998 49.57 6.59998C48.73 7.78998 50.68 8.90997 51.51 7.73997H51.5Z" fill="black"></path><path d="M53.12 70.3598C54.13 69.6098 55.47 69.4398 56.66 69.1598C58.17 68.8098 59.66 68.4998 61.21 68.3298C64.57 67.9698 67.98 67.5598 71.36 67.5598C74.74 67.5598 77.99 67.5998 81.25 68.1298C84.51 68.6598 87.7 68.6098 90.91 69.0498C91.85 69.1798 92.26 67.7298 91.31 67.5998C87.88 67.1398 84.42 67.1198 81 66.5798C77.58 66.0398 74.25 66.0298 70.9 66.0698C67.37 66.1098 63.78 66.4998 60.28 66.9498C58.81 67.1398 57.39 67.4598 55.95 67.7898C54.73 68.0598 53.39 68.3098 52.36 69.0698C51.59 69.6398 52.34 70.9398 53.12 70.3698V70.3598Z" fill="black"></path><path d="M67.77 269.61C40.01 269.61 17.56 247.08 17.56 219.21C17.56 191.29 40.12 168.82 68.1 168.86C95.88 168.9 118.31 191.43 118.3 219.28C118.29 247.25 95.84 269.61 67.78 269.61H67.77ZM67.77 267.04C94.32 267.07 115.65 245.89 115.73 219.42C115.81 192.93 94.53 171.48 68.12 171.43C41.63 171.38 20.21 192.65 20.14 219.07C20.07 245.56 41.36 267.01 67.77 267.04Z" fill="black"></path><path d="M67.77 267.04C41.36 267.01 20.07 245.56 20.14 219.07C20.21 192.64 41.63 171.37 68.12 171.43C94.54 171.48 115.81 192.93 115.73 219.42C115.65 245.89 94.32 267.07 67.77 267.04ZM64.91 226.85C69.1 232.33 73 237.48 76.97 242.59C77.57 243.36 78.44 244.47 79.21 244.49C84.6 244.66 90 244.58 95.9 244.58C95.15 243.45 94.73 242.73 94.22 242.07C88.03 233.97 81.89 225.83 75.6 217.82C74.19 216.03 73.94 214.93 75.63 213.09C80.65 207.62 85.44 201.93 90.3 196.32C90.87 195.67 91.35 194.95 91.86 194.27C86.11 192.72 81.96 194.39 79.03 199.18C78.36 200.27 77.35 201.15 76.5 202.12C74.31 204.64 72.11 207.15 69.77 209.85C69 208.94 68.43 208.32 67.92 207.65C64.82 203.61 61.75 199.53 58.6 195.53C58.06 194.84 57.18 193.99 56.44 193.97C51.13 193.84 45.81 193.9 39.95 193.9C40.71 195.03 41.13 195.73 41.63 196.38C47.55 204.14 53.43 211.93 59.44 219.62C60.59 221.09 60.5 221.95 59.28 223.31C53.65 229.63 48.14 236.05 42.59 242.45C42.12 243 41.73 243.62 41.01 244.6C42.85 244.6 44.22 244.46 45.56 244.63C48.3 244.97 50.18 244 51.95 241.81C56.02 236.79 60.4 232.01 64.9 226.85H64.91Z" fill="white"></path><path d="M64.91 226.85C60.41 232.01 56.03 236.79 51.96 241.81C50.19 244 48.31 244.97 45.57 244.63C44.24 244.46 42.87 244.6 41.02 244.6C41.74 243.61 42.12 242.99 42.6 242.45C48.14 236.05 53.66 229.63 59.29 223.31C60.5 221.95 60.59 221.09 59.45 219.62C53.45 211.92 47.56 204.14 41.64 196.38C41.15 195.73 40.72 195.03 39.96 193.9C45.82 193.9 51.13 193.84 56.45 193.97C57.19 193.99 58.07 194.84 58.61 195.53C61.76 199.54 64.82 203.61 67.93 207.65C68.44 208.31 69.01 208.93 69.78 209.85C72.12 207.16 74.32 204.64 76.51 202.12C77.36 201.14 78.37 200.27 79.04 199.18C81.97 194.39 86.12 192.72 91.87 194.27C91.36 194.95 90.87 195.67 90.31 196.32C85.45 201.93 80.66 207.62 75.64 213.09C73.96 214.92 74.21 216.03 75.61 217.82C81.9 225.84 88.05 233.97 94.23 242.07C94.73 242.73 95.15 243.45 95.91 244.58C90.01 244.58 84.61 244.66 79.22 244.49C78.45 244.47 77.59 243.36 76.98 242.59C73.01 237.48 69.11 232.33 64.92 226.85H64.91ZM85.72 239.23C84.72 237.9 83.91 236.81 83.09 235.73C74.32 224.26 65.47 212.86 56.85 201.28C54.99 198.78 53.03 198.67 50.18 199.18C50.84 200.11 51.31 200.81 51.82 201.47C60.79 213.22 69.85 224.9 78.68 236.75C80.51 239.2 82.39 240.07 85.72 239.23Z" fill="black"></path><path d="M85.72 239.23C82.39 240.08 80.5 239.21 78.68 236.75C69.85 224.9 60.79 213.21 51.82 201.47C51.31 200.81 50.85 200.11 50.18 199.18C53.03 198.67 54.99 198.78 56.85 201.28C65.46 212.86 74.32 224.26 83.09 235.73C83.91 236.81 84.72 237.89 85.72 239.23Z" fill="white"></path></svg> 